<svg width="275" height="268" viewBox="0 0 275 268" fill="none" xmlns="http://www.w3.org/2000/svg">
<path d="M138.061 263.615C210.549 263.615 269.313 228.973 269.313 186.239C269.313 143.504 210.549 108.862 138.061 108.862C65.5721 108.862 6.80859 143.504 6.80859 186.239C6.80859 228.973 65.5721 263.615 138.061 263.615Z" fill="#F5F5F5"/>
<path d="M161.701 119.834C155.057 123.586 155.057 129.637 161.701 133.378C168.345 137.12 179.125 137.13 185.774 133.378C192.424 129.626 192.424 123.575 185.774 119.834C179.125 116.092 168.361 116.092 161.701 119.834Z" fill="#E0E0E0"/>
<path d="M56.3755 191.186L16.5885 169.006C16.494 168.963 16.4141 168.894 16.3581 168.808C16.3022 168.722 16.2725 168.623 16.2725 168.521C16.2725 168.419 16.3022 168.32 16.3581 168.234C16.4141 168.148 16.494 168.079 16.5885 168.036L125.219 106.932C125.487 106.8 125.782 106.731 126.082 106.731C126.383 106.731 126.678 106.8 126.946 106.932L166.733 129.112C166.827 129.155 166.907 129.224 166.963 129.309C167.019 129.395 167.049 129.495 167.049 129.597C167.049 129.698 167.019 129.798 166.963 129.884C166.907 129.97 166.827 130.039 166.733 130.082L58.1025 191.186C57.8349 191.318 57.5391 191.387 57.239 191.387C56.9389 191.387 56.6431 191.318 56.3755 191.186Z" fill="#E0E0E0"/>
<path d="M87.6481 225.066C93.0246 225.066 97.3831 222.614 97.3831 219.589C97.3831 216.563 93.0246 214.111 87.6481 214.111C82.2716 214.111 77.9131 216.563 77.9131 219.589C77.9131 222.614 82.2716 225.066 87.6481 225.066Z" fill="#E0E0E0"/>
<path d="M260.299 194.059L156.586 252.354L103.929 222.89L207.642 164.595L260.299 194.059Z" fill="#E0E0E0"/>
<path d="M26.6086 156.399C26.6086 156.399 26.8561 148.45 24.8706 142.956C22.8851 137.462 19.0076 133.496 15.0531 132.236C11.0986 130.977 6.97915 133.844 10.6861 137.334C14.3931 140.823 21.4496 145.111 22.7201 155.193L26.6086 156.399Z" fill="#4957CC"/>
<g opacity="0.15">
<path d="M26.6086 156.399C26.6086 156.399 26.8561 148.45 24.8706 142.956C22.8851 137.462 19.0076 133.496 15.0531 132.236C11.0986 130.977 6.97915 133.844 10.6861 137.334C14.3931 140.823 21.4496 145.111 22.7201 155.193L26.6086 156.399Z" fill="black"/>
</g>
<path d="M25.0086 152.905H25.0526C25.1106 152.895 25.1626 152.864 25.1975 152.818C25.2325 152.772 25.2476 152.715 25.2396 152.658C23.4576 141.504 16.3956 135.372 12.9141 133.7C12.8616 133.674 12.8008 133.67 12.7451 133.688C12.6894 133.706 12.6434 133.745 12.6171 133.796C12.5909 133.847 12.5865 133.907 12.6051 133.961C12.6237 134.015 12.6636 134.06 12.7161 134.086C16.1316 135.72 23.0451 141.729 24.8161 152.722C24.8222 152.77 24.8445 152.813 24.8795 152.846C24.9145 152.88 24.9601 152.9 25.0086 152.905Z" fill="white"/>
<path d="M8.75586 145.91C8.79986 146.757 9.46536 147.437 10.1089 148.016C10.7524 148.595 11.4454 149.217 11.5829 150.053C11.8689 151.742 9.75136 153.189 10.1089 154.877C10.4664 156.566 12.6114 157.075 14.0084 157.643C14.9441 157.949 15.7186 158.602 16.1644 159.46C16.3821 160.227 16.4327 161.031 16.3129 161.818C16.2579 163.266 16.5164 165.415 17.7374 166.406C19.1509 167.559 21.5489 168.191 23.2374 167.403C26.4054 165.924 29.6229 163.571 29.9254 159.873C30.0077 158.786 29.8384 157.696 29.43 156.682C29.0216 155.668 28.3845 154.756 27.5659 154.014C26.9389 153.451 26.2184 153.001 25.6244 152.406C24.4089 151.2 24.6124 149.549 24.2384 148C23.9029 146.617 22.5279 145.947 21.1859 145.685C19.8439 145.422 18.5019 145.685 17.2919 145.149C16.0819 144.613 15.0919 143.905 13.8214 143.541C13.1681 143.319 12.4718 143.245 11.7848 143.324C11.0978 143.402 10.4382 143.633 9.85586 143.996C9.52652 144.204 9.25416 144.487 9.06246 144.82C8.87076 145.154 8.76551 145.528 8.75586 145.91Z" fill="#4957CC"/>
<path d="M24.0128 163.416C24.0386 163.419 24.0647 163.416 24.0895 163.409C24.1144 163.402 24.1375 163.39 24.1575 163.374C24.1776 163.358 24.1941 163.338 24.2061 163.316C24.2181 163.294 24.2253 163.269 24.2273 163.244C25.5033 151.291 14.3823 145.368 11.5773 144.543C11.5528 144.536 11.527 144.533 11.5014 144.536C11.4759 144.538 11.4511 144.546 11.4285 144.558C11.406 144.57 11.3861 144.586 11.3701 144.605C11.3541 144.625 11.3423 144.648 11.3353 144.672C11.3197 144.72 11.3242 144.772 11.3479 144.817C11.3715 144.863 11.4125 144.897 11.4618 144.913C14.2118 145.717 25.1018 151.511 23.8588 163.206C23.8523 163.254 23.8646 163.302 23.8933 163.341C23.9219 163.38 23.9647 163.406 24.0128 163.416Z" fill="white"/>
<path d="M13.1285 153.076C13.1658 153.089 13.2067 153.089 13.244 153.076C14.6834 152.56 16.222 152.36 17.75 152.491C19.2779 152.621 20.7573 153.079 22.0825 153.832C22.1278 153.857 22.1815 153.864 22.2319 153.851C22.2824 153.838 22.3256 153.806 22.352 153.762C22.3646 153.74 22.3727 153.716 22.3757 153.691C22.3787 153.665 22.3765 153.64 22.3694 153.615C22.3622 153.591 22.3502 153.568 22.334 153.548C22.3178 153.529 22.2977 153.512 22.275 153.5C20.8968 152.718 19.3584 152.242 17.7696 152.106C16.1808 151.971 14.5809 152.18 13.0845 152.717C13.0455 152.733 13.0128 152.76 12.9914 152.796C12.9701 152.831 12.9612 152.872 12.9662 152.913C12.9712 152.954 12.9898 152.992 13.0191 153.021C13.0484 153.051 13.0868 153.07 13.1285 153.076Z" fill="white"/>
<path d="M160.666 106.927C160.674 106.846 160.703 106.769 160.752 106.703C160.8 106.637 160.865 106.585 160.941 106.551C161.147 106.451 161.373 106.399 161.604 106.399C161.834 106.399 162.061 106.451 162.266 106.551C162.342 106.585 162.407 106.637 162.455 106.703C162.504 106.769 162.533 106.846 162.541 106.927L159.203 126.126C159.196 126.181 159.175 126.234 159.141 126.279C159.107 126.324 159.062 126.36 159.01 126.383C158.865 126.455 158.705 126.492 158.543 126.492C158.38 126.492 158.22 126.455 158.075 126.383C158.023 126.36 157.978 126.324 157.945 126.279C157.911 126.234 157.89 126.181 157.883 126.126L160.666 106.927Z" fill="#455A64"/>
<path d="M186.401 106.927C186.394 106.846 186.365 106.768 186.316 106.702C186.268 106.636 186.202 106.584 186.126 106.551C185.92 106.451 185.693 106.399 185.463 106.399C185.233 106.399 185.006 106.451 184.8 106.551C184.725 106.585 184.66 106.637 184.611 106.703C184.563 106.769 184.533 106.846 184.525 106.927L187.864 126.126C187.872 126.181 187.893 126.233 187.927 126.278C187.961 126.323 188.005 126.359 188.056 126.383C188.202 126.455 188.363 126.492 188.527 126.492C188.69 126.492 188.851 126.455 188.997 126.383C189.048 126.359 189.093 126.323 189.126 126.278C189.16 126.233 189.181 126.181 189.189 126.126L186.401 106.927Z" fill="#455A64"/>
<path d="M174.586 108.379C174.578 108.3 174.548 108.223 174.5 108.158C174.452 108.093 174.387 108.042 174.311 108.009C174.106 107.906 173.879 107.853 173.649 107.853C173.418 107.853 173.191 107.906 172.986 108.009C172.911 108.042 172.846 108.093 172.797 108.158C172.749 108.223 172.719 108.3 172.711 108.379L172.986 131.218C172.992 131.274 173.013 131.327 173.047 131.372C173.081 131.417 173.126 131.453 173.178 131.476C173.324 131.549 173.485 131.588 173.649 131.588C173.812 131.588 173.974 131.549 174.119 131.476C174.171 131.453 174.216 131.417 174.25 131.372C174.284 131.327 174.305 131.274 174.311 131.218L174.586 108.379Z" fill="#455A64"/>
<path d="M190.443 100.602C190.443 98.1844 188.793 95.7778 185.537 93.9179C178.976 90.2302 168.344 90.2302 161.783 93.9179C158.483 95.7671 156.877 98.2059 156.877 100.602V101.899C156.915 104.289 158.56 106.669 161.794 108.486C168.355 112.179 178.987 112.179 185.548 108.486C188.788 106.669 190.427 104.289 190.465 101.899L190.443 100.602Z" fill="#4957CC"/>
<path d="M161.772 93.918C155.21 97.611 155.21 103.593 161.772 107.286C168.333 110.979 178.965 110.973 185.526 107.286C192.088 103.598 192.088 97.6378 185.526 93.918C178.965 90.1981 168.333 90.2303 161.772 93.918Z" fill="#4957CC"/>
<path opacity="0.45" d="M161.772 93.918C155.21 97.611 155.21 103.593 161.772 107.286C168.333 110.979 178.965 110.973 185.526 107.286C192.088 103.598 192.088 97.6378 185.526 93.918C178.965 90.1981 168.333 90.2303 161.772 93.918Z" fill="white"/>
<g opacity="0.05">
<path d="M177.326 97.4769C179.421 98.6561 179.421 100.564 177.326 101.765C176.152 102.344 174.855 102.645 173.539 102.645C172.223 102.645 170.926 102.344 169.752 101.765C167.657 100.586 167.657 98.6775 169.752 97.4769C170.926 96.898 172.223 96.5964 173.539 96.5964C174.855 96.5964 176.152 96.898 177.326 97.4769Z" fill="black"/>
</g>
<path d="M170.209 99.8728C168.383 98.0611 167.316 93.5373 169.109 92.1008H178.151C179.928 93.5373 178.861 98.0611 177.051 99.8728L177.002 99.9211L176.936 99.98L176.771 100.125L176.727 100.157L176.589 100.259C176.515 100.311 176.437 100.359 176.358 100.403C175.517 100.821 174.587 101.039 173.644 101.039C172.7 101.039 171.77 100.821 170.93 100.403C170.847 100.361 170.77 100.312 170.688 100.259L170.561 100.162L170.506 100.125L170.352 99.9854L170.275 99.9157L170.209 99.8728Z" fill="#EBEBEB"/>
<path d="M177.348 91.522C179.416 92.6798 179.416 94.5665 177.348 95.7243C176.191 96.2968 174.911 96.5951 173.613 96.5951C172.316 96.5951 171.036 96.2968 169.879 95.7243C167.816 94.5665 167.816 92.6798 169.879 91.522C171.036 90.9495 172.316 90.6511 173.613 90.6511C174.911 90.6511 176.191 90.9495 177.348 91.522Z" fill="#FAFAFA"/>
<path d="M175.885 92.3419C177.144 93.0494 177.144 94.1965 175.885 94.904C175.18 95.2503 174.402 95.4307 173.613 95.4307C172.824 95.4307 172.046 95.2503 171.342 94.904C170.088 94.1965 170.088 93.0494 171.342 92.3419C172.046 91.9956 172.824 91.8152 173.613 91.8152C174.402 91.8152 175.18 91.9956 175.885 92.3419Z" fill="#EBEBEB"/>
<path d="M171.341 93.5587C172.045 93.2099 172.823 93.0281 173.613 93.0281C174.402 93.0281 175.181 93.2099 175.884 93.5587C176.188 93.7185 176.447 93.9486 176.638 94.2287C176.449 94.5118 176.19 94.744 175.884 94.9041C175.18 95.2504 174.402 95.4308 173.613 95.4308C172.824 95.4308 172.046 95.2504 171.341 94.9041C171.036 94.744 170.777 94.5118 170.588 94.2287C170.779 93.9486 171.038 93.7185 171.341 93.5587Z" fill="#E0E0E0"/>
<path d="M175.61 94.2287C176.256 93.5894 176.811 92.8683 177.26 92.0847C178.019 90.7769 178.162 89.0242 177.766 88.8044C177.37 88.5847 175.775 90.3374 175.775 90.3374C175.922 89.6015 175.979 88.8512 175.945 88.1023C175.879 86.9391 175.588 85.8779 175.241 85.6688C174.895 85.4598 174.141 86.9231 173.806 87.9897C173.47 89.0563 173.283 89.93 173.283 89.93C173.151 89.1002 172.954 88.2813 172.695 87.4805C172.293 86.371 171.93 86.1244 171.65 86.2316C171.369 86.3388 171.188 86.8587 171.1 88.3274C171.068 89.0319 171.09 89.7378 171.166 90.4392C171.166 90.4392 170.616 89.8335 169.978 89.2493C169.34 88.6651 168.999 88.515 168.801 88.6383C168.603 88.7615 168.548 89.7639 169.615 91.6399C170.142 92.5941 170.82 93.4622 171.622 94.2127C171.622 94.2127 173.096 95.156 175.61 94.2287Z" fill="#4957CC"/>
<path opacity="0.3" d="M175.61 94.2287C176.256 93.5894 176.811 92.8683 177.26 92.0847C178.019 90.7769 178.162 89.0242 177.766 88.8044C177.37 88.5847 175.775 90.3374 175.775 90.3374C175.922 89.6015 175.979 88.8512 175.945 88.1023C175.879 86.9391 175.588 85.8779 175.241 85.6688C174.895 85.4598 174.141 86.9231 173.806 87.9897C173.47 89.0563 173.283 89.93 173.283 89.93C173.151 89.1002 172.954 88.2813 172.695 87.4805C172.293 86.371 171.93 86.1244 171.65 86.2316C171.369 86.3388 171.188 86.8587 171.1 88.3274C171.068 89.0319 171.09 89.7378 171.166 90.4392C171.166 90.4392 170.616 89.8335 169.978 89.2493C169.34 88.6651 168.999 88.515 168.801 88.6383C168.603 88.7615 168.548 89.7639 169.615 91.6399C170.142 92.5941 170.82 93.4622 171.622 94.2127C171.622 94.2127 173.096 95.156 175.61 94.2287Z" fill="black"/>
<path d="M174.597 68.0239C174.41 67.8995 174.192 67.8276 173.966 67.8163C173.74 67.8049 173.515 67.8545 173.316 67.9596C172.062 68.4956 170.868 70.3394 170.654 72.1082C170.527 73.1802 170.775 73.936 171.259 74.2844L172.518 75.1956C172.705 75.3175 172.923 75.3875 173.148 75.3979C173.373 75.4083 173.596 75.3587 173.794 75.2545C175.048 74.7185 176.242 72.8747 176.456 71.1059C176.583 70.066 176.341 69.2888 175.862 68.9619C175.648 68.7796 174.812 68.1793 174.597 68.0239Z" fill="#4957CC"/>
<path opacity="0.3" d="M174.597 68.0239C174.41 67.8995 174.192 67.8276 173.966 67.8163C173.74 67.8049 173.515 67.8545 173.316 67.9596C172.062 68.4956 170.868 70.3394 170.654 72.1082C170.527 73.1802 170.775 73.936 171.259 74.2844L172.518 75.1956C172.705 75.3175 172.923 75.3875 173.148 75.3979C173.373 75.4083 173.596 75.3587 173.794 75.2545C175.048 74.7185 176.242 72.8747 176.456 71.1059C176.583 70.066 176.341 69.2888 175.862 68.9619C175.648 68.7796 174.812 68.1793 174.597 68.0239Z" fill="black"/>
<path d="M176.803 61.9564C175.764 61.2114 174.383 61.0881 172.783 61.7581C170.033 62.8998 167.877 65.5691 166.287 69.2353C165.963 69.9804 165.99 70.7254 166.348 71.0041C166.766 71.3311 167.486 71.8028 167.838 72.0761C168.284 72.4245 169.07 71.8992 169.488 70.9612C170.588 68.3616 172.002 66.6196 173.927 65.8156C174.548 65.5274 175.249 65.4446 175.923 65.5798C176.139 65.912 176.304 66.2731 176.413 66.6518C176.447 66.793 176.528 66.9193 176.644 67.0109L178.145 68.0829C178.464 68.308 178.992 68.0829 179.432 67.5094C179.655 67.2279 179.816 66.9046 179.905 66.5597C179.994 66.2147 180.009 65.8556 179.949 65.5048C179.695 64.5354 179.128 63.6712 178.332 63.0392L176.803 61.9564Z" fill="#4957CC"/>
<path opacity="0.3" d="M176.803 61.9564C175.764 61.2114 174.383 61.0881 172.783 61.7581C170.033 62.8998 167.877 65.5691 166.287 69.2353C165.963 69.9804 165.99 70.7254 166.348 71.0041C166.766 71.3311 167.486 71.8028 167.838 72.0761C168.284 72.4245 169.07 71.8992 169.488 70.9612C170.588 68.3616 172.002 66.6196 173.927 65.8156C174.548 65.5274 175.249 65.4446 175.923 65.5798C176.139 65.912 176.304 66.2731 176.413 66.6518C176.447 66.793 176.528 66.9193 176.644 67.0109L178.145 68.0829C178.464 68.308 178.992 68.0829 179.432 67.5094C179.655 67.2279 179.816 66.9046 179.905 66.5597C179.994 66.2147 180.009 65.8556 179.949 65.5048C179.695 64.5354 179.128 63.6712 178.332 63.0392L176.803 61.9564Z" fill="black"/>
<path d="M182.171 60.1286C181.714 58.9157 180.92 57.8504 179.878 57.052C179.619 56.8644 178.607 56.13 178.354 55.98C176.704 54.7686 174.46 54.5703 171.892 55.6423C167.833 57.3414 164.549 60.6807 161.953 66.0246C161.574 66.8125 161.552 67.6326 161.953 67.9488C162.388 68.2919 163.053 68.7207 163.444 69.0208C163.873 69.3639 164.615 68.8761 165.044 67.9864C167.151 63.6126 169.714 61.0934 173.036 59.6998C174.752 58.9869 176.275 58.9655 177.524 59.5229C178.032 60.0867 178.433 60.7348 178.706 61.4364C178.75 61.5526 178.826 61.6547 178.926 61.7312L180.422 62.8032C180.747 63.0391 181.264 62.8408 181.709 62.2672C181.948 61.9684 182.113 61.6205 182.193 61.2499C182.274 60.8793 182.266 60.4959 182.171 60.1286Z" fill="#4957CC"/>
<path opacity="0.3" d="M182.171 60.1286C181.714 58.9157 180.92 57.8504 179.878 57.052C179.619 56.8644 178.607 56.13 178.354 55.98C176.704 54.7686 174.46 54.5703 171.892 55.6423C167.833 57.3414 164.549 60.6807 161.953 66.0246C161.574 66.8125 161.552 67.6326 161.953 67.9488C162.388 68.2919 163.053 68.7207 163.444 69.0208C163.873 69.3639 164.615 68.8761 165.044 67.9864C167.151 63.6126 169.714 61.0934 173.036 59.6998C174.752 58.9869 176.275 58.9655 177.524 59.5229C178.032 60.0867 178.433 60.7348 178.706 61.4364C178.75 61.5526 178.826 61.6547 178.926 61.7312L180.422 62.8032C180.747 63.0391 181.264 62.8408 181.709 62.2672C181.948 61.9684 182.113 61.6205 182.193 61.2499C182.274 60.8793 182.266 60.4959 182.171 60.1286Z" fill="black"/>
<path d="M176.457 71.106C176.242 72.8748 175.049 74.7293 173.795 75.2546C172.541 75.7799 171.694 74.7776 171.908 73.0141C172.123 71.2507 173.316 69.3907 174.57 68.8655C175.824 68.3402 176.671 69.3425 176.457 71.106Z" fill="#4957CC"/>
<path d="M174.278 62.8354C171.528 63.9824 169.367 66.6517 167.783 70.3394C167.458 71.0844 167.486 71.8294 167.838 72.1082C168.283 72.4566 169.07 71.9313 169.488 70.9933C170.588 68.3937 172.001 66.6517 173.926 65.8477C175.851 65.0437 177.342 65.8477 177.908 67.7505C178.112 68.4419 178.849 68.3294 179.432 67.5468C179.655 67.2653 179.816 66.942 179.905 66.5971C179.994 66.2521 180.009 65.893 179.949 65.5422C179.124 62.8514 177.012 61.6937 174.278 62.8354Z" fill="#4957CC"/>
<path d="M173.388 56.6927C169.323 58.3972 166.04 61.7311 163.449 67.0804C163.064 67.863 163.048 68.6884 163.449 68.9993C163.878 69.3423 164.621 68.8546 165.05 67.9648C167.156 63.5911 169.719 61.0719 173.041 59.6783C176.363 58.2847 178.992 59.5067 180.191 62.4923C180.439 63.1033 181.132 62.9907 181.698 62.2296C181.934 61.9354 182.099 61.5934 182.181 61.2288C182.262 60.8642 182.259 60.4864 182.171 60.1231C180.681 56.4891 177.463 54.9936 173.388 56.6927Z" fill="#4957CC"/>
<path d="M126.528 110.293L128.799 109.017L141.169 45.9512C141.581 43.8447 140.377 43.0032 138.468 44.0752L39.1492 99.8889C37.0553 101.221 35.5561 103.275 34.9527 105.64L22.8197 167.505C22.7489 167.855 22.7907 168.217 22.9394 168.542C23.0881 168.867 23.3364 169.14 23.6502 169.322L51.4857 185.022L155.37 126.598L126.528 110.293Z" fill="#455A64"/>
<path d="M36.1957 106.417L24.0957 168.165L130.246 108.835L142.417 46.723C142.83 44.6219 141.62 43.7804 139.717 44.8524L40.3977 100.666C38.3017 101.997 36.8004 104.052 36.1957 106.417Z" fill="#263238"/>
<path d="M127.964 109.714L24.0742 168.164L52.3002 184.051L156.184 125.601L127.964 109.714Z" fill="#37474F"/>
<path d="M141.4 46.0583L41.2997 102.274C39.0997 103.507 38.4177 105.49 38.8082 108.138L49.6762 182.025C50.0667 184.657 52.2172 186.201 54.4117 184.963L153.615 129.176C155.815 127.943 157.273 124.807 156.888 122.17L146.075 48.5936C145.69 45.9618 143.594 44.8255 141.4 46.0583Z" fill="#455A64"/>
<path d="M148.149 47.7788C147.703 47.6293 147.228 47.5811 146.76 47.6377C146.292 47.6944 145.843 47.8545 145.448 48.1058L46.2447 103.903C45.1331 104.583 44.2528 105.567 43.7147 106.733L40.5137 105.41C41.2177 103.914 42.4442 103.367 43.4947 102.772L142.693 46.9748C143.102 46.7108 143.571 46.5474 144.06 46.4989C144.549 46.4504 145.042 46.518 145.498 46.6961L148.149 47.7788Z" fill="#4957CC"/>
<path opacity="0.1" d="M148.149 47.7788C147.703 47.6293 147.228 47.5811 146.76 47.6377C146.292 47.6944 145.843 47.8545 145.448 48.1058L46.2447 103.903C45.1331 104.583 44.2528 105.567 43.7147 106.733L40.5137 105.41C41.2177 103.914 42.4442 103.367 43.4947 102.772L142.693 46.9748C143.102 46.7108 143.571 46.5474 144.06 46.4989C144.549 46.4504 145.042 46.518 145.498 46.6961L148.149 47.7788Z" fill="black"/>
<path d="M52.8939 185.778C51.9094 185.386 51.1834 184.389 50.9689 182.942L40.2219 109.773C39.9799 108.127 39.8974 106.653 40.5134 105.41L43.7144 106.734C43.6319 106.905 43.5549 107.082 43.4779 107.27C43.4009 107.457 43.3679 107.559 43.3184 107.704C43.3153 107.725 43.3153 107.747 43.3184 107.768C43.2579 107.934 43.2084 108.106 43.1644 108.272C43.1204 108.438 43.0764 108.626 43.0489 108.808C43.0225 108.941 43.0041 109.075 42.9939 109.21C42.9114 109.777 42.9114 110.353 42.9939 110.92L53.7849 184.475C53.9994 185.938 54.7419 186.946 55.7374 187.332L52.8939 185.778Z" fill="#4957CC"/>
<path opacity="0.3" d="M55.7372 187.332L55.5777 187.268L52.8937 185.783C51.9092 185.392 51.1832 184.4 50.9687 182.947L40.2217 109.778C39.9742 108.127 39.8972 106.653 40.5077 105.41L43.2577 106.535C42.7814 107.695 42.6536 108.963 42.8892 110.191L42.9992 110.909L53.7847 184.486C53.7959 184.578 53.8124 184.669 53.8342 184.759C53.842 184.808 53.853 184.856 53.8672 184.904C53.8779 184.971 53.8944 185.038 53.9167 185.102C53.9167 185.172 53.9497 185.236 53.9717 185.3L54.0377 185.488C54.0633 185.563 54.0945 185.637 54.1312 185.708C54.1642 185.783 54.1972 185.853 54.2357 185.922C54.2742 185.992 54.3072 186.056 54.3457 186.121C54.4585 186.312 54.5912 186.492 54.7417 186.657L54.8847 186.801L55.0442 186.941C55.2533 187.105 55.487 187.237 55.7372 187.332Z" fill="black"/>
<path d="M145.448 48.1112L45.3475 104.321C43.1475 105.56 42.471 107.537 42.856 110.217L53.7735 184.507C54.1585 187.144 56.254 188.259 58.4485 187.042L157.658 131.223C159.858 129.991 161.321 126.85 160.958 124.218L150.15 50.6464C149.738 48.0093 147.642 46.8784 145.448 48.1112Z" fill="#4957CC"/>
<path opacity="0.2" d="M145.448 48.1112L45.3475 104.321C43.1475 105.56 42.471 107.537 42.856 110.217L53.7735 184.507C54.1585 187.144 56.254 188.259 58.4485 187.042L157.658 131.223C159.858 129.991 161.321 126.85 160.958 124.218L150.15 50.6464C149.738 48.0093 147.642 46.8784 145.448 48.1112Z" fill="black"/>
<path d="M151.828 130.784L63.2778 180.578C62.1393 181.221 61.0778 180.632 60.8523 179.265L50.3803 107.961C50.2966 107.262 50.4101 106.555 50.7086 105.914C51.0071 105.274 51.4793 104.725 52.0743 104.327L140.624 54.5324C141.763 53.8892 142.824 54.4788 143.044 55.8456L153.522 127.16C153.606 127.858 153.492 128.564 153.194 129.203C152.895 129.841 152.423 130.388 151.828 130.784Z" fill="#263238"/>
<path d="M50.3799 107.961L60.8574 179.276L60.8904 179.437L149.44 129.637C150.037 129.242 150.511 128.694 150.81 128.054C151.108 127.414 151.221 126.706 151.134 126.008L140.629 54.5325L52.0794 104.327C51.4834 104.724 51.0101 105.273 50.7106 105.913C50.4111 106.554 50.2967 107.262 50.3799 107.961Z" fill="#4957CC"/>
<path opacity="0.85" d="M50.3799 107.961L60.8574 179.276L60.8904 179.437L149.44 129.637C150.037 129.242 150.511 128.694 150.81 128.054C151.108 127.414 151.221 126.706 151.134 126.008L140.629 54.5325L52.0794 104.327C51.4834 104.724 51.0101 105.273 50.7106 105.913C50.4111 106.554 50.2967 107.262 50.3799 107.961Z" fill="white"/>
<path d="M53.4436 147.85C53.4862 148.201 53.4293 148.556 53.279 148.878C53.1286 149.199 52.8907 149.474 52.5911 149.672C52.0411 149.994 51.4911 149.699 51.3701 149.013C51.3305 148.659 51.3917 148.301 51.5469 147.979C51.7022 147.657 51.9454 147.382 52.2501 147.185C52.8001 146.864 53.3501 147.159 53.4436 147.85Z" fill="#263238"/>
<path d="M50.6005 135.945C50.3674 136.101 50.1822 136.315 50.0649 136.565C49.9476 136.816 49.9027 137.092 49.935 137.366L50.87 143.717C50.947 144.253 51.3705 144.478 51.816 144.253C52.049 144.098 52.2342 143.884 52.3515 143.633C52.4688 143.383 52.5137 143.106 52.4815 142.833L51.5465 136.481C51.442 135.929 51.0185 135.699 50.6005 135.945Z" fill="#263238"/>
<path d="M124.201 143.814L111.975 150.691L109.12 152.299L89.9033 163.099C91.2673 151.307 93.5223 134.772 95.9533 129.481L122.903 130.017L124.201 143.814Z" fill="#455A64"/>
<path d="M119.609 136.465C117.81 142.367 112.31 145.256 112.31 145.256L111.975 150.718L109.12 152.326L109.923 144.114C109.923 144.114 116.936 141.332 119.609 136.465Z" fill="#37474F"/>
<path d="M113.592 93.9553C115.715 92.6528 119.763 91.6183 123.211 92.7707C128.249 89.9567 132.677 90.5088 136.923 91.1359C137.973 91.2914 141.455 90.7982 142.115 91.3825C142.615 91.8274 142.758 92.3473 143 93.3818L140.883 98.8758C137.203 99.5886 135.08 100.484 129.811 101.277C125.659 101.915 123.002 102.312 122.546 104.225C118.841 101.466 115.787 97.9639 113.592 93.9553Z" fill="#FFA8A7"/>
<path d="M144.794 96.8657C145.492 96.0134 145.514 94.9682 145.432 93.6014C145.305 91.4092 144.92 87.0997 144.585 85.2076C144.035 82.19 143.842 80.2979 143.199 78.3683C142.368 75.8705 142.649 74.3161 141.494 72.6224C140.339 70.9286 134.751 69.6797 133.524 72.1721C132.837 73.6032 135.356 74.3161 135.427 75.3881C135.427 75.3881 133.458 76.8889 134.877 77.4035C135.977 77.8109 137.044 77.9824 137.374 81.3753C137.666 84.3715 136.637 87.7108 136.637 92.24C136.637 94.1052 137.6 99.5939 137.6 99.5939C139.965 98.9721 143.232 98.7738 144.794 96.8657Z" fill="#FFA8A7"/>
<path d="M135.048 76.964C135.213 77.5536 137.99 78.036 138.612 77.918C138.781 77.8949 138.94 77.8288 139.075 77.7262C139.209 77.6236 139.313 77.4882 139.376 77.3338L141.285 77.902L141.356 76.3529L135.174 76.0635C135.079 76.3543 135.036 76.6589 135.048 76.964Z" fill="#F28F8F"/>
<path d="M140.883 93.2637C140.883 93.2637 140.503 91.3019 136.697 89.9727C136.697 90.3318 136.637 90.7499 136.637 91.0822C138.236 91.4006 139.709 92.1574 140.883 93.2637Z" fill="#F28F8F"/>
<path d="M130.477 69.9852C129.78 70.7395 129.276 71.643 129.004 72.6227C128.733 73.6024 128.702 74.6306 128.915 75.6239C129.404 77.4195 130.9 77.8162 132.253 76.503C132.95 75.7488 133.454 74.8452 133.726 73.8655C133.997 72.8859 134.028 71.8577 133.815 70.8643C133.326 69.0687 131.83 68.672 130.477 69.9852Z" fill="#37474F"/>
<path d="M143.313 74.8199H143.286L132 71.754C131.855 71.7213 131.704 71.7291 131.564 71.7765C131.424 71.824 131.301 71.909 131.208 72.022C130.943 72.3086 130.75 72.6518 130.645 73.0241C130.54 73.3963 130.525 73.7874 130.603 74.166C130.628 74.3079 130.693 74.4404 130.79 74.549C130.887 74.6577 131.012 74.7384 131.153 74.7824L142.45 77.8697C142.593 77.8984 142.742 77.888 142.88 77.8398C143.018 77.7916 143.139 77.7074 143.231 77.5964C143.495 77.3092 143.687 76.9658 143.791 76.5936C143.895 76.2213 143.909 75.8305 143.83 75.4524C143.81 75.3116 143.751 75.1788 143.66 75.0676C143.569 74.9565 143.45 74.8709 143.313 74.8199Z" fill="#263238"/>
<path d="M141.933 77.2588C142.12 77.9503 142.692 78.1004 143.215 77.5965C143.479 77.3094 143.671 76.966 143.775 76.5937C143.879 76.2215 143.892 75.8307 143.814 75.4525C143.806 75.3093 143.752 75.1721 143.66 75.0605C143.567 74.9489 143.441 74.8687 143.299 74.8312C143.157 74.7938 143.006 74.801 142.869 74.852C142.731 74.9029 142.613 74.9949 142.533 75.1148C142.268 75.402 142.076 75.7454 141.972 76.1176C141.868 76.4899 141.855 76.8807 141.933 77.2588Z" fill="#455A64"/>
<path d="M141.702 72.9869C141.18 71.5075 141.356 71.202 140.096 70.934C138.837 70.666 138.826 69.6476 137.572 69.7923C136.318 69.937 135.372 70.3283 134.822 70.1836C134.272 70.0389 133.144 70.607 132.622 71.4271C132.099 72.2472 132.11 73.4586 132.182 74.2894C132.253 75.1202 133.128 76.1493 134.932 76.5995C136.736 77.0498 138.567 77.4357 138.947 76.5995C139.244 75.9349 138.974 75.3667 139.062 74.9915C139.117 74.7655 139.224 74.5545 139.375 74.3745C139.525 74.1944 139.715 74.0498 139.931 73.9517L140.817 74.1875L141.702 72.9869Z" fill="#FFA8A7"/>
<path d="M143.903 73.5925C143.206 74.3467 142.702 75.2503 142.43 76.2299C142.159 77.2096 142.128 78.2378 142.341 79.2312C142.836 81.0268 144.326 81.4234 145.679 80.1102C146.376 79.356 146.881 78.4527 147.153 77.4731C147.425 76.4936 147.457 75.4654 147.247 74.4715C146.752 72.6706 145.261 72.2793 143.903 73.5925Z" fill="#37474F"/>
<path d="M137.28 80.8016C136.999 79.9118 135.239 78.7862 134.15 78.2127C133.721 78.0237 133.338 77.7454 133.03 77.3973C132.723 77.0491 132.497 76.6396 132.368 76.1974C132.325 76.038 132.319 75.8709 132.353 75.7091C132.386 75.5473 132.457 75.3953 132.561 75.2647C132.816 75.054 133.097 74.874 133.397 74.7287L134.585 74.1177C135.036 73.8818 135.465 73.5817 135.899 73.3137C136.003 73.2446 136.116 73.1888 136.235 73.1475C136.296 73.1291 136.36 73.1234 136.424 73.1308C136.487 73.1382 136.548 73.1585 136.603 73.1904C137.032 73.4852 136.977 74.2946 136.801 74.7019C136.595 75.0891 136.317 75.436 135.982 75.7257C135.678 75.9717 135.443 76.289 135.3 76.6476C135.234 76.9853 135.668 77.2426 135.927 77.3551C136.402 77.5719 136.9 77.739 137.412 77.8536C138.077 77.9822 137.082 80.1745 137.28 80.8016Z" fill="#FFA8A7"/>
<path d="M121.551 102.204C120.797 97.9914 117.008 94.2876 111.508 93.7195L104.11 93.5962C104.11 93.5962 102.202 93.9071 98.9015 94.5824C95.6015 95.2578 93.8965 96.7747 93.605 99.3368C93.4125 101.057 93.484 102.017 94.078 104.884L94.804 109.799C94.804 109.799 97.356 116.639 97.554 119.26C97.8523 122.743 97.3 126.246 95.9425 129.481C105.678 133.651 114.753 134.97 122.293 129.674C123.426 123.28 123.635 113.707 121.551 102.204Z" fill="#FFA8A7"/>
<path d="M123.542 108.711C122.651 98.6238 113.592 93.9552 113.592 93.9552L107.454 92.7278L98.7972 94.6038C98.7972 94.6038 100.959 105.077 94.8262 109.794C94.8262 109.794 95.2827 111.659 96.3332 115.508C97.3837 119.356 98.1647 124.507 94.9637 130.623C94.9637 130.623 97.6587 133.217 107.883 133.919C118.108 134.622 122.926 130.017 122.926 130.017C122.926 130.017 124.411 118.826 123.542 108.711Z" fill="#4957CC"/>
<path opacity="0.1" d="M105.969 133.759C106.519 132.901 107.069 131.749 107.069 130.998C107.014 129.68 102.004 129.111 101.08 128.592C100.156 128.072 100.486 123.816 100.145 120.385C99.8038 116.955 97.6038 111.273 96.5148 108.54L96.7568 107.816C96.2221 108.565 95.5772 109.233 94.8428 109.799C94.8428 109.799 95.2993 111.665 96.3498 115.513C97.4003 119.362 98.1813 124.513 94.9803 130.628C94.9638 130.628 97.3508 132.89 105.969 133.759Z" fill="black"/>
<path d="M98.7969 94.6091C98.7969 94.6091 94.5783 93.5371 91.7953 95.1451C89.5073 96.4636 88.2643 98.0556 87.1918 101.239C85.3859 102.623 83.7654 104.222 82.3683 105.999C79.8383 109.371 77.9683 113.305 76.5548 115.465C75.7848 116.633 74.7619 117.754 75.0259 119.437C75.1304 120.091 75.5759 120.466 76.3514 121.189L84.1063 119.083C86.3833 116.66 91.4378 113.187 94.5563 109.258L94.8259 109.794C96.1552 108.986 97.2668 107.88 98.0677 106.568C98.8686 105.256 99.3355 103.776 99.4293 102.252C99.7978 96.0295 98.7969 94.6091 98.7969 94.6091Z" fill="#FFA8A7"/>
<path d="M75.4932 120.321C76.3512 121.173 77.7427 123.13 80.4432 125.381C82.4947 127.096 86.9992 129.669 88.6932 130.618C91.0252 131.925 91.9107 132.569 93.7092 133.614C95.0677 134.396 98.0652 135.908 100.92 135.924C102.57 135.924 104.643 134.9 105.919 132.478C106.574 131.239 104.517 130.446 101.75 130.012C98.2962 129.476 97.6252 128.747 96.7727 128.307C96.2227 128.007 96.2227 127.637 96.4372 127.037C96.5931 126.61 96.7091 126.171 96.7837 125.724C96.6517 125.633 95.9862 125.724 95.2217 126.314C94.2977 127.037 93.5222 127.214 91.3277 125.022C89.0562 122.749 88.1322 120.514 85.1622 118.054C82.1922 115.594 75.4932 120.321 75.4932 120.321Z" fill="#FFA8A7"/>
<path d="M96.4431 107.629C96.4981 106.814 96.4871 106.423 96.4871 106.423C95.8961 107.396 95.2517 108.337 94.5566 109.242L94.8261 109.778C95.4279 109.427 95.9822 109.004 96.4761 108.518C96.4324 108.224 96.4214 107.925 96.4431 107.629Z" fill="#F28F8F"/>
<path d="M85.1509 118.043C84.4637 117.683 83.7089 117.463 82.932 117.395C82.155 117.327 81.372 117.412 80.6299 117.646C80.6299 117.646 82.5164 115.808 86.1629 117.148L85.1509 118.043Z" fill="#F28F8F"/>
<path d="M101.492 71.99C100.929 72.1441 100.417 72.4366 100.004 72.8392C99.5905 73.2419 99.2905 73.7413 99.1323 74.2894C98.7198 75.6134 98.9563 78.1165 99.8088 81.3968C100.344 83.5614 101.151 85.6533 102.212 87.6251C102.542 88.1832 103.08 88.5959 103.714 88.7775L103.593 84.8861L103.428 82.1686C103.428 82.1686 105.204 79.7781 105.386 77.827C105.622 75.3185 105.072 74.2948 105.072 74.2948L101.492 71.99Z" fill="#37474F"/>
<path d="M101.673 72.8582L98.7031 72.2633C98.7872 71.8631 99.0244 71.509 99.3666 71.2731C99.7089 71.0371 100.13 70.937 100.546 70.9929C100.746 71.0423 100.934 71.1298 101.1 71.2505C101.265 71.3712 101.404 71.5227 101.509 71.6962C101.614 71.8697 101.682 72.0617 101.71 72.2612C101.739 72.4607 101.726 72.6636 101.673 72.8582Z" fill="#37474F"/>
<path d="M101.751 72.1132L99.5508 70.1139C99.8286 69.8059 100.219 69.6166 100.639 69.5865C101.059 69.5564 101.474 69.6881 101.795 69.9531C101.939 70.0967 102.053 70.267 102.13 70.454C102.206 70.641 102.243 70.8409 102.239 71.0421C102.235 71.2433 102.189 71.4417 102.106 71.6256C102.022 71.8095 101.901 71.9753 101.751 72.1132Z" fill="#37474F"/>
<path d="M107.723 76.6103C107.735 77.8633 108.128 79.0847 108.852 80.12C109.577 81.1553 110.6 81.958 111.792 82.4267C112.984 82.8954 114.293 83.009 115.551 82.7531C116.81 82.4972 117.962 81.8833 118.863 80.9891C119.764 80.0949 120.372 78.9605 120.611 77.7293C120.85 76.4981 120.709 75.2255 120.206 74.0724C119.703 72.9192 118.861 71.9373 117.785 71.2509C116.709 70.5644 115.449 70.2042 114.163 70.2158C113.31 70.2236 112.466 70.3951 111.68 70.7206C110.894 71.0461 110.182 71.5193 109.584 72.1131C108.986 72.7069 108.514 73.4097 108.195 74.1813C107.875 74.9529 107.715 75.7783 107.723 76.6103Z" fill="#37474F"/>
<path d="M103.533 81.7344C102.862 82.3079 102.306 80.8392 101.74 80.2711C101.173 79.7029 99.3195 78.9364 98.4395 80.8071C97.5595 82.6777 99.2755 85.4167 100.695 85.9527C101.024 86.0965 101.387 86.1515 101.746 86.1119C102.105 86.0723 102.447 85.9396 102.735 85.7276L102.79 93.9873C103.764 95.8365 107.603 98.2271 111.981 97.4928C113.856 97.1819 112.982 94.9521 111.981 93.7032L111.942 90.6588C113.056 90.8202 114.184 90.8669 115.308 90.7981C117.145 90.5033 118.091 89.1472 118.608 87.2069C119.472 84.0874 119.796 78.856 118.531 72.8207C116.469 71.2824 109.341 71.5825 105.045 74.2732C105.425 79.6493 104.198 81.1662 103.533 81.7344Z" fill="#FFA8A7"/>
<path d="M119.554 68.5542C119.532 68.5013 119.496 68.455 119.45 68.4202C119.403 68.3853 119.348 68.3631 119.29 68.3559C119.197 68.3653 119.108 68.4028 119.037 68.4631C118.519 68.8653 117.967 69.2239 117.387 69.5351C117.527 68.8269 117.527 68.0993 117.387 67.3911C117.305 66.9516 117.167 65.9278 116.606 65.826C116.276 65.7616 115.985 66.035 115.737 66.2601C113.51 68.3184 110.573 67.3911 107.872 67.4929C105.612 67.5733 102.889 68.4899 101.883 70.6339C101.421 71.6201 101.333 72.6492 102.273 73.3139C103.1 73.8445 104.041 74.182 105.023 74.3001C109.533 75.0344 116.023 76.8032 119.323 72.6921C119.805 72.0791 120.047 71.3191 120.005 70.5481C120.006 69.8702 119.848 69.2012 119.543 68.5917L119.554 68.5542Z" fill="#37474F"/>
<path d="M111.948 90.6804C111.948 90.6804 107.845 89.9139 106.404 89.1849C105.441 88.6972 104.149 87.8985 103.912 87.3518C103.964 87.8447 104.123 88.3212 104.378 88.7499C104.633 89.1786 104.979 89.5498 105.392 89.8388C107.592 91.4468 111.964 91.9828 111.964 91.9828L111.948 90.6804Z" fill="#F28F8F"/>
<path d="M110.826 80.2176C110.831 80.4328 110.75 80.6415 110.598 80.7982C110.447 80.9549 110.238 81.0467 110.017 81.0537C109.794 81.0495 109.582 80.96 109.427 80.8045C109.271 80.649 109.185 80.44 109.187 80.2229C109.187 80.0097 109.273 79.8052 109.428 79.6544C109.583 79.5037 109.793 79.4189 110.012 79.4189C110.23 79.4189 110.44 79.5037 110.595 79.6544C110.75 79.8052 110.837 80.0097 110.837 80.2229L110.826 80.2176Z" fill="#263238"/>
<path d="M110.368 77.7787L108.542 78.5881C108.437 78.3442 108.431 78.07 108.528 77.8225C108.624 77.5749 108.814 77.373 109.059 77.2588C109.18 77.2064 109.31 77.1782 109.442 77.1762C109.574 77.1741 109.705 77.198 109.828 77.2466C109.95 77.2952 110.061 77.3673 110.154 77.4588C110.247 77.5502 110.32 77.6591 110.368 77.7787Z" fill="#263238"/>
<path d="M110.936 85.3472L114.236 86.5157C114.165 86.7282 114.052 86.9249 113.903 87.0943C113.754 87.2637 113.572 87.4024 113.367 87.5022C113.162 87.602 112.939 87.661 112.71 87.6757C112.482 87.6904 112.252 87.6604 112.036 87.5877C111.59 87.4265 111.225 87.1026 111.02 86.6845C110.815 86.2663 110.785 85.7867 110.936 85.3472Z" fill="#B16668"/>
<path d="M112.007 87.5928C112.298 87.6949 112.613 87.7154 112.915 87.6518C112.896 87.2527 112.72 86.8762 112.422 86.6013C112.125 86.3264 111.73 86.1746 111.32 86.1778C111.171 86.1815 111.023 86.2049 110.88 86.2475C110.93 86.5486 111.06 86.8317 111.258 87.0679C111.456 87.3042 111.714 87.4853 112.007 87.5928Z" fill="#F28F8F"/>
<path d="M118.295 78.3095L116.392 77.6395C116.431 77.5169 116.496 77.4034 116.582 77.3058C116.667 77.2082 116.772 77.1285 116.891 77.0714C117.009 77.0143 117.137 76.9811 117.269 76.9737C117.401 76.9664 117.533 76.985 117.657 77.0285C117.91 77.1228 118.117 77.3078 118.236 77.5458C118.354 77.7838 118.375 78.0569 118.295 78.3095Z" fill="#263238"/>
<path d="M117.871 79.9817C117.866 80.1379 117.813 80.2892 117.72 80.4167C117.628 80.5443 117.499 80.6425 117.349 80.6991C117.199 80.7558 117.036 80.7685 116.879 80.7356C116.723 80.7026 116.579 80.6256 116.467 80.514C116.354 80.4023 116.278 80.261 116.248 80.1076C116.217 79.9541 116.233 79.7953 116.294 79.6507C116.355 79.5062 116.459 79.3823 116.591 79.2944C116.724 79.2065 116.88 79.1584 117.04 79.1562C117.263 79.1591 117.475 79.2475 117.63 79.4021C117.786 79.5568 117.872 79.7651 117.871 79.9817Z" fill="#263238"/>
<path d="M113.372 79.092L113.878 84.1572L116.628 83.246L113.372 79.092Z" fill="#F28F8F"/>
<path d="M260.298 189.771L156.585 248.066L103.928 218.602L207.641 160.307L260.298 189.771Z" fill="#4957CC"/>
<path opacity="0.7" d="M260.298 189.771L156.585 248.066L103.928 218.602L207.641 160.307L260.298 189.771Z" fill="white"/>
<path d="M260.298 189.771V191.202L156.585 249.497V248.066L260.298 189.771Z" fill="#4957CC"/>
<path opacity="0.5" d="M260.298 189.771V191.202L156.585 249.497V248.066L260.298 189.771Z" fill="white"/>
<path d="M156.585 248.066L103.928 218.602V220.033L156.585 249.497V248.066Z" fill="#4957CC"/>
<path opacity="0.4" d="M156.585 248.066L103.928 218.602V220.033L156.585 249.497V248.066Z" fill="white"/>
<path opacity="0.1" d="M163.515 235.567L162.344 234.907C161.546 234.457 161.546 233.734 162.344 233.299L164.962 231.825L156.789 227.221L154.171 228.695C153.723 228.914 153.228 229.029 152.727 229.029C152.226 229.029 151.731 228.914 151.283 228.695L150.112 228.031C149.314 227.586 149.314 226.857 150.112 226.423L158.054 221.904C158.5 221.682 158.994 221.566 159.495 221.566C159.996 221.566 160.49 221.682 160.936 221.904L162.113 222.563C162.91 223.014 162.91 223.737 162.113 224.171L159.22 225.779L167.393 230.384L170.286 228.776C170.733 228.556 171.226 228.442 171.727 228.442C172.227 228.442 172.721 228.556 173.168 228.776L174.345 229.44C175.142 229.885 175.142 230.614 174.345 231.048L166.403 235.513C165.96 235.744 165.468 235.869 164.966 235.878C164.464 235.887 163.967 235.781 163.515 235.567Z" fill="black"/>
<path d="M159.5 219.953C159.5 219.953 159.5 219.953 159.5 219.926C159.5 219.219 159.308 218.525 158.943 217.914C158.579 217.303 158.055 216.796 157.426 216.446C156.796 216.096 156.082 215.914 155.357 215.919C154.632 215.924 153.921 216.115 153.296 216.474H153.268L153.169 216.539C153.131 216.559 153.094 216.582 153.059 216.608C152.029 217.311 151.176 218.232 150.564 219.302C149.952 220.373 149.598 221.565 149.528 222.788V222.831C149.528 222.955 149.528 223.078 149.528 223.196C149.58 223.764 149.756 224.315 150.045 224.811C150.334 225.308 150.729 225.738 151.202 226.073C151.676 226.408 152.218 226.641 152.792 226.755C153.365 226.868 153.957 226.861 154.528 226.733C154.955 226.652 155.364 226.5 155.738 226.283C156.827 225.593 157.733 224.662 158.383 223.565C159.033 222.469 159.408 221.239 159.478 219.974C159.478 219.974 159.5 219.964 159.5 219.953Z" fill="#455A64"/>
<path d="M155.744 217.889C154.655 218.58 153.748 219.511 153.099 220.607C152.449 221.704 152.074 222.934 152.004 224.198C152.004 226.524 153.681 227.468 155.744 226.305C156.833 225.614 157.739 224.683 158.389 223.587C159.039 222.491 159.414 221.26 159.484 219.996C159.5 217.67 157.806 216.726 155.744 217.889Z" fill="#37474F"/>
<path d="M167.117 225.758H167.09L157.476 220.296C157.28 220.195 157.059 220.149 156.838 220.166C156.617 220.182 156.405 220.259 156.227 220.387C155.725 220.706 155.307 221.136 155.007 221.642C154.707 222.147 154.534 222.715 154.5 223.298C154.484 223.508 154.527 223.719 154.624 223.908C154.72 224.096 154.868 224.256 155.05 224.37L164.664 229.799C164.86 229.895 165.08 229.936 165.298 229.918C165.516 229.9 165.725 229.824 165.902 229.698C166.403 229.378 166.821 228.949 167.12 228.443C167.419 227.937 167.591 227.37 167.623 226.787C167.633 226.588 167.592 226.39 167.504 226.21C167.416 226.031 167.283 225.875 167.117 225.758Z" fill="#263238"/>
<path d="M164.153 228.77C164.153 229.842 164.923 230.276 165.875 229.74C166.376 229.421 166.793 228.991 167.092 228.486C167.392 227.98 167.564 227.413 167.596 226.83C167.596 225.758 166.826 225.324 165.875 225.86C165.373 226.179 164.956 226.609 164.657 227.115C164.358 227.62 164.185 228.187 164.153 228.77Z" fill="#455A64"/>
<path d="M171.942 226.964C171.942 226.437 171.836 225.915 171.63 225.428C171.424 224.941 171.121 224.498 170.739 224.125C170.356 223.752 169.903 223.457 169.403 223.255C168.904 223.053 168.368 222.949 167.828 222.949C167.096 222.942 166.376 223.127 165.743 223.485H165.716L165.617 223.544L165.501 223.614C164.472 224.317 163.62 225.238 163.009 226.309C162.398 227.379 162.045 228.571 161.976 229.794V229.842C161.976 229.96 161.976 230.083 161.976 230.207C162.028 230.775 162.205 231.326 162.495 231.822C162.784 232.319 163.179 232.749 163.653 233.084C164.127 233.419 164.669 233.651 165.243 233.765C165.817 233.879 166.41 233.872 166.981 233.744C167.408 233.666 167.818 233.513 168.191 233.294C169.28 232.604 170.186 231.672 170.836 230.576C171.486 229.48 171.861 228.25 171.931 226.985C171.931 226.985 171.942 226.98 171.942 226.964Z" fill="#455A64"/>
<path d="M168.207 224.9C167.117 225.591 166.21 226.523 165.56 227.62C164.91 228.718 164.536 229.949 164.467 231.214C164.467 233.535 166.117 234.479 168.207 233.315C169.296 232.625 170.202 231.694 170.852 230.598C171.502 229.501 171.877 228.271 171.947 227.007C171.947 224.681 170.269 223.743 168.207 224.9Z" fill="#37474F"/>
<path d="M94.5007 207.882C94.2193 206.894 93.838 205.935 93.3622 205.02C93.3127 204.913 93.2577 204.811 93.2082 204.704C92.753 203.847 92.5219 202.894 92.5353 201.929C92.5487 200.964 92.8063 200.017 93.2852 199.172C93.3237 199.113 93.3567 199.054 93.3897 198.995C93.9796 198.006 94.2837 196.88 94.2697 195.736C94.2326 195.11 94.0393 194.502 93.7068 193.965C93.3742 193.428 92.9124 192.978 92.3612 192.654C92.0766 192.495 91.7807 192.355 91.4757 192.236C91.1932 192.129 90.9503 191.941 90.7786 191.697C90.607 191.454 90.5145 191.165 90.5132 190.87V189.208H84.9747V190.896C84.97 191.192 84.8748 191.479 84.7014 191.722C84.5279 191.965 84.2841 192.151 84.0012 192.258C83.6932 192.372 83.3952 192.51 83.1102 192.671C82.5565 192.99 82.0913 193.436 81.7548 193.97C81.4184 194.505 81.2209 195.111 81.1797 195.736C81.1543 196.88 81.449 198.008 82.0322 199.001L82.1257 199.167C82.6004 200.017 82.8532 200.967 82.8618 201.935C82.8705 202.902 82.6347 203.857 82.1752 204.714C82.1202 204.816 82.0652 204.918 82.0157 205.025C81.5296 205.936 81.1408 206.894 80.8552 207.882C80.656 208.838 80.5657 209.812 80.5857 210.787L80.5527 218.645C80.5527 219.664 81.2347 220.687 82.6097 221.464C83.8433 222.124 85.2097 222.514 86.6137 222.606C87.2799 222.66 87.9495 222.66 88.6157 222.606C90.0118 222.523 91.3724 222.144 92.6032 221.497C93.9892 220.73 94.6822 219.712 94.6877 218.693V213.012C94.6877 212.304 94.7207 211.565 94.7207 210.825C94.76 209.839 94.6863 208.852 94.5007 207.882Z" fill="#455A64"/>
<path d="M93.2856 199.172C93.3241 199.113 93.3571 199.054 93.3901 198.995C93.893 198.153 94.1869 197.208 94.2481 196.235C94.1129 196.629 93.9282 197.005 93.6981 197.355C93.0145 198.328 92.1709 199.185 91.2011 199.89C90.2496 200.646 89.1936 201.498 89.0781 202.694C88.9626 203.889 89.7986 204.891 90.7281 205.588C91.6576 206.285 92.7851 206.773 93.6321 207.577C93.998 207.932 94.3226 208.326 94.6001 208.75C94.5616 208.456 94.5176 208.166 94.4571 207.882C94.1757 206.894 93.7943 205.935 93.3186 205.02C93.2691 204.913 93.2141 204.811 93.1646 204.704C92.7161 203.843 92.4925 202.888 92.5136 201.923C92.5347 200.958 92.7999 200.013 93.2856 199.172Z" fill="#37474F"/>
<path d="M84.0454 191.046V191.952C84.0748 192.276 84.1922 192.586 84.3856 192.851C84.5789 193.116 84.8412 193.325 85.1454 193.458C85.9706 193.865 86.8825 194.077 87.8074 194.077C88.7322 194.077 89.6441 193.865 90.4694 193.458C90.7952 193.288 91.0787 193.05 91.2999 192.762C91.4735 192.531 91.5695 192.254 91.5749 191.968V191.046C91.5769 190.963 91.5677 190.881 91.5474 190.8C91.4728 190.528 91.3389 190.274 91.1548 190.057C90.9707 189.839 90.7406 189.663 90.4804 189.54L90.4254 189.514C89.6075 189.114 88.7055 188.907 87.7909 188.907C86.8763 188.907 85.9742 189.114 85.1564 189.514C84.8917 189.631 84.6564 189.803 84.4665 190.018C84.2766 190.232 84.1367 190.485 84.0564 190.757C84.0393 190.853 84.0356 190.95 84.0454 191.046Z" fill="#4957CC"/>
<path opacity="0.1" d="M84.0454 191.046V191.952C84.0748 192.276 84.1922 192.586 84.3856 192.851C84.5789 193.116 84.8412 193.325 85.1454 193.458C85.9706 193.865 86.8825 194.077 87.8074 194.077C88.7322 194.077 89.6441 193.865 90.4694 193.458C90.7952 193.288 91.0787 193.05 91.2999 192.762C91.4735 192.531 91.5695 192.254 91.5749 191.968V191.046C91.5769 190.963 91.5677 190.881 91.5474 190.8C91.4728 190.528 91.3389 190.274 91.1548 190.057C90.9707 189.839 90.7406 189.663 90.4804 189.54L90.4254 189.514C89.6075 189.114 88.7055 188.907 87.7909 188.907C86.8763 188.907 85.9742 189.114 85.1564 189.514C84.8917 189.631 84.6564 189.803 84.4665 190.018C84.2766 190.232 84.1367 190.485 84.0564 190.757C84.0393 190.853 84.0356 190.95 84.0454 191.046Z" fill="black"/>
<path opacity="0.2" d="M90.4638 192.558C91.9323 191.738 91.9378 190.414 90.4638 189.562C89.6389 189.154 88.7269 188.941 87.8018 188.941C86.8767 188.941 85.9646 189.154 85.1398 189.562C83.6658 190.382 83.6603 191.706 85.1398 192.553C85.9642 192.962 86.876 193.175 87.8011 193.176C88.7262 193.177 89.6385 192.965 90.4638 192.558Z" fill="black"/>
<path d="M84.0451 189.985V190.521C84.0436 190.608 84.0528 190.694 84.0726 190.779C84.1492 191.049 84.2839 191.301 84.4678 191.517C84.6518 191.734 84.8807 191.909 85.1396 192.033C85.864 192.415 86.6703 192.626 87.4936 192.649C88.5216 192.721 89.5499 192.514 90.4636 192.049C90.7915 191.879 91.077 191.642 91.2996 191.352C91.4193 191.192 91.5035 191.009 91.5471 190.816C91.5674 190.734 91.5766 190.649 91.5746 190.564V190.001C91.5454 189.678 91.4279 189.369 91.2345 189.105C91.0411 188.841 90.7787 188.632 90.4746 188.501C90.4086 188.463 90.3426 188.426 90.2711 188.393C89.4657 188.032 88.5872 187.852 87.7008 187.867C86.8144 187.882 85.9428 188.091 85.1506 188.479C84.8454 188.611 84.582 188.821 84.3876 189.086C84.1933 189.35 84.075 189.661 84.0451 189.985Z" fill="#4957CC"/>
<path opacity="0.1" d="M84.0451 189.985V190.521C84.0436 190.608 84.0528 190.694 84.0726 190.779C84.1492 191.049 84.2839 191.301 84.4678 191.517C84.6518 191.734 84.8807 191.909 85.1396 192.033C85.864 192.415 86.6703 192.626 87.4936 192.649C88.5216 192.721 89.5499 192.514 90.4636 192.049C90.7915 191.879 91.077 191.642 91.2996 191.352C91.4193 191.192 91.5035 191.009 91.5471 190.816C91.5674 190.734 91.5766 190.649 91.5746 190.564V190.001C91.5454 189.678 91.4279 189.369 91.2345 189.105C91.0411 188.841 90.7787 188.632 90.4746 188.501C90.4086 188.463 90.3426 188.426 90.2711 188.393C89.4657 188.032 88.5872 187.852 87.7008 187.867C86.8144 187.882 85.9428 188.091 85.1506 188.479C84.8454 188.611 84.582 188.821 84.3876 189.086C84.1933 189.35 84.075 189.661 84.0451 189.985Z" fill="black"/>
<path d="M84.0449 189.969C84.0449 191.132 85.7224 192.081 87.8014 192.113C89.8804 192.145 91.5689 191.18 91.5744 190.017C91.5799 188.854 89.8969 187.906 87.8179 187.873C85.7389 187.841 84.0504 188.806 84.0449 189.969Z" fill="#4957CC"/>
<path d="M86.5147 187.804V189.706C86.512 189.735 86.512 189.764 86.5147 189.792C86.5421 189.886 86.5895 189.974 86.654 190.048C86.7185 190.123 86.7985 190.184 86.8887 190.226C87.1384 190.361 87.4177 190.434 87.7027 190.441C88.0591 190.469 88.4161 190.396 88.7312 190.232C88.8449 190.175 88.943 190.092 89.0172 189.991C89.0609 189.935 89.091 189.871 89.1052 189.803C89.1079 189.774 89.1079 189.746 89.1052 189.717V187.814C89.0972 187.7 89.0578 187.59 88.991 187.496C88.9242 187.401 88.8326 187.326 88.7257 187.278L88.6597 187.246C88.3805 187.121 88.0759 187.058 87.7684 187.062C87.4609 187.067 87.1584 187.139 86.8832 187.273C86.7789 187.322 86.6897 187.396 86.6249 187.49C86.5602 187.583 86.5221 187.691 86.5147 187.804Z" fill="#4957CC"/>
<path opacity="0.1" d="M86.5147 187.804V189.706C86.512 189.735 86.512 189.764 86.5147 189.792C86.5421 189.886 86.5895 189.974 86.654 190.048C86.7185 190.123 86.7985 190.184 86.8887 190.226C87.1384 190.361 87.4177 190.434 87.7027 190.441C88.0591 190.469 88.4161 190.396 88.7312 190.232C88.8449 190.175 88.943 190.092 89.0172 189.991C89.0609 189.935 89.091 189.871 89.1052 189.803C89.1079 189.774 89.1079 189.746 89.1052 189.717V187.814C89.0972 187.7 89.0578 187.59 88.991 187.496C88.9242 187.401 88.8326 187.326 88.7257 187.278L88.6597 187.246C88.3805 187.121 88.0759 187.058 87.7684 187.062C87.4609 187.067 87.1584 187.139 86.8832 187.273C86.7789 187.322 86.6897 187.396 86.6249 187.49C86.5602 187.583 86.5221 187.691 86.5147 187.804Z" fill="black"/>
<path d="M86.5146 187.798C86.5146 188.2 87.0976 188.533 87.8181 188.533C88.5386 188.533 89.1216 188.211 89.1216 187.809C89.1216 187.407 88.5716 187.075 87.8236 187.075C87.0756 187.075 86.5146 187.396 86.5146 187.798Z" fill="#4957CC"/>
<path d="M87.3564 187.804C87.3564 187.943 87.5599 188.061 87.8184 188.061C88.0769 188.061 88.2804 187.948 88.2804 187.804C88.2804 187.659 88.0769 187.546 87.8184 187.546C87.5599 187.546 87.3564 187.659 87.3564 187.804Z" fill="#4957CC"/>
<path opacity="0.3" d="M87.3564 187.804C87.3564 187.943 87.5599 188.061 87.8184 188.061C88.0769 188.061 88.2804 187.948 88.2804 187.804C88.2804 187.659 88.0769 187.546 87.8184 187.546C87.5599 187.546 87.3564 187.659 87.3564 187.804Z" fill="black"/>
<path opacity="0.1" d="M222.547 181.886C222.173 183.317 222.349 184.845 221.925 186.26C221.315 188.286 219.555 189.792 217.668 190.827C210.172 194.932 200.679 192.971 192.489 195.538C189.954 196.337 187.292 197.907 186.797 200.459C186.439 202.292 187.347 204.211 188.755 205.47C190.218 206.682 191.933 207.571 193.782 208.075C201.08 210.423 208.956 210.182 216.557 209.04C224.626 207.823 232.232 203.332 235.059 201.236C239.459 197.993 242.671 192.74 241.896 187.434C241.186 182.61 236.555 179.04 232.034 177.411C228.454 176.119 223.52 178.182 222.547 181.886Z" fill="black"/>
<path d="M229.108 81.7776C231.066 80.5716 234.812 79.6336 237.996 80.7056C243.496 78.8564 246.246 79.194 250.646 79.1887C251.631 79.1887 254.837 78.8832 255.442 79.4245C255.904 79.8319 256.042 80.3143 256.262 81.2684L254.304 86.3496C250.905 87.0036 248.947 87.8129 244.074 88.5633C240.224 89.1583 237.782 89.5174 237.358 91.2916C233.943 88.7306 231.13 85.4866 229.108 81.7776Z" fill="#B16668"/>
<path d="M257.951 84.4682C258.6 83.6803 258.616 82.7155 258.545 81.4506C258.424 79.4245 257.665 75.5546 257.351 73.8286C256.856 71.0361 256.295 69.353 255.888 67.1233C255.454 64.7327 255.712 63.4785 254.832 61.5864C254.029 59.8605 248.65 59.3459 247.539 61.6454C246.901 62.9693 249.233 63.6339 249.299 64.6416C249.299 64.6416 247.171 63.993 247.616 65.2687C248.166 66.8017 250.174 66.7105 250.416 68.6723C250.762 71.4327 250.416 76.0316 250.416 80.2178C250.416 81.9437 251.307 87.0142 251.307 87.0142C253.479 86.4139 256.499 86.2317 257.951 84.4682Z" fill="#B16668"/>
<path d="M254.524 67.1233L255.344 64.5934L248.1 63.248C248.65 63.7251 249.255 64.1539 249.288 64.6684C249.288 64.6684 247.16 64.0199 247.605 65.2956C247.729 65.6313 247.937 65.9316 248.21 66.1692C248.916 66.5704 249.651 66.9198 250.41 67.2144C251.725 67.6057 252.726 67.4824 253.221 66.732C253.243 66.6838 254.524 67.1233 254.524 67.1233Z" fill="#9A4A4D"/>
<path d="M250.404 79.1297C251.913 79.1576 253.358 79.7306 254.458 80.7377C254.458 80.7377 254.183 78.7491 250.41 78.1006V79.0868L250.404 79.1297Z" fill="#9A4A4D"/>
<path d="M247.786 60.4128C247.648 59.9076 247.375 59.447 246.996 59.0774C246.616 58.7079 246.144 58.4425 245.625 58.3082C245.107 58.1739 244.561 58.1753 244.043 58.3124C243.526 58.4495 243.054 58.7173 242.677 59.0888C242.655 59.1071 242.635 59.1268 242.616 59.1478L242.55 59.2175C241.952 59.9118 241.522 60.7291 241.294 61.6081C241.065 62.4871 241.043 63.4051 241.23 64.2934V64.3202C241.23 64.4113 241.285 64.4971 241.313 64.5775C241.575 65.2715 242.094 65.8452 242.767 66.1862C243.44 66.5272 244.22 66.6111 244.954 66.4213C245.17 66.361 245.38 66.2802 245.581 66.1801C245.869 66.0461 246.131 65.8648 246.356 65.6441C247.001 64.9476 247.467 64.1129 247.719 63.2077C247.97 62.3025 247.999 61.3523 247.803 60.4342L247.786 60.4128Z" fill="#455A64"/>
<path d="M244.711 59.6303C244.064 60.3281 243.595 61.1655 243.344 62.0738C243.092 62.9822 243.065 63.9358 243.265 64.8563C243.721 66.5179 245.102 66.8823 246.35 65.671C246.995 64.9745 247.461 64.1398 247.713 63.2346C247.964 62.3294 247.993 61.3792 247.797 60.4611C247.34 58.778 245.96 58.4243 244.711 59.6303Z" fill="#37474F"/>
<path d="M256.575 64.0952H256.548L246.098 61.2651C245.964 61.2348 245.825 61.2418 245.696 61.2854C245.566 61.3291 245.452 61.4075 245.366 61.5117C245.119 61.7787 244.94 62.0991 244.844 62.4467C244.749 62.7943 244.739 63.159 244.816 63.5109C244.836 63.641 244.892 63.7633 244.979 63.8645C245.065 63.9656 245.178 64.0417 245.306 64.0844L255.756 66.9145C255.888 66.9403 256.025 66.9304 256.152 66.886C256.279 66.8416 256.391 66.7644 256.476 66.6626C256.724 66.3946 256.903 66.0731 256.998 65.7247C257.094 65.3763 257.104 65.0107 257.026 64.658C257.007 64.5343 256.955 64.4176 256.876 64.3191C256.797 64.2205 256.694 64.1434 256.575 64.0952Z" fill="#263238"/>
<path d="M255.3 66.3463C255.305 66.4792 255.354 66.607 255.439 66.7111C255.524 66.8152 255.641 66.8903 255.772 66.9255C255.904 66.9607 256.044 66.9542 256.171 66.9069C256.299 66.8597 256.408 66.7741 256.482 66.6625C256.73 66.3945 256.909 66.0731 257.004 65.7246C257.1 65.3762 257.109 65.0106 257.032 64.6579C256.856 64.02 256.328 63.8807 255.85 64.347C255.602 64.614 255.423 64.9345 255.328 65.2821C255.232 65.6297 255.222 65.9944 255.3 66.3463Z" fill="#455A64"/>
<path d="M255.085 62.4012C254.607 61.0344 254.766 60.7503 253.6 60.5038C252.434 60.2572 252.429 59.3139 251.268 59.4318C250.108 59.5497 249.233 59.9678 248.716 59.7909C248.199 59.614 247.165 60.1875 246.687 60.9433C246.288 61.7663 246.149 62.6856 246.285 63.5858C246.351 64.3523 247.182 65.2635 248.782 65.9013C250.383 66.5391 252.709 67.5093 253.215 66.2068L252.555 66.0299C252.332 65.5371 252.301 64.982 252.467 64.4681C252.633 63.9543 252.985 63.5169 253.457 63.2374L254.271 63.4571L255.085 62.4012Z" fill="#B16668"/>
<path d="M260.194 63.7413C259.985 62.981 259.475 62.3325 258.776 61.9385C258.077 61.5446 257.245 61.4372 256.465 61.6402C255.941 61.7748 255.464 62.0453 255.085 62.4228L255.03 62.4871L254.958 62.5568C254.359 63.2506 253.929 64.068 253.701 64.9473C253.474 65.8266 253.454 66.7448 253.644 67.6327V67.6648C253.671 67.7506 253.699 67.8364 253.732 67.9221C253.994 68.6162 254.512 69.1898 255.186 69.5308C255.859 69.8719 256.639 69.9557 257.373 69.766C257.59 69.7093 257.8 69.6303 258 69.5301C258.288 69.3945 258.552 69.2134 258.781 68.9941C259.422 68.2964 259.886 67.4608 260.133 66.5555C260.381 65.6501 260.405 64.7006 260.205 63.7842C260.206 63.7692 260.202 63.7542 260.194 63.7413Z" fill="#455A64"/>
<path d="M257.12 62.9588C256.477 63.6558 256.011 64.4907 255.761 65.3959C255.51 66.3011 255.482 67.251 255.679 68.1687C256.13 69.8303 257.511 70.1948 258.765 68.9781C259.407 68.2835 259.872 67.4513 260.122 66.549C260.372 65.6466 260.401 64.6994 260.206 63.7842C259.755 62.1119 258.374 61.7474 257.12 62.9588Z" fill="#37474F"/>
<path d="M192.297 200.625C192.115 200.684 192.088 201.697 192.253 202.045C192.418 202.394 193.578 203.653 195.916 204.098C198.253 204.543 201.471 204.098 202.851 204.018C204.232 203.937 208.577 204.452 209.957 204.634C212.124 204.918 213.807 204.457 214.605 203.691C214.736 203.538 214.833 203.359 214.889 203.167C214.945 202.975 214.959 202.774 214.929 202.576C214.891 201.681 214.808 201.504 214.698 201.504L192.297 200.625Z" fill="#37474F"/>
<path d="M214.34 198.856C214.384 199.035 214.423 199.213 214.456 199.392C214.666 200.292 214.735 201.217 214.659 202.136C214.487 202.442 214.252 202.709 213.968 202.92C213.683 203.132 213.357 203.283 213.009 203.364C211.359 203.868 210.127 203.787 208.318 203.455C206.497 203.194 204.658 203.083 202.818 203.123C201.223 203.311 199.617 203.39 198.011 203.359C196.799 203.305 195.604 203.067 194.469 202.651C193.517 202.254 192.549 201.751 192.318 200.796C192.252 200.158 192.387 199.516 192.707 198.955C193.026 198.394 193.515 197.943 194.106 197.661C195.849 196.664 198.077 196.648 200.04 196.589C201.619 196.541 203.258 196.503 204.66 195.796C205.355 195.353 206.077 194.952 206.822 194.595C207.365 194.489 207.921 194.464 208.472 194.52C209.698 194.493 210.925 194.466 212.146 194.456C212.481 194.456 212.817 194.456 213.147 194.456C213.807 194.509 213.928 196.734 214.005 197.162C214.071 197.505 214.082 197.865 214.175 198.197C214.225 198.417 214.285 198.636 214.34 198.856Z" fill="#455A64"/>
<path d="M203.5 196.23C202.713 196.845 202.189 197.724 202.032 198.695C202.065 199.371 200.849 199.43 200.816 198.754C200.816 198.754 200.926 197.227 201.878 196.498C202.376 196.242 202.944 196.148 203.5 196.23Z" fill="#FAFAFA"/>
<path d="M200.684 196.567C200.684 196.567 199.744 197.05 199.502 198.711C199.502 199.21 198.402 199.167 198.44 198.669C198.44 198.669 198.605 197.232 199.408 196.584C199.744 196.374 200.574 196.369 200.684 196.567Z" fill="#FAFAFA"/>
<path d="M225.55 180.268C225.137 181.843 225.187 182.524 225.665 183.757C226.347 185.531 227.557 186.346 228.371 187.037C229.293 187.833 230.1 188.748 230.769 189.755C231.433 190.858 232.278 191.846 233.272 192.681C234.047 193.308 236.192 193.325 237.221 192.88C238.249 192.435 238.585 192.049 238.491 190.441C238.398 188.833 233.371 188.377 233.371 188.377L225.55 180.268Z" fill="#37474F"/>
<path d="M237.71 185.687C238.134 185.837 238.26 186.625 238.354 188.19C238.431 189.374 238.975 191.106 237.314 191.883C235.972 192.515 233.805 192.156 232.865 191.052C231.699 189.68 230.901 188.468 229.235 186.796C227.794 185.344 226.314 184.877 225.621 181.935C225.181 180.042 226.017 179.255 227.315 178.719C229.103 177.936 231.583 179.791 232.876 180.659C233.921 181.334 237.281 185.542 237.71 185.687Z" fill="#455A64"/>
<path d="M232.876 180.573L232.634 180.498C231.816 180.56 231.029 180.832 230.353 181.286C229.677 181.739 229.136 182.359 228.784 183.082C228.547 183.618 229.306 183.998 229.741 183.585C230.119 182.883 230.667 182.281 231.338 181.833C232.009 181.385 232.783 181.103 233.591 181.013C233.386 180.82 233.142 180.671 232.876 180.573Z" fill="#FAFAFA"/>
<path d="M234.069 181.452C233.294 181.547 232.555 181.83 231.923 182.277C231.29 182.724 230.784 183.32 230.45 184.009C230.219 184.545 230.973 184.925 231.407 184.513C231.726 183.899 232.18 183.361 232.737 182.938C233.295 182.516 233.941 182.219 234.63 182.069C234.454 181.849 234.256 181.634 234.069 181.452Z" fill="#FAFAFA"/>
<path d="M237.309 151.007C237.029 145.24 237.672 135.136 237.606 128.04C239.482 121.795 238.156 119.164 236.506 116.082C235.292 113.728 233.91 111.461 232.37 109.296L228.52 125.103L222.344 131.502C222.344 131.502 226.023 150.096 226.931 154.106C227.701 157.514 231.881 185.949 231.881 185.949C232.271 187.804 236.699 188.04 237.749 186.726C238.046 180.418 239.229 162.472 239.245 160.462C239.306 154.572 237.309 151.007 237.309 151.007Z" fill="#B16668"/>
<path d="M210.441 122.669C210.441 122.669 207.994 156.834 207.994 163.614C207.994 166.208 206.542 195.576 206.542 195.576C206.542 196.342 207.273 196.91 209.083 196.835C211.662 196.723 213.125 196.256 213.23 195.763C213.307 195.415 217.261 179.303 218.284 174.039C219.038 170.114 219.182 166.101 218.713 162.135C220.171 154.577 223.113 138.106 223.801 132.698C224.4 128.072 210.441 122.669 210.441 122.669Z" fill="#B16668"/>
<path d="M211.305 110.352C210.057 117.711 209.831 120 208.913 129.433C208.198 136.777 207.758 158.002 207.725 160.966C207.692 163.93 207.114 182.24 207.114 182.24C207.114 182.24 212.796 184.325 216.409 182.776C216.409 182.776 218.01 176.398 218.703 173.503C219.676 169.441 219.654 166.578 219.181 162.006L223.306 137.029C223.306 137.029 226.606 154.974 227.585 160.077C228.564 165.179 229.516 170.137 229.516 170.137C231.06 170.684 232.697 170.937 234.339 170.882C236.006 170.817 237.609 170.237 238.915 169.226C238.915 169.226 239.399 162.462 239.416 160.173C239.443 156.523 239.113 154.706 237.524 150.906L238.046 128.024C238.046 128.024 239.757 123.956 238.596 119.984C237.122 115.015 232.629 107.543 232.629 107.543L211.305 110.352Z" fill="#37474F"/>
<path d="M223.301 137.066L224.951 131.127C224.951 131.127 230.06 130.73 232.777 127.295C231.908 128.903 231.072 130.816 226.463 132.526L224.852 138.588L227.239 158.388L223.301 137.066Z" fill="#263238"/>
<path d="M237.364 88.6224C237.017 86.2265 236.143 83.3214 233.778 82.3244C231.413 81.3275 227.15 81.7187 227.15 81.7187C226.815 82.7907 222.75 84.2111 220.715 82.3244C218.757 82.7264 216.354 83.1606 213.719 83.7877C211.629 84.2808 210.419 91.9939 209.028 94.5077C207.411 97.4289 209.468 100.404 211.525 101.958C211.525 101.958 211.47 106.621 211.31 110.379C214.918 113.327 221.656 114.131 226.864 112.807C230.786 111.81 232.326 110.62 232.65 109.135C232.909 107.977 233.602 104.225 234.174 102.205C235.494 97.52 237.826 91.8116 237.364 88.6224Z" fill="#B16668"/>
<path d="M233.778 82.3244C231.408 81.3328 227.145 81.7187 227.145 81.7187C226.81 82.7907 222.745 84.2111 220.71 82.3244C218.752 82.7264 216.349 83.1605 213.714 83.7877C211.624 84.2808 209.347 89.2013 208.181 94.2289C207.433 97.4449 209.331 100.296 211.382 101.829C211.382 101.829 211.443 103.191 211.465 104.927C215.54 106.841 220.996 107.768 227.459 106.568C229.629 106.169 231.717 105.421 233.635 104.354C233.767 103.968 233.905 103.357 234.79 100.87C235.676 98.3829 237.826 91.8116 237.364 88.6224C237.018 86.2265 236.143 83.3213 233.778 82.3244Z" fill="#4957CC"/>
<path d="M213.713 83.7876C210.54 83.5785 207.042 84.5165 205.634 90.5948C204.534 92.1331 202.807 93.9609 201.234 96.3032C199.474 98.9832 198.484 101.277 196.834 104.209C195.233 107.329 195.948 108.267 197.527 109.698C198.973 111.011 207.806 116.666 208.334 117.32C208.862 117.974 208.334 124.368 209.286 125.279C209.286 125.317 209.286 125.328 209.286 125.279C209.286 125.081 209.467 124.256 209.709 123.226C210.229 121.595 210.969 120.037 211.909 118.595C212.701 117.298 213.427 115.824 213.196 114.307C213.07 113.466 211.838 112.876 210.996 112.083C208.769 110.009 204.545 105.962 204.545 105.962L214.725 94.8131C216.485 92.5941 217.492 85.8137 213.713 83.7876Z" fill="#B16668"/>
<path opacity="0.1" d="M204.562 105.967C203.682 106.777 202.69 107.463 201.614 108.004C202.883 107.844 204.081 107.347 205.079 106.568L204.562 105.967Z" fill="black"/>
<path d="M212.344 59.6515V59.614C212.293 59.2462 212.319 58.8721 212.421 58.5145C212.523 58.1569 212.699 57.8234 212.938 57.5343C213.352 57.1907 213.844 56.9481 214.373 56.8268C215.787 56.3927 217.2 55.9585 218.63 55.5779C221.325 54.8597 224.13 54.3291 226.913 54.6721C229.696 55.0151 232.446 56.3337 233.931 58.6439C234.226 59.0365 234.425 59.4892 234.514 59.9678C234.542 60.2894 234.41 60.5788 234.426 60.9058C234.476 61.9081 234.976 62.8836 235.108 63.8752C235.238 64.9423 235.291 66.0169 235.268 67.0912C235.268 71.54 224.537 73.9788 224.609 77.0287C222.827 74.7239 221.047 72.4155 219.268 70.1035C219.268 69.8248 218.515 69.0959 218.35 68.8547C218.031 68.3991 217.75 67.9113 217.459 67.4396C216.557 65.9656 215.033 65.1884 213.983 63.8591C213.017 62.6479 212.446 61.1822 212.344 59.6515Z" fill="#263238"/>
<path d="M214.385 67.4182C214.385 67.4182 212.438 69.9857 212.664 70.2751C213.079 70.5657 213.545 70.7817 214.039 70.9129L214.385 67.4182Z" fill="#9A4A4D"/>
<path d="M220.347 59.271C218.532 60.075 215.397 61.5705 214.297 67.8042C213.197 74.204 214.589 76.5034 215.469 77.3878C216.063 77.9828 219.242 78.3258 220.93 77.9238C223.037 77.3878 227.646 75.4475 229.906 72.2208C232.574 68.4152 233.322 63.2321 230.539 61.0666C226.65 58.0007 221.887 58.5903 220.347 59.271Z" fill="#B16668"/>
<path d="M220.066 77.554L219.983 82.7157C221.776 85.0205 228.398 84.6292 228.068 81.7991L228.195 76.407L220.066 77.554Z" fill="#B16668"/>
<path d="M215.655 77.5058C216.387 77.9399 218.466 78.2026 220.055 78.0418L220.094 76.8787C219.402 77.1358 218.688 77.3296 217.96 77.4575C217.199 77.5903 216.421 77.6066 215.655 77.5058Z" fill="#9A4A4D"/>
<path d="M219.577 59.0459C218.814 59.2838 218.098 59.6463 217.459 60.1179C217.14 60.3559 216.875 60.6573 216.684 61.0023C216.53 61.3254 216.464 61.6816 216.491 62.0367C216.52 62.5204 216.679 62.9881 216.952 63.3927C217.226 63.7974 217.603 64.1246 218.048 64.3415C217.796 64.6502 217.617 65.0087 217.522 65.3919C217.427 65.7752 217.419 66.174 217.498 66.5606C217.787 67.4634 218.315 68.2765 219.027 68.919C219.063 68.9614 219.108 68.9961 219.159 69.0208C219.21 69.0294 219.263 69.0271 219.313 69.0142C219.363 69.0012 219.41 68.9779 219.45 68.9458C220.6 68.2651 221.348 67.043 222.904 67.6111C224.939 68.3615 224.967 70.3233 223.663 72.0063C223.446 72.3419 223.154 72.6261 222.81 72.8384C222.465 73.0506 222.077 73.1857 221.672 73.2338C221.442 73.2624 221.208 73.2396 220.988 73.1672C220.768 73.0947 220.567 72.9746 220.402 72.8157C220.402 72.8157 220.572 76.5677 223.416 77.9667C223.416 77.9667 226.331 78.9797 228.195 77.9077C229.356 75.9888 231.286 74.7614 232.595 73.0837C236.06 68.6295 239.08 61.1202 231.858 58.4723C231.611 58.3812 231.358 58.2955 231.105 58.2204C227.59 57.1733 223.81 57.363 220.424 58.7564C220.143 58.8422 219.857 58.9601 219.577 59.0459Z" fill="#263238"/>
<path d="M242.55 80.7593C241.504 80.76 240.469 80.5599 239.503 80.1704C238.536 79.781 237.658 79.2098 236.919 78.4895C236.179 77.7692 235.593 76.914 235.192 75.9726C234.792 75.0313 234.586 74.0223 234.586 73.0033V60.343C236.697 60.343 238.722 61.16 240.215 62.6143C241.709 64.0687 242.548 66.0414 242.55 68.0989V80.7593Z" fill="#263238"/>
<path d="M218.796 71.1809C218.607 71.1084 218.435 71 218.289 70.8619C218.144 70.7239 218.028 70.559 217.949 70.3769C217.869 70.1947 217.828 69.9991 217.827 69.8012C217.826 69.6033 217.866 69.4073 217.943 69.2245C218.106 68.8551 218.411 68.5627 218.793 68.4103C219.174 68.258 219.602 68.2577 219.984 68.4098L218.796 71.1809Z" fill="#263238"/>
<path d="M233.965 60.0912C234.102 60.2032 234.261 60.2875 234.432 60.339C234.603 60.3906 234.783 60.4084 234.961 60.3914C235.139 60.3744 235.312 60.323 235.47 60.2402C235.627 60.1574 235.766 60.0447 235.879 59.9089C236.106 59.6308 236.211 59.2769 236.172 58.9238C236.132 58.5707 235.952 58.2468 235.67 58.0222L233.965 60.0912Z" fill="#263238"/>
<path d="M71.3563 59.5976L69.0243 55.3096L70.8998 50.0246V46.8086L65.1523 50.0246V53.2406L67.6218 57.4107C67.6598 57.4767 67.72 57.5278 67.7923 57.5554L71.3563 59.5976Z" fill="#4957CC"/>
<path opacity="0.2" d="M71.3563 59.5976L69.0243 55.3096L70.8998 50.0246V46.8086L65.1523 50.0246V53.2406L67.6218 57.4107C67.6598 57.4767 67.72 57.5278 67.7923 57.5554L71.3563 59.5976Z" fill="black"/>
<path d="M82.3841 34.1055C82.352 33.5234 82.1794 32.9569 81.8802 32.4521C81.5811 31.9473 81.1639 31.5184 80.6626 31.2004L79.2601 30.4071C78.7249 30.1458 78.1345 30.0098 77.5359 30.0098C76.9372 30.0098 76.3469 30.1458 75.8116 30.4071L35.0291 53.4551C34.5277 53.7743 34.1105 54.2042 33.8115 54.7098C33.5124 55.2155 33.3397 55.7827 33.3076 56.3656V67.8896C33.3402 68.4716 33.513 69.0379 33.8121 69.5426C34.1112 70.0474 34.5281 70.4763 35.0291 70.7947L36.4316 71.5826C36.966 71.8468 37.5567 71.9844 38.1559 71.9844C38.755 71.9844 39.3458 71.8468 39.8801 71.5826L68.7496 55.3096L71.2191 59.4744C71.2548 59.5334 71.3071 59.5812 71.3698 59.6123C71.4325 59.6433 71.503 59.6562 71.573 59.6494C71.6429 59.6426 71.7094 59.6165 71.7647 59.5741C71.8199 59.5317 71.8615 59.4748 71.8846 59.41L74.4916 52.0829L80.6516 48.54C81.153 48.2208 81.5702 47.7909 81.8693 47.2852C82.1684 46.7795 82.341 46.2123 82.3731 45.6295L82.3841 34.1055Z" fill="#4957CC"/>
<path opacity="0.2" d="M33.3076 67.8736C33.3402 68.4556 33.513 69.0219 33.8121 69.5266C34.1112 70.0314 34.5281 70.4603 35.0291 70.7787L36.4316 71.5666C36.917 71.8054 37.4489 71.9413 37.992 71.9653C38.5352 71.9893 39.0775 71.9009 39.5831 71.706C38.7746 72.0008 38.1586 71.5559 38.1586 70.5964V59.0778C38.1795 58.4934 38.3517 57.9237 38.6591 57.4216L33.8136 54.6719C33.502 55.1725 33.3278 55.7429 33.3076 56.3281V67.8736Z" fill="black"/>
<path opacity="0.4" d="M82.3294 33.6286C82.1259 32.9157 81.4604 32.6906 80.6794 33.1354L39.8969 56.1834C39.3864 56.4909 38.9673 56.9234 38.6814 57.4377L33.8359 54.7148C34.1199 54.2008 34.5371 53.7684 35.0459 53.4606L75.8284 30.4126C76.3628 30.1484 76.9535 30.0107 77.5527 30.0107C78.1519 30.0107 78.7426 30.1484 79.2769 30.4126L80.6794 31.2005C81.1083 31.4758 81.4756 31.8328 81.7592 32.2501C82.0428 32.6674 82.2367 33.1363 82.3294 33.6286Z" fill="white"/>
<path d="M40.1497 61.8542C40.1072 61.7869 40.0915 61.7068 40.1057 61.6291C40.1176 61.5327 40.1494 61.4397 40.1992 61.3557L41.9702 58.3219C42.0142 58.2469 42.0637 58.1558 42.1297 58.0593C42.1823 57.9673 42.258 57.8898 42.3497 57.8342L43.3507 57.2714C43.3722 57.2514 43.4007 57.2402 43.4304 57.2402C43.4601 57.2402 43.4887 57.2514 43.5102 57.2714C43.5348 57.2981 43.5534 57.3296 43.5647 57.3637C43.5761 57.3979 43.58 57.434 43.5762 57.4697V65.4507C43.5753 65.5455 43.5528 65.6389 43.5102 65.7241C43.4782 65.7998 43.4223 65.8636 43.3507 65.9063L42.2507 66.5174C42.229 66.5348 42.2018 66.5443 42.1737 66.5443C42.1456 66.5443 42.1184 66.5348 42.0967 66.5174C42.0727 66.4903 42.0544 66.4588 42.0431 66.4247C42.0318 66.3907 42.0275 66.3547 42.0307 66.3191V60.9162L41.0462 62.5831C41.0145 62.6536 40.9579 62.7107 40.8867 62.7439C40.8602 62.7555 40.8303 62.757 40.8028 62.7481C40.7753 62.7391 40.7522 62.7204 40.7382 62.6957L40.1497 61.8542Z" fill="#FAFAFA"/>
<path d="M44.5879 63.4086C44.6034 63.2757 44.6386 63.1457 44.6924 63.0227C44.7391 62.8988 44.8285 62.7945 44.9454 62.7279L45.9574 62.1758C45.9752 62.1614 45.9976 62.1536 46.0207 62.1536C46.0438 62.1536 46.0662 62.1614 46.0839 62.1758C46.1044 62.1972 46.1199 62.2226 46.1294 62.2504C46.1389 62.2781 46.1421 62.3075 46.1389 62.3366C46.1419 62.3669 46.1419 62.3974 46.1389 62.4277L45.5009 65.2471C45.4738 65.3579 45.4351 65.4656 45.3854 65.5687C45.3396 65.6844 45.2541 65.781 45.1434 65.8421L44.5274 66.1905C44.5102 66.2059 44.4876 66.2145 44.4642 66.2145C44.4408 66.2145 44.4182 66.2059 44.4009 66.1905C44.3805 66.1691 44.3649 66.1437 44.3555 66.1159C44.346 66.0882 44.3427 66.0587 44.3459 66.0297L44.5879 63.4086Z" fill="#FAFAFA"/>
<path d="M51.4521 55.4812C51.4521 55.7214 51.4355 55.9614 51.4026 56.1995C51.3657 56.4517 51.3087 56.7008 51.2321 56.9445C51.1481 57.2179 51.0433 57.4849 50.9186 57.7431C50.7781 58.0464 50.6202 58.3416 50.4456 58.6275L49.2906 60.5679L51.3586 59.4047C51.3801 59.3848 51.4087 59.3736 51.4384 59.3736C51.4681 59.3736 51.4966 59.3848 51.5181 59.4047C51.5427 59.4315 51.5613 59.4629 51.5727 59.4971C51.584 59.5312 51.5879 59.5673 51.5841 59.6031V60.9109C51.5832 61.0057 51.5607 61.0991 51.5181 61.1843C51.4847 61.2605 51.4293 61.3257 51.3586 61.3719L47.0136 63.816C46.9916 63.8349 46.9632 63.8453 46.9339 63.8453C46.9045 63.8453 46.8762 63.8349 46.8541 63.816C46.8301 63.7889 46.8119 63.7574 46.8005 63.7234C46.7892 63.6893 46.785 63.6534 46.7881 63.6177V62.5457C46.7885 62.4029 46.8069 62.2607 46.8431 62.1223C46.8786 61.9662 46.9419 61.8175 47.0301 61.6827L49.4996 57.6842C49.6589 57.438 49.7812 57.1709 49.8626 56.8909C49.9088 56.7156 49.9346 56.5358 49.9396 56.3549C49.9396 56.2959 49.9396 56.2209 49.9396 56.1244C49.926 56.0335 49.8943 55.9461 49.8461 55.8671C49.7984 55.7942 49.7235 55.7423 49.6371 55.7224C49.5064 55.7107 49.3757 55.7449 49.2686 55.8189C49.1197 55.8983 48.9917 56.0102 48.8946 56.1459C48.8041 56.2673 48.7285 56.3986 48.6691 56.5371C48.6229 56.6562 48.5843 56.7779 48.5536 56.9016L48.5041 57.1643C48.486 57.2733 48.4407 57.3764 48.3721 57.4644C48.3183 57.5322 48.2509 57.5887 48.1741 57.6306L47.1566 58.2041C47.1388 58.2185 47.1165 58.2264 47.0934 58.2264C47.0703 58.2264 47.0479 58.2185 47.0301 58.2041C46.9924 58.159 46.9746 58.1012 46.9806 58.0433C46.9899 57.6676 47.0397 57.2939 47.1291 56.9284C47.2127 56.5204 47.3437 56.123 47.5196 55.7439C47.7081 55.3596 47.9445 54.9996 48.2236 54.6719C48.5043 54.3424 48.8433 54.0646 49.2246 53.8518C49.5121 53.6695 49.8445 53.5658 50.1871 53.5516C50.4424 53.5479 50.6897 53.6378 50.8801 53.8035C51.0834 53.9908 51.2315 54.2277 51.3091 54.4896C51.4063 54.8116 51.4545 55.1457 51.4521 55.4812Z" fill="#FAFAFA"/>
<path d="M52.4366 58.9921C52.452 58.8592 52.4872 58.7292 52.5411 58.6062C52.5896 58.4833 52.6786 58.3796 52.7941 58.3114L53.8061 57.7378C53.8238 57.7235 53.8462 57.7156 53.8693 57.7156C53.8924 57.7156 53.9148 57.7235 53.9326 57.7378C53.953 57.7592 53.9685 57.7846 53.978 57.8124C53.9875 57.8401 53.9908 57.8696 53.9876 57.8986C53.9906 57.9289 53.9906 57.9595 53.9876 57.9898L53.3496 60.8198C53.3225 60.9306 53.2838 61.0384 53.2341 61.1414C53.1883 61.2571 53.1027 61.3537 52.9921 61.4148L52.3761 61.7632C52.3588 61.7786 52.3362 61.7872 52.3128 61.7872C52.2894 61.7872 52.2668 61.7786 52.2496 61.7632C52.2291 61.7418 52.2136 61.7164 52.2041 61.6886C52.1946 61.6609 52.1913 61.6315 52.1946 61.6024L52.4366 58.9921Z" fill="#FAFAFA"/>
<path d="M59.0032 48.4542C59.0238 48.4346 59.0514 48.4236 59.0802 48.4236C59.109 48.4236 59.1367 48.4346 59.1572 48.4542C59.1814 48.4802 59.1997 48.5107 59.2111 48.5439C59.2225 48.5772 59.2266 48.6123 59.2232 48.6472V49.9604C59.2231 50.0558 59.2045 50.1504 59.1682 50.2391C59.1297 50.3356 59.0912 50.416 59.0582 50.4857L58.0627 52.5546C58.2439 52.5094 58.4337 52.5077 58.6158 52.5497C58.7978 52.5917 58.9666 52.6762 59.1077 52.7958C59.2633 52.9786 59.3795 53.19 59.4494 53.4174C59.5193 53.6449 59.5416 53.8837 59.5147 54.1197C59.5403 54.9679 59.326 55.8065 58.8953 56.5439C58.4646 57.2812 57.8341 57.889 57.0727 58.3005C56.754 58.4942 56.3987 58.6236 56.0277 58.6811C55.7624 58.7194 55.4913 58.6764 55.2522 58.5578C55.0373 58.4345 54.8693 58.2464 54.7737 58.0218C54.6552 57.7716 54.5951 57.4988 54.5977 57.2232C54.5981 57.1473 54.615 57.0724 54.6472 57.0034C54.6746 56.9415 54.7206 56.8892 54.7792 56.8533L55.8132 56.2691C55.9269 56.2048 56.0149 56.1941 56.0772 56.2369L56.2807 56.3763C56.3667 56.4297 56.4651 56.461 56.5667 56.4674C56.7483 56.4605 56.9239 56.4029 57.0727 56.3013C57.3347 56.1621 57.5649 55.9724 57.7492 55.7438C57.9198 55.519 58.0105 55.2462 58.0077 54.9666C58.0077 54.6826 57.9197 54.5164 57.7492 54.4842C57.5154 54.4638 57.2816 54.5245 57.0892 54.6557L56.4072 55.0417C56.3856 55.0591 56.3583 55.0686 56.3302 55.0686C56.3021 55.0686 56.2749 55.0591 56.2532 55.0417C56.2292 55.0146 56.211 54.9831 56.1996 54.949C56.1883 54.915 56.1841 54.879 56.1872 54.8433V53.7713C56.1879 53.6759 56.2065 53.5815 56.2422 53.4926C56.2807 53.3962 56.3192 53.3104 56.3577 53.23L57.1992 51.4558L55.0487 52.6672C55.0271 52.6846 54.9998 52.6941 54.9717 52.6941C54.9436 52.6941 54.9164 52.6846 54.8947 52.6672C54.8707 52.6401 54.8525 52.6086 54.8411 52.5745C54.8298 52.5405 54.8256 52.5045 54.8287 52.4689V51.1235C54.8297 51.0305 54.8523 50.9388 54.8947 50.8555C54.9249 50.779 54.9787 50.7134 55.0487 50.6679L59.0032 48.4542Z" fill="#FAFAFA"/>
<path d="M61.8194 55.2079C61.8185 55.3026 61.7959 55.396 61.7534 55.4812C61.7214 55.5583 61.6657 55.6239 61.5939 55.6688L60.4939 56.2745C60.4733 56.2942 60.4457 56.3052 60.4169 56.3052C60.3881 56.3052 60.3604 56.2942 60.3399 56.2745C60.3153 56.2478 60.2967 56.2163 60.2853 56.1822C60.274 56.148 60.2701 56.1119 60.2739 56.0762V54.4682C60.2748 54.3752 60.2974 54.2835 60.3399 54.2002C60.3701 54.1237 60.4239 54.0581 60.4939 54.0126L61.5939 53.4069C61.6159 53.3881 61.6443 53.3777 61.6736 53.3777C61.703 53.3777 61.7313 53.3881 61.7534 53.4069C61.7774 53.434 61.7956 53.4655 61.807 53.4996C61.8183 53.5336 61.8225 53.5696 61.8194 53.6052V55.2079Z" fill="#FAFAFA"/>
<path d="M64.1842 53.8517C64.1833 53.9465 64.1608 54.0399 64.1182 54.1251C64.0862 54.2022 64.0305 54.2678 63.9587 54.3127L62.8587 54.9184C62.8375 54.9368 62.8101 54.947 62.7817 54.947C62.7533 54.947 62.7259 54.9368 62.7047 54.9184C62.6807 54.8913 62.6624 54.8598 62.6511 54.8257C62.6398 54.7917 62.6356 54.7557 62.6387 54.7201V53.1121C62.6396 53.0173 62.6621 52.9239 62.7047 52.8387C62.7362 52.7643 62.7898 52.7008 62.8587 52.6565L63.9587 52.0454C63.9817 52.0285 64.0097 52.0193 64.0385 52.0193C64.0673 52.0193 64.0953 52.0285 64.1182 52.0454C64.1422 52.0725 64.1605 52.104 64.1718 52.1381C64.1831 52.1721 64.1874 52.2081 64.1842 52.2437V53.8517Z" fill="#FAFAFA"/>
<path d="M66.5494 52.5279C66.5486 52.6226 66.526 52.716 66.4834 52.8012C66.4518 52.8769 66.3983 52.9421 66.3294 52.9888L65.2294 53.5945C65.2074 53.6133 65.179 53.6237 65.1497 53.6237C65.1204 53.6237 65.092 53.6133 65.0699 53.5945C65.0459 53.5674 65.0277 53.5359 65.0163 53.5018C65.005 53.4678 65.0008 53.4319 65.0039 53.3962V51.7882C65.0048 51.6934 65.0274 51.6 65.0699 51.5148C65.1035 51.44 65.159 51.3766 65.2294 51.3326L66.3294 50.7215C66.3511 50.7041 66.3783 50.6946 66.4064 50.6946C66.4345 50.6946 66.4618 50.7041 66.4834 50.7215C66.5075 50.7486 66.5257 50.7801 66.537 50.8142C66.5484 50.8482 66.5526 50.8842 66.5494 50.9199V52.5279Z" fill="#FAFAFA"/>
<path d="M69.8166 44.2197C69.6382 44.32 69.4784 44.4486 69.3435 44.6003C69.2192 44.7508 69.1156 44.9166 69.0355 45.0934C68.9577 45.2655 68.8987 45.4452 68.8595 45.6294C68.8209 45.8243 68.7933 46.0211 68.7771 46.219C68.7771 46.3315 68.7771 46.4816 68.7771 46.6746V47.2642C68.7771 47.4625 68.7771 47.6608 68.7771 47.8538C68.7771 48.0467 68.7771 48.1915 68.7771 48.2933C68.7868 48.4614 68.8125 48.6283 68.8541 48.7918C68.8872 48.9212 68.9492 49.042 69.0355 49.1455C69.0749 49.1889 69.1231 49.2237 69.1771 49.2477C69.2311 49.2717 69.2897 49.2844 69.349 49.2849C69.5161 49.2826 69.6788 49.2323 69.8166 49.1402C69.9635 49.0579 70.0985 48.957 70.218 48.84C70.3484 48.7171 70.4596 48.5763 70.5481 48.4219C70.6444 48.2531 70.7183 48.073 70.768 47.8859C70.8249 47.6651 70.8526 47.4382 70.8506 47.2106L70.163 47.6019C70.1401 47.6188 70.1121 47.628 70.0833 47.628C70.0545 47.628 70.0265 47.6188 70.0035 47.6019C69.9795 47.5748 69.9613 47.5433 69.95 47.5092C69.9386 47.4751 69.9344 47.4392 69.9376 47.4035V46.0957C69.9377 46.0026 69.9603 45.9108 70.0035 45.8277C70.0355 45.7506 70.0912 45.685 70.163 45.6401L72.1541 44.5145C72.1752 44.496 72.2026 44.4858 72.2311 44.4858C72.2595 44.4858 72.2869 44.496 72.308 44.5145C72.3325 44.5402 72.351 44.5708 72.3624 44.604C72.3738 44.6373 72.3778 44.6726 72.374 44.7075V46.2887C72.3757 46.8058 72.3092 47.321 72.176 47.8216C72.052 48.3012 71.8673 48.764 71.626 49.1991C71.4055 49.6085 71.1319 49.9886 70.812 50.3301C70.5205 50.6449 70.181 50.9143 69.8055 51.1287C69.489 51.326 69.1249 51.4387 68.7495 51.4557C68.4599 51.4577 68.179 51.3589 67.9575 51.177C67.716 50.9683 67.5405 50.6968 67.4515 50.3944C67.3246 50.0132 67.256 49.6159 67.248 49.2152C67.248 48.89 67.248 48.5327 67.248 48.1432C67.248 47.7573 67.248 47.3821 67.248 47.023C67.2608 46.5492 67.3272 46.0782 67.446 45.6187C67.565 45.1522 67.7346 44.6994 67.9521 44.2679C68.1655 43.8484 68.4335 43.4575 68.7495 43.1048C69.053 42.7629 69.4115 42.4715 69.811 42.2419C70.1222 42.0503 70.4777 41.9379 70.845 41.9149C71.1217 41.903 71.3956 41.972 71.6316 42.1132C71.8483 42.257 72.0212 42.4552 72.132 42.6867C72.253 42.9276 72.3204 43.1906 72.33 43.4586C72.3342 43.5348 72.3171 43.6108 72.2805 43.6783C72.2515 43.7406 72.2059 43.7943 72.1485 43.8338L71.0485 44.4502C70.966 44.4931 70.9 44.4931 70.856 44.4502L70.7185 44.3055C70.641 44.1989 70.5315 44.1184 70.405 44.075C70.302 44.0596 70.1969 44.0645 70.0958 44.0893C69.9947 44.1142 69.8998 44.1585 69.8166 44.2197Z" fill="#FAFAFA"/>
<path d="M77.5053 43.0085C77.5053 43.1265 77.5053 43.2873 77.5053 43.4802C77.5053 43.6732 77.5053 43.834 77.5053 43.9573C77.4929 44.3683 77.432 44.7765 77.3238 45.174C77.2164 45.5762 77.0652 45.9661 76.8728 46.3371C76.6844 46.6974 76.4517 47.034 76.1798 47.3394C75.9181 47.6305 75.6098 47.8785 75.2668 48.0737C74.9937 48.2421 74.6818 48.3416 74.3593 48.3632C74.1069 48.3747 73.8587 48.2966 73.6608 48.1434C73.4528 47.969 73.297 47.7431 73.2098 47.4895C73.0926 47.1657 73.0313 46.8252 73.0283 46.4818C73.0283 46.3585 73.0283 46.2031 73.0283 46.0101C73.0283 45.8172 73.0283 45.6564 73.0283 45.5277C73.0344 45.1187 73.0916 44.7119 73.1988 44.3164C73.3082 43.914 73.4612 43.5241 73.6553 43.1533C73.8474 42.7893 74.0838 42.4491 74.3593 42.1402C74.6162 41.8449 74.9232 41.5948 75.2668 41.4005C75.5407 41.2302 75.8553 41.1323 76.1798 41.1165C76.4323 41.1111 76.6789 41.1906 76.8783 41.3416C77.088 41.5145 77.2442 41.7409 77.3293 41.9955C77.445 42.3214 77.5045 42.6637 77.5053 43.0085ZM74.5078 45.5599C74.5004 45.6714 74.5166 45.7831 74.5554 45.8883C74.5942 45.9934 74.6548 46.0896 74.7333 46.1709C74.8161 46.2247 74.9146 46.2507 75.0139 46.2448C75.1131 46.239 75.2078 46.2018 75.2833 46.1388C75.5203 46.0066 75.7117 45.8088 75.8333 45.5706C75.9712 45.3021 76.0481 45.0078 76.0588 44.7077C76.0588 44.579 76.0588 44.4343 76.0588 44.2789C76.0588 44.1234 76.0588 43.9841 76.0588 43.8715C76.0662 43.76 76.05 43.6483 76.0112 43.5431C75.9724 43.438 75.9119 43.3418 75.8333 43.2605C75.7506 43.2067 75.6521 43.1808 75.5528 43.1866C75.4535 43.1924 75.3589 43.2296 75.2833 43.2926C75.0476 43.4263 74.8566 43.6236 74.7333 43.8608C74.597 44.1299 74.5202 44.4239 74.5078 44.7237C74.5078 44.8524 74.5078 44.9971 74.5078 45.1525C74.5078 45.308 74.4968 45.4688 74.5078 45.5599Z" fill="#FAFAFA"/>
<path d="M79.7881 42.4135C79.7872 42.5082 79.7647 42.6016 79.7221 42.6868C79.6919 42.7634 79.6381 42.8289 79.5681 42.8744L78.5286 43.4587C78.5075 43.4771 78.48 43.4873 78.4516 43.4873C78.4232 43.4873 78.3958 43.4771 78.3746 43.4587C78.3506 43.4316 78.3324 43.4001 78.321 43.366C78.3097 43.3319 78.3055 43.296 78.3086 43.2603V37.9218C78.3096 37.8287 78.3322 37.7371 78.3746 37.6538C78.4048 37.5772 78.4586 37.5117 78.5286 37.4662L79.5681 36.8819C79.5893 36.8635 79.6167 36.8533 79.6451 36.8533C79.6735 36.8533 79.701 36.8635 79.7221 36.8819C79.7462 36.909 79.7644 36.9405 79.7757 36.9746C79.7871 37.0086 79.7913 37.0446 79.7881 37.0803V42.4135ZM79.7881 45.0935C79.7872 45.1882 79.7647 45.2816 79.7221 45.3668C79.6905 45.4425 79.637 45.5077 79.5681 45.5544L78.5286 46.0958C78.507 46.1132 78.4797 46.1227 78.4516 46.1227C78.4235 46.1227 78.3963 46.1132 78.3746 46.0958C78.3506 46.0687 78.3324 46.0372 78.321 46.0031C78.3097 45.9691 78.3055 45.9331 78.3086 45.8975V44.6593C78.3095 44.5645 78.3321 44.4711 78.3746 44.3859C78.4063 44.3102 78.4598 44.2451 78.5286 44.1983L79.5681 43.6141C79.5898 43.5967 79.617 43.5871 79.6451 43.5871C79.6732 43.5871 79.7005 43.5967 79.7221 43.6141C79.7462 43.6412 79.7644 43.6727 79.7757 43.7067C79.7871 43.7408 79.7913 43.7767 79.7881 43.8124V45.0935Z" fill="#FAFAFA"/>
<path d="M224.636 46.8786L222.298 42.5906L224.179 37.3056V34.0896L218.432 37.3056V40.5216L220.901 44.6917C220.941 44.7561 221.001 44.8068 221.072 44.8364L224.636 46.8786Z" fill="#4957CC"/>
<path opacity="0.2" d="M224.636 46.8786L222.298 42.5906L224.179 37.3056V34.0896L218.432 37.3056V40.5216L220.901 44.6917C220.941 44.7561 221.001 44.8068 221.072 44.8364L224.636 46.8786Z" fill="black"/>
<path d="M239.519 19.2637C239.487 18.6809 239.314 18.1137 239.015 17.608C238.716 17.1023 238.299 16.6725 237.797 16.3533L236.395 15.5439C235.861 15.2798 235.27 15.1421 234.671 15.1421C234.071 15.1421 233.481 15.2798 232.946 15.5439L203.857 31.8812C203.355 32.1996 202.938 32.6284 202.638 33.1331C202.338 33.6377 202.164 34.204 202.13 34.7863V46.3103C202.163 46.8935 202.337 47.4609 202.637 47.9665C202.937 48.4722 203.355 48.9019 203.857 49.2208L205.259 50.0087C205.793 50.2728 206.383 50.4105 206.981 50.4105C207.579 50.4105 208.169 50.2728 208.702 50.0087L222.04 42.5905L224.504 46.7552C224.54 46.8142 224.592 46.8621 224.655 46.8931C224.717 46.9241 224.788 46.937 224.858 46.9302C224.928 46.9235 224.994 46.8973 225.049 46.8549C225.105 46.8125 225.146 46.7556 225.169 46.6909L227.776 39.3637L237.797 33.6982C238.299 33.379 238.716 32.9492 239.015 32.4435C239.314 31.9378 239.487 31.3706 239.519 30.7877V19.2637Z" fill="#4957CC"/>
<path opacity="0.2" d="M202.13 46.3104C202.163 46.8936 202.337 47.461 202.637 47.9666C202.937 48.4723 203.355 48.9019 203.857 49.2209L205.259 50.0088C205.745 50.2467 206.277 50.3817 206.82 50.4048C207.364 50.4279 207.906 50.3386 208.411 50.1428C207.597 50.4429 206.981 49.9981 206.981 49.0386V37.52C207.001 36.9365 207.175 36.3679 207.487 35.8691L202.636 33.1409C202.327 33.6407 202.153 34.2087 202.13 34.7918V46.3104Z" fill="black"/>
<path opacity="0.4" d="M239.464 18.7866C239.261 18.0737 238.595 17.8486 237.814 18.2935L208.719 34.6093C208.21 34.9182 207.791 35.3503 207.504 35.8636L202.658 33.1353C202.947 32.6232 203.366 32.1914 203.874 31.8811L232.947 15.5438C233.482 15.2825 234.072 15.1465 234.671 15.1465C235.27 15.1465 235.86 15.2825 236.395 15.5438L237.798 16.3371C238.232 16.6132 238.604 16.9729 238.891 17.3941C239.177 17.8153 239.372 18.2892 239.464 18.7866Z" fill="white"/>
<path d="M209.23 40.1999C209.187 40.135 209.171 40.0562 209.186 39.9802C209.198 39.8838 209.23 39.7909 209.28 39.7068L211.051 36.6677C211.095 36.598 211.144 36.5069 211.21 36.4051C211.263 36.3146 211.339 36.2389 211.43 36.1853L212.431 35.6493C212.453 35.6293 212.481 35.6182 212.511 35.6182C212.541 35.6182 212.569 35.6293 212.591 35.6493C212.615 35.6752 212.633 35.7058 212.645 35.739C212.656 35.7722 212.66 35.8074 212.657 35.8423V43.8287C212.657 43.9218 212.634 44.0136 212.591 44.0967C212.559 44.1738 212.503 44.2393 212.431 44.2843L211.331 44.8953C211.309 44.9127 211.282 44.9223 211.254 44.9223C211.226 44.9223 211.199 44.9127 211.177 44.8953C211.153 44.8682 211.135 44.8367 211.124 44.8027C211.112 44.7686 211.108 44.7327 211.111 44.697V39.2619L210.127 40.9289C210.092 40.9971 210.036 41.0532 209.967 41.0897C209.941 41.1013 209.911 41.1028 209.883 41.0938C209.856 41.0849 209.833 41.0662 209.819 41.0415L209.23 40.1999Z" fill="#FAFAFA"/>
<path d="M213.691 41.749C213.707 41.6179 213.742 41.4898 213.795 41.3684C213.843 41.244 213.932 41.1385 214.048 41.0682L215.049 40.5001C215.066 40.4846 215.089 40.4761 215.112 40.4761C215.136 40.4761 215.158 40.4846 215.176 40.5001C215.196 40.5215 215.212 40.5469 215.221 40.5746C215.231 40.6024 215.234 40.6318 215.231 40.6609C215.234 40.6912 215.234 40.7217 215.231 40.752L214.593 43.5714C214.566 43.6821 214.527 43.7899 214.477 43.893C214.431 44.0086 214.346 44.1052 214.235 44.1663L213.619 44.5147C213.601 44.5291 213.579 44.537 213.556 44.537C213.533 44.537 213.511 44.5291 213.493 44.5147C213.472 44.4933 213.457 44.4679 213.447 44.4402C213.438 44.4124 213.435 44.383 213.438 44.3539L213.691 41.749Z" fill="#FAFAFA"/>
<path d="M220.55 33.8269C220.55 34.0671 220.533 34.307 220.5 34.5451C220.463 34.7973 220.406 35.0463 220.33 35.2901C220.245 35.5633 220.14 35.8301 220.016 36.0888C219.876 36.392 219.718 36.6873 219.543 36.9732L218.388 38.9349L220.456 37.7718C220.478 37.7518 220.506 37.7407 220.536 37.7407C220.566 37.7407 220.594 37.7518 220.616 37.7718C220.64 37.7977 220.658 37.8283 220.67 37.8615C220.681 37.8947 220.685 37.9299 220.682 37.9648V39.2887C220.681 39.3835 220.658 39.4768 220.616 39.5621C220.582 39.6368 220.527 39.7003 220.456 39.7443L216.111 42.1938C216.089 42.2127 216.061 42.2231 216.032 42.2231C216.002 42.2231 215.974 42.2127 215.952 42.1938C215.928 42.1667 215.91 42.1352 215.898 42.1012C215.887 42.0671 215.883 42.0312 215.886 41.9955V40.9235C215.886 40.7789 215.905 40.635 215.941 40.4947C215.977 40.3407 216.041 40.1938 216.128 40.0605L218.586 36.0298C218.746 35.7837 218.868 35.5165 218.949 35.2365C218.995 35.0612 219.021 34.8814 219.026 34.7005C219.026 34.6416 219.026 34.5665 219.026 34.4701C219.014 34.379 218.982 34.2914 218.933 34.2128C218.885 34.1399 218.81 34.088 218.724 34.0681C218.593 34.05 218.461 34.0828 218.355 34.1592C218.207 34.2422 218.08 34.3556 217.981 34.4915C217.89 34.6123 217.814 34.7437 217.756 34.8828C217.709 35.0016 217.67 35.1233 217.64 35.2473L217.591 35.5045C217.574 35.6155 217.528 35.7205 217.459 35.8101C217.403 35.8765 217.336 35.9328 217.261 35.9762L216.243 36.5444C216.226 36.5598 216.203 36.5684 216.18 36.5684C216.157 36.5684 216.134 36.5598 216.117 36.5444C216.079 36.4993 216.061 36.4415 216.067 36.3836C216.076 36.0079 216.126 35.6342 216.216 35.2687C216.311 34.863 216.453 34.4692 216.639 34.0949C216.828 33.7106 217.064 33.3506 217.343 33.0229C217.624 32.6793 217.964 32.3871 218.35 32.1599C218.637 31.9788 218.97 31.8769 219.312 31.8651C219.568 31.8614 219.815 31.9513 220.005 32.117C220.209 32.3043 220.357 32.5412 220.434 32.8031C220.525 33.1367 220.564 33.4819 220.55 33.8269Z" fill="#FAFAFA"/>
<path d="M221.539 37.3376C221.555 37.2047 221.59 37.0747 221.644 36.9517C221.692 36.8273 221.781 36.7218 221.897 36.6515L222.909 36.0833C222.926 36.0679 222.948 36.0593 222.972 36.0593C222.995 36.0593 223.018 36.0679 223.035 36.0833C223.056 36.1047 223.071 36.1302 223.081 36.1579C223.09 36.1856 223.093 36.2151 223.09 36.2441C223.093 36.2744 223.093 36.305 223.09 36.3353L222.452 39.1546C222.425 39.2654 222.386 39.3732 222.337 39.4762C222.291 39.5919 222.205 39.6885 222.095 39.7496L221.479 40.098C221.461 40.1124 221.438 40.1202 221.415 40.1202C221.392 40.1202 221.37 40.1124 221.352 40.098C221.332 40.0766 221.316 40.0512 221.307 40.0234C221.297 39.9957 221.294 39.9663 221.297 39.9372L221.539 37.3376Z" fill="#FAFAFA"/>
<path d="M228.107 26.7999C228.128 26.7825 228.156 26.7729 228.184 26.7729C228.212 26.7729 228.239 26.7825 228.261 26.7999C228.285 26.827 228.303 26.8585 228.314 26.8926C228.326 26.9266 228.33 26.9625 228.327 26.9982V28.3114C228.327 28.4069 228.308 28.5015 228.272 28.5901C228.233 28.6866 228.195 28.767 228.162 28.8367L227.15 30.9057C227.331 30.8625 227.521 30.8623 227.703 30.9052C227.885 30.9481 228.053 31.0328 228.195 31.1522C228.351 31.3347 228.467 31.546 228.537 31.7736C228.607 32.0011 228.629 32.2401 228.602 32.4761C228.62 33.3396 228.397 34.1917 227.958 34.9417C227.524 35.6562 226.903 36.2461 226.16 36.6516C225.842 36.8486 225.486 36.9799 225.115 37.0375C224.849 37.0734 224.579 37.0304 224.339 36.9142C224.124 36.7909 223.956 36.6028 223.861 36.3782C223.742 36.128 223.682 35.8552 223.685 35.5796C223.685 35.5037 223.702 35.4288 223.734 35.3598C223.763 35.2975 223.809 35.2439 223.866 35.2044L224.9 34.6255C225.016 34.5558 225.104 34.5505 225.164 34.5933L225.368 34.7327C225.454 34.7861 225.552 34.8174 225.654 34.8238C225.835 34.8169 226.011 34.7593 226.16 34.6577C226.417 34.5155 226.64 34.3218 226.814 34.0895C226.988 33.8661 227.081 33.5927 227.078 33.3123C227.078 33.0229 226.99 32.8621 226.814 32.8299C226.582 32.8074 226.349 32.8684 226.16 33.0014L225.478 33.382C225.457 33.4016 225.429 33.4126 225.401 33.4126C225.372 33.4126 225.344 33.4016 225.324 33.382C225.299 33.3561 225.281 33.3255 225.27 33.2923C225.258 33.2591 225.254 33.2239 225.258 33.189V32.1599C225.258 32.0644 225.276 31.9699 225.313 31.8812C225.351 31.7847 225.39 31.6989 225.428 31.6185L226.303 29.8069L224.152 31.0129C224.132 31.0325 224.104 31.0435 224.075 31.0435C224.046 31.0435 224.019 31.0325 223.998 31.0129C223.974 30.9869 223.956 30.9564 223.944 30.9232C223.933 30.8899 223.929 30.8548 223.932 30.8199V29.4799C223.933 29.3851 223.956 29.2918 223.998 29.2065C224.03 29.1321 224.083 29.0687 224.152 29.0243L228.107 26.7999Z" fill="#FAFAFA"/>
<path d="M230.922 33.5268C230.922 33.6216 230.899 33.7149 230.856 33.8001C230.823 33.8764 230.768 33.9416 230.697 33.9877L229.597 34.5934C229.576 34.6119 229.548 34.6221 229.52 34.6221C229.492 34.6221 229.464 34.6119 229.443 34.5934C229.419 34.5663 229.401 34.5348 229.389 34.5008C229.378 34.4667 229.374 34.4308 229.377 34.3951V32.7871C229.378 32.6923 229.4 32.599 229.443 32.5137C229.474 32.4394 229.528 32.3759 229.597 32.3315L230.697 31.7205C230.72 31.7035 230.748 31.6943 230.777 31.6943C230.806 31.6943 230.834 31.7035 230.856 31.7205C230.881 31.7476 230.899 31.7791 230.91 31.8131C230.921 31.8472 230.926 31.8831 230.922 31.9188V33.5268Z" fill="#FAFAFA"/>
<path d="M233.288 32.1974C233.287 32.2922 233.264 32.3856 233.222 32.4708C233.188 32.5471 233.133 32.6122 233.062 32.6584L231.962 33.2641C231.941 33.2825 231.914 33.2927 231.885 33.2927C231.857 33.2927 231.829 33.2825 231.808 33.2641C231.784 33.237 231.766 33.2055 231.755 33.1714C231.743 33.1374 231.739 33.1014 231.742 33.0658V31.4578C231.743 31.363 231.766 31.2696 231.808 31.1844C231.84 31.1087 231.893 31.0435 231.962 30.9968L233.062 30.3911C233.085 30.3742 233.113 30.365 233.142 30.365C233.171 30.365 233.199 30.3742 233.222 30.3911C233.246 30.4182 233.264 30.4497 233.275 30.4838C233.287 30.5178 233.291 30.5538 233.288 30.5894V32.1974Z" fill="#FAFAFA"/>
<path d="M235.647 30.8682C235.646 30.963 235.624 31.0563 235.581 31.1415C235.549 31.2173 235.496 31.2824 235.427 31.3292L234.327 31.9348C234.305 31.9537 234.277 31.9641 234.247 31.9641C234.218 31.9641 234.19 31.9537 234.168 31.9348C234.144 31.9077 234.125 31.8762 234.114 31.8422C234.103 31.8081 234.098 31.7722 234.102 31.7365V30.1285C234.102 30.0337 234.125 29.9404 234.168 29.8552C234.201 29.7789 234.256 29.7137 234.327 29.6675L235.427 29.0619C235.449 29.0444 235.476 29.0349 235.504 29.0349C235.532 29.0349 235.559 29.0444 235.581 29.0619C235.605 29.089 235.623 29.1205 235.635 29.1545C235.646 29.1886 235.65 29.2245 235.647 29.2602V30.8682Z" fill="#FAFAFA"/>
</svg>
