<svg width="24" height="24" viewBox="0 0 24 24" fill="none" xmlns="http://www.w3.org/2000/svg">
<g clip-path="url(#clip0_80_4035)">
<path d="M22.2 2.16297C21.6378 1.6929 20.9791 1.35236 20.2705 1.16554C19.5619 0.978712 18.8209 0.950181 18.1 1.08197L14.278 1.77597C13.3956 1.93802 12.5933 2.392 12 3.06497C11.4052 2.39084 10.6006 1.93675 9.71599 1.77597L5.89999 1.08197C5.17915 0.950066 4.43812 0.978222 3.72937 1.16445C3.02061 1.35067 2.36146 1.69042 1.79856 2.15963C1.23566 2.62884 0.782779 3.21604 0.471975 3.87968C0.16117 4.54332 4.11831e-05 5.26716 -7.62939e-06 5.99997L-7.62939e-06 16.793C4.98265e-05 17.9638 0.410969 19.0974 1.16113 19.9963C1.91128 20.8952 2.9531 21.5024 4.10499 21.712L10.391 22.855C11.4549 23.0483 12.545 23.0483 13.609 22.855L19.9 21.712C21.051 21.5014 22.0916 20.8938 22.8408 19.9949C23.5899 19.0961 24.0002 17.9631 24 16.793V5.99997C24.0005 5.26742 23.8394 4.54377 23.5283 3.88057C23.2171 3.21736 22.7636 2.63091 22.2 2.16297ZM11 20.928C10.916 20.916 10.832 20.902 10.748 20.887L4.46299 19.745C3.77176 19.6192 3.14659 19.2548 2.69648 18.7154C2.24637 18.1759 1.99989 17.4956 1.99999 16.793V5.99997C1.99999 5.20432 2.31606 4.44126 2.87867 3.87865C3.44128 3.31604 4.20434 2.99997 4.99999 2.99997C5.18108 3.0004 5.36178 3.0168 5.53999 3.04897L9.35999 3.74897C9.81961 3.83308 10.2353 4.07544 10.5348 4.43402C10.8344 4.79259 10.999 5.24473 11 5.71197V20.928ZM22 16.793C22.0001 17.4956 21.7536 18.1759 21.3035 18.7154C20.8534 19.2548 20.2282 19.6192 19.537 19.745L13.252 20.887C13.168 20.902 13.084 20.916 13 20.928V5.71197C12.9999 5.24358 13.1642 4.79003 13.4643 4.43038C13.7644 4.07073 14.1812 3.82781 14.642 3.74397L18.463 3.04397C18.8957 2.96524 19.3405 2.98262 19.7657 3.09488C20.191 3.20714 20.5863 3.41153 20.9238 3.69358C21.2613 3.97562 21.5326 4.32843 21.7186 4.727C21.9046 5.12556 22.0006 5.56015 22 5.99997V16.793Z" fill="white"/>
</g>
<defs>
<clipPath id="clip0_80_4035">
<rect width="24" height="24" fill="white"/>
</clipPath>
</defs>
</svg>
