<svg width="20" height="20" viewBox="0 0 20 20" fill="none" xmlns="http://www.w3.org/2000/svg">
<path d="M19.2677 7.55727L12.9468 1.2356C12.1645 0.455591 11.1049 0.0175781 10.0002 0.0175781C8.89545 0.0175781 7.83579 0.455591 7.0535 1.2356L0.732663 7.55727C0.499684 7.78875 0.314971 8.06418 0.189231 8.36759C0.063492 8.67099 -0.000772746 8.99634 0.000162654 9.32477V17.5056C0.000162654 18.1686 0.263555 18.8045 0.732396 19.2734C1.20124 19.7422 1.83712 20.0056 2.50016 20.0056H17.5002C18.1632 20.0056 18.7991 19.7422 19.2679 19.2734C19.7368 18.8045 20.0002 18.1686 20.0002 17.5056V9.32477C20.0011 8.99634 19.9368 8.67099 19.8111 8.36759C19.6854 8.06418 19.5006 7.78875 19.2677 7.55727V7.55727ZM12.5002 18.3389H7.50016V15.0606C7.50016 14.3976 7.76356 13.7617 8.2324 13.2928C8.70124 12.824 9.33712 12.5606 10.0002 12.5606C10.6632 12.5606 11.2991 12.824 11.7679 13.2928C12.2368 13.7617 12.5002 14.3976 12.5002 15.0606V18.3389ZM18.3335 17.5056C18.3335 17.7266 18.2457 17.9386 18.0894 18.0949C17.9331 18.2511 17.7212 18.3389 17.5002 18.3389H14.1668V15.0606C14.1668 13.9555 13.7278 12.8957 12.9464 12.1143C12.165 11.3329 11.1052 10.8939 10.0002 10.8939C8.8951 10.8939 7.83529 11.3329 7.05389 12.1143C6.27248 12.8957 5.8335 13.9555 5.8335 15.0606V18.3389H2.50016C2.27915 18.3389 2.06719 18.2511 1.91091 18.0949C1.75463 17.9386 1.66683 17.7266 1.66683 17.5056V9.32477C1.6676 9.10392 1.75532 8.89225 1.911 8.7356L8.23183 2.41643C8.70158 1.94887 9.33738 1.68639 10.0002 1.68639C10.6629 1.68639 11.2987 1.94887 11.7685 2.41643L18.0893 8.7381C18.2444 8.89414 18.3321 9.10478 18.3335 9.32477V17.5056Z" fill="#A8A8A8"/>
</svg>
