<svg width="24" height="24" viewBox="0 0 24 24" fill="none" xmlns="http://www.w3.org/2000/svg">
<g clip-path="url(#clip0_80_4064)">
<path d="M11.9999 16.0001C12.4655 16.001 12.9249 15.8935 13.3418 15.686L15.3419 14.6861C16.3612 14.1799 17.0043 13.1382 16.9999 12.0001V9.03308C17.0034 7.89594 16.3604 6.8556 15.3419 6.35009L13.3418 5.35011C12.4968 4.93011 11.5039 4.93011 10.6589 5.35011L8.65884 6.35009C7.63987 6.85531 6.99651 7.89575 6.99984 9.03308V12.0001C6.99618 13.1375 7.63907 14.1782 8.65785 14.6841L10.6579 15.6841C11.0746 15.8922 11.5341 16.0003 11.9999 16.0001ZM8.99986 12.0001V9.03308C9.00145 8.93108 9.01865 8.82988 9.05085 8.73308L11.2309 9.82306C11.715 10.065 12.2848 10.065 12.7689 9.82306L14.9489 8.73308C14.9811 8.82988 14.9983 8.93108 14.9999 9.03308V12.0001C15.0015 12.3795 14.7869 12.7267 14.4469 12.8951L12.4469 13.895C12.1649 14.0346 11.8339 14.0346 11.5519 13.895L9.5519 12.8951C9.2122 12.7265 8.99807 12.3793 8.99986 12.0001ZM18.9998 22.0001H16.2908L19.7778 18.7781C24.0737 14.4823 24.0738 7.51756 19.7781 3.2217C15.4823 -1.07415 8.5176 -1.0742 4.22175 3.22147C-0.074114 7.51714 -0.074208 14.482 4.22151 18.7778C4.23093 18.7873 7.70887 22.0001 7.70887 22.0001H4.99987C4.44759 22.0001 3.99989 22.4478 3.99989 23C3.99989 23.5523 4.44759 24 4.99987 24H18.9999C19.5522 24 19.9999 23.5523 19.9999 23C19.9999 22.4478 19.5521 22.0001 18.9998 22.0001ZM5.63587 4.63606C9.14287 1.11331 14.8416 1.10056 18.3644 4.60756C21.8871 8.11456 21.8999 13.8133 18.3929 17.336L14.4079 21.017C13.0477 22.299 10.922 22.2916 9.57089 21L5.63587 17.364C2.12657 13.847 2.12662 8.1531 5.63587 4.63606Z" fill="white"/>
</g>
<defs>
<clipPath id="clip0_80_4064">
<rect width="24" height="24" fill="white"/>
</clipPath>
</defs>
</svg>
