<svg width="20" height="22" viewBox="0 0 20 22" fill="none" xmlns="http://www.w3.org/2000/svg">
<mask id="mask0_56_17" style="mask-type:alpha" maskUnits="userSpaceOnUse" x="0" y="0" width="20" height="18">
<path fill-rule="evenodd" clip-rule="evenodd" d="M0.666664 0.5H19.1636V17.848H0.666664V0.5Z" fill="white"/>
</mask>
<g mask="url(#mask0_56_17)">
<path fill-rule="evenodd" clip-rule="evenodd" d="M9.91366 2C6.41866 2 3.98266 4.738 3.98266 7.195C3.98266 9.274 3.40566 10.235 2.89566 11.083C2.48666 11.764 2.16366 12.302 2.16366 13.471C2.33066 15.357 3.57566 16.348 9.91366 16.348C16.2167 16.348 17.5007 15.313 17.6667 13.406C17.6637 12.302 17.3407 11.764 16.9317 11.083C16.4217 10.235 15.8447 9.274 15.8447 7.195C15.8447 4.738 13.4087 2 9.91366 2ZM9.91368 17.848C5.23768 17.848 1.01168 17.518 0.666677 13.535C0.663677 11.887 1.16668 11.049 1.61068 10.311C2.05968 9.563 2.48268 8.858 2.48268 7.195C2.48268 3.962 5.46868 0.5 9.91368 0.5C14.3587 0.5 17.3447 3.962 17.3447 7.195C17.3447 8.858 17.7677 9.563 18.2167 10.311C18.6607 11.049 19.1637 11.887 19.1637 13.471C18.8147 17.518 14.5897 17.848 9.91368 17.848Z" fill="#1D1617"/>
</g>
<path fill-rule="evenodd" clip-rule="evenodd" d="M9.86486 22H9.86286C8.74186 21.999 7.68086 21.505 6.87586 20.608C6.59886 20.301 6.62386 19.826 6.93186 19.55C7.23986 19.272 7.71386 19.297 7.99086 19.606C8.50886 20.183 9.17386 20.5 9.86386 20.5H9.86486C10.5579 20.5 11.2259 20.183 11.7449 19.605C12.0229 19.298 12.4969 19.273 12.8039 19.55C13.1119 19.827 13.1369 20.302 12.8599 20.609C12.0519 21.506 10.9889 22 9.86486 22Z" fill="#1D1617"/>
</svg>
