<svg width="56" height="56" viewBox="0 0 56 56" fill="none" xmlns="http://www.w3.org/2000/svg">
<rect x="-0.5" y="0.5" width="55" height="55" rx="27.5" transform="matrix(-1 0 0 1 55 0)" fill="#2DA3AB"/>
<path d="M32.0517 21.7392L33.4575 20.3325C33.7506 20.0394 34.148 19.8748 34.5625 19.8748C34.977 19.8748 35.3744 20.0394 35.6675 20.3325C35.9606 20.6256 36.1252 21.023 36.1252 21.4375C36.1252 21.852 35.9606 22.2494 35.6675 22.5425L26.8183 31.3917C26.3778 31.832 25.8345 32.1556 25.2375 32.3333L23 33L23.6667 30.7625C23.8444 30.1655 24.168 29.6222 24.6083 29.1817L32.0517 21.7392ZM32.0517 21.7392L34.25 23.9375M33 29.6667V33.625C33 34.1223 32.8025 34.5992 32.4508 34.9508C32.0992 35.3025 31.6223 35.5 31.125 35.5H22.375C21.8777 35.5 21.4008 35.3025 21.0492 34.9508C20.6975 34.5992 20.5 34.1223 20.5 33.625V24.875C20.5 24.3777 20.6975 23.9008 21.0492 23.5492C21.4008 23.1975 21.8777 23 22.375 23H26.3333" stroke="white" stroke-width="1.5" stroke-linecap="round" stroke-linejoin="round"/>
<rect x="-0.5" y="0.5" width="55" height="55" rx="27.5" transform="matrix(-1 0 0 1 55 0)" stroke="white"/>
</svg>
