<svg width="21" height="20" viewBox="0 0 21 20" fill="none" xmlns="http://www.w3.org/2000/svg">
<g clip-path="url(#clip0_115_888)">
<path d="M19.2499 3.31335H16.6782C16.5134 3.31339 16.3523 3.36228 16.2153 3.45385C16.0783 3.54542 15.9715 3.67556 15.9085 3.82781C15.8454 3.98006 15.8289 4.14759 15.8611 4.30921C15.8932 4.47084 15.9725 4.61931 16.089 4.73585L16.994 5.64085L14.0057 8.62836C13.8469 8.7801 13.6358 8.86479 13.4161 8.86479C13.1965 8.86479 12.9853 8.7801 12.8265 8.62836L12.6849 8.48586C12.2087 8.03091 11.5755 7.77704 10.917 7.77704C10.2584 7.77704 9.62519 8.03091 9.14904 8.48586L4.89904 12.7359C4.74245 12.8929 4.65466 13.1057 4.65497 13.3275C4.65528 13.5492 4.74368 13.7618 4.90071 13.9184C5.05774 14.0749 5.27054 14.1627 5.4923 14.1624C5.71406 14.1621 5.92662 14.0737 6.08321 13.9167L10.3332 9.66669C10.4919 9.51475 10.7031 9.42994 10.9228 9.42994C11.1425 9.42994 11.3537 9.51475 11.5124 9.66669L11.654 9.80919C12.1304 10.2638 12.7635 10.5174 13.422 10.5174C14.0804 10.5174 14.7135 10.2638 15.1899 9.80919L18.1782 6.82086L19.0832 7.72585C19.2001 7.84048 19.3483 7.91811 19.509 7.94906C19.6698 7.98001 19.8362 7.9629 19.9873 7.89987C20.1384 7.83684 20.2677 7.73068 20.3588 7.59466C20.45 7.45863 20.499 7.29877 20.4999 7.13502V4.56335C20.4999 4.23183 20.3682 3.91389 20.1338 3.67947C19.8993 3.44505 19.5814 3.31335 19.2499 3.31335Z" fill="#A8A8A8"/>
<path d="M19.6667 18.3133H4.66667C4.00363 18.3133 3.36774 18.0499 2.8989 17.5811C2.43006 17.1123 2.16667 16.4764 2.16667 15.8133V0.833333C2.16667 0.61232 2.07887 0.400358 1.92259 0.244078C1.76631 0.0877974 1.55435 0 1.33333 0C1.11232 0 0.900358 0.0877974 0.744078 0.244078C0.587797 0.400358 0.5 0.61232 0.5 0.833333L0.5 15.8133C0.501323 16.918 0.940735 17.977 1.72185 18.7582C2.50296 19.5393 3.562 19.9787 4.66667 19.98H19.6667C19.8877 19.98 20.0996 19.8922 20.2559 19.7359C20.4122 19.5796 20.5 19.3677 20.5 19.1467C20.5 18.9257 20.4122 18.7137 20.2559 18.5574C20.0996 18.4011 19.8877 18.3133 19.6667 18.3133Z" fill="#A8A8A8"/>
</g>
<defs>
<clipPath id="clip0_115_888">
<rect width="20" height="20" fill="white" transform="translate(0.5)"/>
</clipPath>
</defs>
</svg>
