<svg width="25" height="24" viewBox="0 0 25 24" fill="none" xmlns="http://www.w3.org/2000/svg">
<g clip-path="url(#clip0_733_9480)">
<path d="M24.576 12.3L23.871 7.3C23.6977 6.10993 23.1033 5.02151 22.1957 4.23247C21.2881 3.44343 20.1276 3.00612 18.925 3H5.625C4.29941 3.00159 3.02856 3.52888 2.09122 4.46622C1.15388 5.40356 0.626588 6.67441 0.625 8L0.625 13C0.626588 14.3256 1.15388 15.5964 2.09122 16.5338C3.02856 17.4711 4.29941 17.9984 5.625 18H8.337L10.251 21.878C10.5728 22.5316 11.1188 23.0478 11.7894 23.3323C12.46 23.6169 13.2106 23.6509 13.9042 23.4282C14.5978 23.2055 15.1883 22.7409 15.5679 22.1191C15.9475 21.4973 16.0909 20.7597 15.972 20.041L15.636 18H19.625C20.3408 18 21.0482 17.8464 21.6995 17.5494C22.3508 17.2525 22.9307 16.8192 23.4001 16.2788C23.8695 15.7384 24.2173 15.1036 24.4202 14.4171C24.6231 13.7307 24.6762 13.0087 24.576 12.3ZM5.625 5H7.625V16H5.625C4.82935 16 4.06629 15.6839 3.50368 15.1213C2.94107 14.5587 2.625 13.7956 2.625 13V8C2.625 7.20435 2.94107 6.44129 3.50368 5.87868C4.06629 5.31607 4.82935 5 5.625 5ZM21.889 14.968C21.6074 15.292 21.2596 15.5517 20.869 15.7298C20.4785 15.9078 20.0542 16 19.625 16H14.458C14.313 16 14.1696 16.0315 14.038 16.0924C13.9064 16.1533 13.7895 16.2421 13.6956 16.3526C13.6017 16.4632 13.533 16.5928 13.4942 16.7326C13.4554 16.8723 13.4475 17.0189 13.471 17.162L13.999 20.362C14.0244 20.5105 14.0166 20.6628 13.9763 20.808C13.9361 20.9532 13.8642 21.0878 13.766 21.202C13.6508 21.3262 13.5078 21.4213 13.3487 21.4794C13.1895 21.5375 13.0189 21.557 12.8508 21.5363C12.6827 21.5156 12.5219 21.4553 12.3816 21.3603C12.2413 21.2653 12.1256 21.1384 12.044 20.99L9.855 16.558C9.79726 16.4471 9.71924 16.3481 9.625 16.266V5H18.925C19.6473 5.00264 20.3445 5.26473 20.8897 5.7385C21.4349 6.21227 21.7917 6.86616 21.895 7.581L22.601 12.581C22.6602 13.0067 22.6273 13.4401 22.5045 13.8519C22.3816 14.2637 22.1717 14.6443 21.889 14.968Z" fill="#252525"/>
</g>
<defs>
<clipPath id="clip0_733_9480">
<rect width="24" height="24" fill="white" transform="translate(0.625)"/>
</clipPath>
</defs>
</svg>
