<svg width="25" height="24" viewBox="0 0 25 24" fill="none" xmlns="http://www.w3.org/2000/svg">
<g clip-path="url(#clip0_733_9483)">
<path d="M10.2532 18.122C10.5318 18.4008 10.8626 18.6219 11.2267 18.7728C11.5908 18.9237 11.9811 19.0014 12.3752 19.0014C12.7694 19.0014 13.1596 18.9237 13.5237 18.7728C13.8878 18.6219 14.2186 18.4008 14.4972 18.122L17.7082 14.911C17.8804 14.7206 17.9727 14.4713 17.9661 14.2147C17.9596 13.958 17.8545 13.7138 17.6728 13.5325C17.4911 13.3512 17.2466 13.2467 16.99 13.2406C16.7334 13.2346 16.4843 13.3274 16.2942 13.5L13.3682 16.427L13.3752 1C13.3752 0.734784 13.2699 0.48043 13.0823 0.292893C12.8948 0.105357 12.6404 0 12.3752 0V0C12.11 0 11.8557 0.105357 11.6681 0.292893C11.4806 0.48043 11.3752 0.734784 11.3752 1L11.3662 16.408L8.45623 13.5C8.26859 13.3125 8.01414 13.2072 7.74887 13.2073C7.4836 13.2074 7.22923 13.3129 7.04173 13.5005C6.85422 13.6881 6.74893 13.9426 6.74902 14.2079C6.74912 14.4731 6.85459 14.7275 7.04223 14.915L10.2532 18.122Z" fill="#252525"/>
<path d="M23.375 15.9998C23.1098 15.9998 22.8554 16.1051 22.6679 16.2926C22.4804 16.4802 22.375 16.7345 22.375 16.9998V20.9997C22.375 21.265 22.2696 21.5193 22.0821 21.7069C21.8946 21.8944 21.6402 21.9997 21.375 21.9997H3.375C3.10978 21.9997 2.85543 21.8944 2.66789 21.7069C2.48036 21.5193 2.375 21.265 2.375 20.9997V16.9998C2.375 16.7345 2.26964 16.4802 2.08211 16.2926C1.89457 16.1051 1.64022 15.9998 1.375 15.9998C1.10978 15.9998 0.85543 16.1051 0.667893 16.2926C0.480357 16.4802 0.375 16.7345 0.375 16.9998L0.375 20.9997C0.375 21.7954 0.69107 22.5585 1.25368 23.1211C1.81629 23.6837 2.57935 23.9997 3.375 23.9997H21.375C22.1706 23.9997 22.9337 23.6837 23.4963 23.1211C24.0589 22.5585 24.375 21.7954 24.375 20.9997V16.9998C24.375 16.7345 24.2696 16.4802 24.0821 16.2926C23.8946 16.1051 23.6402 15.9998 23.375 15.9998Z" fill="#252525"/>
</g>
<defs>
<clipPath id="clip0_733_9483">
<rect width="24" height="24" fill="white" transform="translate(0.375)"/>
</clipPath>
</defs>
</svg>
