<svg width="25" height="24" viewBox="0 0 25 24" fill="none" xmlns="http://www.w3.org/2000/svg">
<g clip-path="url(#clip0_733_9477)">
<path d="M23.648 7.72138C23.1791 7.18098 22.5995 6.74766 21.9486 6.45073C21.2976 6.15381 20.5905 6.00023 19.875 6.00038H15.886L16.222 3.95938C16.3409 3.24064 16.1975 2.50311 15.8179 1.88132C15.4383 1.25952 14.8478 0.79489 14.1542 0.572169C13.4606 0.349448 12.71 0.383478 12.0394 0.668053C11.3688 0.952627 10.8228 1.46878 10.501 2.12238L8.587 6.00038H5.875C4.54941 6.00197 3.27856 6.52926 2.34122 7.4666C1.40388 8.40393 0.876588 9.67478 0.875 11.0004L0.875 16.0004C0.876588 17.326 1.40388 18.5968 2.34122 19.5342C3.27856 20.4715 4.54941 20.9988 5.875 21.0004H19.175C20.3785 20.9955 21.5402 20.5587 22.4488 19.7695C23.3574 18.9804 23.9526 17.8913 24.126 16.7004L24.831 11.7004C24.9303 10.9911 24.876 10.2688 24.6719 9.58231C24.4678 8.89582 24.1187 8.2612 23.648 7.72138ZM2.875 16.0004V11.0004C2.875 10.2047 3.19107 9.44167 3.75368 8.87906C4.31629 8.31645 5.07935 8.00038 5.875 8.00038H7.875V19.0004H5.875C5.07935 19.0004 4.31629 18.6843 3.75368 18.1217C3.19107 17.5591 2.875 16.796 2.875 16.0004ZM22.846 11.4194L22.14 16.4194C22.0368 17.1334 21.6807 17.7866 21.1366 18.2603C20.5925 18.7339 19.8964 18.9965 19.175 19.0004H9.875V7.73438C9.96924 7.65227 10.0473 7.55323 10.105 7.44238L12.294 3.00738C12.3761 2.85931 12.4921 2.73283 12.6326 2.63834C12.7731 2.54385 12.934 2.48404 13.1021 2.46384C13.2702 2.44363 13.4407 2.4636 13.5996 2.5221C13.7584 2.58061 13.9012 2.67598 14.016 2.80038C14.1142 2.91462 14.1861 3.04915 14.2263 3.19435C14.2666 3.33955 14.2744 3.49184 14.249 3.64038L13.721 6.84038C13.6978 6.98336 13.706 7.12967 13.7449 7.26918C13.7839 7.4087 13.8526 7.53809 13.9465 7.64841C14.0404 7.75872 14.1571 7.84733 14.2886 7.90811C14.42 7.96888 14.5632 8.00036 14.708 8.00038H19.875C20.3044 8.00032 20.7288 8.09244 21.1195 8.27052C21.5103 8.4486 21.8582 8.70849 22.1399 9.03261C22.4215 9.35674 22.6303 9.73755 22.7522 10.1493C22.874 10.5611 22.906 10.9942 22.846 11.4194Z" fill="#252525"/>
</g>
<defs>
<clipPath id="clip0_733_9477">
<rect width="24" height="24" fill="white" transform="translate(0.875)"/>
</clipPath>
</defs>
</svg>
