<svg width="25" height="24" viewBox="0 0 25 24" fill="none" xmlns="http://www.w3.org/2000/svg">
<g clip-path="url(#clip0_733_9486)">
<path d="M12.125 0C9.75163 0 7.43155 0.703788 5.45816 2.02236C3.48477 3.34094 1.9467 5.21509 1.03845 7.4078C0.130199 9.60051 -0.107441 12.0133 0.355582 14.3411C0.818605 16.6689 1.96149 18.8071 3.63972 20.4853C5.31795 22.1635 7.45615 23.3064 9.78392 23.7694C12.1117 24.2324 14.5245 23.9948 16.7172 23.0866C18.9099 22.1783 20.7841 20.6402 22.1026 18.6668C23.4212 16.6935 24.125 14.3734 24.125 12C24.1216 8.81846 22.8562 5.76821 20.6065 3.51852C18.3568 1.26883 15.3065 0.00344108 12.125 0V0ZM12.125 2C14.4315 1.99816 16.6669 2.79775 18.449 4.262L4.38701 18.324C3.18757 16.8598 2.42866 15.0851 2.19862 13.2064C1.96858 11.3277 2.27686 9.42234 3.08759 7.71204C3.89832 6.00174 5.17814 4.55688 6.77808 3.54564C8.37803 2.53441 10.2323 1.9984 12.125 2ZM12.125 22C9.81853 22.0018 7.58308 21.2023 5.80101 19.738L19.863 5.676C21.0624 7.14016 21.8213 8.91488 22.0514 10.7936C22.2814 12.6723 21.9731 14.5777 21.1624 16.288C20.3517 17.9983 19.0719 19.4431 17.4719 20.4544C15.872 21.4656 14.0177 22.0016 12.125 22Z" fill="#252525"/>
</g>
<defs>
<clipPath id="clip0_733_9486">
<rect width="24" height="24" fill="white" transform="translate(0.125)"/>
</clipPath>
</defs>
</svg>
