<svg width="25" height="24" viewBox="0 0 25 24" fill="none" xmlns="http://www.w3.org/2000/svg">
<g clip-path="url(#clip0_1329_8617)">
<path d="M19.3794 6.95401L10.1667 16.166C10.1048 16.2282 10.0312 16.2775 9.95014 16.3112C9.86909 16.3449 9.78218 16.3622 9.69441 16.3622C9.60665 16.3622 9.51974 16.3449 9.43868 16.3112C9.35763 16.2775 9.28402 16.2282 9.22208 16.166L5.65941 12.6C5.59747 12.5378 5.52387 12.4885 5.44281 12.4548C5.36176 12.4211 5.27485 12.4038 5.18708 12.4038C5.09931 12.4038 5.01241 12.4211 4.93135 12.4548C4.8503 12.4885 4.77669 12.5378 4.71475 12.6C4.65256 12.6619 4.60322 12.7356 4.56955 12.8166C4.53589 12.8977 4.51855 12.9846 4.51855 13.0723C4.51855 13.1601 4.53589 13.247 4.56955 13.3281C4.60322 13.4091 4.65256 13.4827 4.71475 13.5447L8.27875 17.108C8.65471 17.4833 9.16421 17.694 9.69541 17.694C10.2266 17.694 10.7361 17.4833 11.1121 17.108L20.3241 7.89801C20.3862 7.83608 20.4354 7.76251 20.469 7.68152C20.5026 7.60052 20.5199 7.5137 20.5199 7.42601C20.5199 7.33832 20.5026 7.25149 20.469 7.17049C20.4354 7.0895 20.3862 7.01593 20.3241 6.95401C20.2621 6.89182 20.1885 6.84248 20.1075 6.80881C20.0264 6.77514 19.9395 6.75781 19.8517 6.75781C19.764 6.75781 19.6771 6.77514 19.596 6.80881C19.515 6.84248 19.4414 6.89182 19.3794 6.95401Z" fill="white"/>
</g>
<rect x="1" y="0.5" width="23" height="23" rx="11.5" stroke="white"/>
<defs>
<clipPath id="clip0_1329_8617">
<rect width="16" height="16" fill="white" transform="translate(4.5 4)"/>
</clipPath>
</defs>
</svg>
