<svg width="327" height="327" viewBox="0 0 327 327" fill="none" xmlns="http://www.w3.org/2000/svg">
<g clip-path="url(#clip0_252_5617)">
<path d="M163.673 317.586L8.02905 227.333L163.651 137.257L319.325 227.333L163.673 317.586Z" fill="#4957CC"/>
<path d="M8.02905 227.333V236.539L163.673 326.799V317.586L8.02905 227.333Z" fill="#4957CC"/>
<path opacity="0.15" d="M8.02905 227.333V236.539L163.673 326.799V317.586L8.02905 227.333Z" fill="black"/>
<path d="M163.673 326.799L319.325 236.539V227.333L163.673 317.586V326.799Z" fill="#4957CC"/>
<path opacity="0.1" d="M163.673 326.799L319.325 236.539V227.333L163.673 317.586V326.799Z" fill="black"/>
<path d="M54.8864 4.27655L48.0248 8.25343C48.0248 7.94583 48.0758 7.63823 48.0758 7.33795V5.34585C48.0758 1.78643 45.5966 0.350942 42.5267 2.12333C41.2097 2.93959 40.083 4.03118 39.2235 5.32387C38.7204 0.848967 35.2276 -0.813559 30.9911 1.66192C26.4045 4.3205 22.6857 10.7875 22.6857 16.1047V19.0928C22.6622 20.286 22.9117 21.4686 23.4149 22.5497L17.7126 25.8601C16.8165 26.4464 16.0708 27.2368 15.5361 28.1671C15.0014 29.0973 14.6928 30.1412 14.6355 31.2139C14.6355 33.184 16.0137 33.9823 17.7126 33.0009L54.901 11.4247C55.7971 10.8384 56.5429 10.048 57.0776 9.11773C57.6123 8.18745 57.9208 7.14354 57.9781 6.07091C57.9636 4.08613 56.5854 3.28783 54.8864 4.27655Z" fill="#EBEBEB"/>
<path d="M87.9184 19.21L82.7194 22.2128C82.7482 21.9845 82.7628 21.7546 82.7631 21.5244V20.0157C82.7631 17.3351 80.8891 16.2512 78.5776 17.5915C77.5817 18.2028 76.7306 19.0252 76.0838 20.001C75.7046 16.6247 73.065 15.3723 69.8712 17.2253C66.4075 19.232 63.6002 24.1097 63.6002 28.1232V30.379C63.5796 31.2796 63.7616 32.1734 64.1325 32.9936L59.8449 35.4618C59.1662 35.9026 58.6014 36.4989 58.197 37.2018C57.7926 37.9046 57.5602 38.6939 57.5188 39.5046C57.5188 40.9694 58.5615 41.5919 59.8449 40.8522L87.9184 24.5711C88.5947 24.1277 89.1576 23.5308 89.5617 22.8285C89.9658 22.1262 90.1997 21.3382 90.2445 20.5283C90.2445 19.0709 89.2018 18.463 87.9184 19.21Z" fill="#EBEBEB"/>
<path d="M261.493 19.0929L266.67 22.0957C266.67 21.8686 266.627 21.6342 266.627 21.4072V19.8985C266.627 17.2179 268.508 16.134 270.819 17.4743C271.814 18.0877 272.664 18.9096 273.313 19.8838C273.692 16.5075 276.325 15.2551 279.526 17.1081C282.989 19.1148 285.797 23.9999 285.797 28.006V30.2618C285.817 31.1625 285.635 32.0562 285.265 32.8764L289.567 35.3739C290.245 35.8147 290.81 36.411 291.215 37.1139C291.619 37.8167 291.851 38.606 291.893 39.4167C291.893 40.8815 290.85 41.504 289.567 40.7643L261.493 24.4759C260.821 24.0316 260.261 23.4351 259.86 22.7343C259.458 22.0334 259.226 21.2478 259.182 20.4405C259.182 18.9537 260.21 18.3458 261.493 19.0929Z" fill="#EBEBEB"/>
<path d="M300.81 206.109C300.081 201.311 302.116 190.882 306.155 183.932C310.195 176.981 317.319 171.291 323.123 172.375C328.534 173.393 328.957 180.255 323.371 185.675C317.786 191.095 305.776 201.297 304.157 209.478L303.224 216.677L300.81 206.109Z" fill="#4957CC"/>
<path opacity="0.15" d="M300.81 206.109C300.081 201.311 302.116 190.882 306.155 183.932C310.195 176.981 317.319 171.291 323.123 172.375C328.534 173.393 328.957 180.255 323.371 185.675C317.786 191.095 305.776 201.297 304.157 209.478L303.224 216.677L300.81 206.109Z" fill="black"/>
<path d="M301.416 212.737C301.49 212.718 301.556 212.676 301.605 212.617C301.653 212.557 301.681 212.484 301.685 212.407C302.495 195.562 313.731 180.35 321.191 176.256C321.26 176.205 321.309 176.129 321.327 176.044C321.346 175.959 321.333 175.871 321.291 175.795C321.249 175.719 321.181 175.66 321.1 175.631C321.018 175.601 320.929 175.602 320.848 175.634C313.25 179.809 301.802 195.291 300.985 212.378C300.982 212.424 300.989 212.47 301.004 212.513C301.019 212.556 301.042 212.596 301.073 212.63C301.103 212.665 301.14 212.692 301.182 212.712C301.223 212.731 301.268 212.742 301.313 212.744L301.416 212.737Z" fill="white"/>
<path d="M301.299 226.879C301.678 224.074 304.303 219.153 309.065 214.7C314.337 209.778 321.461 206.819 322.73 203.406C324.224 199.305 320.542 196.185 314.606 197.825C308.671 199.466 299.294 209.265 299.432 221.936L301.299 226.879Z" fill="#4957CC"/>
<path opacity="0.3" d="M301.299 226.879C301.678 224.074 304.303 219.153 309.065 214.7C314.337 209.778 321.461 206.819 322.73 203.406C324.224 199.305 320.542 196.185 314.606 197.825C308.671 199.466 299.294 209.265 299.432 221.936L301.299 226.879Z" fill="black"/>
<path d="M299.724 224.228C299.791 224.213 299.853 224.179 299.901 224.13C299.949 224.08 299.981 224.018 299.994 223.95C302.91 209.207 312.871 202.71 317.706 201.355C317.751 201.344 317.793 201.323 317.83 201.294C317.867 201.265 317.898 201.229 317.92 201.188C317.943 201.147 317.957 201.101 317.961 201.055C317.966 201.008 317.961 200.961 317.946 200.916C317.934 200.871 317.914 200.829 317.886 200.793C317.858 200.756 317.822 200.726 317.782 200.703C317.742 200.681 317.698 200.667 317.652 200.662C317.606 200.657 317.56 200.661 317.516 200.674C312.164 202.183 302.313 208.731 299.286 223.811C299.269 223.903 299.289 223.998 299.34 224.076C299.392 224.154 299.472 224.209 299.564 224.228C299.616 224.241 299.671 224.241 299.724 224.228Z" fill="white"/>
<path d="M28.3003 201.436C28.3003 201.436 28.9128 191.073 25.2523 182.313C21.5918 173.554 15.5396 167.417 9.21024 165.776C2.88093 164.135 -3.39004 169.174 2.80073 174.477C8.99149 179.779 20.5199 186.107 23.5022 202.396L28.3003 201.436Z" fill="#4957CC"/>
<path opacity="0.15" d="M28.3003 201.436C28.3003 201.436 28.9128 191.073 25.2523 182.313C21.5918 173.554 15.5396 167.417 9.21024 165.776C2.88093 164.135 -3.39004 169.174 2.80073 174.477C8.99149 179.779 20.5199 186.107 23.5022 202.396L28.3003 201.436Z" fill="black"/>
<path d="M26.8637 198.462H26.9366C27.0266 198.441 27.105 198.386 27.1553 198.308C27.2056 198.231 27.2239 198.136 27.2064 198.045C23.3272 180.021 11.5946 170.72 5.92888 168.317C5.84268 168.283 5.74655 168.284 5.66083 168.319C5.5751 168.355 5.50649 168.422 5.4695 168.508C5.45159 168.55 5.44229 168.596 5.44214 168.643C5.44199 168.689 5.45098 168.735 5.46861 168.778C5.48623 168.821 5.51214 168.86 5.54483 168.893C5.57752 168.926 5.61635 168.951 5.65908 168.969C11.2009 171.32 22.7001 180.453 26.521 198.191C26.5392 198.269 26.5829 198.338 26.6452 198.387C26.7075 198.436 26.7845 198.463 26.8637 198.462Z" fill="white"/>
<path d="M1.05072 193.394C1.18927 194.771 2.29762 195.826 3.35494 196.712C4.41226 197.598 5.54249 198.565 5.85604 199.913C6.43938 202.652 3.2164 205.171 3.91641 207.874C4.10235 208.431 4.39931 208.944 4.78919 209.382C5.17907 209.821 5.65371 210.174 6.18417 210.422C7.03732 210.884 7.96338 211.155 8.86027 211.565C9.3012 211.697 9.74913 211.805 10.202 211.887C11.5633 212.019 12.844 212.595 13.8479 213.528C15.3062 215.154 15.1458 217.644 15.6781 219.782C16.0207 221.055 16.6342 222.239 17.4765 223.25C18.3187 224.262 19.3695 225.078 20.5564 225.641C22.5325 226.594 25.7773 227.106 26.6086 226.374C27.2357 225.81 26.7107 223.32 26.944 222.5C27.5475 220.406 27.9528 218.261 28.1545 216.091C28.2065 215.097 28.3779 214.114 28.6649 213.162C29.0149 212.107 29.3941 211.045 29.693 209.983C29.992 208.921 30.6191 208.027 30.5826 206.738C30.4923 205.519 30.2219 204.319 29.7805 203.179C29.3916 202.027 28.9906 200.884 28.5774 199.751C28.1456 198.383 27.5454 197.074 26.7909 195.855C26.0892 194.831 25.1865 193.962 24.1382 193.3C23.0899 192.639 21.9182 192.2 20.6949 192.01C18.6751 191.702 16.4438 192.171 14.4969 191.439C12.5499 190.706 10.8874 189.586 8.87486 189.088C7.82683 188.778 6.72237 188.711 5.64486 188.892C4.56736 189.074 3.54498 189.499 2.65493 190.135C2.13966 190.502 1.72332 190.993 1.44331 191.561C1.1633 192.13 1.02839 192.76 1.05072 193.394Z" fill="#4957CC"/>
<path opacity="0.3" d="M1.05072 193.394C1.18927 194.771 2.29762 195.826 3.35494 196.712C4.41226 197.598 5.54249 198.565 5.85604 199.913C6.43938 202.652 3.2164 205.171 3.91641 207.874C4.10235 208.431 4.39931 208.944 4.78919 209.382C5.17907 209.821 5.65371 210.174 6.18417 210.422C7.03732 210.884 7.96338 211.155 8.86027 211.565C9.3012 211.697 9.74913 211.805 10.202 211.887C11.5633 212.019 12.844 212.595 13.8479 213.528C15.3062 215.154 15.1458 217.644 15.6781 219.782C16.0207 221.055 16.6342 222.239 17.4765 223.25C18.3187 224.262 19.3695 225.078 20.5564 225.641C22.5325 226.594 25.7773 227.106 26.6086 226.374C27.2357 225.81 26.7107 223.32 26.944 222.5C27.5475 220.406 27.9528 218.261 28.1545 216.091C28.2065 215.097 28.3779 214.114 28.6649 213.162C29.0149 212.107 29.3941 211.045 29.693 209.983C29.992 208.921 30.6191 208.027 30.5826 206.738C30.4923 205.519 30.2219 204.319 29.7805 203.179C29.3916 202.027 28.9906 200.884 28.5774 199.751C28.1456 198.383 27.5454 197.074 26.7909 195.855C26.0892 194.831 25.1865 193.962 24.1382 193.3C23.0899 192.639 21.9182 192.2 20.6949 192.01C18.6751 191.702 16.4438 192.171 14.4969 191.439C12.5499 190.706 10.8874 189.586 8.87486 189.088C7.82683 188.778 6.72237 188.711 5.64486 188.892C4.56736 189.074 3.54498 189.499 2.65493 190.135C2.13966 190.502 1.72332 190.993 1.44331 191.561C1.1633 192.13 1.02839 192.76 1.05072 193.394Z" fill="black"/>
<path d="M23.2325 204.161C23.2121 204.11 23.1795 204.064 23.1377 204.029C17.5448 196.075 8.78006 192.311 5.81957 191.637C5.73854 191.621 5.65469 191.638 5.58545 191.683C5.5162 191.728 5.46686 191.798 5.44769 191.878C5.43919 191.918 5.43869 191.96 5.44622 192C5.45375 192.04 5.46917 192.078 5.49157 192.112C5.51397 192.146 5.5429 192.176 5.57668 192.198C5.61046 192.221 5.64841 192.237 5.68832 192.245C8.48838 192.875 16.6261 196.361 22.0949 203.648C19.8644 202.894 17.5027 202.612 15.1585 202.82C12.8142 203.028 10.5382 203.722 8.4738 204.856C8.43878 204.878 8.40845 204.907 8.38462 204.94C8.3608 204.974 8.34396 205.012 8.33511 205.052C8.32627 205.093 8.3256 205.134 8.33314 205.175C8.34068 205.215 8.35628 205.254 8.379 205.289C8.40607 205.33 8.44276 205.364 8.48594 205.389C8.52911 205.413 8.57749 205.426 8.62693 205.428C8.69069 205.432 8.75417 205.416 8.80922 205.384C10.9271 204.227 13.2719 203.55 15.6782 203.402C18.0846 203.254 20.494 203.638 22.7366 204.527C26.0006 209.22 27.6378 214.861 27.3961 220.581C27.392 220.66 27.4185 220.738 27.4702 220.798C27.5218 220.858 27.5945 220.896 27.6732 220.903C27.7551 220.905 27.8346 220.875 27.8946 220.819C27.9545 220.763 27.9902 220.685 27.994 220.603C28.2491 214.745 26.5756 208.967 23.2325 204.161Z" fill="white"/>
<path d="M163.659 301.239L297.187 223.796L163.651 146.36L30.116 223.796L163.659 301.239Z" fill="#4957CC"/>
<g opacity="0.9">
<path d="M163.659 301.239L297.187 223.796L163.651 146.36L30.116 223.796L163.659 301.239Z" fill="white"/>
</g>
<path d="M163.651 306.768L163.658 301.239L297.186 223.796V85.5131L301.955 82.752L301.379 226.894L163.651 306.768Z" fill="#37474F"/>
<path d="M163.673 306.768L163.658 301.239L30.1378 223.796V85.5131L25.3689 82.752L25.945 226.894L163.673 306.768Z" fill="#455A64"/>
<path d="M25.3689 82.7519L163.651 2.54785V8.0774L30.1378 85.513L25.3689 82.7519Z" fill="#37474F"/>
<path d="M301.933 82.7519L163.651 2.54785V8.0774L297.165 85.513L301.933 82.7519Z" fill="#455A64"/>
<path d="M163.651 146.36V8.07739L297.186 85.513V223.796L163.651 146.36Z" fill="#4957CC"/>
<g opacity="0.8">
<path d="M163.651 146.36V8.07739L297.186 85.513V223.796L163.651 146.36Z" fill="white"/>
</g>
<path d="M297.186 223.796V216.12L163.651 138.685V146.36L297.186 223.796Z" fill="#FAFAFA"/>
<path d="M163.651 146.36V8.07739L30.116 85.513V223.796L163.651 146.36Z" fill="#4957CC"/>
<g opacity="0.6">
<path d="M163.651 146.36V8.07739L30.116 85.513V223.796L163.651 146.36Z" fill="white"/>
</g>
<g opacity="0.1">
<path d="M163.651 146.36V8.07739L30.116 85.513V223.796L163.651 146.36Z" fill="black"/>
</g>
<path d="M30.1159 223.796L30.1086 216.12L163.651 138.685V146.36L30.1159 223.796Z" fill="#EBEBEB"/>
<path d="M74.7346 144.851L76.4336 145.84L118.981 121.166L117.282 120.177L74.7346 144.851Z" fill="#455A64"/>
<path d="M117.282 120.177L76.4336 143.863V102.907L117.282 79.2219V120.177Z" fill="#4957CC"/>
<path opacity="0.85" d="M117.282 120.177L76.4336 143.863V102.907L117.282 79.2219V120.177Z" fill="white"/>
<path d="M97.7112 89.5854V132.518L99.4102 131.529V88.5967L97.7112 89.5854Z" fill="#4957CC"/>
<path opacity="0.2" d="M97.7112 89.5854V132.518L99.4102 131.529V88.5967L97.7112 89.5854Z" fill="black"/>
<path opacity="0.1" d="M97.7112 90.5666L99.4029 89.5852V90.5739L97.7112 91.5553V90.5666Z" fill="black"/>
<path d="M96.8579 89.0872L97.7111 89.5852V132.518L96.8579 132.02V89.0872Z" fill="#263238"/>
<path d="M97.7111 91.5554L96.8579 91.0647L97.7111 90.5667V91.5554Z" fill="black"/>
<path d="M120.688 75.2671L74.7493 101.919V148.792L120.688 122.14V75.2671ZM118.982 121.151L76.4337 145.826V102.907L118.982 78.2333V121.151Z" fill="#4957CC"/>
<path opacity="0.2" d="M120.688 75.2671L74.7493 101.919V148.792L120.688 122.14V75.2671ZM118.982 121.151L76.4337 145.826V102.907L118.982 78.2333V121.151Z" fill="black"/>
<path d="M118.981 121.166L117.282 120.177V79.2219L118.981 78.2332V121.166Z" fill="#263238"/>
<path d="M120.688 75.2671L118.981 74.2856L73.0283 100.93L74.7346 101.919L120.688 75.2671Z" fill="#455A64"/>
<path d="M73.0283 100.93L74.7346 101.919V148.799L73.0283 147.81V100.93Z" fill="#263238"/>
<path d="M252.568 144.851L250.869 145.84L208.321 121.166L210.02 120.177L252.568 144.851Z" fill="#455A64"/>
<path d="M210.02 120.177L250.869 143.863V102.907L210.02 79.2219V120.177Z" fill="#4957CC"/>
<path opacity="0.95" d="M210.02 120.177L250.869 143.863V102.907L210.02 79.2219V120.177Z" fill="white"/>
<path d="M229.591 89.5854V132.518L227.892 131.529V88.5967L229.591 89.5854Z" fill="#4957CC"/>
<path opacity="0.2" d="M229.591 89.5854V132.518L227.892 131.529V88.5967L229.591 89.5854Z" fill="black"/>
<path opacity="0.1" d="M229.591 90.5666L227.892 89.5852V90.5739L229.591 91.5553V90.5666Z" fill="black"/>
<path d="M230.444 89.0872L229.591 89.5852V132.518L230.444 132.02V89.0872Z" fill="#263238"/>
<path d="M229.591 91.5554L230.444 91.0647L229.591 90.5667V91.5554Z" fill="black"/>
<path d="M206.615 122.147L252.553 148.799V101.926L206.615 75.2744V122.147ZM208.321 78.204L250.869 102.878V145.811L208.321 121.151V78.204Z" fill="#4957CC"/>
<path opacity="0.2" d="M206.615 122.147L252.553 148.799V101.926L206.615 75.2744V122.147ZM208.321 78.204L250.869 102.878V145.811L208.321 121.151V78.204Z" fill="black"/>
<path d="M208.321 121.166L210.02 120.177V79.2219L208.321 78.2332V121.166Z" fill="#263238"/>
<path d="M206.615 75.2671L208.321 74.2856L254.274 100.93L252.568 101.919L206.615 75.2671Z" fill="#455A64"/>
<path d="M254.274 100.93L252.568 101.919V148.799L254.274 147.81V100.93Z" fill="#263238"/>
<path opacity="0.1" d="M142.818 164.128C137.904 166.977 137.904 171.591 142.818 174.44C147.733 177.289 155.688 177.289 160.596 174.44C165.503 171.591 165.511 166.977 160.596 164.128C155.681 161.279 147.726 161.279 142.818 164.128Z" fill="black"/>
<path d="M145.546 164.252C142.148 166.23 142.148 169.423 145.546 171.4C148.944 173.378 154.463 173.371 157.869 171.4C161.274 169.43 161.267 166.23 157.869 164.252C154.471 162.275 148.951 162.282 145.546 164.252Z" fill="#37474F"/>
<path d="M160.421 167.826C160.421 166.53 159.575 165.241 157.876 164.252C154.471 162.282 148.958 162.282 145.553 164.252C143.854 165.241 143.008 166.53 143.008 167.826V169.035C143.008 170.309 143.883 171.583 145.56 172.558C148.965 174.528 154.478 174.528 157.883 172.558C159.56 171.583 160.413 170.309 160.435 169.035L160.421 167.826Z" fill="#263238"/>
<path d="M145.546 164.252C142.148 166.23 142.148 169.423 145.546 171.4C148.944 173.378 154.463 173.371 157.869 171.4C161.274 169.43 161.267 166.23 157.869 164.252C154.471 162.275 148.951 162.282 145.546 164.252Z" fill="#37474F"/>
<path d="M152.648 104.05H150.766V167.292C150.762 167.383 150.786 167.473 150.834 167.55C150.882 167.627 150.953 167.688 151.036 167.724C151.242 167.829 151.469 167.884 151.7 167.884C151.93 167.884 152.158 167.829 152.363 167.724C152.447 167.688 152.517 167.627 152.566 167.55C152.614 167.473 152.637 167.383 152.633 167.292L152.648 104.05Z" fill="#455A64"/>
<path d="M151.707 106.774C157.414 106.774 162.04 102.128 162.04 96.3963C162.04 90.6647 157.414 86.0183 151.707 86.0183C146.001 86.0183 141.375 90.6647 141.375 96.3963C141.375 102.128 146.001 106.774 151.707 106.774Z" fill="#F5F5F5"/>
<path d="M151.707 93.3202C150.207 93.3576 148.722 93.0043 147.398 92.2949C146.391 91.7163 145.844 90.9912 145.844 90.2442C145.844 89.4971 146.391 88.7794 147.398 88.1935C148.736 87.524 150.212 87.1755 151.707 87.1755C153.203 87.1755 154.678 87.524 156.017 88.1935C157.023 88.7794 157.57 89.5045 157.57 90.2442C157.57 90.9839 157.023 91.709 156.017 92.2949C154.692 93.0043 153.208 93.3576 151.707 93.3202Z" fill="#E0E0E0"/>
<path d="M151.707 89.7607C150.933 89.7607 150.192 90.0694 149.645 90.6188C149.098 91.1682 148.79 91.9133 148.79 92.6903C148.79 92.7342 148.79 92.7709 148.79 92.8148C150.69 93.4045 152.724 93.4045 154.624 92.8148C154.624 92.7709 154.624 92.7342 154.624 92.6903C154.624 91.9133 154.316 91.1682 153.769 90.6188C153.222 90.0694 152.481 89.7607 151.707 89.7607Z" fill="#4957CC"/>
<g opacity="0.8">
<path d="M151.707 89.7607C150.933 89.7607 150.192 90.0694 149.645 90.6188C149.098 91.1682 148.79 91.9133 148.79 92.6903C148.79 92.7342 148.79 92.7709 148.79 92.8148C150.69 93.4045 152.724 93.4045 154.624 92.8148C154.624 92.7709 154.624 92.7342 154.624 92.6903C154.624 91.9133 154.316 91.1682 153.769 90.6188C153.222 90.0694 152.481 89.7607 151.707 89.7607Z" fill="white"/>
</g>
<path opacity="0.1" d="M171.811 165.388C165.46 169.05 165.46 175.048 171.811 178.739C178.162 182.43 188.473 182.401 194.824 178.739C201.175 175.077 201.182 169.079 194.824 165.388C188.466 161.697 178.169 161.704 171.811 165.388Z" fill="black"/>
<path d="M174.947 142.215C174.954 142.131 174.983 142.051 175.032 141.982C175.081 141.914 175.147 141.86 175.224 141.826C175.432 141.717 175.663 141.66 175.898 141.66C176.133 141.66 176.364 141.717 176.573 141.826C176.649 141.86 176.715 141.914 176.764 141.982C176.813 142.051 176.842 142.131 176.85 142.215L172.409 172.111C172.401 172.168 172.379 172.222 172.345 172.268C172.31 172.315 172.265 172.351 172.212 172.374C172.064 172.45 171.901 172.49 171.735 172.49C171.569 172.49 171.405 172.45 171.257 172.374C171.204 172.352 171.157 172.316 171.122 172.27C171.088 172.223 171.066 172.168 171.06 172.111L174.947 142.215Z" fill="#455A64"/>
<path d="M191.463 142.215C191.454 142.131 191.424 142.052 191.375 141.984C191.327 141.916 191.261 141.861 191.186 141.826C190.976 141.716 190.744 141.658 190.507 141.658C190.271 141.658 190.039 141.716 189.829 141.826C189.754 141.861 189.688 141.916 189.64 141.984C189.591 142.052 189.561 142.131 189.552 142.215L194.022 172.111C194.028 172.168 194.05 172.223 194.084 172.27C194.119 172.316 194.166 172.352 194.219 172.374C194.366 172.45 194.528 172.49 194.693 172.49C194.858 172.49 195.02 172.45 195.167 172.374C195.22 172.352 195.267 172.316 195.301 172.27C195.336 172.223 195.358 172.168 195.364 172.111L191.463 142.215Z" fill="#455A64"/>
<path d="M184.273 143.203C184.265 143.119 184.235 143.038 184.186 142.969C184.138 142.9 184.072 142.844 183.996 142.808C183.786 142.703 183.555 142.649 183.321 142.649C183.087 142.649 182.856 142.703 182.647 142.808C182.569 142.843 182.502 142.898 182.452 142.968C182.402 143.037 182.371 143.118 182.362 143.203L182.647 176.893C182.654 176.952 182.676 177.007 182.71 177.055C182.745 177.102 182.79 177.14 182.844 177.164C182.991 177.24 183.155 177.28 183.321 177.28C183.487 177.28 183.651 177.24 183.799 177.164C183.85 177.137 183.894 177.099 183.929 177.052C183.963 177.005 183.986 176.951 183.996 176.893L184.273 143.203Z" fill="#455A64"/>
<path d="M200.417 135.066C200.417 132.525 198.762 129.991 195.422 128.05C188.75 124.176 177.922 124.176 171.242 128.05C167.903 129.991 166.247 132.525 166.247 135.066V136.429C166.291 138.933 167.961 141.431 171.257 143.335C177.936 147.209 188.757 147.209 195.436 143.335C198.732 141.431 200.41 138.941 200.446 136.429L200.417 135.066Z" fill="#4957CC"/>
<path d="M171.228 128.028C164.548 131.903 164.548 138.179 171.228 142.054C177.907 145.928 188.728 145.928 195.407 142.054C202.087 138.179 202.087 131.903 195.407 128.028C188.728 124.154 177.907 124.154 171.228 128.028Z" fill="#4957CC"/>
<path opacity="0.45" d="M171.228 128.028C164.548 131.903 164.548 138.179 171.228 142.054C177.907 145.928 188.728 145.928 195.407 142.054C202.087 138.179 202.087 131.903 195.407 128.028C188.728 124.154 177.907 124.154 171.228 128.028Z" fill="white"/>
<g opacity="0.05">
<path d="M187.066 131.764C189.195 133.001 189.195 135.001 187.066 136.238C185.871 136.849 184.549 137.167 183.208 137.167C181.868 137.167 180.546 136.849 179.351 136.238C177.222 135.001 177.222 133.001 179.351 131.764C180.547 131.157 181.868 130.84 183.208 130.84C184.548 130.84 185.87 131.157 187.066 131.764Z" fill="black"/>
</g>
<path d="M179.818 134.276C177.958 132.379 176.901 127.626 178.68 126.124H187.89C189.698 127.626 188.619 132.372 186.752 134.276L186.701 134.327L186.636 134.393L186.468 134.539L186.424 134.576C186.381 134.614 186.335 134.649 186.286 134.679C186.209 134.735 186.128 134.786 186.045 134.832C185.189 135.269 184.242 135.497 183.281 135.497C182.321 135.497 181.374 135.269 180.518 134.832C180.434 134.786 180.354 134.735 180.277 134.679L180.146 134.583L180.095 134.539L179.934 134.393C179.907 134.372 179.882 134.348 179.861 134.32C179.861 134.32 179.825 134.29 179.818 134.276Z" fill="#EBEBEB"/>
<path d="M187.087 125.546C189.187 126.761 189.187 128.739 187.087 129.94C185.909 130.54 184.606 130.852 183.285 130.852C181.963 130.852 180.661 130.54 179.482 129.94C177.382 128.724 177.382 126.747 179.482 125.546C180.66 124.942 181.963 124.628 183.285 124.628C184.607 124.628 185.91 124.942 187.087 125.546Z" fill="#FAFAFA"/>
<path d="M185.6 126.38C186.876 127.113 186.876 128.321 185.6 129.061C184.883 129.428 184.089 129.619 183.285 129.619C182.48 129.619 181.687 129.428 180.97 129.061C179.693 128.329 179.693 127.12 180.97 126.38C181.687 126.014 182.48 125.823 183.285 125.823C184.089 125.823 184.883 126.014 185.6 126.38Z" fill="#EBEBEB"/>
<path d="M180.969 127.648C181.687 127.281 182.48 127.09 183.285 127.09C184.089 127.09 184.883 127.281 185.6 127.648C185.909 127.828 186.171 128.079 186.365 128.38C186.174 128.683 185.911 128.935 185.6 129.112C184.883 129.479 184.089 129.67 183.285 129.67C182.48 129.67 181.687 129.479 180.969 129.112C180.657 128.937 180.393 128.685 180.204 128.38C180.396 128.077 180.658 127.825 180.969 127.648Z" fill="#E0E0E0"/>
<path d="M185.315 128.358C185.971 127.691 186.535 126.94 186.993 126.124C187.765 124.747 187.904 122.909 187.503 122.682C187.102 122.455 185.476 124.286 185.476 124.286C185.626 123.514 185.685 122.728 185.651 121.942C185.585 120.719 185.286 119.613 184.922 119.386C184.557 119.159 183.791 120.705 183.463 121.825C183.135 122.946 182.931 123.861 182.931 123.861C182.798 122.99 182.598 122.131 182.333 121.29C181.925 120.126 181.56 119.862 181.276 119.979C180.991 120.097 180.802 120.639 180.714 122.177C180.685 122.91 180.709 123.644 180.787 124.374C180.787 124.374 180.211 123.737 179.577 123.121C178.942 122.506 178.578 122.389 178.374 122.484C178.169 122.579 178.118 123.663 179.205 125.633C179.742 126.635 180.431 127.547 181.247 128.336C181.247 128.336 182.756 129.325 185.315 128.358Z" fill="#4957CC"/>
<path opacity="0.3" d="M185.315 128.358C185.971 127.691 186.535 126.94 186.993 126.124C187.765 124.747 187.904 122.909 187.503 122.682C187.102 122.455 185.476 124.286 185.476 124.286C185.626 123.514 185.685 122.728 185.651 121.942C185.585 120.719 185.286 119.613 184.922 119.386C184.557 119.159 183.791 120.705 183.463 121.825C183.135 122.946 182.931 123.861 182.931 123.861C182.798 122.99 182.598 122.131 182.333 121.29C181.925 120.126 181.56 119.862 181.276 119.979C180.991 120.097 180.802 120.639 180.714 122.177C180.685 122.91 180.709 123.644 180.787 124.374C180.787 124.374 180.211 123.737 179.577 123.121C178.942 122.506 178.578 122.389 178.374 122.484C178.169 122.579 178.118 123.663 179.205 125.633C179.742 126.635 180.431 127.547 181.247 128.336C181.247 128.336 182.756 129.325 185.315 128.358Z" fill="black"/>
<path opacity="0.1" d="M266.211 217.578C262.259 219.87 262.259 223.584 266.211 225.876C270.163 228.168 276.565 228.161 280.51 225.876C284.455 223.591 284.462 219.87 280.51 217.578C276.558 215.286 270.163 215.286 266.211 217.578Z" fill="black"/>
<path d="M279.825 221.745C283.281 218.2 285.308 203.787 281.94 200.975H264.789C261.413 203.787 263.44 218.193 266.897 221.738L266.991 221.84C267.034 221.876 267.073 221.915 267.108 221.958L267.422 222.236L267.509 222.302L267.764 222.5C267.917 222.602 268.063 222.697 268.216 222.785C269.812 223.598 271.576 224.021 273.364 224.021C275.153 224.021 276.917 223.598 278.512 222.785C278.666 222.695 278.814 222.598 278.957 222.492L279.205 222.309L279.307 222.229C279.409 222.141 279.511 222.053 279.606 221.958L279.745 221.826L279.825 221.745Z" fill="#37474F"/>
<path d="M266.277 199.847C262.361 202.117 262.361 205.794 266.277 208.064C270.192 210.334 276.536 210.334 280.445 208.064C284.353 205.794 284.36 202.117 280.445 199.847C276.529 197.576 270.192 197.576 266.277 199.847Z" fill="#455A64"/>
<path d="M268.158 200.938C265.285 202.6 265.285 205.332 268.158 206.973C269.771 207.793 271.553 208.22 273.361 208.22C275.168 208.22 276.951 207.793 278.563 206.973C281.436 205.303 281.436 202.579 278.563 200.938C276.952 200.115 275.169 199.686 273.361 199.686C271.552 199.686 269.77 200.115 268.158 200.938Z" fill="#263238"/>
<path d="M278.563 203.801C276.951 202.978 275.169 202.549 273.361 202.549C271.552 202.549 269.77 202.978 268.158 203.801C267.476 204.179 266.898 204.72 266.473 205.376C266.906 206.041 267.498 206.588 268.194 206.965C269.807 207.785 271.589 208.213 273.397 208.213C275.205 208.213 276.987 207.785 278.6 206.965C279.298 206.59 279.89 206.043 280.321 205.376C279.878 204.709 279.273 204.167 278.563 203.801Z" fill="#FAFAFA"/>
<path d="M275.457 193.658C275.599 193.217 275.677 192.759 275.69 192.296C275.728 191.742 275.616 191.188 275.366 190.693C275.115 190.197 274.736 189.78 274.268 189.483C273.882 189.278 273.401 189.154 273.189 188.751C273.086 188.522 273.043 188.269 273.065 188.019C273.199 187.083 273.119 186.129 272.832 185.228C272.625 184.843 272.339 184.505 271.994 184.238C271.648 183.97 271.251 183.779 270.827 183.676C269.979 183.474 269.108 183.393 268.238 183.434C267.775 183.458 267.312 183.403 266.867 183.273C266.328 183.075 266.094 182.614 265.722 182.233C265.279 181.844 264.797 181.501 264.286 181.207C263.28 180.476 262.031 180.164 260.8 180.336C258.241 180.878 258.679 183.097 259.699 184.664C260.72 186.232 261.005 186.752 259.699 188.78C258.394 190.809 258.73 192.984 260.851 193.907C262.973 194.83 264.257 194.764 263.878 197.232C263.535 199.429 263.404 201.29 265.701 203.208C266.429 203.874 267.301 204.361 268.249 204.631C269.197 204.9 270.194 204.945 271.162 204.761C272.005 204.551 272.811 204.216 273.554 203.765C274.093 203.377 273.619 202.989 273.722 202.373C273.948 201.055 274.166 199.737 274.392 198.426C274.509 197.376 274.687 196.335 274.925 195.306C275.085 194.727 275.297 194.215 275.457 193.658Z" fill="#4957CC"/>
<path opacity="0.25" d="M275.457 193.658C275.599 193.217 275.677 192.759 275.69 192.296C275.728 191.742 275.616 191.188 275.366 190.693C275.115 190.197 274.736 189.78 274.268 189.483C273.882 189.278 273.401 189.154 273.189 188.751C273.086 188.522 273.043 188.269 273.065 188.019C273.199 187.083 273.119 186.129 272.832 185.228C272.625 184.843 272.339 184.505 271.994 184.238C271.648 183.97 271.251 183.779 270.827 183.676C269.979 183.474 269.108 183.393 268.238 183.434C267.775 183.458 267.312 183.403 266.867 183.273C266.328 183.075 266.094 182.614 265.722 182.233C265.279 181.844 264.797 181.501 264.286 181.207C263.28 180.476 262.031 180.164 260.8 180.336C258.241 180.878 258.679 183.097 259.699 184.664C260.72 186.232 261.005 186.752 259.699 188.78C258.394 190.809 258.73 192.984 260.851 193.907C262.973 194.83 264.257 194.764 263.878 197.232C263.535 199.429 263.404 201.29 265.701 203.208C266.429 203.874 267.301 204.361 268.249 204.631C269.197 204.9 270.194 204.945 271.162 204.761C272.005 204.551 272.811 204.216 273.554 203.765C274.093 203.377 273.619 202.989 273.722 202.373C273.948 201.055 274.166 199.737 274.392 198.426C274.509 197.376 274.687 196.335 274.925 195.306C275.085 194.727 275.297 194.215 275.457 193.658Z" fill="black"/>
<path d="M269.711 191.93C269.704 191.902 269.688 191.876 269.667 191.856C269.361 191.314 269.047 190.802 268.741 190.318C269.058 189.011 269.549 187.752 270.199 186.576C270.217 186.532 270.218 186.484 270.203 186.44C270.189 186.396 270.159 186.358 270.119 186.334C270.098 186.32 270.074 186.31 270.049 186.306C270.024 186.301 269.998 186.302 269.973 186.309C269.949 186.315 269.926 186.326 269.905 186.342C269.885 186.358 269.869 186.377 269.857 186.4C269.238 187.505 268.76 188.683 268.435 189.908C266.991 187.66 265.224 185.639 263.192 183.91C263.172 183.894 263.149 183.883 263.125 183.876C263.1 183.869 263.075 183.867 263.049 183.871C263.024 183.874 263 183.883 262.978 183.896C262.956 183.909 262.937 183.926 262.922 183.947C262.893 183.99 262.881 184.043 262.889 184.094C262.897 184.146 262.925 184.193 262.966 184.225C265.397 186.317 267.452 188.815 269.04 191.607C266.959 190.953 264.816 190.519 262.645 190.311C262.62 190.308 262.594 190.31 262.569 190.317C262.545 190.325 262.522 190.337 262.502 190.353C262.482 190.37 262.466 190.39 262.454 190.413C262.442 190.436 262.435 190.461 262.434 190.487C262.431 190.512 262.433 190.538 262.44 190.563C262.447 190.588 262.46 190.611 262.476 190.631C262.492 190.65 262.512 190.667 262.535 190.679C262.558 190.69 262.583 190.697 262.609 190.699C264.906 190.923 267.17 191.414 269.354 192.164C271.355 195.712 272.697 199.596 273.313 203.626C273.316 203.666 273.333 203.705 273.361 203.734C273.389 203.763 273.426 203.782 273.466 203.787H273.532C273.557 203.783 273.581 203.775 273.603 203.762C273.624 203.749 273.643 203.732 273.658 203.711C273.673 203.691 273.684 203.667 273.69 203.643C273.696 203.618 273.696 203.592 273.692 203.567C273.082 199.477 271.733 195.533 269.711 191.93Z" fill="white"/>
<path d="M275.508 204.842C277.418 205.103 279.364 204.85 281.145 204.109C284.244 202.879 285.724 199.539 285.724 199.539C285.724 199.539 282.012 198.719 279.963 198.917C281.935 198.276 284.002 197.981 286.074 198.045C286.074 198.045 287.824 197.042 286.956 193.944C286.956 193.944 284.995 192.933 281.043 194.105C282.56 192.783 284.358 191.828 286.3 191.314C286.577 191.271 285.527 187.22 284.893 185.455C284.258 183.69 283.471 183.324 282.049 183.72C280.627 184.115 276.668 186.547 276.296 187.689C275.924 188.832 276.894 191.439 276.894 191.439C275.978 190.541 275.364 189.379 275.136 188.114C274.302 188.586 273.542 189.181 272.883 189.879C272.319 190.512 271.901 191.262 271.658 192.076C272.18 193.777 273.074 195.338 274.276 196.646C272.792 195.927 271.628 194.679 271.009 193.145C270.193 194.782 269.89 196.628 270.141 198.441C270.323 199.915 270.927 201.304 271.88 202.44C272.832 203.577 274.093 204.411 275.508 204.842Z" fill="#4957CC"/>
<path opacity="0.1" d="M275.508 204.842C277.418 205.103 279.364 204.85 281.145 204.109C284.244 202.879 285.724 199.539 285.724 199.539C285.724 199.539 282.012 198.719 279.963 198.917C281.935 198.276 284.002 197.981 286.074 198.045C286.074 198.045 287.824 197.042 286.956 193.944C286.956 193.944 284.995 192.933 281.043 194.105C282.56 192.783 284.358 191.828 286.3 191.314C286.577 191.271 285.527 187.22 284.893 185.455C284.258 183.69 283.471 183.324 282.049 183.72C280.627 184.115 276.668 186.547 276.296 187.689C275.924 188.832 276.894 191.439 276.894 191.439C275.978 190.541 275.364 189.379 275.136 188.114C274.302 188.586 273.542 189.181 272.883 189.879C272.319 190.512 271.901 191.262 271.658 192.076C272.18 193.777 273.074 195.338 274.276 196.646C272.792 195.927 271.628 194.679 271.009 193.145C270.193 194.782 269.89 196.628 270.141 198.441C270.323 199.915 270.927 201.304 271.88 202.44C272.832 203.577 274.093 204.411 275.508 204.842Z" fill="black"/>
<path d="M275.041 204.644C275.071 204.626 275.095 204.6 275.111 204.569C275.126 204.537 275.132 204.503 275.129 204.468C274.618 198.272 279.869 187.623 282.567 185.184C282.584 185.166 282.599 185.145 282.608 185.122C282.618 185.099 282.623 185.074 282.623 185.049C282.623 185.023 282.618 184.998 282.608 184.975C282.599 184.952 282.584 184.931 282.567 184.913C282.531 184.879 282.484 184.86 282.435 184.86C282.386 184.86 282.339 184.879 282.304 184.913C279.562 187.367 274.225 198.213 274.742 204.512C274.748 204.561 274.772 204.606 274.81 204.638C274.849 204.669 274.897 204.684 274.947 204.68C274.981 204.678 275.014 204.665 275.041 204.644Z" fill="white"/>
<path opacity="0.1" d="M127.36 223.203L85.3955 198.829C85.042 198.648 84.6509 198.554 84.2543 198.554C83.8576 198.554 83.4666 198.648 83.1131 198.829L44.3206 221.328C44.1953 221.387 44.0894 221.481 44.0152 221.598C43.941 221.715 43.9016 221.851 43.9016 221.99C43.9016 222.13 43.941 222.266 44.0152 222.383C44.0894 222.5 44.1953 222.594 44.3206 222.653L86.2778 247.02C86.6313 247.201 87.0223 247.295 87.419 247.295C87.8156 247.295 88.2066 247.201 88.5601 247.02L91.7248 245.189L112.813 232.958L127.36 224.521C127.483 224.461 127.587 224.367 127.66 224.251C127.733 224.134 127.771 223.999 127.771 223.862C127.771 223.724 127.733 223.589 127.66 223.473C127.587 223.356 127.483 223.263 127.36 223.203Z" fill="black"/>
<path d="M120.323 204.71C120.493 205.723 120.35 206.765 119.913 207.694C119.476 208.623 118.767 209.397 117.881 209.91L89.3186 224.865L89.2384 226.52L87.9404 227.253L89.6103 228.219L121.184 209.866L120.323 204.71Z" fill="#37474F"/>
<path d="M90.4998 235.536C90.3175 233.339 91.0978 231.142 93.0082 230.014L118.741 215.088C119.079 214.89 119.459 214.778 119.85 214.761C120.24 214.744 120.629 214.823 120.983 214.99C121.336 215.157 121.644 215.408 121.88 215.721C122.116 216.034 122.272 216.4 122.336 216.787L120.637 206.497C120.81 207.494 120.674 208.52 120.247 209.437C119.821 210.354 119.125 211.117 118.253 211.624L91.6082 227.092C91.4167 227.224 91.193 227.301 90.9612 227.314C90.7294 227.328 90.4982 227.278 90.2927 227.169C90.0871 227.061 89.9149 226.898 89.7946 226.698C89.6744 226.499 89.6106 226.27 89.6102 226.037L89.4717 224.623L90.4998 235.536Z" fill="#455A64"/>
<path d="M91.0611 164.926L83.7693 169.159L114.891 188.934C115.877 189.558 116.721 190.384 117.367 191.358C118.013 192.333 118.447 193.433 118.639 194.588L123.167 224.067C123.182 224.144 123.215 224.217 123.263 224.28C123.311 224.342 123.373 224.393 123.443 224.428C123.514 224.462 123.591 224.48 123.67 224.48C123.749 224.48 123.826 224.461 123.896 224.426C124.064 224.323 124.166 224.133 124.1 223.422L121.512 192.098C121.228 189.992 120.128 188.083 118.449 186.788L91.0611 164.926Z" fill="#455A64"/>
<path d="M57.2709 203.816L57.0959 204.234C56.7856 204.953 56.7493 205.761 56.994 206.505C57.2387 207.249 57.7474 207.877 58.4231 208.269L87.0945 224.909L86.3653 220.595L87.4445 227.062L55.2803 208.357L57.2709 203.816Z" fill="#263238"/>
<path d="M57.2709 203.816L57.2053 204.116C56.9957 204.584 56.9399 205.106 57.0458 205.607C57.1517 206.108 57.414 206.562 57.7944 206.903C58.1748 207.245 58.6537 207.455 59.1614 207.505C59.6691 207.554 60.1793 207.44 60.6178 207.178L61.8429 206.445L63.4689 207.39L56.7823 211.272L54.6604 209.851L57.2709 203.816Z" fill="#263238"/>
<path d="M87.8237 225.319L60.3116 209.353C59.8047 209.022 59.3827 208.576 59.0799 208.05C58.777 207.525 58.602 206.935 58.5688 206.328V204.702C58.6008 204.096 58.7754 203.505 59.0783 202.98C59.3812 202.454 59.8039 202.008 60.3116 201.678L87.8237 185.719C88.3626 185.444 88.9584 185.301 89.5628 185.301C90.1671 185.301 90.763 185.444 91.3019 185.719L118.821 201.714C119.328 202.045 119.75 202.491 120.051 203.017C120.353 203.543 120.526 204.133 120.557 204.739V206.387C120.525 206.993 120.351 207.582 120.05 208.108C119.748 208.634 119.327 209.08 118.821 209.412L91.3092 225.356C90.7664 225.626 90.1678 225.764 89.562 225.757C88.9563 225.751 88.3607 225.601 87.8237 225.319Z" fill="#4957CC"/>
<path opacity="0.2" d="M87.8237 225.319L60.3116 209.353C59.8047 209.022 59.3827 208.576 59.0799 208.05C58.777 207.525 58.602 206.935 58.5688 206.328V204.702C58.6008 204.096 58.7754 203.505 59.0783 202.98C59.3812 202.454 59.8039 202.008 60.3116 201.678L87.8237 185.719C88.3626 185.444 88.9584 185.301 89.5628 185.301C90.1671 185.301 90.763 185.444 91.3019 185.719L118.821 201.714C119.328 202.045 119.75 202.491 120.051 203.017C120.353 203.543 120.526 204.133 120.557 204.739V206.387C120.525 206.993 120.351 207.582 120.05 208.108C119.748 208.634 119.327 209.08 118.821 209.412L91.3092 225.356C90.7664 225.626 90.1678 225.764 89.562 225.757C88.9563 225.751 88.3607 225.601 87.8237 225.319Z" fill="black"/>
<path d="M88.3414 225.539C88.1642 225.484 87.9931 225.41 87.831 225.319L60.3189 209.353C59.812 209.022 59.39 208.576 59.0872 208.05C58.7844 207.525 58.6093 206.935 58.5762 206.328V204.695C58.6083 204.157 58.7505 203.632 58.9939 203.152C59.2373 202.672 59.5767 202.247 59.9908 201.905C59.371 202.461 59.4804 203.208 60.3189 203.692L87.6997 219.57L88.3414 225.539Z" fill="#4957CC"/>
<path d="M120.564 204.695V206.35C120.531 206.957 120.356 207.547 120.053 208.072C119.75 208.598 119.328 209.044 118.821 209.375L91.3092 225.319C90.8536 225.551 90.3567 225.69 89.8472 225.728C89.3378 225.766 88.8259 225.702 88.3414 225.539L87.6997 219.57L87.831 219.643C88.3688 219.921 88.9651 220.067 89.5701 220.067C90.1751 220.067 90.7713 219.921 91.3092 219.643L118.821 203.692C119.66 203.208 119.769 202.461 119.149 201.905C119.563 202.247 119.903 202.672 120.146 203.152C120.39 203.632 120.532 204.157 120.564 204.695Z" fill="#4957CC"/>
<path d="M97.6166 191.395L70.1045 207.346C69.479 207.682 68.7681 207.822 68.0628 207.749C67.9608 207.756 67.8585 207.756 67.7566 207.749H67.6982L67.5159 207.713L67.2461 207.647C67.0404 207.583 66.8423 207.497 66.6555 207.39L65.219 206.526C64.1639 205.838 63.4142 204.768 63.1262 203.538L59.0355 180.907C59.0122 180.764 59 180.62 58.9991 180.475C58.9954 180.416 58.9954 180.358 58.9991 180.299C59.023 180.006 59.0867 179.718 59.1886 179.442C59.3733 178.929 59.6904 178.474 60.1074 178.124L60.2241 178.036L60.4064 177.919L87.9258 161.96C88.4647 161.685 89.0605 161.542 89.6648 161.542C90.2692 161.542 90.865 161.685 91.404 161.96L92.8186 162.78C93.1273 162.968 93.4073 163.2 93.6498 163.469C93.7017 163.515 93.7482 163.566 93.7884 163.623C93.9792 163.836 94.1501 164.066 94.2988 164.311C94.333 164.361 94.3647 164.412 94.3936 164.465L94.4738 164.604C94.5176 164.677 94.5467 164.743 94.5832 164.809C94.6197 164.875 94.6488 164.948 94.678 165.022L94.7436 165.19C94.7456 165.217 94.7456 165.244 94.7436 165.271C94.7436 165.329 94.7801 165.38 94.7947 165.432C94.8151 165.497 94.8321 165.563 94.8457 165.629C94.8613 165.677 94.8735 165.726 94.8822 165.776L98.9729 188.399C99.0533 188.977 98.9685 189.565 98.7283 190.095C98.4881 190.626 98.1025 191.076 97.6166 191.395Z" fill="#4957CC"/>
<path opacity="0.2" d="M97.6166 191.395L70.1045 207.346C69.479 207.682 68.7681 207.822 68.0628 207.749C67.9608 207.756 67.8585 207.756 67.7566 207.749H67.6982L67.5159 207.713L67.2461 207.647C67.0404 207.583 66.8423 207.497 66.6555 207.39L65.219 206.526C64.1639 205.838 63.4142 204.768 63.1262 203.538L59.0355 180.907C59.0122 180.764 59 180.62 58.9991 180.475C58.9954 180.416 58.9954 180.358 58.9991 180.299C59.023 180.006 59.0867 179.718 59.1886 179.442C59.3733 178.929 59.6904 178.474 60.1074 178.124L60.2241 178.036L60.4064 177.919L87.9258 161.96C88.4647 161.685 89.0605 161.542 89.6648 161.542C90.2692 161.542 90.865 161.685 91.404 161.96L92.8186 162.78C93.1273 162.968 93.4073 163.2 93.6498 163.469C93.7017 163.515 93.7482 163.566 93.7884 163.623C93.9792 163.836 94.1501 164.066 94.2988 164.311C94.333 164.361 94.3647 164.412 94.3936 164.465L94.4738 164.604C94.5176 164.677 94.5467 164.743 94.5832 164.809C94.6197 164.875 94.6488 164.948 94.678 165.022L94.7436 165.19C94.7456 165.217 94.7456 165.244 94.7436 165.271C94.7436 165.329 94.7801 165.38 94.7947 165.432C94.8151 165.497 94.8321 165.563 94.8457 165.629C94.8613 165.677 94.8735 165.726 94.8822 165.776L98.9729 188.399C99.0533 188.977 98.9685 189.565 98.7283 190.095C98.4881 190.626 98.1025 191.076 97.6166 191.395Z" fill="black"/>
<path d="M63.9209 183.749L68.0116 206.372C68.029 206.608 68.1087 206.835 68.2426 207.029C68.3764 207.223 68.5595 207.378 68.7729 207.477C68.9863 207.577 69.2223 207.617 69.4564 207.594C69.6905 207.571 69.9142 207.485 70.1044 207.346L97.6165 191.395C98.1077 191.08 98.4992 190.631 98.7447 190.1C98.9901 189.57 99.0794 188.979 99.0019 188.399L94.9112 165.776C94.8939 165.54 94.8141 165.314 94.6803 165.119C94.5464 164.925 94.3633 164.77 94.1499 164.671C93.9365 164.572 93.7005 164.531 93.4664 164.554C93.2324 164.577 93.0086 164.663 92.8185 164.802L65.3064 180.753C64.8151 181.068 64.4237 181.517 64.1782 182.048C63.9327 182.579 63.8435 183.169 63.9209 183.749Z" fill="#4957CC"/>
<path d="M69.3972 207.632C68.9619 207.745 68.511 207.784 68.0628 207.749C67.9608 207.756 67.8585 207.756 67.7565 207.749C67.6763 207.749 67.5961 207.749 67.5159 207.705L67.2461 207.639C67.0404 207.576 66.8423 207.49 66.6555 207.383L65.219 206.526C64.1639 205.838 63.4142 204.768 63.1262 203.538L59.0355 180.907C59.0122 180.764 59 180.62 58.9991 180.475C58.9954 180.417 58.9954 180.358 58.9991 180.299C59.023 180.006 59.0867 179.718 59.1886 179.442L64.096 182.247C63.9024 182.722 63.8419 183.242 63.921 183.749L68.0118 206.372C68.0342 206.717 68.192 207.039 68.4504 207.267C68.7088 207.495 69.0467 207.61 69.3899 207.588C69.3889 207.603 69.3914 207.618 69.3972 207.632Z" fill="#4957CC"/>
<path d="M51.051 219.746L57.5553 190.033L60.7272 192.757L52.2104 220.2C52.1582 220.322 52.0689 220.425 51.9551 220.493C51.8448 220.556 51.7182 220.583 51.5918 220.572C51.4655 220.561 51.3455 220.512 51.2475 220.431C51.1496 220.35 51.0784 220.242 51.0433 220.119C51.0082 219.997 51.0109 219.867 51.051 219.746Z" fill="#37474F"/>
<path d="M60.0054 186.085L85.133 206.109C86.0214 206.82 86.7549 207.707 87.288 208.715C87.8211 209.723 88.1424 210.83 88.232 211.968L91.2144 242.97C91.2225 243.067 91.2028 243.164 91.1576 243.249C91.1123 243.335 91.0434 243.406 90.9592 243.453C90.8891 243.49 90.8114 243.51 90.7323 243.511C90.6532 243.512 90.575 243.495 90.504 243.46C90.4329 243.425 90.3711 243.373 90.3235 243.31C90.2759 243.246 90.2439 243.173 90.23 243.094L85.308 213.938C85.1153 212.784 84.6825 211.684 84.0379 210.71C83.3934 209.736 82.5515 208.909 81.5673 208.284L60.1147 194.647C59.1799 194.052 58.4003 193.242 57.8409 192.283C57.2816 191.324 56.9588 190.245 56.8996 189.135C56.8404 188.025 57.0464 186.917 57.5004 185.904C57.9544 184.89 58.6433 184.001 59.5095 183.309L60.0054 186.085Z" fill="#455A64"/>
<path d="M56.8262 205.332C56.4411 206.14 56.3642 207.062 56.6101 207.923C56.856 208.784 57.4077 209.525 58.1606 210.005L83.8132 224.88C84.1421 225.069 84.5176 225.16 84.8961 225.144C85.2747 225.127 85.6408 225.004 85.9522 224.787C86.2635 224.57 86.5073 224.269 86.6553 223.918C86.8032 223.568 86.8494 223.183 86.7883 222.807L88.7571 234.481C88.5814 233.465 88.1878 232.499 87.6036 231.65C87.0194 230.802 86.2585 230.091 85.3737 229.567L56.8554 213.037C56.4984 212.828 56.1013 212.698 55.6905 212.655C55.2796 212.611 54.8643 212.656 54.472 212.787C54.0797 212.917 53.7195 213.129 53.4151 213.41C53.1107 213.69 52.8691 214.033 52.7063 214.414L56.8262 205.332Z" fill="#37474F"/>
<path d="M263.535 233.243L163.884 290.992L108.24 258.899L207.898 201.157L263.535 233.243Z" fill="#4957CC"/>
<path opacity="0.7" d="M263.535 233.243L163.884 290.992L108.24 258.899L207.898 201.157L263.535 233.243Z" fill="white"/>
<path d="M263.535 233.243V234.803L163.885 292.552V290.992L263.535 233.243Z" fill="#4957CC"/>
<path opacity="0.5" d="M263.535 233.243V234.803L163.885 292.552V290.992L263.535 233.243Z" fill="white"/>
<path d="M163.884 290.993L108.24 258.899V260.459L163.884 292.553V290.993Z" fill="#4957CC"/>
<path opacity="0.4" d="M163.884 290.993L108.24 258.899V260.459L163.884 292.553V290.993Z" fill="white"/>
<path d="M133.033 268.831L141.666 263.807C141.708 263.795 141.744 263.77 141.77 263.736C141.796 263.701 141.81 263.659 141.81 263.616C141.81 263.573 141.796 263.531 141.77 263.497C141.744 263.462 141.708 263.437 141.666 263.426L125.821 254.234C125.718 254.18 125.603 254.152 125.486 254.152C125.369 254.152 125.254 254.18 125.15 254.234L116.517 259.251C116.477 259.265 116.442 259.291 116.417 259.326C116.392 259.361 116.379 259.402 116.379 259.445C116.379 259.488 116.392 259.53 116.417 259.564C116.442 259.599 116.477 259.625 116.517 259.639L132.369 268.831C132.472 268.883 132.586 268.911 132.701 268.911C132.816 268.911 132.93 268.883 133.033 268.831Z" fill="#4957CC"/>
<path opacity="0.1" d="M133.033 268.831L141.666 263.807C141.708 263.795 141.744 263.77 141.77 263.736C141.796 263.701 141.81 263.659 141.81 263.616C141.81 263.573 141.796 263.531 141.77 263.497C141.744 263.462 141.708 263.437 141.666 263.426L125.821 254.234C125.718 254.18 125.603 254.152 125.486 254.152C125.369 254.152 125.254 254.18 125.15 254.234L116.517 259.251C116.477 259.265 116.442 259.291 116.417 259.326C116.392 259.361 116.379 259.402 116.379 259.445C116.379 259.488 116.392 259.53 116.417 259.564C116.442 259.599 116.477 259.625 116.517 259.639L132.369 268.831C132.472 268.883 132.586 268.911 132.701 268.911C132.816 268.911 132.93 268.883 133.033 268.831Z" fill="black"/>
<path d="M140.835 262.151C140.952 262.239 140.937 262.371 140.835 262.451L133.128 266.897C133.04 266.94 132.944 266.963 132.847 266.963C132.749 266.963 132.653 266.94 132.566 266.897L117.91 258.401C117.764 258.313 117.756 258.189 117.91 258.094C117.837 258.149 117.777 258.22 117.735 258.301C117.692 258.382 117.667 258.471 117.662 258.562V258.929C117.667 259.027 117.695 259.123 117.745 259.208C117.794 259.294 117.863 259.366 117.946 259.419L132.603 267.915C132.69 267.958 132.786 267.981 132.883 267.981C132.981 267.981 133.077 267.958 133.164 267.915L140.835 263.469C140.916 263.417 140.983 263.345 141.031 263.261C141.079 263.177 141.107 263.083 141.112 262.986V262.613C141.101 262.52 141.071 262.431 141.023 262.352C140.976 262.272 140.911 262.204 140.835 262.151Z" fill="#4957CC"/>
<path opacity="0.1" d="M140.835 262.151C140.952 262.239 140.937 262.371 140.835 262.451L133.128 266.897C133.04 266.94 132.944 266.963 132.847 266.963C132.749 266.963 132.653 266.94 132.566 266.897L117.91 258.401C117.764 258.313 117.756 258.189 117.91 258.094C117.837 258.149 117.777 258.22 117.735 258.301C117.692 258.382 117.667 258.471 117.662 258.562V258.929C117.667 259.027 117.695 259.123 117.745 259.208C117.794 259.294 117.863 259.366 117.946 259.419L132.603 267.915C132.69 267.958 132.786 267.981 132.883 267.981C132.981 267.981 133.077 267.958 133.164 267.915L140.835 263.469C140.916 263.417 140.983 263.345 141.031 263.261C141.079 263.177 141.107 263.083 141.112 262.986V262.613C141.101 262.52 141.071 262.431 141.023 262.352C140.976 262.272 140.911 262.204 140.835 262.151Z" fill="black"/>
<path d="M140.799 262.129L126.135 253.626C126.049 253.583 125.954 253.561 125.858 253.561C125.761 253.561 125.667 253.583 125.581 253.626L117.91 258.108C117.756 258.196 117.756 258.343 117.91 258.438L132.566 266.934C132.653 266.977 132.749 267 132.847 267C132.944 267 133.04 266.977 133.128 266.934L140.799 262.488C140.846 262.488 140.891 262.469 140.925 262.436C140.958 262.402 140.977 262.356 140.977 262.309C140.977 262.261 140.958 262.215 140.925 262.182C140.891 262.148 140.846 262.129 140.799 262.129ZM138.611 261.551C138.742 261.631 138.742 261.748 138.611 261.829L131.83 265.762C131.756 265.798 131.675 265.817 131.593 265.817C131.511 265.817 131.429 265.798 131.356 265.762L119.937 259.17C119.805 259.097 119.805 258.973 119.937 258.892L126.725 254.959C126.782 254.917 126.85 254.891 126.92 254.883C126.99 254.875 127.062 254.886 127.126 254.915L138.611 261.551Z" fill="#4957CC"/>
<path opacity="0.2" d="M140.799 262.129L126.135 253.626C126.049 253.583 125.954 253.561 125.858 253.561C125.761 253.561 125.667 253.583 125.581 253.626L117.91 258.108C117.756 258.196 117.756 258.343 117.91 258.438L132.566 266.934C132.653 266.977 132.749 267 132.847 267C132.944 267 133.04 266.977 133.128 266.934L140.799 262.488C140.846 262.488 140.891 262.469 140.925 262.436C140.958 262.402 140.977 262.356 140.977 262.309C140.977 262.261 140.958 262.215 140.925 262.182C140.891 262.148 140.846 262.129 140.799 262.129ZM138.611 261.551C138.742 261.631 138.742 261.748 138.611 261.829L131.83 265.762C131.756 265.798 131.675 265.817 131.593 265.817C131.511 265.817 131.429 265.798 131.356 265.762L119.937 259.17C119.805 259.097 119.805 258.973 119.937 258.892L126.725 254.959C126.782 254.917 126.85 254.891 126.92 254.883C126.99 254.875 127.062 254.886 127.126 254.915L138.611 261.551Z" fill="black"/>
<path opacity="0.3" d="M117.873 258.108C117.801 258.164 117.741 258.235 117.698 258.316C117.656 258.396 117.631 258.486 117.625 258.577V258.943C117.631 259.042 117.659 259.138 117.708 259.223C117.758 259.308 117.827 259.381 117.91 259.434L132.566 267.93C132.652 267.975 132.747 267.997 132.843 267.996V266.978C132.747 266.979 132.652 266.957 132.566 266.912L117.91 258.416C117.764 258.313 117.757 258.189 117.873 258.108Z" fill="black"/>
<path d="M117.873 258.108C117.801 258.164 117.741 258.235 117.698 258.316C117.656 258.396 117.631 258.486 117.625 258.577V258.943C117.631 259.042 117.659 259.138 117.708 259.223C117.758 259.308 117.827 259.381 117.91 259.434L132.566 267.93C132.652 267.975 132.747 267.997 132.843 267.996V266.978C132.747 266.979 132.652 266.957 132.566 266.912L117.91 258.416C117.764 258.313 117.757 258.189 117.873 258.108Z" fill="#4957CC"/>
<path d="M122.482 256.285C122.505 256.279 122.525 256.265 122.54 256.246C122.555 256.227 122.563 256.203 122.563 256.179C122.563 256.154 122.555 256.131 122.54 256.112C122.525 256.093 122.505 256.079 122.482 256.073C122.423 256.043 122.358 256.028 122.292 256.028C122.226 256.028 122.161 256.043 122.102 256.073C122.079 256.079 122.058 256.093 122.044 256.112C122.029 256.131 122.021 256.154 122.021 256.179C122.021 256.203 122.029 256.227 122.044 256.246C122.058 256.265 122.079 256.279 122.102 256.285C122.161 256.314 122.226 256.329 122.292 256.329C122.358 256.329 122.423 256.314 122.482 256.285Z" fill="#455A64"/>
<path d="M136.234 264.568C136.074 264.571 135.916 264.533 135.775 264.458C135.72 264.43 135.673 264.388 135.639 264.337C135.604 264.286 135.583 264.227 135.578 264.165C135.582 264.104 135.603 264.046 135.638 263.996C135.672 263.946 135.719 263.905 135.775 263.88C135.917 263.808 136.074 263.77 136.234 263.77C136.393 263.77 136.551 263.808 136.693 263.88C136.75 263.904 136.798 263.944 136.834 263.994C136.87 264.045 136.892 264.104 136.897 264.165C136.892 264.228 136.87 264.288 136.834 264.339C136.798 264.391 136.75 264.432 136.693 264.458C136.552 264.534 136.394 264.572 136.234 264.568ZM136.234 263.836C136.087 263.834 135.941 263.869 135.811 263.938C135.767 263.957 135.729 263.988 135.701 264.026C135.673 264.065 135.656 264.11 135.651 264.158C135.656 264.206 135.673 264.253 135.701 264.292C135.729 264.332 135.767 264.364 135.811 264.385C135.942 264.45 136.087 264.484 136.234 264.484C136.381 264.484 136.525 264.45 136.657 264.385C136.766 264.319 136.825 264.246 136.825 264.158C136.819 264.11 136.8 264.064 136.771 264.025C136.741 263.986 136.702 263.956 136.657 263.938C136.526 263.872 136.381 263.839 136.234 263.843V263.836Z" fill="#455A64"/>
<path d="M122.292 257.01L123.75 256.168C123.838 256.116 123.845 256.043 123.75 255.992C123.703 255.968 123.65 255.956 123.597 255.956C123.544 255.956 123.492 255.968 123.444 255.992L121.986 256.827C121.898 256.878 121.898 256.958 121.986 257.002C122.033 257.028 122.085 257.042 122.138 257.043C122.191 257.045 122.244 257.033 122.292 257.01Z" fill="#455A64"/>
<path d="M127.126 254.886C127.062 254.857 126.99 254.846 126.92 254.854C126.85 254.861 126.782 254.888 126.725 254.93L119.908 258.841C119.776 258.922 119.776 259.046 119.908 259.119L131.327 265.711C131.4 265.747 131.481 265.766 131.564 265.766C131.646 265.766 131.727 265.747 131.8 265.711L138.582 261.778C138.72 261.697 138.72 261.58 138.582 261.5L127.126 254.886Z" fill="#4957CC"/>
<path opacity="0.45" d="M127.126 254.886C127.062 254.857 126.99 254.846 126.92 254.854C126.85 254.861 126.782 254.888 126.725 254.93L119.908 258.841C119.776 258.922 119.776 259.046 119.908 259.119L131.327 265.711C131.4 265.747 131.481 265.766 131.564 265.766C131.646 265.766 131.727 265.747 131.8 265.711L138.582 261.778C138.72 261.697 138.72 261.58 138.582 261.5L127.126 254.886Z" fill="black"/>
<path d="M127.484 260.342C127.505 260.334 127.528 260.334 127.549 260.342C127.549 260.342 127.6 260.342 127.615 260.342L127.856 260.481C127.859 260.487 127.86 260.493 127.86 260.5C127.86 260.506 127.859 260.513 127.856 260.518C127.859 260.525 127.861 260.532 127.861 260.54C127.861 260.548 127.859 260.555 127.856 260.562L127.63 260.694H127.564H127.498L127.258 260.547C127.248 260.547 127.239 260.544 127.232 260.537C127.225 260.53 127.221 260.52 127.221 260.511C127.221 260.501 127.225 260.492 127.232 260.485C127.239 260.478 127.248 260.474 127.258 260.474L127.484 260.342ZM128.344 260.84H128.41H128.475L128.716 260.98C128.716 260.98 128.716 260.98 128.716 261.016C128.716 261.053 128.716 261.016 128.716 261.06L128.49 261.192H128.424H128.359L128.118 261.053C128.118 261.053 128.118 261.053 128.118 261.009C128.118 260.965 128.118 261.009 128.118 261.009L128.344 260.84Z" fill="white"/>
<path d="M129.321 259.456L129.431 259.515L129.547 259.581L129.664 259.647L129.759 259.705C129.843 259.755 129.919 259.816 129.985 259.888C130.036 259.937 130.069 260.001 130.08 260.071C130.085 260.108 130.083 260.145 130.073 260.18C130.063 260.216 130.045 260.248 130.021 260.276C129.95 260.36 129.863 260.43 129.766 260.481C129.656 260.544 129.538 260.594 129.416 260.628C129.304 260.654 129.189 260.666 129.073 260.665C128.962 260.656 128.852 260.637 128.745 260.606L128.439 260.474L128.22 260.357L128.016 260.225C127.933 260.178 127.856 260.119 127.79 260.049C127.737 259.998 127.701 259.932 127.688 259.859C127.684 259.824 127.687 259.788 127.697 259.754C127.707 259.72 127.724 259.688 127.746 259.661C127.812 259.572 127.897 259.5 127.994 259.449C128.107 259.386 128.227 259.336 128.352 259.302C128.464 259.276 128.579 259.263 128.694 259.266C128.803 259.274 128.91 259.294 129.015 259.324C129.121 259.359 129.223 259.403 129.321 259.456ZM128.76 260.276C128.87 260.337 128.992 260.375 129.117 260.386C129.238 260.392 129.357 260.361 129.46 260.298C129.577 260.232 129.628 260.167 129.606 260.101C129.584 260.035 129.526 259.969 129.416 259.896L129.219 259.771L129.008 259.654C128.895 259.593 128.771 259.555 128.643 259.544C128.525 259.538 128.408 259.569 128.308 259.632C128.191 259.7 128.14 259.766 128.155 259.83C128.155 259.896 128.235 259.961 128.344 260.035L128.548 260.159L128.76 260.276Z" fill="white"/>
<path d="M130.933 258.526L131.035 258.584L131.152 258.65L131.268 258.716L131.37 258.775C131.451 258.826 131.524 258.888 131.589 258.958C131.641 259.007 131.676 259.071 131.691 259.141C131.694 259.177 131.689 259.213 131.678 259.246C131.667 259.28 131.649 259.312 131.626 259.339C131.558 259.425 131.473 259.498 131.378 259.551C131.264 259.613 131.144 259.662 131.02 259.698C130.907 259.712 130.791 259.712 130.678 259.698C130.567 259.695 130.456 259.678 130.35 259.646L130.043 259.515L129.825 259.397L129.62 259.266C129.538 259.216 129.463 259.157 129.394 259.09C129.341 259.039 129.305 258.972 129.292 258.899C129.288 258.864 129.291 258.828 129.301 258.795C129.311 258.761 129.328 258.729 129.351 258.702C129.416 258.613 129.501 258.54 129.598 258.489C129.711 258.426 129.831 258.377 129.956 258.343C130.068 258.316 130.183 258.304 130.298 258.306C130.408 258.311 130.516 258.33 130.619 258.365C130.729 258.407 130.834 258.461 130.933 258.526ZM130.364 259.346C130.474 259.407 130.596 259.445 130.721 259.456C130.842 259.462 130.961 259.431 131.064 259.368C131.181 259.302 131.232 259.236 131.21 259.17C131.174 259.083 131.11 259.011 131.028 258.965L130.845 258.841L130.634 258.724C130.522 258.661 130.397 258.624 130.269 258.614C130.151 258.608 130.034 258.639 129.934 258.702C129.817 258.765 129.766 258.831 129.781 258.899C129.82 258.987 129.887 259.059 129.97 259.104L130.175 259.229L130.364 259.346Z" fill="white"/>
<path d="M120.746 259.229L120.666 259.185H120.731L120.811 259.229C120.801 259.233 120.79 259.236 120.779 259.236C120.767 259.236 120.756 259.233 120.746 259.229Z" fill="white"/>
<path d="M120.877 259.156L120.746 259.075H120.812L120.943 259.148C120.943 259.148 120.943 259.148 120.943 259.185H120.877V259.156Z" fill="white"/>
<path d="M121.009 259.075L120.826 258.973C120.826 258.973 120.826 258.973 120.826 258.936H120.892L121.074 259.046H121.009V259.075Z" fill="white"/>
<path d="M121.14 259.002L120.826 258.819C120.826 258.819 120.826 258.819 120.826 258.782C120.845 258.775 120.866 258.775 120.885 258.782L121.198 258.965H121.133L121.14 259.002Z" fill="white"/>
<path d="M121.519 258.841H121.475L121.322 258.921V258.738H121.359L121.519 258.833H121.563H121.607L121.519 258.841ZM121.432 258.782L121.315 258.716V258.841L121.432 258.782Z" fill="white"/>
<path d="M121.672 258.687C121.619 258.687 121.566 258.675 121.519 258.65C121.475 258.621 121.453 258.592 121.453 258.563C121.453 258.526 121.453 258.497 121.541 258.467H121.607H121.665C121.634 258.46 121.601 258.46 121.57 258.467C121.557 258.472 121.544 258.48 121.534 258.49C121.524 258.5 121.516 258.512 121.512 258.526C121.512 258.526 121.512 258.57 121.563 258.592C121.599 258.602 121.636 258.602 121.672 258.592C121.708 258.598 121.745 258.598 121.782 258.592L121.709 258.548L121.643 258.585H121.599L121.701 258.533H121.738L121.84 258.599C121.818 258.633 121.788 258.661 121.752 258.68C121.726 258.684 121.699 258.687 121.672 258.687Z" fill="white"/>
<path d="M123.728 257.229L123.903 257.332H123.954L124.129 257.229L123.954 257.134H123.903L123.728 257.229C123.728 257.229 123.714 257.222 123.728 257.229Z" fill="white"/>
<path d="M123.852 257.09H123.772H123.699C123.699 257.09 123.699 257.141 123.699 257.163L123.757 257.2H123.801L123.743 257.163V257.112H123.801H123.845L123.852 257.09Z" fill="white"/>
<path d="M127.046 255.237C127.018 255.229 126.987 255.229 126.959 255.237L126.514 255.494C126.506 255.497 126.5 255.503 126.495 255.51C126.49 255.517 126.488 255.525 126.488 255.534C126.488 255.543 126.49 255.551 126.495 255.558C126.5 255.565 126.506 255.571 126.514 255.574L126.682 255.669H126.762H126.806H126.849L127.294 255.406C127.331 255.406 127.331 255.355 127.294 255.325L127.134 255.237C127.105 255.229 127.075 255.229 127.046 255.237ZM126.762 255.691H126.726L126.565 255.596V255.538L127.01 255.281H127.083L127.243 255.377V255.435L126.798 255.691H126.762Z" fill="white"/>
<path d="M126.776 255.655L126.631 255.567C126.631 255.567 126.631 255.567 126.631 255.523L127.032 255.289L127.178 255.377C127.178 255.377 127.178 255.377 127.178 255.421L126.776 255.655Z" fill="white"/>
<path d="M127.156 255.245C127.184 255.236 127.214 255.236 127.243 255.245C127.279 255.245 127.294 255.289 127.279 255.296L127.126 255.201L127.156 255.245Z" fill="white"/>
<path d="M125.843 251.825C125.746 251.825 125.654 251.786 125.585 251.717C125.517 251.649 125.479 251.555 125.479 251.458V248.001C125.479 247.904 125.517 247.811 125.585 247.742C125.654 247.674 125.746 247.635 125.843 247.635C125.94 247.635 126.033 247.674 126.101 247.742C126.169 247.811 126.208 247.904 126.208 248.001V251.458C126.208 251.555 126.169 251.649 126.101 251.717C126.033 251.786 125.94 251.825 125.843 251.825Z" fill="#455A64"/>
<path d="M122.722 253.223C122.664 253.224 122.606 253.211 122.554 253.184C122.501 253.157 122.457 253.118 122.423 253.07L120.403 250.272C120.375 250.233 120.355 250.189 120.343 250.142C120.332 250.095 120.33 250.046 120.337 249.999C120.345 249.951 120.362 249.906 120.387 249.864C120.412 249.823 120.445 249.788 120.484 249.759C120.562 249.704 120.66 249.681 120.755 249.696C120.85 249.711 120.936 249.763 120.994 249.84L123.014 252.638C123.069 252.717 123.092 252.814 123.077 252.91C123.062 253.006 123.011 253.092 122.934 253.15C122.874 253.198 122.799 253.224 122.722 253.223Z" fill="#455A64"/>
<path d="M128.964 253.223C128.887 253.224 128.813 253.198 128.753 253.15C128.676 253.092 128.624 253.006 128.609 252.91C128.595 252.814 128.617 252.717 128.673 252.638L130.692 249.84C130.75 249.763 130.836 249.711 130.931 249.696C131.027 249.681 131.124 249.704 131.203 249.759C131.242 249.787 131.276 249.822 131.302 249.863C131.327 249.905 131.345 249.95 131.352 249.998C131.36 250.046 131.357 250.095 131.345 250.142C131.334 250.189 131.312 250.233 131.283 250.272L129.263 253.07C129.23 253.118 129.185 253.157 129.133 253.184C129.081 253.211 129.023 253.224 128.964 253.223Z" fill="#455A64"/>
<path d="M218.209 251.363L217.181 250.784C217.026 250.735 216.891 250.637 216.796 250.505C216.7 250.374 216.648 250.215 216.648 250.052C216.648 249.889 216.7 249.73 216.796 249.599C216.891 249.467 217.026 249.369 217.181 249.32L219.463 247.994L212.332 243.856L210.049 245.174C209.659 245.373 209.228 245.477 208.791 245.477C208.354 245.477 207.923 245.373 207.533 245.174L206.505 244.581C206.351 244.531 206.216 244.434 206.12 244.302C206.025 244.17 205.973 244.012 205.973 243.849C205.973 243.686 206.025 243.527 206.12 243.395C206.216 243.264 206.351 243.166 206.505 243.116L213.44 239.095C213.83 238.897 214.261 238.793 214.698 238.793C215.135 238.793 215.566 238.897 215.956 239.095L216.984 239.689C217.135 239.742 217.266 239.841 217.358 239.972C217.451 240.103 217.5 240.26 217.5 240.421C217.5 240.582 217.451 240.739 217.358 240.87C217.266 241.001 217.135 241.1 216.984 241.153L214.461 242.618L221.592 246.763L224.115 245.299C224.505 245.1 224.936 244.996 225.373 244.996C225.81 244.996 226.241 245.1 226.631 245.299L227.659 245.892C227.81 245.945 227.941 246.044 228.033 246.176C228.126 246.307 228.176 246.464 228.176 246.624C228.176 246.785 228.126 246.942 228.033 247.073C227.941 247.204 227.81 247.303 227.659 247.357L220.724 251.378C220.334 251.574 219.902 251.675 219.465 251.673C219.028 251.67 218.597 251.564 218.209 251.363Z" fill="#4957CC"/>
<path opacity="0.1" d="M218.209 251.363L217.181 250.784C217.026 250.735 216.891 250.637 216.796 250.505C216.7 250.374 216.648 250.215 216.648 250.052C216.648 249.889 216.7 249.73 216.796 249.599C216.891 249.467 217.026 249.369 217.181 249.32L219.463 247.994L212.332 243.856L210.049 245.174C209.659 245.373 209.228 245.477 208.791 245.477C208.354 245.477 207.923 245.373 207.533 245.174L206.505 244.581C206.351 244.531 206.216 244.434 206.12 244.302C206.025 244.17 205.973 244.012 205.973 243.849C205.973 243.686 206.025 243.527 206.12 243.395C206.216 243.264 206.351 243.166 206.505 243.116L213.44 239.095C213.83 238.897 214.261 238.793 214.698 238.793C215.135 238.793 215.566 238.897 215.956 239.095L216.984 239.689C217.135 239.742 217.266 239.841 217.358 239.972C217.451 240.103 217.5 240.26 217.5 240.421C217.5 240.582 217.451 240.739 217.358 240.87C217.266 241.001 217.135 241.1 216.984 241.153L214.461 242.618L221.592 246.763L224.115 245.299C224.505 245.1 224.936 244.996 225.373 244.996C225.81 244.996 226.241 245.1 226.631 245.299L227.659 245.892C227.81 245.945 227.941 246.044 228.033 246.176C228.126 246.307 228.176 246.464 228.176 246.624C228.176 246.785 228.126 246.942 228.033 247.073C227.941 247.204 227.81 247.303 227.659 247.357L220.724 251.378C220.334 251.574 219.902 251.675 219.465 251.673C219.028 251.67 218.597 251.564 218.209 251.363Z" fill="black"/>
<path d="M214.701 237.316C214.703 236.679 214.537 236.054 214.22 235.503C213.903 234.953 213.446 234.496 212.897 234.18C212.347 233.864 211.724 233.699 211.091 233.703C210.457 233.707 209.836 233.88 209.291 234.203L209.203 234.262L209.108 234.32C208.213 234.955 207.471 235.784 206.938 236.747C206.405 237.709 206.095 238.78 206.031 239.879V239.923C206.024 240.033 206.024 240.143 206.031 240.253C206.115 241.147 206.527 241.978 207.188 242.583C207.848 243.188 208.71 243.525 209.604 243.526C209.87 243.525 210.134 243.493 210.392 243.431C210.765 243.36 211.123 243.224 211.449 243.028C212.399 242.406 213.189 241.568 213.757 240.582C214.324 239.596 214.653 238.489 214.716 237.352L214.701 237.316Z" fill="#455A64"/>
<path d="M211.42 235.463C210.47 236.084 209.68 236.922 209.113 237.909C208.547 238.895 208.22 240.002 208.161 241.139C208.161 243.226 209.619 244.068 211.42 243.028C212.37 242.406 213.16 241.568 213.728 240.582C214.295 239.596 214.624 238.49 214.687 237.352C214.701 235.265 213.243 234.415 211.42 235.463Z" fill="#37474F"/>
<path d="M221.344 242.537L212.966 237.66C212.795 237.568 212.601 237.527 212.407 237.541C212.214 237.556 212.028 237.625 211.872 237.74C211.435 238.027 211.071 238.413 210.81 238.867C210.549 239.322 210.398 239.831 210.37 240.355C210.349 240.546 210.38 240.74 210.461 240.914C210.542 241.089 210.67 241.237 210.829 241.344L219.215 246.221C219.385 246.31 219.576 246.349 219.767 246.333C219.958 246.317 220.141 246.248 220.294 246.134C220.731 245.847 221.095 245.461 221.356 245.006C221.617 244.552 221.768 244.043 221.796 243.519C221.815 243.33 221.783 243.139 221.704 242.966C221.624 242.793 221.5 242.645 221.344 242.537Z" fill="#263238"/>
<path d="M218.763 245.247C218.763 246.207 219.434 246.602 220.265 246.119C220.702 245.832 221.066 245.446 221.327 244.992C221.588 244.538 221.739 244.028 221.767 243.504C221.767 242.538 221.096 242.149 220.265 242.625C219.827 242.913 219.462 243.3 219.201 243.756C218.94 244.211 218.79 244.722 218.763 245.247Z" fill="#455A64"/>
<path d="M225.559 243.621C225.559 242.665 225.181 241.748 224.509 241.071C223.836 240.394 222.923 240.013 221.971 240.011C221.329 240.008 220.698 240.183 220.148 240.516L220.061 240.575L219.959 240.633C219.063 241.268 218.321 242.097 217.788 243.06C217.255 244.022 216.945 245.093 216.882 246.192V246.236C216.882 246.346 216.882 246.456 216.882 246.566C216.965 247.461 217.379 248.293 218.041 248.899C218.703 249.504 219.566 249.84 220.462 249.839C220.727 249.838 220.991 249.806 221.249 249.744C221.622 249.671 221.98 249.535 222.307 249.341C223.255 248.719 224.045 247.88 224.611 246.894C225.177 245.908 225.505 244.802 225.566 243.665L225.559 243.621Z" fill="#455A64"/>
<path d="M222.299 241.768C221.349 242.389 220.557 243.227 219.989 244.214C219.422 245.2 219.094 246.307 219.033 247.445C219.033 249.532 220.491 250.374 222.299 249.334C223.248 248.711 224.038 247.873 224.604 246.887C225.17 245.901 225.497 244.795 225.559 243.658C225.559 241.571 224.101 240.721 222.299 241.768Z" fill="#37474F"/>
<path opacity="0.1" d="M141.783 248.778C142.454 250.901 146.005 253.209 149.418 254.014C155.267 255.405 161.194 256.447 167.166 257.134C176.354 258.335 186.956 260.152 186.956 260.152C186.956 260.152 161.544 261.126 157.351 262.605C153.158 264.085 151.766 266.267 152.101 268.017C152.436 269.768 155.237 269.028 158.81 268.244C162.383 267.461 167.479 267.812 175.617 267.944C183.755 268.076 186.803 267.703 194.532 266.648C202.262 265.593 205.47 262.525 206.112 260.606C206.753 258.687 207.286 256.438 200.942 251.531C193.927 246.112 188.217 241.6 175.282 239.901C162.346 238.202 148.302 241.791 144.481 243.475C140.66 245.16 141.491 247.752 141.783 248.778Z" fill="black"/>
<path d="M174.224 259.324C173.779 259.335 173.34 259.21 172.967 258.963C172.594 258.717 172.305 258.363 172.139 257.947C171.941 257.387 171.538 256.925 171.013 256.652C170.487 256.38 169.878 256.32 169.31 256.482C167.159 256.973 167.363 257.947 165.474 259.068C163.586 260.188 162.047 259.8 160.078 260.02C158.11 260.239 155.579 261.711 154.77 263.455C153.96 265.198 154.252 266.846 155.368 266.787C156.483 266.728 157.789 265.469 159.305 265.432C160.822 265.395 164.308 265.659 167.326 265.688C170.345 265.718 174.451 265.11 175.566 265.095C176.682 265.081 176.623 260.13 174.224 259.324Z" fill="#FFA8A7"/>
<path d="M185.891 234.928C188.079 236.788 195.458 243.556 198.375 246.807C201.292 250.059 204.478 254.93 204.558 256.599C204.639 258.269 203.501 260.847 201.729 261.77C199.957 262.693 195.692 263.704 189.596 264.414C183.5 265.124 175.544 265.146 175.544 265.146C175.619 263.13 175.164 261.129 174.224 259.346C175.685 259.062 177.125 258.677 178.534 258.196C181.451 257.259 186.329 255.186 187.875 254.659L178.563 250.008C177.605 249.848 176.677 249.547 175.807 249.114L185.891 234.928Z" fill="#37474F"/>
<path d="M198.754 255.369C196.778 254.087 194.612 253.062 187.875 254.637L186.117 253.765C186.117 253.765 190.245 252.051 194.014 252.901C197.784 253.75 198.754 255.369 198.754 255.369Z" fill="#263238"/>
<path d="M150.016 222.14C149.924 221.666 149.962 221.176 150.127 220.722C150.291 220.267 150.575 219.867 150.949 219.562C151.47 219.287 151.866 218.821 152.057 218.262C152.248 217.703 152.22 217.091 151.977 216.552C151.204 214.48 150.256 214.816 148.9 213.088C147.544 211.36 147.719 209.778 147.23 207.851C146.742 205.925 144.955 203.611 143.125 203.04C141.295 202.468 139.705 202.988 139.909 204.087C140.113 205.186 141.542 206.321 141.79 207.815C142.038 209.309 141.79 213.044 142.17 216.025C142.549 219.006 143.774 221.012 143.912 223.437C143.971 224.557 149.549 224.638 150.016 222.14Z" fill="#FFA8A7"/>
<path d="M149.6 213.85C149.338 213.625 149.095 213.38 148.871 213.117C147.522 211.389 147.689 209.807 147.201 207.881C146.747 206.317 145.832 204.927 144.576 203.896C144.445 204.512 144.321 205.134 144.204 205.786C143.92 207.295 143.475 209.345 143.3 210.334C142.989 211.639 142.545 212.908 141.973 214.121C141.973 214.78 142.06 215.432 142.14 216.054C142.439 218.456 143.285 220.221 143.686 222.082C143.686 221.701 144.634 224.433 144.554 223.686C143.934 218.054 147.573 215.271 147.573 215.271C148.2 215.893 148.791 217.38 149.192 217.797C149.42 218.097 149.75 218.301 150.119 218.37C150.488 218.439 150.87 218.368 151.19 218.171C151.437 217.966 150.84 217.504 150.511 216.237C150.306 215.407 150 214.605 149.6 213.85Z" fill="#F28F8F"/>
<path d="M149.301 213.549C149.17 213.41 149.038 213.264 148.9 213.088C147.551 211.36 147.719 209.778 147.23 207.851C146.707 206.02 145.538 204.442 143.942 203.413C143.847 203.896 143.752 204.387 143.657 204.878C143.373 206.343 143.183 209.038 142.964 210.005C142.718 211.246 142.389 212.469 141.98 213.667C141.969 214.445 142.032 215.222 142.17 215.988C142.376 217.37 142.713 218.728 143.176 220.046C143.176 219.892 143.176 219.738 143.176 219.555C143.241 217.043 147.019 214.348 147.019 214.348C147.646 214.963 148.229 216.457 148.637 216.874C148.865 217.174 149.196 217.378 149.565 217.447C149.934 217.516 150.315 217.445 150.635 217.248C150.883 217.043 150.285 216.581 149.957 215.314C149.799 214.705 149.579 214.114 149.301 213.549Z" fill="#F28F8F"/>
<path d="M169.857 231.552L169.769 232.013C169.769 232.013 171.512 234.313 177.447 233.712C183.383 233.112 185.148 230.05 185.148 230.05L185.199 229.596C185.281 229.637 185.353 229.698 185.406 229.773C185.46 229.849 185.494 229.936 185.505 230.028C185.505 230.336 186.365 235.69 185.323 239.212C184.28 242.735 179.606 249.202 172.555 249.825C169.351 250.87 166.034 251.527 162.674 251.78C158.071 252.156 153.438 251.91 148.9 251.048C146.268 250.447 143.796 249.158 143.066 247.269C142.337 245.379 142.264 244.434 142.06 240.377C141.856 236.319 143.774 221.532 143.774 221.532C144.874 222.299 146.183 222.706 147.522 222.697C149.76 222.697 150.001 222.14 150.001 222.14C150.001 222.14 150.234 224.279 150.971 227.75C151.707 231.222 153.253 235.704 152.684 239.469C154.691 239.367 156.692 239.165 158.678 238.861C161.814 238.377 162.463 237.843 162.463 237.843C162.832 236.785 163.527 235.872 164.446 235.235C166.094 234.093 167.363 233.675 168.194 233.104C169.229 232.372 169.441 231.346 169.857 231.552Z" fill="#455A64"/>
<path d="M175.763 248.126C176.139 247.272 176.422 246.381 176.609 245.467C176.609 245.467 174.954 248.726 172.555 249.81C174.253 249.643 175.902 249.145 177.411 248.345C177.411 248.345 175.326 248.939 175.763 248.126Z" fill="#263238"/>
<path d="M152.721 239.439C152.364 241.834 150.971 243.834 147.062 244.303C147.891 244.487 148.749 244.486 149.577 244.3C150.405 244.114 151.182 243.747 151.853 243.226C152.466 242.79 152.966 242.214 153.314 241.545C153.661 240.877 153.845 240.135 153.851 239.381L152.721 239.439Z" fill="#263238"/>
<path d="M207.41 224.997C208.7 225.136 211.012 226.183 212.98 226.213C214.963 226.146 216.926 225.804 218.814 225.195C218.912 225.174 219.004 225.132 219.084 225.07C219.124 225.023 219.155 224.969 219.174 224.91C219.193 224.85 219.199 224.788 219.193 224.726C219.187 224.664 219.168 224.605 219.138 224.55C219.108 224.496 219.067 224.449 219.018 224.411C218.814 224.27 218.573 224.191 218.325 224.184C217.56 224.111 216.794 224.059 216.028 224.037C215.635 224.059 215.241 224.059 214.847 224.037C214.745 224.037 214.198 223.854 214.526 223.686C216.101 222.962 217.829 222.64 219.558 222.748C221.745 222.939 222.438 222.748 222.278 221.957C222.081 220.917 221.381 220.28 220.338 219.526C219.295 218.772 217.341 218.442 214.942 218.969C213.348 219.414 211.726 219.747 210.086 219.965C208.788 220.024 207.643 219.716 204.471 219.094C201.299 218.471 196.45 216.963 196.45 216.963C196.45 216.963 185.731 210.459 182.858 208.906C180.102 207.441 177.513 207.61 175.442 207.888L182.005 217.629C182.005 217.629 187.561 220.412 192.315 222.309C193.876 222.939 194.583 223.444 196.443 223.664C202.123 224.286 205.63 224.792 207.41 224.997Z" fill="#FFA8A7"/>
<path d="M175.559 191.417C175.172 190.04 173.838 189.52 172.905 190.179C172.905 190.179 174.501 187.923 172.496 186.414C170.491 184.906 167.975 186.539 167.596 187.601C167.596 187.601 166.867 185.975 163.841 186.019C160.815 186.063 158.78 190.12 158.977 192.501C158.977 192.501 155.791 194.009 156.024 198.616C156.045 199.894 156.346 201.152 156.906 202.3C157.465 203.448 158.27 204.458 159.261 205.259C156.345 207.529 153.472 212.78 153.428 216.691C153.384 220.756 153.975 223.034 155.55 225.158C157.125 227.282 158.51 228.739 158.875 230.006C159.24 231.273 160.851 229.149 160.924 227.157C160.95 225.728 160.663 224.311 160.085 223.005C160.86 223.394 161.551 223.931 162.12 224.587C162.659 225.407 163.308 223.774 162.557 222.155C161.806 220.536 160.487 219.921 159.59 217.995C158.273 215.401 158.032 212.389 158.919 209.617C159.546 207.522 159.94 206.401 160.129 205.881C160.664 206.218 161.234 206.496 161.828 206.709C163.352 207.244 165.999 207.881 165.999 207.881L173.933 194.09C174.218 194.029 174.489 193.911 174.727 193.742C174.966 193.572 175.168 193.356 175.32 193.106C175.472 192.855 175.572 192.576 175.613 192.286C175.654 191.995 175.636 191.7 175.559 191.417Z" fill="#37474F"/>
<path d="M185.075 223.81C185.428 226.241 185.398 228.713 184.987 231.134C184.987 231.134 183.419 234.862 176.966 235.023C170.513 235.184 169.492 232.599 169.492 232.599C169.492 232.599 170.185 231.867 169.725 229.567C169.186 226.952 185.075 223.81 185.075 223.81Z" fill="#FFA8A7"/>
<path d="M165.183 210.583C168.238 209.514 174.764 207.537 176.39 207.903C178.016 208.269 182.873 211.404 184.885 213.279C185.341 213.717 185.699 214.248 185.934 214.836C186.17 215.425 186.277 216.057 186.251 216.69C186.224 217.324 186.063 217.944 185.778 218.51C185.494 219.076 185.092 219.575 184.601 219.973C184.601 219.973 185.191 223.759 185.33 225.004C182.888 227.09 179.969 228.534 176.835 229.208C171.351 230.482 169.674 229.567 169.674 229.567C169.066 227.684 168.092 225.942 166.809 224.44C164.767 222.155 164.191 220.646 162.434 218.581C160.676 216.516 165.183 210.583 165.183 210.583Z" fill="#4957CC"/>
<path opacity="0.15" d="M172.81 222.77C174.523 223.7 179.518 223.217 180.102 219.899C180.137 220.711 179.902 221.511 179.435 222.174C178.968 222.837 178.294 223.325 177.52 223.561C176.736 223.864 175.886 223.95 175.058 223.811C174.229 223.672 173.453 223.312 172.81 222.77Z" fill="black"/>
<path d="M164.475 192.793C165.416 193.526 168.799 195.24 173.568 193.438C174.304 194.616 174.899 195.877 175.34 197.195C176.995 201.633 176.201 203.281 175.61 203.918C175.019 204.556 174.596 204.687 173.138 205.083L174.239 207.932C174.239 207.932 179.409 212.429 177.579 214.179C175.675 214.505 173.721 214.34 171.898 213.699C170.076 213.059 168.445 211.964 167.159 210.517L164.665 204.863C164.665 204.863 164.198 205.976 162.317 205.442C160.764 205.002 159.67 203.567 160.129 202.315C160.266 202.005 160.472 201.731 160.732 201.514C160.992 201.298 161.297 201.145 161.626 201.067C161.954 200.989 162.296 200.988 162.625 201.065C162.953 201.141 163.26 201.293 163.52 201.509C163.52 201.509 165.518 201.912 163.52 197.964C164.052 197.409 164.471 196.755 164.752 196.038C165.248 194.493 165.066 193.533 164.475 192.793Z" fill="#FFA8A7"/>
<path d="M173.138 205.083C169.237 205.918 166.947 205.815 165.977 204.878C166.561 205.499 167.29 205.962 168.099 206.226C169.31 206.555 173.459 205.918 173.459 205.918L173.138 205.083Z" fill="#F28F8F"/>
<path d="M168.712 197.415C168.785 197.579 168.796 197.764 168.743 197.936C168.689 198.107 168.574 198.253 168.42 198.345C168.345 198.391 168.261 198.422 168.174 198.435C168.086 198.448 167.997 198.444 167.912 198.422C167.826 198.4 167.746 198.361 167.675 198.308C167.605 198.254 167.546 198.187 167.501 198.111C167.46 198.031 167.434 197.943 167.426 197.852C167.418 197.762 167.428 197.671 167.455 197.585C167.482 197.498 167.526 197.418 167.584 197.349C167.642 197.28 167.713 197.222 167.793 197.181C167.868 197.134 167.952 197.102 168.04 197.088C168.127 197.075 168.216 197.079 168.302 197.101C168.388 197.123 168.469 197.162 168.539 197.216C168.609 197.27 168.668 197.338 168.712 197.415Z" fill="black"/>
<path d="M170.141 201.194L172.62 201.538C172.599 201.701 172.545 201.858 172.463 202C172.381 202.142 172.272 202.266 172.142 202.366C172.012 202.465 171.863 202.537 171.705 202.579C171.547 202.621 171.382 202.63 171.22 202.608C170.891 202.562 170.594 202.388 170.392 202.123C170.19 201.859 170.1 201.525 170.141 201.194Z" fill="#B16668"/>
<path d="M170.221 201.883C170.362 201.739 170.547 201.649 170.746 201.626C170.867 201.61 170.989 201.618 171.106 201.651C171.223 201.684 171.332 201.741 171.426 201.818C171.52 201.895 171.598 201.99 171.654 202.098C171.71 202.206 171.744 202.325 171.752 202.446C171.756 202.493 171.756 202.539 171.752 202.586C171.58 202.637 171.399 202.652 171.22 202.63C171.004 202.602 170.798 202.519 170.623 202.388C170.448 202.257 170.31 202.083 170.221 201.883Z" fill="#F28F8F"/>
<path d="M167.195 195.306L166.13 196.455C166.054 196.392 165.991 196.314 165.945 196.225C165.9 196.137 165.873 196.04 165.866 195.94C165.859 195.841 165.873 195.741 165.906 195.647C165.939 195.553 165.99 195.467 166.058 195.393C166.203 195.24 166.399 195.147 166.609 195.13C166.82 195.114 167.028 195.177 167.195 195.306Z" fill="black"/>
<path d="M173.649 195.159C173.691 195.234 173.719 195.317 173.729 195.402C173.74 195.488 173.733 195.575 173.71 195.658C173.687 195.741 173.648 195.819 173.595 195.886C173.542 195.954 173.476 196.011 173.401 196.053C173.246 196.137 173.064 196.156 172.895 196.107C172.726 196.057 172.582 195.943 172.496 195.789C172.454 195.714 172.426 195.631 172.416 195.546C172.405 195.46 172.411 195.373 172.434 195.29C172.458 195.207 172.497 195.129 172.55 195.062C172.603 194.994 172.669 194.937 172.744 194.895C172.9 194.815 173.08 194.798 173.249 194.847C173.417 194.896 173.56 195.007 173.649 195.159Z" fill="black"/>
<path d="M170.571 196.133L172.146 199.539L173.969 198.038L170.571 196.133Z" fill="#F28F8F"/>
<path d="M143.847 219.767C143.905 217.255 147.682 214.56 147.682 214.56C148.309 215.175 148.9 216.669 149.301 217.087C149.529 217.386 149.859 217.591 150.229 217.66C150.598 217.728 150.979 217.658 151.299 217.46C151.547 217.255 150.949 216.794 150.628 215.527C150.205 213.908 149.578 213.125 148.827 211.44C148.55 210.825 148.71 209.448 149.053 208.21C149.614 206.611 150.347 205.079 151.241 203.64C154.609 208.232 158.715 214.187 162.521 218.603C166.014 219.211 167.246 217.79 165.824 211.616C162.015 205.499 157.877 199.594 153.428 193.929C152.021 192.149 148.834 191.409 147.194 194.346C145.735 196.917 145.159 200.52 144.277 205.076C143.993 206.577 143.592 208.635 143.373 209.624C142.892 211.858 142.396 212.326 141.914 213.703C141.076 216.296 141.419 222.001 143.592 222.543L143.723 221.533C143.803 221.122 143.825 220.632 143.847 219.767Z" fill="#FFA8A7"/>
<path d="M149.075 197.759C148.757 200.138 149.34 202.551 150.708 204.519C150.898 204.175 151.08 203.874 151.226 203.64C149.935 202.102 148.951 199.011 149.075 197.759Z" fill="#F28F8F"/>
</g>
<defs>
<clipPath id="clip0_252_5617">
<rect width="327" height="327" fill="white"/>
</clipPath>
</defs>
</svg>
