<svg width="327" height="12" viewBox="0 0 327 12" fill="none" xmlns="http://www.w3.org/2000/svg">
<line x1="0.5" y1="5.5" x2="113.504" y2="5.5" stroke="#A8A8A8" stroke-linecap="round"/>
<path d="M161.218 10.084C160.442 10.084 159.734 9.904 159.094 9.544C158.454 9.176 157.946 8.668 157.57 8.02C157.202 7.364 157.018 6.628 157.018 5.812C157.018 4.996 157.202 4.264 157.57 3.616C157.946 2.96 158.454 2.452 159.094 2.092C159.734 1.724 160.442 1.54 161.218 1.54C162.002 1.54 162.714 1.724 163.354 2.092C163.994 2.452 164.498 2.956 164.866 3.604C165.234 4.252 165.418 4.988 165.418 5.812C165.418 6.636 165.234 7.372 164.866 8.02C164.498 8.668 163.994 9.176 163.354 9.544C162.714 9.904 162.002 10.084 161.218 10.084ZM161.218 9.136C161.802 9.136 162.326 9 162.79 8.728C163.262 8.456 163.63 8.068 163.894 7.564C164.166 7.06 164.302 6.476 164.302 5.812C164.302 5.14 164.166 4.556 163.894 4.06C163.63 3.556 163.266 3.168 162.802 2.896C162.338 2.624 161.81 2.488 161.218 2.488C160.626 2.488 160.098 2.624 159.634 2.896C159.17 3.168 158.802 3.556 158.53 4.06C158.266 4.556 158.134 5.14 158.134 5.812C158.134 6.476 158.266 7.06 158.53 7.564C158.802 8.068 159.17 8.456 159.634 8.728C160.106 9 160.634 9.136 161.218 9.136ZM167.952 4.492C168.144 4.116 168.416 3.824 168.768 3.616C169.128 3.408 169.564 3.304 170.076 3.304V4.432H169.788C168.564 4.432 167.952 5.096 167.952 6.424V10H166.86V3.424H167.952V4.492Z" fill="#A8A8A8"/>
<line x1="213.5" y1="5.5" x2="326.5" y2="5.5" stroke="#A8A8A8" stroke-linecap="round"/>
</svg>
