<svg width="21" height="20" viewBox="0 0 21 20" fill="none" xmlns="http://www.w3.org/2000/svg">
<g clip-path="url(#clip0_1384_8866)">
<path d="M10.5 0C8.52219 0 6.58879 0.58649 4.9443 1.6853C3.29981 2.78412 2.01809 4.3459 1.26121 6.17317C0.504333 8.00043 0.306299 10.0111 0.692152 11.9509C1.078 13.8907 2.03041 15.6725 3.42894 17.0711C4.82746 18.4696 6.60929 19.422 8.5491 19.8079C10.4889 20.1937 12.4996 19.9957 14.3268 19.2388C16.1541 18.4819 17.7159 17.2002 18.8147 15.5557C19.9135 13.9112 20.5 11.9778 20.5 10C20.4971 7.34872 19.4426 4.80684 17.5679 2.9321C15.6932 1.05736 13.1513 0.00286757 10.5 0V0ZM10.5 18.3333C8.85183 18.3333 7.24066 17.8446 5.87025 16.9289C4.49984 16.0132 3.43174 14.7117 2.80101 13.189C2.17028 11.6663 2.00525 9.99076 2.32679 8.37425C2.64834 6.75774 3.44201 5.27288 4.60745 4.10744C5.77289 2.94201 7.25774 2.14833 8.87425 1.82679C10.4908 1.50525 12.1663 1.67027 13.689 2.301C15.2118 2.93173 16.5132 3.99984 17.4289 5.37025C18.3446 6.74066 18.8333 8.35182 18.8333 10C18.8309 12.2094 17.9522 14.3276 16.3899 15.8899C14.8276 17.4522 12.7094 18.3309 10.5 18.3333V18.3333Z" fill="#B00020"/>
<path d="M10.4999 8.3335H9.66658C9.44557 8.3335 9.23361 8.42129 9.07733 8.57757C8.92105 8.73385 8.83325 8.94582 8.83325 9.16683C8.83325 9.38784 8.92105 9.5998 9.07733 9.75608C9.23361 9.91237 9.44557 10.0002 9.66658 10.0002H10.4999V15.0002C10.4999 15.2212 10.5877 15.4331 10.744 15.5894C10.9003 15.7457 11.1122 15.8335 11.3332 15.8335C11.5543 15.8335 11.7662 15.7457 11.9225 15.5894C12.0788 15.4331 12.1666 15.2212 12.1666 15.0002V10.0002C12.1666 9.55814 11.991 9.13421 11.6784 8.82165C11.3659 8.50909 10.9419 8.3335 10.4999 8.3335Z" fill="#B00020"/>
<path d="M10.5 6.6665C11.1904 6.6665 11.75 6.10686 11.75 5.4165C11.75 4.72615 11.1904 4.1665 10.5 4.1665C9.80964 4.1665 9.25 4.72615 9.25 5.4165C9.25 6.10686 9.80964 6.6665 10.5 6.6665Z" fill="#B00020"/>
</g>
<defs>
<clipPath id="clip0_1384_8866">
<rect width="20" height="20" fill="white" transform="translate(0.5)"/>
</clipPath>
</defs>
</svg>
