<svg width="24" height="23" viewBox="0 0 24 23" fill="none" xmlns="http://www.w3.org/2000/svg">
<path d="M23.2706 8.41885C22.3678 6.94057 21.2291 5.6201 19.8996 4.50985L22.6996 1.70985C22.8817 1.52125 22.9825 1.26864 22.9802 1.00645C22.978 0.744251 22.8728 0.493438 22.6874 0.30803C22.502 0.122622 22.2512 0.0174529 21.989 0.0151745C21.7268 0.0128961 21.4742 0.113691 21.2856 0.295849L18.2406 3.34485C16.353 2.22367 14.195 1.63931 11.9996 1.65485C5.80856 1.65485 2.28056 5.89285 0.728563 8.41885C0.249091 9.19435 -0.00488281 10.0881 -0.00488281 10.9998C-0.00488281 11.9116 0.249091 12.8053 0.728563 13.5808C1.63132 15.0591 2.77005 16.3796 4.09956 17.4898L1.29956 20.2899C1.20405 20.3821 1.12787 20.4924 1.07546 20.6144C1.02305 20.7364 0.995466 20.8677 0.994313 21.0004C0.993159 21.1332 1.01846 21.2649 1.06874 21.3878C1.11902 21.5107 1.19328 21.6224 1.28717 21.7162C1.38106 21.8101 1.49271 21.8844 1.61561 21.9347C1.73851 21.985 1.87018 22.0103 2.00296 22.0091C2.13574 22.0079 2.26696 21.9804 2.38897 21.9279C2.51097 21.8755 2.62132 21.7994 2.71356 21.7038L5.76556 18.6518C7.65083 19.7728 9.80623 20.3582 11.9996 20.3448C18.1906 20.3448 21.7186 16.1068 23.2706 13.5808C23.75 12.8053 24.004 11.9116 24.004 10.9998C24.004 10.0881 23.75 9.19435 23.2706 8.41885ZM2.43256 12.5338C2.1477 12.0729 1.99681 11.5417 1.99681 10.9998C1.99681 10.458 2.1477 9.9268 2.43256 9.46585C3.76656 7.29985 6.78156 3.65485 11.9996 3.65485C13.6598 3.64555 15.2968 4.04569 16.7656 4.81985L14.7526 6.83285C13.7925 6.19545 12.6415 5.90984 11.4948 6.02449C10.3481 6.13914 9.27643 6.64699 8.46157 7.46185C7.6467 8.27671 7.13886 9.34841 7.02421 10.4951C6.90956 11.6418 7.19516 12.7928 7.83256 13.7528L5.52256 16.0628C4.29767 15.0726 3.2524 13.8788 2.43256 12.5338ZM14.9996 10.9998C14.9996 11.7955 14.6835 12.5586 14.1209 13.1212C13.5583 13.6838 12.7952 13.9998 11.9996 13.9998C11.5541 13.9981 11.1148 13.8956 10.7146 13.6998L14.6996 9.71485C14.8953 10.115 14.9978 10.5544 14.9996 10.9998ZM8.99956 10.9998C8.99956 10.2042 9.31563 9.44114 9.87824 8.87853C10.4409 8.31592 11.2039 7.99985 11.9996 7.99985C12.4451 8.00157 12.8844 8.10414 13.2846 8.29985L9.29956 12.2848C9.10385 11.8847 9.00129 11.4453 8.99956 10.9998ZM21.5666 12.5338C20.2326 14.6998 17.2176 18.3448 11.9996 18.3448C10.3393 18.3542 8.70233 17.954 7.23356 17.1798L9.24656 15.1668C10.2066 15.8042 11.3577 16.0899 12.5043 15.9752C13.651 15.8606 14.7227 15.3527 15.5376 14.5378C16.3524 13.723 16.8603 12.6513 16.9749 11.5046C17.0896 10.3579 16.804 9.20692 16.1666 8.24685L18.4766 5.93685C19.7015 6.92713 20.7467 8.1209 21.5666 9.46585C21.8514 9.9268 22.0023 10.458 22.0023 10.9998C22.0023 11.5417 21.8514 12.0729 21.5666 12.5338Z" fill="#252525"/>
</svg>
