<svg width="247" height="247" viewBox="0 0 247 247" fill="none" xmlns="http://www.w3.org/2000/svg">
<path d="M213.245 58.1883C214.42 57.6696 215.416 56.8181 216.112 55.739C216.807 54.6599 217.171 53.4007 217.158 52.117C217.158 48.491 214.426 45.5419 211.027 45.527C207.629 45.5122 204.862 48.4367 204.847 52.0627C204.823 53.3569 205.183 54.6293 205.881 55.7194C206.579 56.8095 207.584 57.6686 208.77 58.1883C199.3 59.6159 199.73 69.9109 199.73 69.9109L222.123 70.0146C222.123 70.0146 222.636 59.606 213.245 58.1883Z" fill="#F5F5F5"/>
<path d="M80.9272 19.7205L66.29 14.5433L51.796 19.6513C49.9485 20.5109 48.338 21.0246 48.338 22.724V31.1763C48.3199 37.1127 49.9755 42.934 53.115 47.9723C56.2749 53.1077 60.9288 57.1548 66.453 59.5714C72.381 57.6745 76.7974 52.6258 79.5045 48.3033C82.6403 43.2636 84.2941 37.4429 84.2765 31.5073V23.9046C84.2568 21.484 82.9526 20.3034 80.9272 19.7205Z" fill="#F5F5F5"/>
<path d="M71.1357 33.3648C71.1392 32.6105 70.9321 31.8702 70.5376 31.2273C70.143 30.5844 69.5768 30.0644 68.9028 29.7259C68.2287 29.3874 67.4734 29.2439 66.7222 29.3114C65.9709 29.379 65.2534 29.655 64.6505 30.1083C64.0476 30.5616 63.5833 31.1743 63.3098 31.8773C63.0363 32.5802 62.9646 33.3456 63.1026 34.0872C63.2406 34.8287 63.5829 35.517 64.091 36.0745C64.5991 36.6321 65.2528 37.0366 65.9784 37.2427V43.3041H68.1915V37.2427C69.0375 37.005 69.7828 36.4976 70.3142 35.7977C70.8456 35.0978 71.1341 34.2436 71.1357 33.3648Z" fill="#EBEBEB"/>
<path d="M205.376 98.054L207.871 99.4076L206.749 101.285L204.23 99.8028L204.279 102.574H202.126V99.7781L199.631 101.27L198.529 99.3928L201.024 98.0392L198.529 96.6659L199.631 94.7887L202.145 96.33V93.5339H204.299L204.25 96.33L206.769 94.8183L207.891 96.6955L205.376 98.054Z" fill="#E0E0E0"/>
<path d="M215.77 98.054L218.264 99.4076L217.143 101.285L214.624 99.8028L214.673 102.574H212.519L212.544 99.7781L210.024 101.29L208.923 99.4125L211.418 98.059L208.923 96.6856L210.024 94.8084L212.544 96.3201L212.519 93.524H214.673L214.624 96.3201L217.143 94.8084L218.264 96.6856L215.77 98.054Z" fill="#E0E0E0"/>
<path d="M226.163 98.0541L228.663 99.4076L227.542 101.285L225.022 99.8028L225.067 102.574H222.913L222.937 99.7781L220.418 101.29L219.316 99.4126L221.816 98.059L219.336 96.6808L220.438 94.8036L222.957 96.3152L222.932 93.5192H225.086L225.042 96.3152L227.561 94.8036L228.683 96.6808L226.163 98.0541Z" fill="#E0E0E0"/>
<path d="M120.407 216.303V231.646H142.845H167.594V216.303H120.407Z" fill="#F5F5F5"/>
<path d="M118.427 212.01V216.303H169.245V212.01H142.845H118.427Z" fill="#EBEBEB"/>
<path d="M143.833 231.646H167.594V216.303H169.244V212.01H142.845V215.903L143.833 231.646Z" fill="#EBEBEB"/>
<path d="M136.577 218.773H127.008V221.085H136.577V218.773Z" fill="#E0E0E0"/>
<path d="M138.063 223.975H125.772V228.85H138.063V223.975Z" fill="white"/>
<path d="M127.664 196.686V212.03H150.106H174.856V196.686H127.664Z" fill="#F5F5F5"/>
<path d="M125.684 192.393V196.686H176.506V192.393H150.107H125.684Z" fill="#EBEBEB"/>
<path d="M151.095 212.03H174.857V196.686H176.507V192.393H150.107V196.291L151.095 212.03Z" fill="#EBEBEB"/>
<path d="M143.833 199.161H134.265V201.473H143.833V199.161Z" fill="#E0E0E0"/>
<path d="M145.325 204.358H133.034V209.234H145.325V204.358Z" fill="white"/>
<path d="M229.25 231.765C229.25 231.834 181.9 231.893 123.505 231.893C65.1088 231.893 17.749 231.834 17.749 231.765C17.749 231.696 65.089 231.637 123.505 231.637C181.92 231.637 229.25 231.686 229.25 231.765Z" fill="#263238"/>
<path d="M197.002 121.386H123.386C121.645 121.386 120.234 122.797 120.234 124.537V162.644C120.234 164.385 121.645 165.796 123.386 165.796H197.002C198.743 165.796 200.154 164.385 200.154 162.644V124.537C200.154 122.797 198.743 121.386 197.002 121.386Z" fill="white"/>
<path d="M197.007 165.796C197.007 165.796 197.22 165.796 197.625 165.722C198.225 165.592 198.776 165.292 199.21 164.858C199.527 164.538 199.772 164.154 199.927 163.731C200.015 163.487 200.075 163.234 200.105 162.975C200.105 162.709 200.105 162.422 200.105 162.126C200.105 160.94 200.105 159.572 200.105 158.035C200.105 151.875 200.08 142.973 200.065 131.972C200.065 130.594 200.065 129.186 200.065 127.748V125.565C200.065 124.829 200.139 124.083 199.838 123.401C199.63 122.885 199.285 122.435 198.84 122.101C198.395 121.767 197.867 121.56 197.314 121.504C196.948 121.48 196.543 121.504 196.158 121.504H191.39H170.731H123.396C122.892 121.503 122.396 121.628 121.952 121.868C121.509 122.108 121.132 122.455 120.857 122.878C120.577 123.296 120.407 123.779 120.363 124.28C120.338 124.774 120.363 125.318 120.363 125.832V144.1C120.363 148.052 120.363 151.938 120.363 155.758V161.41C120.363 161.874 120.363 162.343 120.363 162.798C120.386 163.242 120.504 163.677 120.709 164.072C120.919 164.46 121.211 164.798 121.564 165.063C121.917 165.328 122.323 165.514 122.754 165.609C123.193 165.679 123.639 165.702 124.083 165.678H143.384H161.385L187.448 165.717L194.532 165.742H196.375H197.007H196.375H194.532L187.448 165.767L161.385 165.806H143.384H124.083C123.622 165.83 123.16 165.805 122.705 165.732C122.239 165.632 121.801 165.431 121.42 165.145C121.04 164.858 120.726 164.492 120.501 164.072C120.275 163.648 120.145 163.179 120.121 162.699C120.121 162.205 120.121 161.77 120.121 161.301C120.121 159.438 120.121 157.551 120.121 155.649V144.1C120.121 140.148 120.121 136.122 120.121 132.021V125.846C120.121 125.323 120.121 124.819 120.121 124.276C120.158 123.735 120.328 123.213 120.615 122.754C120.915 122.298 121.322 121.921 121.801 121.657C122.285 121.4 122.823 121.263 123.372 121.257H170.707H191.366H196.133C196.528 121.257 196.904 121.257 197.309 121.257C197.705 121.299 198.09 121.412 198.445 121.593C199.15 121.951 199.702 122.551 200.001 123.283C200.145 123.641 200.222 124.023 200.228 124.409C200.228 124.779 200.228 125.15 200.228 125.52V127.704C200.228 129.14 200.228 130.548 200.228 131.928C200.228 142.929 200.194 151.831 200.184 157.991C200.184 159.527 200.184 160.896 200.184 162.081C200.184 162.378 200.184 162.659 200.184 162.936C200.152 163.199 200.089 163.458 199.996 163.707C199.837 164.136 199.585 164.525 199.26 164.848C198.815 165.285 198.252 165.582 197.64 165.702C197.486 165.731 197.331 165.748 197.175 165.752L197.007 165.796Z" fill="#263238"/>
<path d="M148.081 137.08V137.633H145.77V134.669H148.022V135.223H146.456V135.85H147.839V136.388H146.456V137.08H148.081Z" fill="#263238"/>
<path d="M151.371 134.65V137.614H150.803L149.321 135.801V137.614H148.64V134.65H149.188L150.67 136.463V134.65H151.371Z" fill="#263238"/>
<path d="M152.701 135.213H151.742V134.65H154.346V135.213H153.387V137.633H152.701V135.213Z" fill="#263238"/>
<path d="M157.028 137.08V137.633H154.716V134.669H156.973V135.223H155.402V135.85H156.791V136.388H155.402V137.08H157.028Z" fill="#263238"/>
<path d="M159.483 137.633L158.905 136.803H158.273V137.633H157.586V134.669H158.88C159.676 134.669 160.174 135.079 160.174 135.751C160.18 135.952 160.125 136.15 160.016 136.319C159.906 136.487 159.748 136.618 159.562 136.695L160.229 137.653L159.483 137.633ZM158.836 135.213H158.273V136.25H158.836C159.256 136.25 159.468 136.057 159.468 135.731C159.468 135.405 159.256 135.213 158.836 135.213Z" fill="#263238"/>
<path d="M161.735 136.141C161.755 135.819 161.868 135.51 162.062 135.252C162.255 134.994 162.521 134.799 162.824 134.691C163.128 134.582 163.457 134.566 163.77 134.643C164.083 134.72 164.367 134.887 164.586 135.124L164.141 135.534C164.049 135.424 163.934 135.336 163.804 135.276C163.675 135.215 163.533 135.184 163.39 135.183C163.149 135.2 162.923 135.309 162.757 135.486C162.592 135.663 162.501 135.897 162.501 136.139C162.501 136.381 162.592 136.614 162.757 136.792C162.923 136.969 163.149 137.077 163.39 137.095C163.534 137.097 163.676 137.067 163.806 137.006C163.936 136.945 164.051 136.856 164.141 136.744L164.586 137.154C164.368 137.393 164.085 137.562 163.771 137.641C163.458 137.719 163.128 137.704 162.824 137.595C162.519 137.487 162.254 137.292 162.06 137.033C161.866 136.774 161.753 136.464 161.735 136.141Z" fill="#263238"/>
<path d="M164.803 136.141C164.785 135.815 164.866 135.49 165.035 135.21C165.204 134.929 165.453 134.706 165.75 134.568C166.047 134.431 166.378 134.386 166.701 134.439C167.024 134.492 167.324 134.641 167.561 134.866C167.799 135.091 167.963 135.383 168.033 135.702C168.103 136.022 168.076 136.355 167.954 136.659C167.833 136.963 167.623 137.224 167.352 137.407C167.081 137.59 166.761 137.688 166.433 137.688C166.223 137.7 166.013 137.669 165.815 137.596C165.617 137.524 165.437 137.412 165.284 137.267C165.131 137.122 165.01 136.948 164.927 136.754C164.844 136.56 164.802 136.352 164.803 136.141ZM167.367 136.141C167.363 135.958 167.305 135.779 167.2 135.628C167.095 135.477 166.948 135.361 166.777 135.293C166.606 135.225 166.419 135.21 166.239 135.248C166.06 135.286 165.895 135.377 165.767 135.508C165.638 135.639 165.551 135.806 165.517 135.986C165.482 136.167 165.502 136.353 165.573 136.523C165.644 136.692 165.764 136.837 165.917 136.939C166.07 137.041 166.25 137.095 166.433 137.095C166.558 137.098 166.683 137.075 166.799 137.028C166.915 136.98 167.019 136.91 167.107 136.821C167.195 136.731 167.263 136.625 167.307 136.508C167.352 136.391 167.373 136.266 167.367 136.141Z" fill="#263238"/>
<path d="M168.592 134.65H169.936C170.329 134.65 170.706 134.806 170.984 135.084C171.261 135.362 171.418 135.738 171.418 136.132C171.418 136.525 171.261 136.902 170.984 137.179C170.706 137.457 170.329 137.614 169.936 137.614H168.582L168.592 134.65ZM169.911 137.065C170.156 137.065 170.391 136.968 170.564 136.795C170.737 136.621 170.835 136.386 170.835 136.141C170.835 135.896 170.737 135.661 170.564 135.488C170.391 135.315 170.156 135.218 169.911 135.218H169.284V137.065H169.911Z" fill="#263238"/>
<path d="M174.426 137.08V137.633H172.114V134.669H174.382V135.223H172.801V135.85H174.189V136.388H172.801V137.08H174.426Z" fill="#263238"/>
<path d="M136.749 142.4H129.492C128.415 142.4 127.541 143.274 127.541 144.352V155.649C127.541 156.727 128.415 157.601 129.492 157.601H136.749C137.827 157.601 138.7 156.727 138.7 155.649V144.352C138.7 143.274 137.827 142.4 136.749 142.4Z" fill="#EBEBEB"/>
<path d="M150.685 142.4H143.428C142.35 142.4 141.477 143.274 141.477 144.352V155.649C141.477 156.727 142.35 157.601 143.428 157.601H150.685C151.762 157.601 152.636 156.727 152.636 155.649V144.352C152.636 143.274 151.762 142.4 150.685 142.4Z" fill="#EBEBEB"/>
<path d="M164.62 142.4H157.363C156.286 142.4 155.412 143.274 155.412 144.352V155.649C155.412 156.727 156.286 157.601 157.363 157.601H164.62C165.698 157.601 166.572 156.727 166.572 155.649V144.352C166.572 143.274 165.698 142.4 164.62 142.4Z" fill="#EBEBEB"/>
<path d="M178.551 142.4H171.294C170.216 142.4 169.343 143.274 169.343 144.352V155.649C169.343 156.727 170.216 157.601 171.294 157.601H178.551C179.629 157.601 180.502 156.727 180.502 155.649V144.352C180.502 143.274 179.629 142.4 178.551 142.4Z" fill="#EBEBEB"/>
<path d="M192.487 142.4H185.231C184.153 142.4 183.279 143.274 183.279 144.352V155.649C183.279 156.727 184.153 157.601 185.231 157.601H192.487C193.565 157.601 194.439 156.727 194.439 155.649V144.352C194.439 143.274 193.565 142.4 192.487 142.4Z" fill="#EBEBEB"/>
<path d="M135.553 151.164C135.553 152.246 134.714 152.952 133.577 152.952C132.016 152.952 131.191 151.831 131.191 149.988C131.191 147.983 132.263 146.945 133.829 146.945C134.298 146.924 134.764 147.03 135.178 147.251L135 147.597C134.642 147.401 134.237 147.307 133.829 147.326C132.501 147.326 131.626 148.2 131.626 149.924C131.626 150.162 131.642 150.4 131.676 150.635C131.815 150.253 132.075 149.927 132.416 149.707C132.758 149.487 133.162 149.384 133.568 149.415C134.753 149.415 135.553 150.107 135.553 151.164ZM135.119 151.164C135.119 150.319 134.511 149.766 133.508 149.766C133.306 149.743 133.101 149.763 132.906 149.823C132.711 149.883 132.531 149.983 132.377 150.116C132.222 150.249 132.097 150.413 132.009 150.596C131.92 150.78 131.871 150.98 131.863 151.184C131.863 151.88 132.446 152.572 133.558 152.572C133.755 152.593 133.955 152.573 134.144 152.512C134.332 152.451 134.506 152.351 134.654 152.218C134.801 152.085 134.919 151.922 134.999 151.741C135.079 151.559 135.12 151.362 135.119 151.164Z" fill="#4957CC"/>
<path d="M149.336 151.278H148.091V152.923H147.666V151.278H144.282V150.966L147.503 146.99H147.997L144.836 150.897H147.686V149.45H148.101V150.897H149.346L149.336 151.278Z" fill="#4957CC"/>
<path d="M163.706 153.767C161.987 153.939 160.254 153.939 158.534 153.767C160.254 153.596 161.987 153.596 163.706 153.767Z" fill="#4957CC"/>
<path d="M125.308 127.032C125.976 127.032 126.518 126.49 126.518 125.822C126.518 125.153 125.976 124.611 125.308 124.611C124.64 124.611 124.098 125.153 124.098 125.822C124.098 126.49 124.64 127.032 125.308 127.032Z" fill="#263238"/>
<path d="M130.006 125.822C130.006 126.061 129.935 126.295 129.802 126.494C129.669 126.693 129.48 126.848 129.258 126.94C129.037 127.032 128.794 127.056 128.559 127.009C128.324 126.962 128.109 126.847 127.939 126.678C127.77 126.508 127.655 126.293 127.608 126.058C127.562 125.823 127.585 125.58 127.677 125.359C127.769 125.137 127.924 124.948 128.123 124.815C128.322 124.682 128.556 124.611 128.795 124.611C129.116 124.611 129.424 124.739 129.651 124.966C129.878 125.193 130.006 125.501 130.006 125.822Z" fill="#263238"/>
<path d="M132.219 127.032C132.888 127.032 133.429 126.49 133.429 125.822C133.429 125.153 132.888 124.611 132.219 124.611C131.551 124.611 131.009 125.153 131.009 125.822C131.009 126.49 131.551 127.032 132.219 127.032Z" fill="#263238"/>
<path d="M200.278 129.23C200.278 129.3 182.38 129.359 160.313 129.359C138.246 129.359 120.349 129.3 120.349 129.23C120.349 129.161 138.236 129.102 160.313 129.102C182.39 129.102 200.278 129.156 200.278 129.23Z" fill="#263238"/>
<path d="M185.6 23.8553H97.352C95.5622 23.8553 94.1113 25.3062 94.1113 27.096V108.285C94.1113 110.075 95.5622 111.526 97.352 111.526H185.6C187.39 111.526 188.841 110.075 188.841 108.285V27.096C188.841 25.3062 187.39 23.8553 185.6 23.8553Z" fill="white"/>
<path d="M185.601 111.525H185.833C186.062 111.507 186.289 111.463 186.509 111.397C186.94 111.265 187.339 111.044 187.679 110.749C188.019 110.454 188.294 110.091 188.485 109.683C188.752 109.071 188.857 108.401 188.792 107.737C188.792 107 188.792 106.19 188.792 105.316C188.792 103.567 188.792 101.547 188.792 99.2743C188.792 90.1847 188.767 77.0443 188.747 60.7818C188.747 52.6555 188.747 43.7586 188.747 34.1997C188.747 31.8153 188.747 29.3898 188.747 26.9231C188.71 26.32 188.499 25.7405 188.14 25.2549C187.78 24.7692 187.288 24.398 186.722 24.1863C186.133 24.0002 185.514 23.933 184.899 23.9887H167.268H97.3623C96.6204 23.993 95.9043 24.2609 95.3418 24.7445C94.7607 25.2352 94.3808 25.9229 94.2748 26.6761C94.2407 27.0538 94.2292 27.4332 94.2402 27.8123V58.2278C94.2402 69.9208 94.2402 81.1988 94.2402 91.9433C94.2402 97.3181 94.2402 102.553 94.2402 107.648C94.2402 107.964 94.2402 108.29 94.2402 108.591C94.2687 108.894 94.3402 109.192 94.4526 109.475C94.6812 110.043 95.071 110.53 95.574 110.878C96.0718 111.226 96.6614 111.418 97.2684 111.432H106.412H132.994L171.487 111.476H181.95H184.672H185.601H184.672H181.95L171.487 111.501L132.994 111.54H106.412H97.2635C96.6108 111.524 95.9773 111.317 95.4409 110.945C94.9046 110.572 94.4889 110.051 94.2451 109.446C94.1239 109.142 94.0457 108.823 94.0129 108.497C93.9882 108.161 94.0129 107.855 94.0129 107.534C94.0129 102.439 94.0129 97.2044 94.0129 91.8297C94.0129 81.0852 94.0129 69.8072 94.0129 58.1142C94.0129 52.2653 94.0129 46.3191 94.0129 40.2759V27.7876C93.9994 27.3969 94.0126 27.0057 94.0525 26.6168C94.1611 25.8133 94.5621 25.0782 95.1788 24.5519C95.7843 24.0224 96.558 23.7248 97.3623 23.7121H167.268H184.869C185.512 23.6567 186.158 23.7306 186.771 23.9294C187.377 24.1562 187.904 24.5535 188.289 25.0733C188.674 25.5931 188.9 26.2133 188.94 26.8588C188.94 29.3288 188.94 31.7593 188.94 34.1503C188.94 43.7092 188.94 52.6061 188.94 60.7324C188.94 76.985 188.91 90.1353 188.9 99.2249C188.9 101.497 188.9 103.518 188.9 105.267C188.9 106.141 188.9 106.951 188.9 107.687C188.963 108.363 188.851 109.043 188.574 109.663C188.327 110.182 187.944 110.626 187.468 110.948C186.991 111.271 186.437 111.46 185.862 111.496L185.601 111.525Z" fill="#263238"/>
<path d="M101.269 29.9315C101.269 30.2561 101.173 30.5733 100.993 30.8432C100.812 31.113 100.556 31.3232 100.256 31.4472C99.9558 31.5712 99.6258 31.6033 99.3076 31.5397C98.9893 31.476 98.6971 31.3193 98.4679 31.0894C98.2387 30.8596 98.0829 30.5669 98.0202 30.2484C97.9574 29.9299 97.9906 29.6 98.1155 29.3004C98.2404 29.0008 98.4514 28.745 98.7218 28.5654C98.9921 28.3858 99.3097 28.2904 99.6343 28.2914C99.8494 28.2914 100.062 28.3338 100.261 28.4163C100.46 28.4988 100.64 28.6197 100.792 28.7721C100.944 28.9244 101.064 29.1053 101.146 29.3042C101.228 29.5032 101.27 29.7163 101.269 29.9315Z" fill="#263238"/>
<path d="M104.407 31.5667C105.31 31.5667 106.042 30.8346 106.042 29.9315C106.042 29.0285 105.31 28.2964 104.407 28.2964C103.504 28.2964 102.771 29.0285 102.771 29.9315C102.771 30.8346 103.504 31.5667 104.407 31.5667Z" fill="#263238"/>
<path d="M109.189 31.5667C110.092 31.5667 110.824 30.8346 110.824 29.9315C110.824 29.0285 110.092 28.2964 109.189 28.2964C108.286 28.2964 107.554 29.0285 107.554 29.9315C107.554 30.8346 108.286 31.5667 109.189 31.5667Z" fill="#263238"/>
<path d="M188.841 34.5801C188.841 34.6542 167.633 34.7085 141.476 34.7085C115.319 34.7085 94.1113 34.6542 94.1113 34.5801C94.1113 34.506 115.314 34.4517 141.476 34.4517C167.638 34.4517 188.841 34.506 188.841 34.5801Z" fill="#263238"/>
<path d="M154.859 67.604C154.859 67.604 154.894 67.5496 154.973 67.4508L155.037 67.3668L155.101 67.2532C155.156 67.1613 155.204 67.0656 155.245 66.9667C155.245 66.9124 155.294 66.8531 155.314 66.7889L155.373 66.5814C155.395 66.5052 155.411 66.4276 155.422 66.3492C155.422 66.2652 155.452 66.1812 155.457 66.0923C155.489 65.6814 155.469 65.2681 155.398 64.8623C155.19 63.7513 154.81 62.6796 154.271 61.6858C153.577 60.3594 152.765 59.0979 151.846 57.9166C150.739 56.4798 149.532 55.1229 148.235 53.8559C146.749 52.3976 145.163 51.0457 143.487 49.8101C142.603 49.158 141.669 48.5257 140.686 47.9329C139.684 47.3206 138.643 46.7744 137.569 46.2977C136.466 45.7941 135.304 45.429 134.111 45.2109C133.501 45.1023 132.878 45.0873 132.264 45.1665C131.955 45.2103 131.654 45.2967 131.37 45.4234C131.09 45.5605 130.838 45.7461 130.624 45.9717C130.419 46.2083 130.262 46.4815 130.159 46.7769C130.066 47.0747 130.015 47.3839 130.006 47.6958C129.998 48.3158 130.083 48.9336 130.258 49.5285C130.612 50.6923 131.11 51.8074 131.74 52.8482C132.334 53.8606 132.994 54.8326 133.716 55.7578C134.418 56.6668 135.154 57.5264 135.9 58.3316C137.318 59.8557 138.844 61.277 140.464 62.5849C141.87 63.7313 143.356 64.7763 144.91 65.7119C146.189 66.4894 147.535 67.1508 148.931 67.6879C149.981 68.1069 151.089 68.3634 152.216 68.4487C152.627 68.4689 153.038 68.4408 153.441 68.3647C153.53 68.3647 153.609 68.3203 153.688 68.3005C153.766 68.2802 153.841 68.2555 153.916 68.2264L154.113 68.1424L154.286 68.0535C154.38 68.0023 154.47 67.9428 154.553 67.8757L154.657 67.8016L154.736 67.7275C154.825 67.6385 154.874 67.599 154.874 67.599L154.741 67.7324L154.662 67.8065L154.563 67.8855C154.478 67.9538 154.387 68.0133 154.291 68.0634L154.128 68.1721L153.926 68.256C153.854 68.2866 153.779 68.3113 153.703 68.3301C153.621 68.3584 153.537 68.3815 153.451 68.3993C153.045 68.4824 152.63 68.5123 152.216 68.4882C151.086 68.4114 149.975 68.1598 148.921 67.7423C147.52 67.2057 146.169 66.5443 144.885 65.7663C143.331 64.8304 141.846 63.7854 140.439 62.6393C138.815 61.333 137.286 59.9116 135.865 58.3859C135.119 57.5807 134.383 56.7211 133.677 55.8122C132.956 54.8822 132.296 53.907 131.701 52.8926C131.07 51.8471 130.572 50.7269 130.219 49.5581C130.039 48.9557 129.952 48.3293 129.962 47.7007C129.972 47.3838 130.025 47.0697 130.12 46.767C130.232 46.4608 130.399 46.1779 130.614 45.9322C130.833 45.6974 131.094 45.5063 131.384 45.369C131.676 45.2391 131.983 45.1494 132.298 45.1023C132.921 45.023 133.552 45.038 134.171 45.1467C135.372 45.3666 136.542 45.735 137.653 46.2434C138.729 46.7206 139.772 47.2685 140.775 47.8835C141.763 48.4763 142.697 49.1086 143.581 49.7656C145.259 51.0034 146.846 52.3605 148.329 53.8263C149.629 55.0954 150.838 56.4557 151.945 57.8969C152.862 59.0815 153.67 60.3463 154.36 61.676C154.897 62.6751 155.276 63.7517 155.482 64.8672C155.551 65.2768 155.567 65.6934 155.531 66.1071C155.524 66.1919 155.51 66.2761 155.492 66.3591C155.484 66.4381 155.467 66.5159 155.442 66.5913L155.383 66.8037C155.362 66.8645 155.337 66.9239 155.309 66.9815C155.272 67.0829 155.222 67.1791 155.161 67.268C155.143 67.3081 155.122 67.3461 155.096 67.3817L155.032 67.4656L154.859 67.604Z" fill="#4957CC"/>
<path d="M159.339 56.7754V56.5877V56.484C159.339 56.4444 159.339 56.4049 159.315 56.3555C159.298 56.2491 159.269 56.1448 159.231 56.0443C159.231 55.99 159.191 55.9257 159.167 55.8665L159.068 55.6689C159.036 55.5972 158.996 55.5293 158.949 55.4663C158.907 55.3922 158.859 55.3212 158.806 55.2539C158.56 54.9237 158.271 54.6279 157.946 54.3746C157.048 53.6847 156.048 53.1381 154.982 52.7543C153.582 52.2249 152.137 51.8231 150.665 51.5538C148.872 51.2173 147.058 51.0093 145.236 50.9314C143.155 50.83 141.071 50.8746 138.997 51.0648C137.905 51.1685 136.788 51.3217 135.657 51.5341C134.501 51.7425 133.361 52.028 132.244 52.3887C131.082 52.7405 129.97 53.2385 128.934 53.8707C128.406 54.1945 127.931 54.5978 127.526 55.0662C127.325 55.3037 127.159 55.5681 127.032 55.8516C126.91 56.1396 126.843 56.4479 126.834 56.7606C126.844 57.0726 126.909 57.3804 127.027 57.6696C127.156 57.9521 127.322 58.2162 127.521 58.455C127.929 58.9238 128.405 59.3284 128.934 59.6554C129.971 60.2848 131.083 60.7826 132.244 61.1374C133.362 61.4935 134.502 61.7789 135.657 61.9921C136.788 62.2045 137.905 62.3527 138.997 62.4564C141.07 62.6505 143.155 62.6967 145.236 62.5947C147.059 62.5219 148.874 62.3238 150.67 62.0019C152.142 61.7326 153.587 61.3309 154.987 60.8015C156.051 60.4137 157.051 59.8674 157.951 59.1812C158.275 58.9266 158.564 58.631 158.811 58.3019C158.864 58.2329 158.912 58.1603 158.954 58.0845C159.001 58.0215 159.041 57.9536 159.073 57.882L159.172 57.6893C159.196 57.6251 159.216 57.5658 159.236 57.5065C159.275 57.4062 159.303 57.3018 159.32 57.1953C159.32 57.1509 159.32 57.1113 159.344 57.0718V56.9681V56.7754C159.344 56.7754 159.344 56.8396 159.344 56.9681V57.0718C159.344 57.1113 159.344 57.1509 159.344 57.2003C159.329 57.3065 159.303 57.4108 159.265 57.5115C159.265 57.5708 159.226 57.63 159.201 57.6943L159.107 57.8919C159.072 57.9635 159.033 58.0328 158.989 58.0993C158.945 58.1728 158.897 58.2437 158.845 58.3118C158.6 58.6452 158.311 58.9443 157.986 59.201C157.089 59.8966 156.089 60.4482 155.022 60.8361C153.621 61.3714 152.174 61.7781 150.699 62.0513C148.905 62.389 147.089 62.6003 145.265 62.6837C143.184 62.7891 141.097 62.7462 139.021 62.5552C137.925 62.4515 136.803 62.3033 135.672 62.0909C134.514 61.8772 133.371 61.5918 132.249 61.2362C131.083 60.8835 129.966 60.3856 128.924 59.7542C128.389 59.4257 127.908 59.0176 127.496 58.5439C127.296 58.2991 127.13 58.0282 127.002 57.7387C126.869 57.4438 126.8 57.1238 126.8 56.8001C126.8 56.4764 126.869 56.1564 127.002 55.8615C127.132 55.573 127.298 55.3023 127.496 55.0563C127.912 54.5832 128.397 54.1752 128.934 53.846C129.978 53.2155 131.096 52.7177 132.263 52.364C133.383 52.0039 134.525 51.7184 135.682 51.5094C136.818 51.297 137.934 51.1488 139.031 51.045C141.093 50.8444 143.166 50.79 145.236 50.882C147.06 50.9645 148.876 51.1774 150.67 51.5193C152.145 51.79 153.591 52.1951 154.992 52.7296C156.059 53.1174 157.059 53.6691 157.956 54.3647C158.28 54.6226 158.569 54.9215 158.816 55.2539C158.869 55.3228 158.917 55.3955 158.959 55.4713C159.004 55.5371 159.044 55.6065 159.078 55.6787L159.172 55.8714C159.196 55.9356 159.216 55.9998 159.236 56.0542C159.273 56.1565 159.3 56.2625 159.315 56.3703C159.315 56.4148 159.315 56.4593 159.315 56.4938V56.6025C159.339 56.7112 159.339 56.7754 159.339 56.7754Z" fill="#4957CC"/>
<path d="M153.401 43.3041L153.238 43.2004L153.149 43.1411C153.113 43.1201 153.075 43.1019 153.036 43.0868C152.942 43.0353 152.842 42.9939 152.739 42.9633C152.68 42.9633 152.621 42.9188 152.557 42.904L152.344 42.8595C152.268 42.8428 152.19 42.8313 152.112 42.8249C152.026 42.8199 151.941 42.8199 151.855 42.8249C151.443 42.8197 151.031 42.8662 150.63 42.9633C149.537 43.2535 148.494 43.7082 147.537 44.3119C146.261 45.0928 145.059 45.9891 143.946 46.9894C142.588 48.1925 141.317 49.49 140.142 50.8722C138.788 52.4534 137.548 54.129 136.432 55.8863C135.849 56.8101 135.276 57.7981 134.753 58.7861C134.21 59.8273 133.736 60.9033 133.335 62.007C132.91 63.1454 132.626 64.3316 132.49 65.5391C132.424 66.1556 132.453 66.7786 132.574 67.3866C132.642 67.691 132.75 67.9851 132.895 68.261C133.048 68.5335 133.251 68.7748 133.493 68.9724C133.745 69.1554 134.028 69.291 134.328 69.3725C134.63 69.4457 134.941 69.4773 135.252 69.4664C135.872 69.4318 136.483 69.3036 137.065 69.086C138.201 68.6548 139.28 68.084 140.276 67.3866C141.244 66.7231 142.168 65.997 143.042 65.213C143.902 64.4473 144.707 63.6569 145.458 62.8566C146.879 61.3354 148.191 59.716 149.385 58.0105C150.432 56.5292 151.373 54.9758 152.201 53.362C152.891 52.0345 153.46 50.6473 153.9 49.2173C154.246 48.1394 154.424 47.0148 154.429 45.8828C154.427 45.472 154.371 45.0633 154.261 44.6676C154.261 44.5786 154.206 44.4996 154.182 44.4206C154.157 44.3415 154.127 44.2724 154.093 44.2032L153.999 44.0105C153.964 43.9513 153.925 43.8969 153.895 43.8475C153.839 43.7548 153.773 43.6686 153.698 43.5906L153.619 43.4918L153.54 43.4227L153.401 43.2942L153.545 43.4177L153.624 43.4869C153.654 43.5159 153.682 43.5473 153.708 43.5808C153.782 43.6594 153.848 43.7455 153.905 43.8376C153.94 43.892 153.979 43.9414 154.014 44.0007L154.108 44.1983C154.146 44.2676 154.177 44.3404 154.202 44.4156C154.226 44.4947 154.261 44.5737 154.281 44.6626C154.395 45.0595 154.454 45.4699 154.458 45.8828C154.46 47.0178 154.285 48.1461 153.94 49.2272C153.501 50.6611 152.936 52.0531 152.25 53.3867C151.422 55.0038 150.481 56.5605 149.434 58.0451C148.244 59.7559 146.931 61.3788 145.507 62.9011C144.756 63.7063 143.951 64.5017 143.087 65.2674C142.211 66.0527 141.285 66.7804 140.315 67.4459C139.316 68.1486 138.232 68.7228 137.089 69.1551C136.501 69.3748 135.883 69.5047 135.257 69.5405C134.938 69.5512 134.619 69.5196 134.308 69.4466C133.999 69.3594 133.708 69.2171 133.449 69.0267C133.199 68.8236 132.99 68.5757 132.831 68.2956C132.682 68.0135 132.57 67.7128 132.5 67.4014C132.38 66.7865 132.354 66.157 132.421 65.5341C132.555 64.3193 132.84 63.1261 133.271 61.9823C133.672 60.877 134.146 59.7994 134.689 58.7564C135.217 57.7289 135.785 56.7508 136.373 55.8221C137.496 54.0655 138.74 52.39 140.098 50.808C141.275 49.426 142.549 48.1301 143.912 46.9301C145.031 45.9309 146.238 45.0348 147.518 44.2526C148.479 43.6516 149.527 43.2017 150.625 42.9188C151.027 42.8193 151.441 42.7728 151.855 42.7805C151.944 42.7805 152.028 42.7805 152.112 42.7805C152.192 42.7864 152.271 42.798 152.349 42.8151L152.561 42.8595L152.744 42.9237C152.847 42.9559 152.947 42.999 153.041 43.0522C153.08 43.0674 153.118 43.0855 153.154 43.1065L153.243 43.1707L153.401 43.3041Z" fill="#4957CC"/>
<path d="M126.636 63.489C126.72 63.5734 126.777 63.6808 126.8 63.7976C126.823 63.9144 126.811 64.0354 126.766 64.1453C126.72 64.2553 126.643 64.3492 126.544 64.4153C126.445 64.4814 126.328 64.5166 126.209 64.5166C126.09 64.5166 125.974 64.4814 125.875 64.4153C125.776 64.3492 125.698 64.2553 125.653 64.1453C125.607 64.0354 125.595 63.9144 125.618 63.7976C125.641 63.6808 125.698 63.5734 125.782 63.489C125.838 63.4326 125.904 63.388 125.978 63.3575C126.051 63.327 126.13 63.3113 126.209 63.3113C126.289 63.3113 126.367 63.327 126.441 63.3575C126.514 63.388 126.58 63.4326 126.636 63.489Z" fill="#4957CC"/>
<path d="M160.718 44.7713C160.719 44.8917 160.684 45.0096 160.618 45.1102C160.552 45.2108 160.457 45.2894 160.346 45.3362C160.236 45.3829 160.113 45.3956 159.995 45.3728C159.877 45.3499 159.768 45.2924 159.683 45.2076C159.597 45.1228 159.539 45.0146 159.515 44.8966C159.491 44.7786 159.503 44.6562 159.549 44.5448C159.595 44.4335 159.672 44.3383 159.772 44.2714C159.872 44.2044 159.99 44.1686 160.111 44.1686C160.19 44.1679 160.269 44.1831 160.343 44.2131C160.416 44.243 160.483 44.2873 160.54 44.3434C160.596 44.3994 160.641 44.4661 160.672 44.5395C160.702 44.6129 160.718 44.6917 160.718 44.7713Z" fill="#4957CC"/>
<path d="M130.451 65.4748C130.451 65.5051 130.442 65.5347 130.425 65.5599C130.408 65.5851 130.384 65.6047 130.356 65.6163C130.328 65.6279 130.297 65.6309 130.268 65.625C130.238 65.6191 130.211 65.6045 130.189 65.5831C130.168 65.5617 130.153 65.5344 130.147 65.5047C130.142 65.475 130.145 65.4442 130.156 65.4162C130.168 65.3882 130.187 65.3643 130.213 65.3475C130.238 65.3306 130.267 65.3217 130.298 65.3217C130.338 65.3217 130.377 65.3378 130.406 65.3665C130.435 65.3952 130.451 65.4342 130.451 65.4748Z" fill="#4957CC"/>
<path d="M133.725 48.5504C133.725 48.5806 133.716 48.6103 133.699 48.6354C133.683 48.6606 133.659 48.6803 133.631 48.6918C133.603 48.7034 133.572 48.7065 133.542 48.7006C133.513 48.6946 133.485 48.6801 133.464 48.6586C133.442 48.6372 133.428 48.6099 133.422 48.5802C133.416 48.5505 133.419 48.5197 133.431 48.4918C133.442 48.4638 133.462 48.4399 133.487 48.423C133.512 48.4062 133.542 48.3972 133.572 48.3972C133.613 48.3972 133.652 48.4134 133.68 48.4421C133.709 48.4708 133.725 48.5097 133.725 48.5504Z" fill="#4957CC"/>
<path d="M157.679 56.7755C157.679 56.8161 157.663 56.855 157.634 56.8837C157.606 56.9125 157.567 56.9286 157.526 56.9286C157.486 56.9286 157.447 56.9125 157.418 56.8837C157.389 56.855 157.373 56.8161 157.373 56.7755C157.373 56.7348 157.389 56.6959 157.418 56.6672C157.447 56.6384 157.486 56.6223 157.526 56.6223C157.567 56.6223 157.606 56.6384 157.634 56.6672C157.663 56.6959 157.679 56.7348 157.679 56.7755Z" fill="#4957CC"/>
<path d="M159.814 49.6224C159.814 49.663 159.798 49.7019 159.769 49.7307C159.741 49.7594 159.702 49.7755 159.661 49.7755C159.62 49.7755 159.581 49.7594 159.553 49.7307C159.524 49.7019 159.508 49.663 159.508 49.6224C159.508 49.5818 159.524 49.5428 159.553 49.5141C159.581 49.4854 159.62 49.4692 159.661 49.4692C159.702 49.4692 159.741 49.4854 159.769 49.5141C159.798 49.5428 159.814 49.5818 159.814 49.6224Z" fill="#4957CC"/>
<path d="M149.469 60.1495H147.573V49.82C147.573 48.65 147.108 47.5279 146.28 46.7006C145.453 45.8733 144.331 45.4086 143.161 45.4086C141.991 45.4086 140.869 45.8733 140.042 46.7006C139.214 47.5279 138.75 48.65 138.75 49.82V60.1495H136.838V49.82C136.838 48.1469 137.503 46.5423 138.686 45.3593C139.869 44.1762 141.473 43.5116 143.146 43.5116C144.819 43.5116 146.424 44.1762 147.607 45.3593C148.79 46.5423 149.455 48.1469 149.455 49.82L149.469 60.1495Z" fill="#4957CC"/>
<g opacity="0.3">
<path d="M149.469 60.1495H147.573V49.82C147.573 48.65 147.108 47.5279 146.28 46.7006C145.453 45.8733 144.331 45.4086 143.161 45.4086C141.991 45.4086 140.869 45.8733 140.042 46.7006C139.214 47.5279 138.75 48.65 138.75 49.82V60.1495H136.838V49.82C136.838 48.1469 137.503 46.5423 138.686 45.3593C139.869 44.1762 141.473 43.5116 143.146 43.5116C144.819 43.5116 146.424 44.1762 147.607 45.3593C148.79 46.5423 149.455 48.1469 149.455 49.82L149.469 60.1495Z" fill="black"/>
</g>
<path d="M150.551 55.5553H135.771C135.157 55.5553 134.659 56.0529 134.659 56.6668V65.3513C134.659 65.9652 135.157 66.4628 135.771 66.4628H150.551C151.165 66.4628 151.663 65.9652 151.663 65.3513V56.6668C151.663 56.0529 151.165 55.5553 150.551 55.5553Z" fill="#4957CC"/>
<g opacity="0.3">
<path d="M144.584 59.5912C144.586 59.326 144.514 59.0654 144.375 58.839C144.237 58.6126 144.038 58.4293 143.802 58.3099C143.565 58.1904 143.299 58.1396 143.035 58.1631C142.771 58.1865 142.518 58.2834 142.306 58.4428C142.094 58.6021 141.931 58.8176 141.835 59.0648C141.739 59.312 141.714 59.5812 141.763 59.842C141.811 60.1027 141.932 60.3446 142.111 60.5403C142.29 60.7361 142.52 60.8779 142.776 60.9497V63.0739H143.546V60.9497C143.844 60.8677 144.106 60.6905 144.294 60.4452C144.481 60.1998 144.583 59.8999 144.584 59.5912Z" fill="black"/>
</g>
<path d="M135.568 65.4304C135.529 65.4304 135.494 63.6125 135.494 61.3697C135.494 59.1269 135.529 57.3041 135.568 57.3041C135.608 57.3041 135.637 59.122 135.637 61.3697C135.637 63.6174 135.603 65.4304 135.568 65.4304Z" fill="#FAFAFA"/>
<path d="M142.049 61.4092C142.049 61.4092 141.98 61.4092 141.882 61.3153C141.742 61.2111 141.618 61.0862 141.516 60.9448C141.336 60.7119 141.21 60.4418 141.148 60.1541C141.086 59.8664 141.089 59.5685 141.157 59.282C141.224 58.9956 141.355 58.7279 141.539 58.4985C141.724 58.2691 141.957 58.0838 142.222 57.9561C142.377 57.8732 142.544 57.8149 142.716 57.7832C142.78 57.7713 142.845 57.7713 142.909 57.7832C142.691 57.8573 142.478 57.9465 142.272 58.05C142.031 58.183 141.82 58.365 141.653 58.5842C141.487 58.8034 141.368 59.0551 141.304 59.323C141.24 59.5909 141.233 59.8692 141.283 60.14C141.333 60.4108 141.44 60.6681 141.595 60.8954C141.732 61.0786 141.884 61.2504 142.049 61.4092Z" fill="#FAFAFA"/>
<path d="M168.404 75.8142H116.055C113.512 75.8142 111.451 77.8755 111.451 80.4183V80.9814C111.451 83.5242 113.512 85.5855 116.055 85.5855H168.404C170.947 85.5855 173.009 83.5242 173.009 80.9814V80.4183C173.009 77.8755 170.947 75.8142 168.404 75.8142Z" fill="#F5F5F5"/>
<path d="M168.854 89.2115H116.504C113.962 89.2115 111.9 91.2729 111.9 93.8156V94.3788C111.9 96.9216 113.962 98.9829 116.504 98.9829H168.854C171.396 98.9829 173.458 96.9216 173.458 94.3788V93.8156C173.458 91.2729 171.396 89.2115 168.854 89.2115Z" fill="#F5F5F5"/>
<path d="M121.178 80.6208V79.208H121.766V80.6011C121.766 81.0951 121.973 81.2779 122.329 81.2779C122.684 81.2779 122.892 81.0803 122.892 80.6011V79.208H123.47V80.6208C123.47 80.9248 123.349 81.2163 123.134 81.4312C122.919 81.6462 122.628 81.7669 122.324 81.7669C122.02 81.7669 121.728 81.6462 121.513 81.4312C121.298 81.2163 121.178 80.9248 121.178 80.6208Z" fill="#263238"/>
<path d="M123.821 81.5545L124.004 81.1495C124.209 81.2714 124.443 81.3362 124.681 81.3372C124.943 81.3372 125.037 81.268 125.037 81.1593C125.037 80.8432 123.866 81.1593 123.866 80.3936C123.866 80.0231 124.197 79.7613 124.765 79.7613C125.024 79.7571 125.28 79.8165 125.511 79.9342L125.323 80.3343C125.153 80.2375 124.96 80.188 124.765 80.1911C124.513 80.1911 124.404 80.2701 124.404 80.3689C124.404 80.6999 125.575 80.3689 125.575 81.1445C125.575 81.5051 125.244 81.762 124.661 81.762C124.368 81.7685 124.078 81.6969 123.821 81.5545Z" fill="#263238"/>
<path d="M127.818 80.9222H126.336C126.366 81.0437 126.439 81.1501 126.542 81.2218C126.644 81.2935 126.769 81.3257 126.894 81.3125C126.985 81.3165 127.075 81.3019 127.16 81.2696C127.245 81.2374 127.323 81.1881 127.388 81.1248L127.689 81.4508C127.586 81.5573 127.461 81.6403 127.323 81.694C127.185 81.7477 127.037 81.7709 126.889 81.762C126.749 81.7796 126.607 81.7672 126.473 81.7255C126.338 81.6838 126.214 81.6138 126.109 81.5202C126.004 81.4267 125.92 81.3117 125.862 81.183C125.805 81.0543 125.776 80.9149 125.777 80.774C125.777 80.64 125.804 80.5074 125.857 80.3842C125.91 80.261 125.987 80.1498 126.084 80.0573C126.181 79.9649 126.296 79.8932 126.421 79.8466C126.547 79.7999 126.681 79.7793 126.815 79.786C126.947 79.7827 127.078 79.8059 127.2 79.854C127.323 79.9022 127.435 79.9744 127.529 80.0665C127.624 80.1586 127.699 80.2686 127.75 80.3901C127.801 80.5117 127.828 80.6422 127.827 80.774C127.827 80.8135 127.818 80.8728 127.818 80.9222ZM126.336 80.5912H127.289C127.261 80.4866 127.198 80.3942 127.112 80.3284C127.026 80.2625 126.921 80.2268 126.812 80.2268C126.704 80.2268 126.598 80.2625 126.512 80.3284C126.426 80.3942 126.364 80.4866 126.336 80.5912Z" fill="#263238"/>
<path d="M129.428 79.7613V80.285H129.299C129.23 80.2846 129.162 80.2988 129.098 80.3267C129.035 80.3546 128.978 80.3954 128.931 80.4467C128.885 80.4979 128.849 80.5584 128.828 80.6241C128.806 80.6899 128.798 80.7595 128.805 80.8284V81.7423H128.242V79.8009H128.781V80.0281C128.86 79.936 128.96 79.8639 129.072 79.8176C129.185 79.7712 129.307 79.752 129.428 79.7613Z" fill="#263238"/>
<path d="M131.73 80.6208V81.7323H131.167V80.7098C131.167 80.3936 131.024 80.2503 130.772 80.2503C130.52 80.2503 130.307 80.4183 130.307 80.774V81.7323H129.744V79.7909H130.283V80.028C130.366 79.9431 130.466 79.8764 130.577 79.8322C130.687 79.7879 130.806 79.7672 130.925 79.7712C131.036 79.7638 131.148 79.7812 131.252 79.8219C131.356 79.8627 131.45 79.9259 131.527 80.007C131.604 80.0881 131.662 80.1852 131.697 80.2913C131.732 80.3974 131.743 80.5099 131.73 80.6208Z" fill="#263238"/>
<path d="M133.958 80.6258V81.7323H133.429V81.51C133.364 81.6045 133.275 81.6796 133.17 81.7275C133.066 81.7753 132.951 81.794 132.837 81.7818C132.382 81.7818 132.11 81.5298 132.11 81.1939C132.11 80.858 132.352 80.611 132.945 80.611H133.38C133.38 80.3738 133.237 80.2306 132.93 80.2306C132.73 80.2299 132.534 80.294 132.372 80.4134L132.17 80.0182C132.419 79.8566 132.712 79.774 133.009 79.781C133.612 79.7613 133.958 80.0281 133.958 80.6258ZM133.395 81.1198V80.9222H133.009C132.743 80.9222 132.664 81.021 132.664 81.1494C132.664 81.2779 132.782 81.3865 132.98 81.3865C133.066 81.3891 133.151 81.3648 133.222 81.317C133.294 81.2692 133.349 81.2003 133.38 81.1198H133.395Z" fill="#263238"/>
<path d="M137.747 80.6209V81.7324H137.184V80.7098C137.184 80.3936 137.045 80.2504 136.818 80.2504C136.591 80.2504 136.388 80.4134 136.388 80.7444V81.7324H135.85V80.7098C135.85 80.3936 135.717 80.2504 135.479 80.2504C135.242 80.2504 135.055 80.4134 135.055 80.7444V81.7324H134.467V79.791H135.005V80.0281C135.082 79.9435 135.176 79.8767 135.281 79.8323C135.386 79.7879 135.499 79.7671 135.613 79.7712C135.738 79.7654 135.863 79.7919 135.976 79.8481C136.088 79.9043 136.184 79.9884 136.255 80.0923C136.339 79.9878 136.446 79.9044 136.568 79.8486C136.69 79.7929 136.823 79.7664 136.957 79.7712C137.067 79.7644 137.178 79.7822 137.281 79.8233C137.384 79.8645 137.477 79.928 137.553 80.0092C137.628 80.0905 137.685 80.1875 137.718 80.2932C137.752 80.399 137.762 80.5109 137.747 80.6209Z" fill="#263238"/>
<path d="M140.167 80.9222H138.685C138.71 81.0455 138.782 81.1545 138.885 81.2271C138.987 81.2996 139.114 81.3301 139.239 81.3125C139.329 81.3162 139.42 81.3015 139.505 81.2692C139.59 81.237 139.667 81.1878 139.733 81.1248L140.029 81.4508C139.926 81.5579 139.801 81.6412 139.663 81.695C139.525 81.7487 139.377 81.7716 139.229 81.762C139.089 81.7789 138.948 81.7658 138.814 81.7238C138.68 81.6817 138.557 81.6116 138.452 81.5182C138.347 81.4247 138.264 81.31 138.207 81.1816C138.15 81.0533 138.121 80.9144 138.122 80.774C138.122 80.64 138.149 80.5074 138.202 80.3842C138.254 80.261 138.332 80.1498 138.429 80.0573C138.526 79.9649 138.641 79.8932 138.766 79.8466C138.892 79.7999 139.026 79.7793 139.159 79.786C139.422 79.786 139.673 79.8901 139.858 80.0754C140.043 80.2607 140.147 80.512 140.147 80.774C140.177 80.8135 140.172 80.8728 140.167 80.9222ZM138.685 80.5912H139.644C139.628 80.4742 139.568 80.3677 139.476 80.2934C139.384 80.2191 139.267 80.1825 139.15 80.1911C139.037 80.1891 138.928 80.2289 138.843 80.3028C138.758 80.3767 138.704 80.4795 138.69 80.5912H138.685Z" fill="#263238"/>
<path d="M143.892 80.7444C143.892 81.3915 143.596 81.762 143.151 81.762C143.046 81.769 142.941 81.7421 142.852 81.6852C142.763 81.6283 142.695 81.5444 142.657 81.4458C142.591 81.5486 142.5 81.6321 142.391 81.6876C142.283 81.7432 142.161 81.7689 142.04 81.762C141.814 81.7385 141.604 81.632 141.452 81.4633C141.3 81.2945 141.216 81.0753 141.216 80.8481C141.216 80.6209 141.3 80.4017 141.452 80.2329C141.604 80.0642 141.814 79.9577 142.04 79.9342C142.144 79.9293 142.248 79.9486 142.344 79.9906C142.44 80.0326 142.525 80.0961 142.593 80.1763V79.9638H143.087V81.1297C143.087 81.3026 143.161 81.3619 143.26 81.3619C143.358 81.3619 143.526 81.1692 143.526 80.7542C143.529 80.5819 143.494 80.411 143.426 80.2526C143.358 80.0943 143.257 79.952 143.131 79.8351C143.004 79.7182 142.854 79.6292 142.691 79.574C142.528 79.5187 142.354 79.4984 142.183 79.5143C141.836 79.5143 141.503 79.6522 141.257 79.8977C141.012 80.1432 140.874 80.4762 140.874 80.8234C140.874 81.1706 141.012 81.5036 141.257 81.7491C141.503 81.9946 141.836 82.1325 142.183 82.1325C142.429 82.1322 142.671 82.0782 142.894 81.9744L143.008 82.3054C142.749 82.4237 142.467 82.4828 142.183 82.4783C141.958 82.4906 141.733 82.457 141.522 82.3795C141.311 82.302 141.118 82.1822 140.955 82.0276C140.791 81.8729 140.661 81.6866 140.572 81.48C140.483 81.2734 140.438 81.0508 140.438 80.8259C140.438 80.6009 140.483 80.3784 140.572 80.1717C140.661 79.9651 140.791 79.7788 140.955 79.6242C141.118 79.4695 141.311 79.3498 141.522 79.2723C141.733 79.1948 141.958 79.1612 142.183 79.1734C142.4 79.1557 142.619 79.1832 142.825 79.254C143.031 79.3248 143.22 79.4376 143.381 79.5851C143.541 79.7326 143.67 79.9118 143.758 80.1113C143.846 80.3108 143.891 80.5263 143.892 80.7444ZM142.603 80.8481C142.61 80.7849 142.603 80.7208 142.583 80.6603C142.564 80.5999 142.531 80.5443 142.488 80.4975C142.445 80.4507 142.392 80.4136 142.334 80.3889C142.275 80.3642 142.212 80.3523 142.148 80.3541C142.017 80.3541 141.892 80.4061 141.799 80.4988C141.706 80.5914 141.654 80.7171 141.654 80.8481C141.654 80.9791 141.706 81.1048 141.799 81.1974C141.892 81.2901 142.017 81.3421 142.148 81.3421C142.212 81.3439 142.275 81.332 142.334 81.3073C142.392 81.2826 142.445 81.2455 142.488 81.1987C142.531 81.1519 142.564 81.0963 142.583 81.0358C142.603 80.9754 142.61 80.9113 142.603 80.8481Z" fill="#263238"/>
<path d="M147.572 80.6208V81.7323H147.009V80.7098C147.009 80.3936 146.871 80.2503 146.643 80.2503C146.416 80.2503 146.214 80.4134 146.214 80.7443V81.7323H145.65V80.7098C145.65 80.3936 145.517 80.2503 145.28 80.2503C145.043 80.2503 144.855 80.4134 144.855 80.7443V81.7323H144.292V79.7909H144.83V80.028C144.907 79.9435 145.001 79.8766 145.106 79.8323C145.211 79.7879 145.324 79.767 145.438 79.7712C145.564 79.7654 145.689 79.7919 145.801 79.8481C145.913 79.9043 146.01 79.9884 146.08 80.0923C146.163 79.9882 146.27 79.9049 146.39 79.8492C146.511 79.7934 146.644 79.7667 146.777 79.7712C146.888 79.7636 146.999 79.7808 147.103 79.8216C147.207 79.8624 147.3 79.9258 147.376 80.0072C147.452 80.0885 147.509 80.1858 147.543 80.2919C147.577 80.3981 147.587 80.5104 147.572 80.6208Z" fill="#263238"/>
<path d="M149.796 80.6258V81.7323H149.272V81.51C149.207 81.6045 149.117 81.6796 149.013 81.7275C148.909 81.7753 148.793 81.794 148.679 81.7818C148.225 81.7818 147.953 81.5298 147.953 81.1939C147.953 80.858 148.195 80.611 148.788 80.611H149.233C149.233 80.3738 149.089 80.2306 148.788 80.2306C148.587 80.2281 148.39 80.2923 148.23 80.4134L148.027 80.0182C148.276 79.8576 148.566 79.775 148.862 79.781C149.455 79.7613 149.796 80.0281 149.796 80.6258ZM149.233 81.1198V80.9222H148.847C148.585 80.9222 148.501 81.021 148.501 81.1494C148.501 81.2779 148.62 81.3865 148.818 81.3865C148.906 81.3923 148.994 81.3695 149.069 81.3215C149.144 81.2735 149.201 81.2028 149.233 81.1198Z" fill="#263238"/>
<path d="M150.24 79.208C150.241 79.1637 150.25 79.1199 150.269 79.0795C150.287 79.039 150.313 79.0028 150.346 78.9731C150.379 78.9434 150.418 78.9208 150.46 78.9069C150.502 78.8929 150.547 78.8878 150.591 78.8919C150.652 78.8985 150.709 78.9226 150.756 78.9611C150.803 78.9997 150.839 79.0511 150.857 79.1091C150.876 79.1671 150.878 79.2293 150.862 79.2882C150.846 79.3471 150.813 79.4002 150.768 79.441C150.723 79.4818 150.667 79.5087 150.606 79.5183C150.546 79.528 150.485 79.52 150.429 79.4954C150.373 79.4708 150.325 79.4305 150.292 79.3796C150.259 79.3286 150.241 79.269 150.24 79.208ZM150.309 79.791H150.868V81.7324H150.309V79.791Z" fill="#263238"/>
<path d="M151.396 79.04H151.959V81.7175H151.396V79.04Z" fill="#263238"/>
<path d="M152.345 81.4113C152.345 81.3183 152.382 81.2291 152.447 81.1633C152.513 81.0975 152.602 81.0605 152.695 81.0605C152.788 81.0605 152.878 81.0975 152.943 81.1633C153.009 81.2291 153.046 81.3183 153.046 81.4113C153.046 81.5043 153.009 81.5935 152.943 81.6593C152.878 81.7251 152.788 81.762 152.695 81.762C152.602 81.762 152.513 81.7251 152.447 81.6593C152.382 81.5935 152.345 81.5043 152.345 81.4113Z" fill="#263238"/>
<path d="M153.258 80.7641C153.258 80.626 153.286 80.4894 153.341 80.363C153.397 80.2365 153.478 80.1231 153.58 80.0301C153.682 79.937 153.802 79.8663 153.933 79.8225C154.064 79.7788 154.203 79.763 154.34 79.7761C154.518 79.7611 154.696 79.8002 154.851 79.8884C155.007 79.9765 155.131 80.1096 155.21 80.2701L154.775 80.5023C154.725 80.4287 154.657 80.3692 154.577 80.3295C154.497 80.2898 154.409 80.2713 154.32 80.2758C154.231 80.2802 154.145 80.3074 154.07 80.3548C153.994 80.4022 153.932 80.4682 153.89 80.5464C153.848 80.6246 153.826 80.7124 153.827 80.8014C153.828 80.8904 153.853 80.9775 153.897 81.0545C153.942 81.1314 154.006 81.1956 154.083 81.2407C154.159 81.2859 154.246 81.3106 154.335 81.3124C154.426 81.3126 154.515 81.2878 154.592 81.2408C154.67 81.1937 154.733 81.1262 154.775 81.0457L155.21 81.2828C155.13 81.4424 155.005 81.5747 154.85 81.6627C154.695 81.7507 154.518 81.7904 154.34 81.7768C154.201 81.7901 154.06 81.7737 153.927 81.7285C153.794 81.6833 153.673 81.6104 153.571 81.5146C153.468 81.4188 153.388 81.3023 153.334 81.1729C153.28 81.0435 153.254 80.9042 153.258 80.7641Z" fill="#263238"/>
<path d="M155.368 80.7641C155.352 80.5504 155.401 80.3369 155.508 80.1513C155.615 79.9658 155.776 79.8168 155.969 79.7238C156.162 79.6308 156.379 79.5981 156.591 79.6299C156.803 79.6617 157 79.7565 157.157 79.9021C157.314 80.0477 157.424 80.2373 157.472 80.4461C157.52 80.655 157.504 80.8734 157.426 81.073C157.348 81.2726 157.212 81.4442 157.035 81.5653C156.859 81.6864 156.649 81.7515 156.435 81.7521C156.299 81.7631 156.162 81.7456 156.033 81.7009C155.904 81.6561 155.785 81.5851 155.685 81.4922C155.585 81.3994 155.505 81.2867 155.45 81.1614C155.396 81.0361 155.368 80.9008 155.368 80.7641ZM156.929 80.7641C156.921 80.6688 156.884 80.578 156.825 80.5028C156.766 80.4276 156.686 80.3713 156.595 80.3406C156.505 80.31 156.407 80.3063 156.314 80.3301C156.222 80.3539 156.138 80.4041 156.073 80.4746C156.008 80.5452 155.966 80.633 155.95 80.7274C155.934 80.8218 155.946 80.9188 155.985 81.0065C156.023 81.0942 156.086 81.1689 156.166 81.2214C156.246 81.274 156.339 81.3022 156.435 81.3026C156.504 81.3029 156.572 81.2888 156.635 81.2612C156.698 81.2337 156.755 81.1932 156.801 81.1425C156.848 81.0919 156.883 81.032 156.905 80.9668C156.927 80.9017 156.935 80.8326 156.929 80.7641Z" fill="#263238"/>
<path d="M161.157 80.6208V81.7323H160.594V80.7098C160.594 80.3936 160.451 80.2503 160.223 80.2503C159.996 80.2503 159.794 80.4134 159.794 80.7443V81.7323H159.231V80.7098C159.231 80.3936 159.097 80.2503 158.865 80.2503C158.633 80.2503 158.44 80.4134 158.44 80.7443V81.7323H157.877V79.7909H158.41V80.028C158.488 79.9433 158.583 79.8765 158.688 79.8321C158.794 79.7878 158.908 79.767 159.023 79.7712C159.148 79.7648 159.272 79.7911 159.384 79.8474C159.496 79.9037 159.591 79.9881 159.66 80.0923C159.745 79.9884 159.852 79.9053 159.973 79.8496C160.095 79.7939 160.228 79.7671 160.362 79.7712C160.473 79.7636 160.584 79.7808 160.688 79.8216C160.792 79.8624 160.885 79.9258 160.961 80.0072C161.037 80.0885 161.094 80.1858 161.128 80.2919C161.162 80.3981 161.172 80.5104 161.157 80.6208Z" fill="#263238"/>
<path d="M128.721 94.1516L129.635 94.6456L129.225 95.3322L128.302 94.7888V95.8065H127.511V94.7789L126.617 95.3421L126.212 94.6554L127.131 94.1614L126.212 93.6674L126.617 92.9808L127.541 93.5341V92.5115H128.331V93.5341L129.255 92.9808L129.665 93.6674L128.721 94.1516Z" fill="#263238"/>
<path d="M132.53 94.1516L133.444 94.6456L133.034 95.3421L132.11 94.7987V95.8163H131.325V94.7888L130.416 95.3421L130.011 94.6554L130.925 94.1614L130.011 93.6674L130.416 92.9808L131.34 93.5341V92.5115H132.125V93.5341L133.049 92.9808L133.459 93.6674L132.53 94.1516Z" fill="#263238"/>
<path d="M136.344 94.1516L137.257 94.6456L136.838 95.3421L135.919 94.7987V95.8163H135.128V94.7888L134.229 95.3421L133.829 94.6554L134.743 94.1614L133.829 93.6674L134.229 92.9808L135.153 93.5341V92.5115H135.943V93.5341L136.862 92.9808L137.277 93.6674L136.344 94.1516Z" fill="#263238"/>
<path d="M140.142 94.1516L141.056 94.6456L140.646 95.3322L139.722 94.7888V95.8065H138.932V94.7789L138.038 95.3421L137.633 94.6554L138.552 94.1614L137.633 93.6674L138.038 92.9808L138.962 93.5341V92.5115H139.752V93.5341L140.676 92.9808L141.086 93.6674L140.142 94.1516Z" fill="#263238"/>
<path d="M143.951 94.1515L144.865 94.6455L144.455 95.3322L143.531 94.7888V95.8064H142.765V94.7789L141.846 95.3421L141.441 94.6554L142.355 94.1614L141.441 93.6674L141.846 92.9808L142.765 93.5143V92.4917H143.551V93.5143L144.475 92.961L144.885 93.6477L143.951 94.1515Z" fill="#263238"/>
<path d="M147.76 94.1516L148.674 94.6456L148.264 95.3322L147.341 94.7888V95.8065H146.55V94.7789L145.651 95.3421L145.251 94.6554L146.165 94.1614L145.251 93.6674L145.651 92.9808L146.575 93.5341V92.5115H147.365V93.5341L148.289 92.9808L148.699 93.6674L147.76 94.1516Z" fill="#263238"/>
<path d="M151.564 94.1516L152.478 94.6456L152.068 95.3322L151.144 94.7888V95.8065H150.354V94.7789L149.46 95.3421L149.055 94.6554L149.974 94.1614L149.055 93.6674L149.46 92.9808L150.384 93.5341V92.5115H151.164V93.5341L152.088 92.9808L152.498 93.6674L151.564 94.1516Z" fill="#263238"/>
<path d="M155.373 94.1516L156.287 94.6456L155.877 95.3322L154.953 94.7888V95.8065H154.167V94.7789L153.268 95.3421L152.863 94.6554L153.777 94.1614L152.863 93.6674L153.268 92.9808L154.192 93.5341V92.5115H154.978V93.5341L155.901 92.9808L156.311 93.6674L155.373 94.1516Z" fill="#263238"/>
<path d="M110.508 66.8629H72.0253C71.7621 66.8629 71.5016 66.9148 71.2585 67.0157C71.0154 67.1165 70.7947 67.2643 70.6088 67.4506C70.423 67.637 70.2757 67.8581 70.1754 68.1014C70.0752 68.3447 70.0239 68.6054 70.0246 68.8686V86.3957C70.0213 86.6593 70.0707 86.921 70.1701 87.1652C70.2695 87.4094 70.4167 87.6313 70.6032 87.8178C70.7896 88.0042 71.0115 88.1515 71.2557 88.2508C71.5 88.3502 71.7616 88.3997 72.0253 88.3964H88.1692L91.5975 92.7979L94.4578 88.3964H110.508C110.771 88.3964 111.031 88.3446 111.273 88.2441C111.516 88.1435 111.737 87.9962 111.923 87.8104C112.108 87.6246 112.256 87.404 112.356 87.1613C112.457 86.9186 112.509 86.6584 112.509 86.3957V68.8686C112.509 68.3375 112.298 67.8281 111.923 67.4521C111.548 67.0761 111.039 66.8642 110.508 66.8629Z" fill="white"/>
<path d="M110.508 66.863H110.695C110.883 66.8792 111.067 66.9207 111.244 66.9865C111.532 67.0899 111.793 67.259 112.004 67.4805C112.307 67.8061 112.493 68.2232 112.533 68.6661C112.573 70.5729 112.563 73.3492 112.577 76.8665C112.577 78.6251 112.577 80.5665 112.577 82.671C112.577 83.7281 112.577 84.8199 112.577 85.9561C112.591 86.2465 112.578 86.5375 112.538 86.8255C112.477 87.1252 112.353 87.4083 112.172 87.6554C111.987 87.9088 111.748 88.1175 111.472 88.2662C111.196 88.415 110.89 88.5 110.577 88.515H94.4328L94.5316 88.4656C93.6325 89.8438 92.6643 91.3407 91.6763 92.8622L91.5824 93.0054L91.4738 92.8721L88.0454 88.4755L88.1442 88.5249H72.6178C72.3362 88.5249 72.0744 88.5249 71.773 88.5249C71.3346 88.4726 70.9231 88.286 70.595 87.9906C70.2668 87.6952 70.0381 87.3054 69.9403 86.8749C69.8911 86.5978 69.8728 86.3162 69.886 86.0351V78.798C69.886 76.6936 69.886 74.6303 69.886 72.6082V68.8686C69.8861 68.6083 69.9347 68.3503 70.0292 68.1078C70.2124 67.6258 70.5631 67.2259 71.0172 66.9815C71.244 66.8655 71.4901 66.7918 71.7434 66.7641C71.987 66.752 72.231 66.752 72.4745 66.7641H76.6785H82.0038H91.5577L105.39 66.8037L109.149 66.8284H110.137H110.473H110.137H109.149L105.39 66.8531L91.5577 66.8926H82.0038H72.514C72.2769 66.8926 72.02 66.8926 71.8076 66.8926C71.5832 66.9183 71.3655 66.9853 71.1654 67.0902C70.7569 67.2995 70.4389 67.6508 70.2713 68.0782C70.1865 68.2938 70.143 68.5233 70.1428 68.755V69.496C70.1428 70.484 70.1428 71.472 70.1428 72.4946V78.6844C70.1428 80.7855 70.1428 82.9262 70.1428 85.1064V85.9264C70.1272 86.1891 70.1421 86.4527 70.1873 86.7119C70.2744 87.0903 70.4763 87.4325 70.7655 87.6917C71.0547 87.9508 71.417 88.1141 71.8027 88.1593C72.0546 88.184 72.3461 88.1593 72.6178 88.1593H88.2282L88.2677 88.2087L91.6961 92.6053H91.4935L94.3538 88.2087L94.3884 88.1544H94.4575H110.592C110.876 88.1449 111.154 88.0705 111.405 87.9369C111.656 87.8033 111.873 87.6141 112.039 87.3837C112.206 87.1619 112.321 86.9052 112.375 86.6328C112.413 86.3563 112.426 86.0769 112.414 85.798C112.414 84.6618 112.414 83.57 112.414 82.5129C112.414 80.4084 112.414 78.467 112.414 76.7084C112.414 73.201 112.414 70.4247 112.439 68.5129C112.395 68.0997 112.223 67.7108 111.945 67.4014C111.742 67.1748 111.491 66.9974 111.209 66.8827C110.977 66.8428 110.741 66.8361 110.508 66.863Z" fill="#263238"/>
<path d="M84.059 71.8129V72.46H83.6391V71.8079L82.9277 70.6421H83.3773L83.8713 71.4522L84.3653 70.6421H84.7802L84.059 71.8129Z" fill="#263238"/>
<path d="M84.7608 71.546C84.7519 71.349 84.8022 71.1537 84.9052 70.9855C85.0083 70.8173 85.1593 70.6838 85.3389 70.6021C85.5184 70.5205 85.7183 70.4945 85.9128 70.5274C86.1073 70.5604 86.2875 70.6508 86.4301 70.787C86.5728 70.9233 86.6714 71.0991 86.7133 71.2919C86.7551 71.4846 86.7383 71.6855 86.665 71.8686C86.5917 72.0518 86.4653 72.2088 86.302 72.3194C86.1387 72.4301 85.946 72.4894 85.7488 72.4896C85.6212 72.4956 85.4937 72.4756 85.374 72.4309C85.2544 72.3862 85.145 72.3176 85.0527 72.2294C84.9603 72.1412 84.8868 72.0351 84.8366 71.9177C84.7864 71.8002 84.7606 71.6738 84.7608 71.546ZM86.3317 71.546C86.3307 71.4329 86.2963 71.3226 86.2327 71.229C86.1692 71.1354 86.0793 71.0627 85.9745 71.0201C85.8697 70.9775 85.7547 70.9669 85.6439 70.9895C85.533 71.0122 85.4314 71.0672 85.3517 71.1475C85.2721 71.2278 85.218 71.3299 85.1963 71.441C85.1746 71.552 85.1862 71.667 85.2297 71.7714C85.2732 71.8758 85.3467 71.965 85.4408 72.0277C85.5349 72.0905 85.6455 72.124 85.7586 72.124C85.8349 72.1261 85.9107 72.1125 85.9815 72.0841C86.0523 72.0557 86.1165 72.0132 86.1702 71.959C86.2239 71.9048 86.266 71.8403 86.2937 71.7692C86.3215 71.6982 86.3344 71.6222 86.3317 71.546Z" fill="#263238"/>
<path d="M87.0674 71.6548V70.6421H87.4922V71.6301C87.4922 71.9759 87.6454 72.1241 87.8973 72.1241C88.1492 72.1241 88.3073 71.9808 88.3073 71.6301V70.6421H88.7272V71.6647C88.7272 71.8848 88.6398 72.0959 88.4841 72.2515C88.3285 72.4071 88.1174 72.4946 87.8973 72.4946C87.6772 72.4946 87.4661 72.4071 87.3105 72.2515C87.1548 72.0959 87.0674 71.8848 87.0674 71.6647V71.6548Z" fill="#263238"/>
<path d="M90.3133 72.46L89.9626 71.966H89.5723V72.46H89.1475V70.6421H89.9379C90.4319 70.6421 90.7332 70.894 90.7332 71.304C90.7387 71.4275 90.7054 71.5496 90.6381 71.6532C90.5708 71.7568 90.4728 71.8368 90.3578 71.882L90.7678 72.4699L90.3133 72.46ZM89.9181 70.978H89.5723V71.6301H89.9181C90.175 71.6301 90.3034 71.5066 90.3034 71.309C90.3034 71.1114 90.175 70.9731 89.9082 70.9731L89.9181 70.978Z" fill="#263238"/>
<path d="M91.6963 71.5461C91.6979 71.3435 91.7618 71.1463 91.8792 70.9812C91.9967 70.8162 92.1621 70.6912 92.353 70.6232C92.5438 70.5553 92.751 70.5477 92.9463 70.6014C93.1417 70.6552 93.3158 70.7677 93.4451 70.9237L93.1734 71.1756C93.1174 71.1067 93.0465 71.0513 92.9661 71.0137C92.8857 70.976 92.7978 70.9571 92.709 70.9583C92.563 70.9717 92.4273 71.0392 92.3285 71.1475C92.2297 71.2558 92.175 71.3971 92.175 71.5437C92.175 71.6903 92.2297 71.8316 92.3285 71.9399C92.4273 72.0481 92.563 72.1156 92.709 72.1291C92.7974 72.1312 92.8852 72.1132 92.9657 72.0764C93.0461 72.0396 93.1171 71.985 93.1734 71.9166L93.4451 72.1636C93.3161 72.3193 93.1424 72.4317 92.9475 72.4856C92.7526 72.5395 92.5459 72.5323 92.3552 72.465C92.1646 72.3977 91.9992 72.2734 91.8813 72.1091C91.7635 71.9448 91.6989 71.7483 91.6963 71.5461Z" fill="#263238"/>
<path d="M93.5781 71.546C93.5693 71.349 93.6196 71.1537 93.7226 70.9855C93.8256 70.8173 93.9767 70.6838 94.1562 70.6021C94.3358 70.5205 94.5357 70.4945 94.7302 70.5274C94.9247 70.5604 95.1049 70.6508 95.2475 70.787C95.3902 70.9233 95.4888 71.0991 95.5306 71.2919C95.5725 71.4846 95.5557 71.6855 95.4824 71.8686C95.4091 72.0518 95.2827 72.2088 95.1194 72.3194C94.9561 72.4301 94.7634 72.4894 94.5661 72.4896C94.4386 72.4956 94.3111 72.4756 94.1914 72.4309C94.0717 72.3862 93.9624 72.3176 93.87 72.2294C93.7777 72.1412 93.7042 72.0351 93.654 71.9177C93.6038 71.8002 93.578 71.6738 93.5781 71.546ZM95.1491 71.546C95.1471 71.4331 95.1119 71.3233 95.0477 71.2304C94.9836 71.1375 94.8934 71.0655 94.7886 71.0237C94.6837 70.9818 94.5688 70.9719 94.4583 70.9951C94.3478 71.0183 94.2466 71.0736 94.1675 71.1542C94.0883 71.2347 94.0347 71.3368 94.0134 71.4477C93.9921 71.5586 94.004 71.6733 94.0476 71.7774C94.0913 71.8815 94.1647 71.9705 94.2587 72.033C94.3527 72.0955 94.4631 72.1289 94.576 72.1289C94.6527 72.131 94.729 72.1173 94.8001 72.0887C94.8713 72.06 94.9357 72.017 94.9895 71.9623C95.0433 71.9076 95.0852 71.8424 95.1126 71.7708C95.1401 71.6991 95.1525 71.6226 95.1491 71.546Z" fill="#263238"/>
<path d="M95.9004 70.642H96.7353C96.8632 70.6287 96.9926 70.6424 97.115 70.6823C97.2373 70.7221 97.35 70.7872 97.4456 70.8734C97.5412 70.9595 97.6176 71.0648 97.6699 71.1824C97.7222 71.3 97.7492 71.4272 97.7492 71.5559C97.7492 71.6846 97.7222 71.8119 97.6699 71.9294C97.6176 72.047 97.5412 72.1523 97.4456 72.2385C97.35 72.3246 97.2373 72.3897 97.115 72.4296C96.9926 72.4694 96.8632 72.4832 96.7353 72.4698H95.9004V70.642ZM96.7106 72.124C96.8612 72.124 97.0057 72.0642 97.1123 71.9576C97.2188 71.8511 97.2786 71.7066 97.2786 71.5559C97.2786 71.4053 97.2188 71.2608 97.1123 71.1542C97.0057 71.0477 96.8612 70.9878 96.7106 70.9878H96.3302V72.124H96.7106Z" fill="#263238"/>
<path d="M99.4813 72.1241V72.465H98.0635V70.6421H99.4467V70.978H98.4834V71.3782H99.3331V71.7091H98.4834V72.1241H99.4813Z" fill="#263238"/>
<path d="M106.753 74.3816H75.784C74.8154 74.3816 74.0303 75.1667 74.0303 76.1353V82.6758C74.0303 83.6444 74.8154 84.4296 75.784 84.4296H106.753C107.721 84.4296 108.507 83.6444 108.507 82.6758V76.1353C108.507 75.1667 107.721 74.3816 106.753 74.3816Z" fill="#F5F5F5"/>
<path d="M81.016 80.0281C81.0169 80.2349 80.9745 80.4396 80.8915 80.6291C80.8085 80.8186 80.6868 80.9885 80.5342 81.1281C80.3816 81.2677 80.2014 81.3738 80.0053 81.4396C79.8092 81.5054 79.6016 81.5294 79.3956 81.5101C78.1211 81.5101 77.4443 80.5913 77.4443 79.0697C77.4443 77.4198 78.3187 76.575 79.6081 76.575C79.9906 76.5584 80.3708 76.6437 80.7097 76.822L80.5664 77.1086C80.2734 76.948 79.9418 76.8711 79.6081 76.8863C78.5163 76.8863 77.8 77.6026 77.8 79.0154C77.7985 79.2104 77.8117 79.4053 77.8395 79.5983C77.9556 79.2874 78.1697 79.0228 78.4496 78.8445C78.7295 78.6662 79.0599 78.584 79.3907 78.6103C80.3836 78.5757 81.016 79.1438 81.016 80.0281ZM80.6603 80.0281C80.6603 79.3316 80.1663 78.882 79.3413 78.882C79.1756 78.865 79.0082 78.882 78.8493 78.9319C78.6904 78.9818 78.5434 79.0636 78.4172 79.1723C78.2909 79.2809 78.1882 79.4142 78.1152 79.5639C78.0422 79.7136 78.0005 79.8766 77.9927 80.0429C77.9927 80.611 78.4867 81.1841 79.3858 81.1841C79.5489 81.2045 79.7145 81.1898 79.8715 81.1409C80.0285 81.092 80.1732 81.01 80.2958 80.9005C80.4185 80.7909 80.5162 80.6564 80.5825 80.5059C80.6488 80.3554 80.682 80.1925 80.68 80.0281H80.6603Z" fill="#4957CC"/>
<path d="M87.4923 80.1071H86.4746V81.4557H86.1239V80.1071H83.3525V79.8502L85.9954 76.5898H86.3906L83.7971 79.791H86.1338V78.6054H86.4746V79.791H87.4923V80.1071Z" fill="#4957CC"/>
<path d="M92.896 80.0824C92.896 80.8926 92.3131 81.4903 91.1917 81.4903C90.8764 81.5025 90.5619 81.4505 90.2672 81.3376C89.9726 81.2247 89.7039 81.0531 89.4775 80.8333L89.6554 80.5616C89.8572 80.7607 90.0976 80.9164 90.3618 81.0192C90.626 81.122 90.9084 81.1697 91.1917 81.1593C92.0661 81.1593 92.5354 80.7444 92.5354 80.0824C92.5354 79.4204 92.0908 79.0055 91.1176 79.0055H90.8113V78.7486L92.2489 76.906H89.6554V76.5701H92.7083V76.8171L91.2263 78.6893C92.3773 78.7338 92.896 79.292 92.896 80.0824Z" fill="#4957CC"/>
<path d="M98.8001 76.5701V76.8171L96.7105 81.436H96.3203L98.3901 76.8862H95.6583V77.8199H95.3125V76.5701H98.8001Z" fill="#4957CC"/>
<path d="M101.27 79.0401C101.27 77.5185 102.055 76.5701 103.171 76.5701C104.288 76.5701 105.078 77.5136 105.078 79.0401C105.078 80.5665 104.293 81.5101 103.171 81.5101C102.05 81.5101 101.27 80.5221 101.27 79.0401ZM104.728 79.0401C104.728 77.6865 104.095 76.901 103.176 76.901C102.258 76.901 101.625 77.6865 101.625 79.0401C101.625 80.3936 102.258 81.1791 103.176 81.1791C104.095 81.1791 104.728 80.3739 104.728 79.0401Z" fill="#4957CC"/>
<path d="M207.184 206.255C213.65 203.508 221.139 198.109 224.474 191.484C217.298 194.463 211.246 199.632 207.184 206.255Z" fill="#263238"/>
<path d="M208.562 195.975C215.028 193.233 222.517 187.834 225.852 181.209C218.674 184.183 212.622 189.351 208.562 195.975Z" fill="#263238"/>
<path d="M210.443 185.981C216.915 183.234 224.399 177.835 227.733 171.215C220.557 174.19 214.505 179.359 210.443 185.981Z" fill="#263238"/>
<path d="M212.775 175.518C218.876 171.912 225.679 165.49 228.228 158.485C221.448 162.435 216.056 168.384 212.79 175.518" fill="#263238"/>
<path d="M215.285 167.51C219.731 161.696 223.876 153.041 223.821 145.542C218.88 151.867 215.911 159.508 215.285 167.51Z" fill="#263238"/>
<path d="M214.04 171.319C213.14 163.455 210.088 153.57 204.891 147.671C205.768 156.231 208.928 164.398 214.04 171.319Z" fill="#263238"/>
<path d="M211.95 179.92C210.369 171.813 206.368 161.785 200.47 156.099C202.085 164.927 206.051 173.156 211.95 179.92Z" fill="#263238"/>
<path d="M209.55 190.407C207.974 182.286 203.962 172.273 198.094 166.587C199.709 175.415 203.675 183.644 209.574 190.407" fill="#263238"/>
<path d="M207.623 203.286C206.037 195.179 202.036 185.151 196.143 179.465C197.757 188.293 201.724 196.523 207.623 203.286Z" fill="#263238"/>
<path d="M215.586 165.984C215.562 166.022 215.545 166.064 215.537 166.108C215.502 166.201 215.463 166.32 215.413 166.468C215.305 166.809 215.151 167.278 214.964 167.871C214.574 169.091 214.05 170.865 213.432 173.068C212.815 175.271 212.133 177.904 211.432 180.844C210.73 183.783 210.039 187.038 209.386 190.467C208.734 193.895 208.226 197.185 207.796 200.179C207.366 203.172 207.06 205.879 206.837 208.152C206.615 210.424 206.457 212.272 206.378 213.551C206.339 214.174 206.309 214.663 206.284 215.033C206.284 215.191 206.284 215.315 206.284 215.419C206.278 215.461 206.278 215.504 206.284 215.547C206.299 215.506 206.308 215.462 206.309 215.419C206.309 215.32 206.309 215.191 206.348 215.038C206.383 214.683 206.432 214.193 206.492 213.556C206.6 212.287 206.783 210.444 207.03 208.172C207.277 205.899 207.618 203.202 208.043 200.213C208.468 197.225 209.031 193.944 209.653 190.516C210.276 187.088 210.997 183.842 211.674 180.898C212.351 177.954 213.022 175.321 213.62 173.112C214.218 170.904 214.712 169.126 215.072 167.901L215.478 166.483C215.517 166.335 215.547 166.211 215.576 166.112C215.585 166.07 215.589 166.027 215.586 165.984Z" fill="#263238"/>
<path d="M204.022 210.533C206.764 204.793 208.759 196.701 207.416 190.412C204.35 196.646 203.171 203.639 204.022 210.533Z" fill="#455A64"/>
<path d="M199.472 203.098C202.213 197.353 204.209 189.266 202.861 182.978C199.794 189.211 198.616 196.204 199.472 203.098Z" fill="#455A64"/>
<path d="M195.382 195.535C198.124 189.79 200.119 181.703 198.771 175.414C195.704 181.648 194.526 188.641 195.382 195.535Z" fill="#455A64"/>
<path d="M191.351 187.379C193.391 181.303 194.414 173.014 192.339 166.952C190.037 173.522 189.694 180.618 191.351 187.379Z" fill="#455A64"/>
<path d="M188.708 180.7C188.505 174.234 186.603 166.132 182.587 161.355C182.677 168.266 184.806 174.996 188.708 180.7Z" fill="#455A64"/>
<path d="M189.938 183.906C185.18 179.421 177.948 174.96 171.447 174.377C176.532 179.313 182.967 182.629 189.938 183.906Z" fill="#455A64"/>
<path d="M193.154 190.714C187.823 186.485 179.9 182.523 173.053 182.508C178.792 187.174 185.788 190.03 193.154 190.714Z" fill="#455A64"/>
<path d="M197.155 198.919C191.825 194.695 183.906 190.728 177.06 190.714C182.798 195.379 189.792 198.234 197.155 198.919Z" fill="#455A64"/>
<path d="M202.742 208.364C197.412 204.136 189.488 200.174 182.642 200.154C188.38 204.823 195.376 207.681 202.742 208.364Z" fill="#455A64"/>
<path d="M188.104 179.529C188.104 179.529 188.104 179.564 188.134 179.633L188.243 179.939L188.687 181.1C189.078 182.088 189.675 183.57 190.431 185.339C191.953 188.891 194.21 193.737 197.011 198.944C198.414 201.537 199.822 203.977 201.136 206.166C202.45 208.354 203.7 210.301 204.772 211.911C205.844 213.522 206.748 214.811 207.361 215.69L208.092 216.678L208.284 216.935C208.329 216.994 208.354 217.024 208.358 217.019C208.343 216.985 208.324 216.952 208.304 216.92L208.131 216.649C207.958 216.397 207.731 216.051 207.44 215.616C206.827 214.722 205.958 213.418 204.915 211.797C203.873 210.177 202.643 208.221 201.329 206.033C200.015 203.844 198.627 201.399 197.224 198.805C194.423 193.648 192.165 188.807 190.589 185.25C189.809 183.481 189.191 182.044 188.776 181.046L188.282 179.9L188.149 179.604C188.137 179.577 188.122 179.553 188.104 179.529Z" fill="#263238"/>
<path d="M190.97 211.229H218.219V216.481H215.418L213.061 231.459H196.216L193.79 216.481H190.97V211.229Z" fill="#4957CC"/>
<path d="M190.97 216.372C190.97 216.303 197.026 216.244 204.495 216.244C211.965 216.244 218.021 216.303 218.021 216.372C218.021 216.441 211.97 216.495 204.495 216.495C197.021 216.495 190.97 216.441 190.97 216.372Z" fill="#263238"/>
<path d="M34.8817 231.469H30.4604L28.8203 211.555H34.0271L34.8817 231.469Z" fill="#263238"/>
<path d="M73.2158 231.469H77.6371L79.2772 211.555H74.0704L73.2158 231.469Z" fill="#263238"/>
<path d="M82.3161 214.08L25.3876 215.414L23.6586 178.645C23.6178 177.792 23.7506 176.94 24.049 176.14C24.3474 175.339 24.8052 174.608 25.3945 173.99C25.9839 173.372 26.6926 172.88 27.4777 172.544C28.2629 172.208 29.108 172.035 29.962 172.035H78.4679C79.3336 172.035 80.19 172.213 80.984 172.558C81.778 172.903 82.4926 173.408 83.0833 174.041C83.674 174.674 84.1283 175.421 84.4178 176.237C84.7073 177.053 84.826 177.92 84.7664 178.783L82.3161 214.08Z" fill="#4957CC"/>
<path d="M85.2353 178.522H85.0772H84.6079L82.8147 178.551H76.2149C70.6425 178.551 62.946 178.502 54.4492 178.699C45.9475 178.981 38.2411 178.932 32.6737 178.848C29.8875 178.803 27.63 178.749 26.0739 178.699L24.2806 178.64H23.8163C23.7638 178.647 23.7107 178.647 23.6582 178.64H23.8163H24.2806H26.0739L32.6737 178.704C38.246 178.744 45.9425 178.764 54.4443 178.477C62.946 178.285 70.6425 178.373 76.2149 178.413L82.8147 178.467L84.6079 178.492H85.0772L85.2353 178.522Z" fill="#263238"/>
<path d="M44.4211 172.608C43.1415 172.796 41.8964 173.17 40.7259 173.72C39.5925 174.343 38.5586 175.133 37.6582 176.062C37.8395 175.717 38.0784 175.406 38.3646 175.143C39.6777 173.792 41.4006 172.913 43.2651 172.643C43.6454 172.564 44.0367 172.552 44.4211 172.608Z" fill="#263238"/>
<path d="M67.8365 105.755L74.7921 118.466L84.9685 112.765L89.9085 114.4C89.9085 114.4 77.4399 127.946 75.4096 128.652C73.3792 129.359 69.5359 129.472 67.3425 126.721C65.3665 124.216 59.5176 111.076 59.5176 111.076L67.8365 105.755Z" fill="#FFBE9D"/>
<path d="M96.4834 97.4563C96.3941 97.3467 96.2782 97.2619 96.1467 97.21C96.0152 97.1581 95.8726 97.1408 95.7325 97.1599L90.8963 97.812C90.686 97.8434 90.4851 97.9196 90.3069 98.0355C90.1288 98.1515 89.9776 98.3043 89.8638 98.4838L79.7812 113.971L80.5519 114.4L85.9167 114.233L96.6365 97.6489L96.4834 97.4563Z" fill="#263238"/>
<path d="M93.0505 99.4669C93.0892 99.5282 93.1462 99.5758 93.2134 99.6029C93.2806 99.6301 93.3547 99.6354 93.4251 99.6182C93.4955 99.601 93.5587 99.5621 93.6058 99.5069C93.6529 99.4518 93.6815 99.3833 93.6875 99.311C93.6935 99.2388 93.6767 99.1665 93.6394 99.1043C93.6021 99.0422 93.5462 98.9933 93.4796 98.9647C93.4129 98.936 93.339 98.929 93.2682 98.9447C93.1974 98.9603 93.1334 98.9978 93.0851 99.0519C93.0281 99.104 92.9928 99.1757 92.9864 99.2526C92.98 99.3296 93.0029 99.4061 93.0505 99.4669Z" fill="white"/>
<path d="M96.6365 97.6489C96.3291 97.735 96.0152 97.7962 95.6979 97.8317L93.1291 98.2318L91.3557 98.4887C91.2053 98.5022 91.0598 98.5491 90.9299 98.626C90.8 98.7029 90.6889 98.8079 90.6048 98.9333L90.0317 99.8225C89.2364 101.043 88.3719 102.381 87.4629 103.775C85.6302 106.58 83.9605 109.115 82.7354 110.942L81.2781 113.126C81.1086 113.397 80.9187 113.655 80.71 113.897C80.8491 113.606 81.0144 113.328 81.204 113.067L82.5872 110.863C83.7678 109.006 85.4079 106.457 87.2406 103.651C88.1595 102.253 89.0339 100.919 89.8292 99.699C90.0317 99.3977 90.2293 99.1013 90.4171 98.8098C90.5224 98.6585 90.6598 98.5322 90.8194 98.44C90.9791 98.3478 91.1571 98.2919 91.3408 98.2763L93.1242 98.0491L95.7078 97.7428C96.0144 97.687 96.3249 97.6556 96.6365 97.6489Z" fill="#455A64"/>
<path d="M91.2572 103.177C91.2572 103.177 90.8275 103.103 90.5903 104.283C90.3532 105.464 89.6023 108.853 89.6023 108.853L87.3398 107.652L84.5043 108.023C84.5043 108.023 83.8868 108.591 84.3412 108.902C84.7957 109.213 86.584 109.53 86.584 109.53L87.903 111.432L84.114 109.604C84.114 109.604 82.8494 109.935 83.2199 110.705C83.5904 111.476 86.1443 113.892 86.1443 113.892L84.2474 113.748L82.0046 112.375C82.0046 112.375 81.313 112.41 81.5699 112.998C81.8268 113.585 84.1782 115.719 84.1782 115.719L87.0237 117.103C87.0237 117.103 88.5798 116.979 88.728 116.52C88.8286 116.158 88.8915 115.788 88.9157 115.413C88.9157 115.413 89.7407 115.191 89.9037 114.791C89.9944 114.454 90.0129 114.102 89.958 113.758C89.958 113.758 91.2523 113.986 91.4153 113.264C91.5285 112.365 91.4918 111.454 91.3066 110.567C91.1782 110.009 91.8599 104.847 91.8006 104.693C91.7414 104.54 92.0723 102.836 91.2572 103.177Z" fill="#FFBE9D"/>
<path d="M88.8019 116.53C88.577 116.664 88.3227 116.742 88.0609 116.757C86.7986 116.94 85.514 116.634 84.4695 115.902C84.0793 115.621 83.8866 115.408 83.9113 115.364C83.936 115.319 84.8647 116.07 86.2479 116.391C87.6311 116.712 88.7871 116.441 88.8019 116.53Z" fill="#EB996E"/>
<path d="M88.1304 115.507C88.0859 115.571 87.5771 115.309 87.0386 114.865C86.5002 114.42 86.1445 113.981 86.1988 113.926C86.2532 113.872 86.6928 114.208 87.2263 114.642C87.7599 115.077 88.1748 115.438 88.1304 115.507Z" fill="#EB996E"/>
<path d="M89.6269 113.052C89.5824 113.116 89.0785 112.859 88.5747 112.39C88.0708 111.921 87.7744 111.446 87.8337 111.402C87.8929 111.357 88.2881 111.733 88.7723 112.182C89.2564 112.632 89.6713 112.983 89.6269 113.052Z" fill="#EB996E"/>
<path d="M91.2026 111.071C91.1236 111.106 90.8371 110.577 90.3876 109.989C89.938 109.401 89.4984 109.001 89.5478 108.922C89.5972 108.843 90.1405 109.189 90.6148 109.811C90.9398 110.158 91.1457 110.599 91.2026 111.071Z" fill="#EB996E"/>
<path d="M93.1239 202.688C93.1616 202.534 93.1616 202.373 93.1239 202.219C93.0438 201.792 92.8756 201.386 92.6299 201.028C92.5496 200.904 92.4551 200.79 92.3483 200.687C92.2783 200.621 92.1918 200.576 92.0979 200.555C92.004 200.534 91.9062 200.539 91.8148 200.569C91.761 200.587 91.7122 200.618 91.672 200.658C91.6318 200.698 91.6012 200.747 91.5826 200.801C91.548 200.904 91.548 201.015 91.5826 201.117C91.6501 201.289 91.7327 201.454 91.8296 201.611C92.0124 201.922 92.1655 202.229 92.4027 202.599C92.4718 202.699 92.5667 202.778 92.6773 202.827C92.7878 202.877 92.9098 202.895 93.03 202.881C93.2509 202.841 93.4592 202.75 93.6377 202.614C93.9648 202.374 94.2632 202.097 94.5269 201.789C94.6539 201.643 94.7726 201.489 94.8825 201.33C95.0027 201.174 95.0916 200.996 95.1444 200.806C95.1739 200.694 95.1634 200.576 95.1146 200.471C95.0659 200.367 94.982 200.282 94.8776 200.233C94.7798 200.204 94.6763 200.201 94.5768 200.223C94.4774 200.246 94.3854 200.293 94.3095 200.361C94.0836 200.559 93.8843 200.785 93.7167 201.033C93.4682 201.382 93.2702 201.765 93.1288 202.169C93.0638 202.312 93.0301 202.467 93.03 202.624C93.2641 202.104 93.547 201.608 93.8748 201.142C94.0422 200.92 94.2344 200.718 94.4478 200.539C94.5614 200.46 94.6998 200.406 94.7837 200.45C94.8325 200.479 94.8699 200.524 94.8897 200.577C94.9095 200.63 94.9105 200.688 94.8924 200.742C94.8412 200.896 94.7625 201.04 94.6602 201.167C94.5565 201.315 94.4429 201.458 94.3243 201.601C94.0686 201.889 93.7839 202.148 93.4746 202.377C93.33 202.488 93.1605 202.563 92.9806 202.594C92.9069 202.603 92.8322 202.592 92.7649 202.56C92.6976 202.529 92.6405 202.479 92.6003 202.416C92.4076 202.135 92.2199 201.784 92.0371 201.493C91.9531 201.34 91.8494 201.191 91.8 201.068C91.7506 200.944 91.8 200.846 91.8741 200.806C92.0865 200.722 92.2989 200.964 92.4422 201.167C92.7633 201.626 92.9946 202.143 93.1239 202.688Z" fill="#263238"/>
<path d="M80.9871 203.103L74.9603 216.169L65.2334 211.674L71.4677 195.505L80.9871 203.103Z" fill="#FFBE9D"/>
<path d="M76.0763 215.295L72.5541 222.013C72.5541 222.013 81.5696 231.335 80.7248 233.42L59.5322 223.258L65.3515 209.787L76.0763 215.295Z" fill="#455A64"/>
<path d="M66.4636 217.953C66.2307 217.923 65.9949 217.978 65.7985 218.106C65.6021 218.235 65.4578 218.429 65.3916 218.654C65.3469 218.886 65.3933 219.127 65.5212 219.325C65.649 219.524 65.8486 219.666 66.0783 219.721C66.3257 219.759 66.5781 219.703 66.787 219.565C66.9959 219.428 67.1464 219.217 67.2095 218.975C67.2305 218.728 67.1547 218.482 66.9981 218.29C66.8414 218.097 66.6162 217.973 66.3697 217.943" fill="#E0E0E0"/>
<g opacity="0.6">
<path d="M59.5518 223.258L60.4311 221.569L80.4233 231.943C80.4233 231.943 81.1692 232.802 80.7444 233.425L59.5518 223.258Z" fill="white"/>
</g>
<path d="M72.9695 222.068C72.9201 222.172 72.3767 221.969 71.7098 222.068C71.0429 222.167 70.5587 222.463 70.4846 222.374C70.4105 222.285 70.8502 221.766 71.6604 221.673C72.4705 221.579 73.0386 221.984 72.9695 222.068Z" fill="#263238"/>
<path d="M74.7529 224.054C74.7529 224.167 74.1947 224.128 73.6365 224.395C73.0783 224.661 72.7522 225.081 72.6485 225.027C72.5448 224.973 72.7621 224.355 73.4685 224.039C74.175 223.723 74.7974 223.955 74.7529 224.054Z" fill="#263238"/>
<path d="M74.7381 227.319C74.6343 227.319 74.7381 226.711 75.2765 226.272C75.815 225.832 76.4078 225.837 76.4078 225.946C76.4078 226.054 75.9681 226.212 75.5285 226.578C75.0888 226.944 74.8468 227.358 74.7381 227.319Z" fill="#263238"/>
<path d="M73.9823 219.484C73.8934 219.558 73.4883 219.188 72.8856 218.946C72.2829 218.704 71.7346 218.669 71.7247 218.555C71.7148 218.442 72.3274 218.284 73.0338 218.555C73.7402 218.827 74.0712 219.425 73.9823 219.484Z" fill="#263238"/>
<path d="M78.0819 213.551L93.9738 173.789C93.9738 173.789 93.6132 167.002 92.3634 164.863C91.1136 162.724 53.2633 150.22 53.2633 150.22C53.2633 150.22 43.6254 147.899 37.1935 150.22C30.7616 152.542 25.9451 160.594 26.8195 165.04C27.6939 169.486 31.4779 172.781 31.4779 172.781L59.3148 173.611L74.4855 179.144L64.2696 208.423L78.0819 213.551Z" fill="#263238"/>
<path d="M92.2158 186.381L92.5765 200.762L81.8616 201.028L80.3203 183.768L92.2158 186.381Z" fill="#FFBE9D"/>
<path d="M93.213 199.477L93.0154 207.06C93.0154 207.06 105.217 211.442 105.365 213.69L81.8658 213.927L81.1396 199.27L93.213 199.477Z" fill="#455A64"/>
<path d="M85.739 206.117C85.5136 206.187 85.3224 206.339 85.202 206.542C85.0817 206.746 85.0407 206.986 85.0869 207.218C85.1497 207.446 85.2973 207.641 85.4995 207.763C85.7016 207.885 85.9429 207.925 86.1737 207.875C86.4118 207.799 86.6133 207.637 86.7391 207.421C86.865 207.204 86.9064 206.949 86.8554 206.704C86.7665 206.473 86.591 206.285 86.3659 206.181C86.1409 206.077 85.8841 206.064 85.65 206.146" fill="#E0E0E0"/>
<g opacity="0.6">
<path d="M81.8809 213.927L81.9253 212.02L104.442 212.514C104.442 212.514 105.489 212.958 105.38 213.699L81.8809 213.927Z" fill="white"/>
</g>
<path d="M93.3957 206.937C93.3957 207.05 92.8177 207.11 92.2595 207.485C91.7012 207.86 91.3999 208.345 91.2962 208.3C91.1924 208.256 91.3555 207.589 92.0421 207.149C92.7288 206.709 93.4204 206.833 93.3957 206.937Z" fill="#263238"/>
<path d="M95.8713 207.93C95.901 208.043 95.402 208.241 95.0167 208.73C94.6314 209.219 94.5227 209.718 94.414 209.718C94.3053 209.718 94.2164 209.066 94.7104 208.463C95.2044 207.86 95.8664 207.821 95.8713 207.93Z" fill="#263238"/>
<path d="M97.318 210.869C97.2142 210.893 97.0512 210.32 97.318 209.688C97.5847 209.056 98.143 208.804 98.1924 208.898C98.2418 208.992 97.9108 209.332 97.6984 209.851C97.4859 210.37 97.4118 210.854 97.318 210.869Z" fill="#263238"/>
<path d="M93.1589 204.17C93.1144 204.274 92.5859 204.121 91.9387 204.17C91.2916 204.22 90.7877 204.432 90.7235 204.333C90.6592 204.234 91.1434 203.839 91.9091 203.775C92.6748 203.711 93.2182 204.076 93.1589 204.17Z" fill="#263238"/>
<path d="M85.9563 146.446C85.9563 146.446 92.3783 145.952 93.0897 152.898C93.801 159.844 94.5025 192.359 94.5025 192.359L79.5343 193.608L77.2125 160.397L53.2881 150.22C53.2881 150.22 81.6733 145.557 85.9563 146.446Z" fill="#263238"/>
<path d="M59.5076 137.05C59.5076 137.05 63.4003 147.973 62.6593 149.188C61.9183 150.403 51.9049 155.412 51.9049 155.412L26.8394 165.04C26.8394 165.04 24.2656 160.945 24.2656 154.666C24.2656 148.388 32.9847 137.06 32.9847 137.06L59.5076 137.05Z" fill="#263238"/>
<path d="M52.0781 149.682C52.1153 149.707 52.155 149.729 52.1967 149.746L52.5524 149.909L53.9405 150.527L59.1522 152.799L77.1387 160.54L77.0548 160.427C77.282 163.707 77.5488 167.249 77.7809 170.914C78.3935 179.485 78.9567 187.384 79.4013 193.638V193.752H79.5149L90.4422 192.793L93.4506 192.512L94.2361 192.433L94.5028 192.393C94.4124 192.386 94.3216 192.386 94.2311 192.393L93.4457 192.443L90.4323 192.665L79.4951 193.525L79.6186 193.628C79.1888 187.379 78.6306 179.475 78.0576 170.904C77.8007 167.239 77.5636 163.697 77.3166 160.417V160.338L77.2425 160.303L59.2164 152.646L53.9751 150.453L52.5721 149.875L52.2066 149.731C52.1651 149.712 52.1222 149.695 52.0781 149.682Z" fill="#455A64"/>
<path d="M32.1445 150.754C32.386 150.717 32.6228 150.654 32.851 150.566L34.738 149.954C36.7976 149.258 38.9085 148.724 41.0514 148.358C43.1952 148.008 45.3838 148.037 47.5178 148.442C49.148 148.783 50.0866 149.247 50.1064 149.193C49.9038 149.056 49.6847 148.944 49.4543 148.862C48.8422 148.604 48.2092 148.399 47.5623 148.249C45.4057 147.779 43.1797 147.722 41.002 148.081C38.8419 148.446 36.7202 149.01 34.6639 149.766C33.8735 150.048 33.2412 150.29 32.8016 150.463C32.5749 150.541 32.3551 150.639 32.1445 150.754Z" fill="#455A64"/>
<path d="M35.6865 144.999C36.417 144.954 37.1494 144.954 37.8799 144.999C38.5567 145.043 39.3619 145.147 40.2511 145.251C41.1403 145.354 42.1233 145.478 43.141 145.671C44.8822 145.948 46.5511 146.567 48.0513 147.494C48.65 147.91 49.2194 148.367 49.7556 148.862C49.6573 148.688 49.5342 148.53 49.3901 148.393C49.0197 147.994 48.6073 147.636 48.16 147.326C46.6603 146.334 44.9658 145.676 43.1904 145.394C42.1629 145.201 41.1749 145.088 40.2807 144.994C39.3866 144.9 38.5764 144.821 37.8898 144.801C37.3487 144.777 36.8065 144.8 36.2694 144.87C36.07 144.885 35.8737 144.928 35.6865 144.999Z" fill="#455A64"/>
<path d="M46.7571 57.2447C43.8771 56.7507 41.3231 57.8622 38.9074 59.4874C36.4351 61.2253 34.551 63.6752 33.506 66.5108C32.4611 69.3464 32.305 72.4331 33.0585 75.3597C33.4757 76.847 34.1897 78.2344 35.1576 79.4383C36.1255 80.6422 37.3271 81.6376 38.6901 82.3646C42.4395 84.2665 47.2363 83.6045 50.5955 81.0654C53.9547 78.5262 55.8665 74.3321 56.0295 70.1282C56.1851 67.2126 55.4213 64.3218 53.846 61.8636C53.0473 60.6491 52.007 59.6122 50.7899 58.8175C49.5728 58.0228 48.2051 57.4874 46.7719 57.2447" fill="#263238"/>
<path d="M38.5568 67.0506C38.9816 65.944 38.8137 64.714 38.9816 63.5432C39.3521 60.9694 41.4516 58.9045 43.8228 57.9017C46.0557 56.968 48.7628 57.1706 51.4699 58.04C53.3372 58.606 55.0046 59.6924 56.2766 61.172C57.086 62.1758 57.643 63.3591 57.9009 64.6226C58.1587 65.8861 58.1099 67.193 57.7586 68.4338L44.5885 66.517C43.3535 67.5347 42.0889 68.577 40.5921 69.1451C40.1606 69.3344 39.6876 69.4092 39.2187 69.3625C38.9852 69.3347 38.7646 69.2403 38.5832 69.0905C38.4019 68.9407 38.2675 68.7419 38.1962 68.5178C38.0776 68.0188 38.374 67.5297 38.5568 67.0506Z" fill="#263238"/>
<path d="M51.7521 61.6758L40.2517 64.1162C39.7187 64.1516 39.218 64.3842 38.8472 64.7687C38.4764 65.1532 38.2621 65.662 38.2461 66.1959L38.3844 91.0886C38.3961 92.7881 38.9653 94.4369 40.0047 95.7816L41.1014 97.1944C43.606 100.42 48.6695 100.094 50.5813 96.488C50.6982 96.2832 50.7879 96.064 50.848 95.8359C50.8826 95.6136 50.9419 95.4654 50.9518 95.2777L51.1741 92.8472C51.2828 90.6341 51.3025 88.4012 51.3025 88.4012C51.3025 88.4012 56.0103 87.8084 57.2305 81.7421C57.8283 78.7287 57.8678 73.7442 57.769 69.6687C57.6652 66.0181 55.4175 61.4338 51.7521 61.6758Z" fill="#FFBE9D"/>
<path d="M56.0054 74.3618C55.999 74.5654 55.9132 74.7584 55.7665 74.8996C55.6198 75.0408 55.4236 75.119 55.22 75.1176C55.12 75.1223 55.0201 75.1068 54.9262 75.072C54.8323 75.0372 54.7464 74.9839 54.6736 74.9152C54.6007 74.8465 54.5425 74.7639 54.5022 74.6722C54.462 74.5805 54.4407 74.4817 54.4395 74.3816C54.4471 74.178 54.5331 73.9852 54.6794 73.8435C54.8257 73.7017 55.0212 73.622 55.2249 73.6208C55.3252 73.6169 55.4252 73.633 55.5191 73.6684C55.613 73.7037 55.6988 73.7575 55.7716 73.8266C55.8444 73.8956 55.9025 73.9786 55.9427 74.0705C55.9829 74.1625 56.0042 74.2615 56.0054 74.3618Z" fill="#263238"/>
<path d="M56.5782 72.2327C56.4745 72.3315 55.9015 71.8721 55.0567 71.8424C54.212 71.8128 53.5747 72.208 53.4957 72.0993C53.4166 71.9906 53.555 71.8721 53.8316 71.6893C54.2062 71.4486 54.6466 71.3312 55.0913 71.3534C55.5281 71.3682 55.9487 71.5223 56.2917 71.793C56.5437 72.0054 56.6276 72.1932 56.5782 72.2327Z" fill="#263238"/>
<path d="M48.4565 74.1691C48.4514 74.3736 48.3662 74.5678 48.2193 74.7101C48.0724 74.8523 47.8756 74.9313 47.6711 74.9299C47.5715 74.9339 47.4721 74.9178 47.3788 74.8828C47.2855 74.8477 47.2002 74.7942 47.1279 74.7256C47.0556 74.657 46.9978 74.5746 46.9579 74.4833C46.918 74.3919 46.8967 74.2935 46.8955 74.1938C46.9007 73.9903 46.9852 73.7968 47.131 73.6547C47.2768 73.5125 47.4724 73.433 47.676 73.4331C47.7759 73.4291 47.8755 73.4451 47.9691 73.4802C48.0626 73.5152 48.1483 73.5685 48.221 73.6371C48.2937 73.7056 48.3519 73.788 48.3924 73.8794C48.4328 73.9707 48.4547 74.0693 48.4565 74.1691Z" fill="#263238"/>
<path d="M48.5802 72.0301C48.4764 72.1289 47.9034 71.6646 47.0587 71.6349C46.2139 71.6053 45.5766 72.0005 45.4976 71.8968C45.4186 71.793 45.5569 71.6695 45.8385 71.4818C46.2128 71.2448 46.6506 71.1277 47.0932 71.1459C47.5318 71.1635 47.9536 71.3191 48.2986 71.5905C48.5456 71.798 48.6296 71.9857 48.5802 72.0301Z" fill="#263238"/>
<path d="M51.1043 78.4323C51.555 78.3162 52.0173 78.2516 52.4826 78.2397C52.6999 78.2397 52.9025 78.1903 52.9469 78.047C52.9723 77.8259 52.931 77.6023 52.8284 77.4048C52.6456 76.8762 52.4529 76.3229 52.2553 75.74C51.46 73.3738 50.8968 71.4323 50.9907 71.4027C51.0845 71.373 51.8107 73.2651 52.6011 75.6313C52.7888 76.2143 52.9716 76.7675 53.1445 77.301C53.2714 77.5658 53.2995 77.8671 53.2236 78.1507C53.1887 78.2249 53.1379 78.2904 53.0747 78.3425C53.0115 78.3946 52.9374 78.432 52.858 78.4521C52.7378 78.4769 52.6152 78.4885 52.4924 78.4867C52.0294 78.5301 51.5626 78.5118 51.1043 78.4323Z" fill="#263238"/>
<path d="M51.3026 88.426C48.4278 88.3603 45.628 87.4966 43.2158 85.9313C43.2158 85.9313 45.1029 90.234 51.2334 89.8833L51.3026 88.426Z" fill="#EB996E"/>
<path d="M50.6702 80.4479C50.5178 80.2402 50.3148 80.0748 50.0804 79.9676C49.8461 79.8604 49.5883 79.8149 49.3315 79.8353C49.1417 79.8454 48.956 79.8944 48.786 79.9794C48.616 80.0644 48.4654 80.1835 48.3435 80.3293C48.2278 80.4638 48.1555 80.6302 48.1361 80.8065C48.1167 80.9828 48.1511 81.1609 48.2348 81.3173C48.3645 81.473 48.5375 81.5866 48.7319 81.6438C48.9262 81.7009 49.1332 81.6991 49.3265 81.6384C49.7307 81.5141 50.1055 81.3091 50.4281 81.0358C50.5268 80.974 50.6124 80.8934 50.6801 80.7986C50.7111 80.7518 50.7276 80.6968 50.7276 80.6406C50.7276 80.5843 50.7111 80.5294 50.6801 80.4825" fill="#EB996E"/>
<path d="M48.6049 78.9213C48.7432 78.9213 48.7086 79.8303 49.4644 80.512C50.2203 81.1937 51.1984 81.1295 51.2033 81.258C51.2033 81.3123 50.9761 81.4259 50.5661 81.421C50.0295 81.4071 49.5152 81.2041 49.1137 80.8479C48.7321 80.5115 48.495 80.0408 48.4517 79.5339C48.4122 79.1338 48.5407 78.9115 48.6049 78.9213Z" fill="#263238"/>
<path d="M48.5313 69.5304C48.4424 69.7576 47.6026 69.6144 46.6097 69.6934C45.6167 69.7725 44.8115 70.0145 44.688 69.8021C44.6337 69.7033 44.7769 69.4909 45.1079 69.2834C45.5467 69.0237 46.0413 68.873 46.5504 68.8437C47.0559 68.8007 47.5643 68.8804 48.0324 69.0759C48.4128 69.234 48.5708 69.4217 48.5313 69.5304Z" fill="#263238"/>
<path d="M56.4749 68.5424C56.3218 68.7302 55.7487 68.5079 55.0522 68.4683C54.3557 68.4288 53.7579 68.5474 53.6295 68.3448C53.5702 68.246 53.6739 68.0583 53.9358 67.8854C54.2903 67.6762 54.7014 67.5829 55.1115 67.6187C55.5203 67.6407 55.9121 67.7891 56.2329 68.0435C56.47 68.251 56.5441 68.4535 56.4749 68.5424Z" fill="#263238"/>
<path d="M36.4474 65.2722C37.6429 61.7698 42.8694 56.9977 46.5349 57.3287L52.3641 60.9794C52.1519 61.9818 51.6726 62.9082 50.9769 63.6605C50.2811 64.4127 49.3949 64.9628 48.4121 65.2525C47.3598 65.5489 46.1051 65.6131 45.4481 66.4973C44.791 67.3816 45.1418 68.7401 44.5342 69.6688C43.6894 70.9631 41.4615 70.8544 40.8193 72.2574C40.5426 72.8699 40.6661 73.6109 40.3747 74.2334C39.9894 75.0435 37.9047 76.0365 37.0501 75.75C36.1954 75.4634 36.2251 74.0061 35.9633 73.2355C35.6263 72.3686 35.6018 71.4114 35.8941 70.5284C36.3189 68.7944 35.8793 66.9419 36.4474 65.2722Z" fill="#263238"/>
<path d="M39.5796 76.5057C39.5796 76.0512 39.0856 74.9595 38.6657 74.8706C37.4751 74.6384 35.3114 74.6532 35.1731 77.6963C34.9854 81.8557 39.1992 81.1839 39.214 81.0653C39.2288 80.9468 39.5203 78.0766 39.5796 76.5057Z" fill="#FFBE9D"/>
<path d="M38.0383 79.4351C38.0383 79.4351 37.9642 79.4796 37.8357 79.529C37.663 79.5985 37.47 79.5985 37.2973 79.529C36.8626 79.3462 36.5266 78.6299 36.5365 77.884C36.5446 77.5256 36.6306 77.1733 36.7885 76.8515C36.8341 76.7236 36.9101 76.6087 37.0099 76.5167C37.1097 76.4246 37.2304 76.3581 37.3615 76.3229C37.4452 76.3038 37.533 76.3152 37.6091 76.355C37.6851 76.3949 37.7445 76.4606 37.7765 76.5403C37.8259 76.6588 37.7765 76.7428 37.8209 76.7478C37.8654 76.7527 37.9098 76.6835 37.8851 76.5106C37.8696 76.4067 37.817 76.312 37.7369 76.2439C37.6821 76.197 37.6185 76.1615 37.5498 76.1394C37.4811 76.1174 37.4087 76.1092 37.3368 76.1154C37.1647 76.1426 37.0023 76.213 36.8649 76.3202C36.7275 76.4273 36.6196 76.5677 36.5513 76.728C36.3594 77.0799 36.256 77.4733 36.25 77.8741C36.25 78.7139 36.6304 79.5191 37.238 79.7216C37.3481 79.7586 37.465 79.7706 37.5803 79.757C37.6956 79.7433 37.8065 79.7042 37.9049 79.6426C37.9988 79.5339 38.0383 79.4401 38.0383 79.4351Z" fill="#EB996E"/>
<path d="M35.5682 64.22C35.5682 62.9158 33.9578 62.0661 32.6882 61.75C31.3929 61.5275 30.0608 61.7819 28.9387 62.4663C28.2718 62.8318 27.6 63.3555 27.4567 64.1014C27.3135 64.8473 28.0248 65.7366 28.7362 65.4698C28.3885 65.5835 28.0705 65.7731 27.805 66.0247C27.5395 66.2763 27.3332 66.5838 27.2011 66.9249C27.0689 67.2659 27.0141 67.6321 27.0407 67.9969C27.0673 68.3617 27.1746 68.7161 27.3548 69.0344C27.5351 69.3527 27.7837 69.627 28.0829 69.8375C28.3821 70.048 28.7242 70.1894 29.0847 70.2515C29.4452 70.3136 29.815 70.2949 30.1673 70.1967C30.5197 70.0985 30.8458 69.9232 31.1222 69.6836C30.7613 70.8901 29.9976 71.9363 28.9585 72.6476C30.0334 72.8019 31.1299 72.6702 32.1377 72.2658C33.1455 71.8614 34.029 71.1986 34.6991 70.3442C35.3693 69.4897 35.8025 68.4738 35.955 67.3986C36.1076 66.3235 35.9742 65.2271 35.5682 64.22Z" fill="#263238"/>
<path d="M32.6736 70.8099C32.5499 70.4054 32.4964 69.9826 32.5155 69.5601C32.4989 67.505 33.174 65.504 34.4322 63.8791C34.6697 63.5297 34.9675 63.2252 35.3115 62.98C34.4427 64.0893 33.7496 65.3255 33.2565 66.6455C32.4908 68.8685 32.7674 70.8148 32.6736 70.8099Z" fill="#4957CC"/>
<path d="M51.1494 59.7245C51.5298 61.419 54.1134 63.5876 55.2348 64.9066C57.3886 67.4211 57.8135 68.2559 57.7937 73.8826C58.8114 71.9412 59.5919 70.0343 59.5128 67.8459C59.4649 65.6291 58.6074 63.5065 57.1021 61.8784C56.3489 61.084 55.4211 60.4759 54.3922 60.1021C53.3633 59.7282 52.2616 59.599 51.1741 59.7245" fill="#263238"/>
<path d="M68.7899 106.003C68.7899 106.003 64.3044 98.5283 63.0595 97.0167C62.0599 95.8483 60.8038 94.9269 59.3891 94.3244C58.8304 94.0831 58.245 93.909 57.6453 93.8057L51.1937 92.378C51.1937 92.378 51.1937 96.7795 46.5748 97.0512C41.9559 97.3229 38.0829 90.896 38.0829 90.896C38.0829 90.896 30.6284 92.052 28.85 92.9708C27.0716 93.8896 24.2657 95.0505 22.7244 102.752L21.6426 110.3L34.4866 111.486L35.7166 130.574L42.0843 135.02C42.0843 135.02 59.7448 139.609 60.8563 139.911C61.9678 140.212 62.3383 111.496 62.3383 111.496C62.3383 111.496 66.9127 108.576 68.7899 106.003Z" fill="#263238"/>
<path d="M60.333 102.792C60.4371 102.966 60.5216 103.152 60.5849 103.345C60.7282 103.705 60.9159 104.234 61.1234 104.896C62.2033 108.364 62.6485 111.999 62.4374 115.626C62.3979 116.317 62.3436 116.875 62.2843 117.261C62.2712 117.462 62.2365 117.66 62.1806 117.854C62.157 117.653 62.157 117.451 62.1806 117.251C62.2053 116.866 62.2349 116.307 62.2497 115.616C62.2979 113.817 62.2153 112.018 62.0027 110.231C61.78 108.447 61.4266 106.682 60.9456 104.95C60.7628 104.283 60.5998 103.745 60.4812 103.379C60.4113 103.189 60.3616 102.992 60.333 102.792Z" fill="#455A64"/>
<path d="M59.7741 134.057L35.5681 128.791L34.4516 111.501L23.6973 110.513C23.6973 110.513 24.0974 122.329 24.5074 125.827C25.1052 130.88 28.0889 137.777 29.8377 139.165C31.5864 140.553 60.8362 139.921 60.8362 139.921L59.7741 134.057Z" fill="#FFBE9D"/>
<path d="M73.5122 137.189C73.4317 137.356 73.3031 137.495 73.1429 137.588C72.9826 137.682 72.7981 137.725 72.6131 137.712C72.5342 137.707 72.4563 137.692 72.3809 137.668C71.8425 137.495 71.8869 136.403 71.8869 136.403L69.328 135.988C69.328 135.988 65.9935 138.137 64.8079 139.56C63.6223 140.983 60.599 139.832 60.599 139.832L59.5518 134.368L64.2695 130.105C64.2695 130.105 63.9829 130.357 64.309 129.561C64.635 128.766 66.1121 129.067 66.1121 129.067C66.3443 128.672 67.3125 128.534 67.3125 128.534L71.4522 129.028C71.8728 129.077 72.2771 129.219 72.6353 129.445C72.9935 129.67 73.2966 129.974 73.5221 130.332L75.2758 133.103C75.2758 133.103 76.1996 135.079 76.0514 135.573C75.9854 135.772 75.847 135.938 75.6638 136.039C75.4806 136.139 75.2662 136.167 75.0634 136.117C75.0634 136.117 74.8608 137.431 74.515 137.475C74.1618 137.457 73.8151 137.373 73.4924 137.228L73.5122 137.189Z" fill="#FFBE9D"/>
<path d="M64.7148 133.266C64.7148 133.311 65.2681 133.266 66.1524 133.296C67.3007 133.352 68.4359 133.564 69.5264 133.928C70.1267 134.13 70.7098 134.379 71.2702 134.674C71.7642 134.956 72.2879 135.168 72.4509 135.549C72.4877 135.628 72.503 135.715 72.4951 135.802C72.4873 135.888 72.4567 135.972 72.4064 136.043C72.3315 136.159 72.223 136.251 72.0952 136.304C71.9779 136.345 71.8538 136.364 71.7296 136.359C71.7296 136.359 71.8581 136.472 72.1248 136.403C72.2859 136.359 72.4271 136.262 72.525 136.127C72.5961 136.037 72.6427 135.93 72.66 135.816C72.6773 135.703 72.6648 135.587 72.6238 135.479C72.5185 135.242 72.347 135.039 72.1298 134.897C71.9025 134.753 71.6654 134.6 71.4036 134.457C70.8363 134.146 70.2429 133.885 69.6301 133.676C68.5162 133.3 67.3481 133.108 66.1721 133.108C65.6811 133.084 65.1893 133.137 64.7148 133.266Z" fill="#EB996E"/>
<path d="M64.418 135.904C64.418 135.983 66.1074 135.904 68.1773 136.033C70.2472 136.161 71.907 136.408 71.9218 136.329C71.5764 136.193 71.2141 136.105 70.8449 136.067C69.967 135.918 69.0813 135.819 68.1921 135.771C67.302 135.721 66.4098 135.721 65.5196 135.771C65.148 135.764 64.7773 135.809 64.418 135.904Z" fill="#EB996E"/>
<path d="M73.4884 137.085C73.5248 136.941 73.543 136.794 73.5427 136.645C73.5679 136.241 73.5679 135.835 73.5427 135.43C73.5287 135.147 73.4906 134.866 73.4291 134.59C73.3546 134.267 73.2169 133.961 73.024 133.691C72.6162 133.066 72.0891 132.527 71.4728 132.105C70.8644 131.684 70.1991 131.351 69.4968 131.117C68.9143 130.953 68.3136 130.862 67.7086 130.846C67.2146 130.846 66.7897 130.846 66.5032 130.846C66.3536 130.836 66.2033 130.851 66.0586 130.89C66.6022 130.968 67.1498 131.014 67.6987 131.029C68.2852 131.068 68.8652 131.174 69.4277 131.345C70.1016 131.591 70.7408 131.923 71.3296 132.333C71.9123 132.741 72.4147 133.254 72.8116 133.844C73.1365 134.325 73.3228 134.885 73.35 135.465C73.4587 136.448 73.434 137.085 73.4884 137.085Z" fill="#EB996E"/>
<path d="M67.5156 129.576C67.5156 129.616 68.1331 129.635 69.1211 129.749C70.1091 129.863 71.5911 129.962 72.4655 131.276C73.3068 132.256 74.0084 133.348 74.5502 134.521C74.7295 135.025 74.8618 135.544 74.9454 136.072C74.9745 135.927 74.9745 135.778 74.9454 135.633C74.9201 135.231 74.8386 134.836 74.7033 134.457C74.2026 133.238 73.5068 132.108 72.6433 131.113C72.4127 130.808 72.1438 130.534 71.8431 130.297C71.5465 130.083 71.2109 129.929 70.8551 129.843C70.2817 129.689 69.6941 129.595 69.1014 129.561C68.5741 129.504 68.0418 129.509 67.5156 129.576Z" fill="#EB996E"/>
<path d="M65.7026 138.681C65.7901 138.625 65.8728 138.562 65.9496 138.493L66.6412 137.935C67.5114 137.258 68.4203 136.633 69.3631 136.062H69.3038L71.8628 136.497L71.7738 136.388C71.7657 136.599 71.7823 136.809 71.8232 137.016C71.8569 137.246 71.9584 137.461 72.1147 137.633C72.2085 137.718 72.3254 137.773 72.4506 137.791C72.5698 137.813 72.6921 137.813 72.8112 137.791C73.06 137.755 73.2868 137.628 73.4485 137.436C73.4918 137.391 73.5299 137.341 73.5621 137.287L73.5868 137.243L73.4386 137.297L73.5177 137.327C73.6263 137.371 73.735 137.411 73.8486 137.446C73.9623 137.48 74.0759 137.51 74.1994 137.534C74.2635 137.54 74.3279 137.54 74.392 137.534C74.4735 137.539 74.555 137.524 74.6292 137.49C74.7415 137.402 74.8271 137.283 74.8762 137.149C74.9284 137.036 74.9714 136.919 75.0046 136.798C75.0741 136.56 75.1286 136.317 75.1676 136.072L75.0194 136.176C75.193 136.212 75.3731 136.201 75.5408 136.144C75.7086 136.086 75.8578 135.985 75.9728 135.85C76.087 135.711 76.1498 135.536 76.1507 135.356C76.1369 135.189 76.1071 135.023 76.0618 134.862C75.8678 134.233 75.6318 133.617 75.3553 133.019L74.4217 131.537L73.8289 130.604C73.6488 130.277 73.4316 129.972 73.1817 129.695C72.917 129.428 72.6011 129.218 72.253 129.077C71.9138 128.951 71.5573 128.878 71.1959 128.86L67.2982 128.42H67.2686C67.0341 128.458 66.804 128.519 66.5819 128.603C66.3448 128.674 66.137 128.819 65.9891 129.018L66.1324 128.973C65.9217 128.876 65.6904 128.832 65.4587 128.845C65.227 128.858 65.002 128.927 64.8035 129.048C64.4578 129.299 64.2225 129.674 64.1465 130.095L64.1761 130.04L60.9256 132.965L60.0512 133.77C59.9435 133.858 59.8457 133.957 59.7598 134.067C59.8757 133.991 59.9848 133.905 60.0858 133.81L60.9997 133.044L64.3046 130.189H64.3293V130.154C64.3999 129.788 64.6064 129.461 64.9072 129.24C65.0771 129.144 65.2675 129.09 65.4625 129.082C65.6576 129.074 65.8517 129.113 66.0286 129.196L66.1175 129.23L66.1719 129.151C66.3008 128.998 66.473 128.888 66.6659 128.835C66.8724 128.76 67.0859 128.705 67.3031 128.672H67.2686L71.1662 129.132C71.504 129.151 71.837 129.221 72.1542 129.339C72.4696 129.465 72.7555 129.655 72.994 129.897C73.2299 130.162 73.4353 130.452 73.6066 130.762L74.1994 131.7C74.5205 132.194 74.8366 132.688 75.133 133.182C75.4079 133.764 75.6407 134.365 75.8296 134.98C75.8733 135.124 75.9014 135.271 75.9136 135.42C75.9162 135.548 75.8724 135.673 75.7901 135.771C75.7061 135.869 75.5968 135.943 75.4741 135.984C75.3513 136.025 75.2198 136.031 75.0935 136.003H74.9601V136.127C74.9225 136.361 74.8713 136.594 74.807 136.823C74.7651 137.027 74.6735 137.217 74.5402 137.376C74.5059 137.382 74.4709 137.382 74.4365 137.376H74.2784C74.1747 137.376 74.066 137.327 73.9573 137.297L73.6412 137.189L73.5671 137.159L73.4139 137.213V137.243C73.39 137.285 73.3619 137.325 73.3299 137.362C73.2044 137.512 73.0291 137.612 72.8359 137.643C72.7431 137.663 72.6472 137.663 72.5544 137.643C72.4672 137.635 72.3845 137.6 72.3172 137.544C72.1005 137.231 72.0024 136.851 72.0406 136.472V136.379H71.9517L69.3829 135.978H69.3532H69.3285C68.3888 136.566 67.4893 137.217 66.6362 137.925C66.3398 138.177 66.1175 138.379 65.9693 138.518C65.8748 138.562 65.7854 138.617 65.7026 138.681Z" fill="#EB996E"/>
<path d="M104.887 121.297L73.0386 121.559C72.0012 121.559 71.0182 122.053 70.8601 123.075L67.4021 146.293H50.9716C50.73 146.311 50.5039 146.419 50.3388 146.596C50.1738 146.773 50.082 147.007 50.082 147.249C50.082 147.491 50.1738 147.725 50.3388 147.902C50.5039 148.079 50.73 148.188 50.9716 148.205H103.375L106.957 123.703C107.001 123.405 106.981 123.101 106.898 122.811C106.814 122.522 106.67 122.254 106.473 122.025C106.277 121.797 106.033 121.614 105.759 121.488C105.486 121.362 105.188 121.297 104.887 121.297Z" fill="#E0E0E0"/>
<path d="M104.886 121.297C105.052 121.29 105.219 121.306 105.38 121.346C105.804 121.447 106.186 121.676 106.475 122.002C106.763 122.328 106.943 122.736 106.991 123.169C107.003 123.609 106.963 124.048 106.872 124.478L106.413 127.714C105.711 132.58 104.703 139.595 103.449 148.22V148.304H103.365L52.5271 148.333H51.1587C50.91 148.357 50.6597 148.309 50.4374 148.195C50.2674 148.102 50.1256 147.965 50.0269 147.798C49.9281 147.631 49.876 147.44 49.876 147.247C49.876 147.053 49.9281 146.862 50.0269 146.695C50.1256 146.529 50.2674 146.391 50.4374 146.298C50.6605 146.187 50.9105 146.14 51.1587 146.165H67.3816L67.2581 146.273C68.508 137.959 69.6787 130.204 70.7161 123.243C70.7504 122.778 70.9628 122.345 71.3089 122.033C71.6546 121.741 72.0761 121.555 72.5242 121.494C72.951 121.453 73.3799 121.438 73.8086 121.45H75.0584L79.8551 121.42L88.3766 121.366L100.509 121.302H104.876C104.876 121.302 104.782 121.302 104.595 121.302H103.755L100.509 121.346L88.3766 121.48L79.8551 121.568L75.0584 121.613H73.8086C73.3915 121.605 72.9743 121.62 72.5588 121.657C72.1484 121.712 71.7625 121.883 71.4473 122.151C71.2936 122.289 71.1686 122.457 71.0796 122.643C70.9906 122.83 70.9393 123.032 70.9286 123.238C69.8912 130.199 68.7352 137.954 67.4706 146.268V146.377H51.1686C50.9656 146.351 50.7595 146.386 50.5758 146.476C50.4086 146.572 50.2795 146.723 50.2103 146.902C50.141 147.082 50.1358 147.281 50.1954 147.464C50.266 147.649 50.3987 147.805 50.5708 147.904C50.7564 147.993 50.9635 148.029 51.1686 148.007H52.5369L103.374 148.037L103.276 148.121C104.555 139.501 105.593 132.491 106.314 127.625C106.497 126.415 106.66 125.333 106.808 124.399C106.9 123.975 106.944 123.543 106.941 123.11C106.9 122.687 106.729 122.287 106.452 121.964C106.176 121.642 105.807 121.412 105.395 121.307C105.226 121.295 105.056 121.291 104.886 121.297Z" fill="#263238"/>
<path d="M87.611 136.453C88.7132 136.453 89.6068 135.559 89.6068 134.457C89.6068 133.355 88.7132 132.461 87.611 132.461C86.5088 132.461 85.6152 133.355 85.6152 134.457C85.6152 135.559 86.5088 136.453 87.611 136.453Z" fill="white"/>
<path d="M68.6662 147.988C68.7107 147.988 69.7234 142.084 70.9288 134.788C72.1341 127.492 73.0777 121.564 73.0332 121.559C72.9887 121.554 71.9711 127.462 70.7657 134.758C69.5604 142.055 68.6267 147.983 68.6662 147.988Z" fill="#263238"/>
</svg>
