<svg width="95" height="28" viewBox="0 0 95 28" fill="none" xmlns="http://www.w3.org/2000/svg">
<path d="M1.01209 5.812C1.01209 4.996 1.19609 4.264 1.56409 3.616C1.93209 2.96 2.43209 2.448 3.06409 2.08C3.70409 1.712 4.41209 1.528 5.18809 1.528C6.10009 1.528 6.89609 1.748 7.57609 2.188C8.25609 2.628 8.75209 3.252 9.06409 4.06H7.75609C7.52409 3.556 7.18809 3.168 6.74809 2.896C6.31609 2.624 5.79609 2.488 5.18809 2.488C4.60409 2.488 4.08009 2.624 3.61609 2.896C3.15209 3.168 2.78809 3.556 2.52409 4.06C2.26009 4.556 2.12809 5.14 2.12809 5.812C2.12809 6.476 2.26009 7.06 2.52409 7.564C2.78809 8.06 3.15209 8.444 3.61609 8.716C4.08009 8.988 4.60409 9.124 5.18809 9.124C5.79609 9.124 6.31609 8.992 6.74809 8.728C7.18809 8.456 7.52409 8.068 7.75609 7.564H9.06409C8.75209 8.364 8.25609 8.984 7.57609 9.424C6.89609 9.856 6.10009 10.072 5.18809 10.072C4.41209 10.072 3.70409 9.892 3.06409 9.532C2.43209 9.164 1.93209 8.656 1.56409 8.008C1.19609 7.36 1.01209 6.628 1.01209 5.812ZM11.7816 4.492C11.9736 4.116 12.2456 3.824 12.5976 3.616C12.9576 3.408 13.3936 3.304 13.9056 3.304V4.432H13.6176C12.3936 4.432 11.7816 5.096 11.7816 6.424V10H10.6896V3.424H11.7816V4.492ZM21.1662 6.46C21.1662 6.668 21.1542 6.888 21.1302 7.12H15.8742C15.9142 7.768 16.1342 8.276 16.5342 8.644C16.9422 9.004 17.4342 9.184 18.0102 9.184C18.4822 9.184 18.8742 9.076 19.1862 8.86C19.5062 8.636 19.7302 8.34 19.8582 7.972H21.0342C20.8582 8.604 20.5062 9.12 19.9782 9.52C19.4502 9.912 18.7942 10.108 18.0102 10.108C17.3862 10.108 16.8262 9.968 16.3302 9.688C15.8422 9.408 15.4582 9.012 15.1782 8.5C14.8982 7.98 14.7582 7.38 14.7582 6.7C14.7582 6.02 14.8942 5.424 15.1662 4.912C15.4382 4.4 15.8182 4.008 16.3062 3.736C16.8022 3.456 17.3702 3.316 18.0102 3.316C18.6342 3.316 19.1862 3.452 19.6662 3.724C20.1462 3.996 20.5142 4.372 20.7702 4.852C21.0342 5.324 21.1662 5.86 21.1662 6.46ZM20.0382 6.232C20.0382 5.816 19.9462 5.46 19.7622 5.164C19.5782 4.86 19.3262 4.632 19.0062 4.48C18.6942 4.32 18.3462 4.24 17.9622 4.24C17.4102 4.24 16.9382 4.416 16.5462 4.768C16.1622 5.12 15.9422 5.608 15.8862 6.232H20.0382ZM22.1996 6.688C22.1996 6.016 22.3356 5.428 22.6076 4.924C22.8796 4.412 23.2516 4.016 23.7236 3.736C24.2036 3.456 24.7356 3.316 25.3196 3.316C25.8956 3.316 26.3956 3.44 26.8196 3.688C27.2436 3.936 27.5596 4.248 27.7676 4.624V3.424H28.8716V10H27.7676V8.776C27.5516 9.16 27.2276 9.48 26.7956 9.736C26.3716 9.984 25.8756 10.108 25.3076 10.108C24.7236 10.108 24.1956 9.964 23.7236 9.676C23.2516 9.388 22.8796 8.984 22.6076 8.464C22.3356 7.944 22.1996 7.352 22.1996 6.688ZM27.7676 6.7C27.7676 6.204 27.6676 5.772 27.4676 5.404C27.2676 5.036 26.9956 4.756 26.6516 4.564C26.3156 4.364 25.9436 4.264 25.5356 4.264C25.1276 4.264 24.7556 4.36 24.4196 4.552C24.0836 4.744 23.8156 5.024 23.6156 5.392C23.4156 5.76 23.3156 6.192 23.3156 6.688C23.3156 7.192 23.4156 7.632 23.6156 8.008C23.8156 8.376 24.0836 8.66 24.4196 8.86C24.7556 9.052 25.1276 9.148 25.5356 9.148C25.9436 9.148 26.3156 9.052 26.6516 8.86C26.9956 8.66 27.2676 8.376 27.4676 8.008C27.6676 7.632 27.7676 7.196 27.7676 6.7ZM32.049 4.324V8.2C32.049 8.52 32.117 8.748 32.253 8.884C32.389 9.012 32.625 9.076 32.961 9.076H33.765V10H32.781C32.173 10 31.717 9.86 31.413 9.58C31.109 9.3 30.957 8.84 30.957 8.2V4.324H30.105V3.424H30.957V1.768H32.049V3.424H33.765V4.324H32.049ZM41.0881 6.46C41.0881 6.668 41.0761 6.888 41.0521 7.12H35.7961C35.8361 7.768 36.0561 8.276 36.4561 8.644C36.8641 9.004 37.3561 9.184 37.9321 9.184C38.4041 9.184 38.7961 9.076 39.1081 8.86C39.4281 8.636 39.6521 8.34 39.7801 7.972H40.9561C40.7801 8.604 40.4281 9.12 39.9001 9.52C39.3721 9.912 38.7161 10.108 37.9321 10.108C37.3081 10.108 36.7481 9.968 36.2521 9.688C35.7641 9.408 35.3801 9.012 35.1001 8.5C34.8201 7.98 34.6801 7.38 34.6801 6.7C34.6801 6.02 34.8161 5.424 35.0881 4.912C35.3601 4.4 35.7401 4.008 36.2281 3.736C36.7241 3.456 37.2921 3.316 37.9321 3.316C38.5561 3.316 39.1081 3.452 39.5881 3.724C40.0681 3.996 40.4361 4.372 40.6921 4.852C40.9561 5.324 41.0881 5.86 41.0881 6.46ZM39.9601 6.232C39.9601 5.816 39.8681 5.46 39.6841 5.164C39.5001 4.86 39.2481 4.632 38.9281 4.48C38.6161 4.32 38.2681 4.24 37.8841 4.24C37.3321 4.24 36.8601 4.416 36.4681 4.768C36.0841 5.12 35.8641 5.608 35.8081 6.232H39.9601ZM42.1215 6.688C42.1215 6.016 42.2575 5.428 42.5295 4.924C42.8015 4.412 43.1735 4.016 43.6455 3.736C44.1255 3.456 44.6615 3.316 45.2535 3.316C45.7655 3.316 46.2415 3.436 46.6815 3.676C47.1215 3.908 47.4575 4.216 47.6895 4.6V1.12H48.7935V10H47.6895V8.764C47.4735 9.156 47.1535 9.48 46.7295 9.736C46.3055 9.984 45.8095 10.108 45.2415 10.108C44.6575 10.108 44.1255 9.964 43.6455 9.676C43.1735 9.388 42.8015 8.984 42.5295 8.464C42.2575 7.944 42.1215 7.352 42.1215 6.688ZM47.6895 6.7C47.6895 6.204 47.5895 5.772 47.3895 5.404C47.1895 5.036 46.9175 4.756 46.5735 4.564C46.2375 4.364 45.8655 4.264 45.4575 4.264C45.0495 4.264 44.6775 4.36 44.3415 4.552C44.0055 4.744 43.7375 5.024 43.5375 5.392C43.3375 5.76 43.2375 6.192 43.2375 6.688C43.2375 7.192 43.3375 7.632 43.5375 8.008C43.7375 8.376 44.0055 8.66 44.3415 8.86C44.6775 9.052 45.0495 9.148 45.4575 9.148C45.8655 9.148 46.2375 9.052 46.5735 8.86C46.9175 8.66 47.1895 8.376 47.3895 8.008C47.5895 7.632 47.6895 7.196 47.6895 6.7ZM54.9301 4.648C55.1541 4.256 55.4821 3.936 55.9141 3.688C56.3461 3.44 56.8381 3.316 57.3901 3.316C57.9821 3.316 58.5141 3.456 58.9861 3.736C59.4581 4.016 59.8301 4.412 60.1021 4.924C60.3741 5.428 60.5101 6.016 60.5101 6.688C60.5101 7.352 60.3741 7.944 60.1021 8.464C59.8301 8.984 59.4541 9.388 58.9741 9.676C58.5021 9.964 57.9741 10.108 57.3901 10.108C56.8221 10.108 56.3221 9.984 55.8901 9.736C55.4661 9.488 55.1461 9.172 54.9301 8.788V10H53.8381V1.12H54.9301V4.648ZM59.3941 6.688C59.3941 6.192 59.2941 5.76 59.0941 5.392C58.8941 5.024 58.6221 4.744 58.2781 4.552C57.9421 4.36 57.5701 4.264 57.1621 4.264C56.7621 4.264 56.3901 4.364 56.0461 4.564C55.7101 4.756 55.4381 5.04 55.2301 5.416C55.0301 5.784 54.9301 6.212 54.9301 6.7C54.9301 7.196 55.0301 7.632 55.2301 8.008C55.4381 8.376 55.7101 8.66 56.0461 8.86C56.3901 9.052 56.7621 9.148 57.1621 9.148C57.5701 9.148 57.9421 9.052 58.2781 8.86C58.6221 8.66 58.8941 8.376 59.0941 8.008C59.2941 7.632 59.3941 7.192 59.3941 6.688ZM67.6114 3.424L63.6514 13.096H62.5234L63.8194 9.928L61.1674 3.424H62.3794L64.4434 8.752L66.4834 3.424H67.6114ZM76.8524 8.14H73.2044L72.5324 10H71.3804L74.4044 1.684H75.6644L78.6764 10H77.5244L76.8524 8.14ZM76.5404 7.252L75.0284 3.028L73.5164 7.252H76.5404ZM81.0863 1.12V10H79.9943V1.12H81.0863ZM84.2794 4.324V8.2C84.2794 8.52 84.3474 8.748 84.4834 8.884C84.6194 9.012 84.8554 9.076 85.1914 9.076H85.9954V10H85.0114C84.4034 10 83.9474 9.86 83.6434 9.58C83.3394 9.3 83.1874 8.84 83.1874 8.2V4.324H82.3354V3.424H83.1874V1.768H84.2794V3.424H85.9954V4.324H84.2794ZM86.9105 6.688C86.9105 6.016 87.0465 5.428 87.3185 4.924C87.5905 4.412 87.9625 4.016 88.4345 3.736C88.9145 3.456 89.4465 3.316 90.0305 3.316C90.6065 3.316 91.1065 3.44 91.5305 3.688C91.9545 3.936 92.2705 4.248 92.4785 4.624V3.424H93.5825V10H92.4785V8.776C92.2625 9.16 91.9385 9.48 91.5065 9.736C91.0825 9.984 90.5865 10.108 90.0185 10.108C89.4345 10.108 88.9065 9.964 88.4345 9.676C87.9625 9.388 87.5905 8.984 87.3185 8.464C87.0465 7.944 86.9105 7.352 86.9105 6.688ZM92.4785 6.7C92.4785 6.204 92.3785 5.772 92.1785 5.404C91.9785 5.036 91.7065 4.756 91.3625 4.564C91.0265 4.364 90.6545 4.264 90.2465 4.264C89.8385 4.264 89.4665 4.36 89.1305 4.552C88.7945 4.744 88.5265 5.024 88.3265 5.392C88.1265 5.76 88.0265 6.192 88.0265 6.688C88.0265 7.192 88.1265 7.632 88.3265 8.008C88.5265 8.376 88.7945 8.66 89.1305 8.86C89.4665 9.052 89.8385 9.148 90.2465 9.148C90.6545 9.148 91.0265 9.052 91.3625 8.86C91.7065 8.66 91.9785 8.376 92.1785 8.008C92.3785 7.632 92.4785 7.196 92.4785 6.7Z" fill="#A8A8A8"/>
<path d="M31.1833 17.25H32.4833C32.828 17.25 33.1587 17.387 33.4025 17.6308C33.6463 17.8746 33.7833 18.2052 33.7833 18.55V19.2H32.4833V18.55H31.1833V22.45H32.4833V21.8H33.7833V22.45C33.7833 22.7948 33.6463 23.1254 33.4025 23.3692C33.1587 23.613 32.828 23.75 32.4833 23.75H31.1833C30.8385 23.75 30.5078 23.613 30.264 23.3692C30.0202 23.1254 29.8833 22.7948 29.8833 22.45V18.55C29.8833 18.2052 30.0202 17.8746 30.264 17.6308C30.5078 17.387 30.8385 17.25 31.1833 17.25ZM31.8333 14C32.6868 14 33.5321 14.1681 34.3207 14.4948C35.1093 14.8214 35.8259 15.3002 36.4294 15.9038C37.033 16.5074 37.5118 17.2239 37.8385 18.0126C38.1651 18.8012 38.3333 19.6464 38.3333 20.5C38.3333 22.2239 37.6484 23.8772 36.4294 25.0962C35.2105 26.3152 33.5572 27 31.8333 27C30.9797 27 30.1344 26.8319 29.3458 26.5052C28.5572 26.1786 27.8406 25.6998 27.2371 25.0962C26.0181 23.8772 25.3333 22.2239 25.3333 20.5C25.3333 18.7761 26.0181 17.1228 27.2371 15.9038C28.456 14.6848 30.1093 14 31.8333 14V14ZM31.8333 15.3C30.4541 15.3 29.1315 15.8479 28.1563 16.823C27.1811 17.7982 26.6333 19.1209 26.6333 20.5C26.6333 21.8791 27.1811 23.2018 28.1563 24.177C29.1315 25.1521 30.4541 25.7 31.8333 25.7C33.2124 25.7 34.535 25.1521 35.5102 24.177C36.4854 23.2018 37.0333 21.8791 37.0333 20.5C37.0333 19.1209 36.4854 17.7982 35.5102 16.823C34.535 15.8479 33.2124 15.3 31.8333 15.3V15.3Z" fill="#A8A8A8"/>
<path d="M30.85 17.25H32.15C32.4948 17.25 32.8254 17.387 33.0692 17.6308C33.313 17.8746 33.45 18.2052 33.45 18.55V19.2H32.15V18.55H30.85V22.45H32.15V21.8H33.45V22.45C33.45 22.7948 33.313 23.1254 33.0692 23.3692C32.8254 23.613 32.4948 23.75 32.15 23.75H30.85C30.5052 23.75 30.1746 23.613 29.9308 23.3692C29.687 23.1254 29.55 22.7948 29.55 22.45V18.55C29.55 18.2052 29.687 17.8746 29.9308 17.6308C30.1746 17.387 30.5052 17.25 30.85 17.25ZM31.5 14C32.3536 14 33.1988 14.1681 33.9874 14.4948C34.7761 14.8214 35.4926 15.3002 36.0962 15.9038C36.6998 16.5074 37.1786 17.2239 37.5052 18.0126C37.8319 18.8012 38 19.6464 38 20.5C38 22.2239 37.3152 23.8772 36.0962 25.0962C34.8772 26.3152 33.2239 27 31.5 27C30.6464 27 29.8012 26.8319 29.0126 26.5052C28.2239 26.1786 27.5074 25.6998 26.9038 25.0962C25.6848 23.8772 25 22.2239 25 20.5C25 18.7761 25.6848 17.1228 26.9038 15.9038C28.1228 14.6848 29.7761 14 31.5 14V14ZM31.5 15.3C30.1209 15.3 28.7982 15.8479 27.823 16.823C26.8479 17.7982 26.3 19.1209 26.3 20.5C26.3 21.8791 26.8479 23.2018 27.823 24.177C28.7982 25.1521 30.1209 25.7 31.5 25.7C32.8791 25.7 34.2018 25.1521 35.177 24.177C36.1521 23.2018 36.7 21.8791 36.7 20.5C36.7 19.1209 36.1521 17.7982 35.177 16.823C34.2018 15.8479 32.8791 15.3 31.5 15.3V15.3Z" fill="#A8A8A8"/>
<path d="M43.9909 23.124C45.0069 22.308 45.8029 21.64 46.3789 21.12C46.9549 20.592 47.4389 20.044 47.8309 19.476C48.2309 18.9 48.4309 18.336 48.4309 17.784C48.4309 17.264 48.3029 16.856 48.0469 16.56C47.7989 16.256 47.3949 16.104 46.8349 16.104C46.2909 16.104 45.8669 16.276 45.5629 16.62C45.2669 16.956 45.1069 17.408 45.0829 17.976H44.0269C44.0589 17.08 44.3309 16.388 44.8429 15.9C45.3549 15.412 46.0149 15.168 46.8229 15.168C47.6469 15.168 48.2989 15.396 48.7789 15.852C49.2669 16.308 49.5109 16.936 49.5109 17.736C49.5109 18.4 49.3109 19.048 48.9109 19.68C48.5189 20.304 48.0709 20.856 47.5669 21.336C47.0629 21.808 46.4189 22.36 45.6349 22.992H49.7629V23.904H43.9909V23.124ZM51.0253 19.572C51.0253 18.196 51.2493 17.124 51.6973 16.356C52.1453 15.58 52.9293 15.192 54.0493 15.192C55.1613 15.192 55.9413 15.58 56.3893 16.356C56.8372 17.124 57.0612 18.196 57.0612 19.572C57.0612 20.972 56.8372 22.06 56.3893 22.836C55.9413 23.612 55.1613 24 54.0493 24C52.9293 24 52.1453 23.612 51.6973 22.836C51.2493 22.06 51.0253 20.972 51.0253 19.572ZM55.9813 19.572C55.9813 18.876 55.9333 18.288 55.8373 17.808C55.7493 17.32 55.5613 16.928 55.2733 16.632C54.9933 16.336 54.5853 16.188 54.0493 16.188C53.5053 16.188 53.0893 16.336 52.8013 16.632C52.5213 16.928 52.3333 17.32 52.2373 17.808C52.1493 18.288 52.1053 18.876 52.1053 19.572C52.1053 20.292 52.1493 20.896 52.2373 21.384C52.3333 21.872 52.5213 22.264 52.8013 22.56C53.0893 22.856 53.5053 23.004 54.0493 23.004C54.5853 23.004 54.9933 22.856 55.2733 22.56C55.5613 22.264 55.7493 21.872 55.8373 21.384C55.9333 20.896 55.9813 20.292 55.9813 19.572ZM58.4284 23.124C59.4444 22.308 60.2404 21.64 60.8164 21.12C61.3924 20.592 61.8764 20.044 62.2684 19.476C62.6684 18.9 62.8684 18.336 62.8684 17.784C62.8684 17.264 62.7404 16.856 62.4844 16.56C62.2364 16.256 61.8324 16.104 61.2724 16.104C60.7284 16.104 60.3044 16.276 60.0004 16.62C59.7044 16.956 59.5444 17.408 59.5204 17.976H58.4644C58.4964 17.08 58.7684 16.388 59.2804 15.9C59.7924 15.412 60.4524 15.168 61.2604 15.168C62.0844 15.168 62.7364 15.396 63.2164 15.852C63.7044 16.308 63.9484 16.936 63.9484 17.736C63.9484 18.4 63.7484 19.048 63.3484 19.68C62.9564 20.304 62.5084 20.856 62.0044 21.336C61.5004 21.808 60.8564 22.36 60.0724 22.992H64.2004V23.904H58.4284V23.124ZM65.3308 23.124C66.3468 22.308 67.1428 21.64 67.7188 21.12C68.2948 20.592 68.7788 20.044 69.1708 19.476C69.5708 18.9 69.7708 18.336 69.7708 17.784C69.7708 17.264 69.6428 16.856 69.3868 16.56C69.1388 16.256 68.7348 16.104 68.1748 16.104C67.6308 16.104 67.2068 16.276 66.9028 16.62C66.6068 16.956 66.4468 17.408 66.4228 17.976H65.3668C65.3988 17.08 65.6708 16.388 66.1828 15.9C66.6948 15.412 67.3548 15.168 68.1628 15.168C68.9868 15.168 69.6388 15.396 70.1188 15.852C70.6068 16.308 70.8508 16.936 70.8508 17.736C70.8508 18.4 70.6508 19.048 70.2508 19.68C69.8588 20.304 69.4108 20.856 68.9068 21.336C68.4028 21.808 67.7588 22.36 66.9748 22.992H71.1028V23.904H65.3308V23.124Z" fill="#A8A8A8"/>
</svg>
