<svg width="160" height="25" viewBox="0 0 160 25" fill="none" xmlns="http://www.w3.org/2000/svg">
<path d="M6.76813 18.168C5.60013 18.168 4.54413 17.968 3.60013 17.568C2.67213 17.168 1.93613 16.592 1.39213 15.84C0.848125 15.088 0.568125 14.2 0.552125 13.176H4.15213C4.20013 13.864 4.44013 14.408 4.87213 14.808C5.32013 15.208 5.92813 15.408 6.69613 15.408C7.48013 15.408 8.09613 15.224 8.54413 14.856C8.99213 14.472 9.21613 13.976 9.21613 13.368C9.21613 12.872 9.06413 12.464 8.76013 12.144C8.45613 11.824 8.07213 11.576 7.60813 11.4C7.16013 11.208 6.53613 11 5.73613 10.776C4.64813 10.456 3.76013 10.144 3.07213 9.84C2.40013 9.52 1.81613 9.048 1.32013 8.424C0.840125 7.784 0.600125 6.936 0.600125 5.88C0.600125 4.888 0.848125 4.024 1.34413 3.288C1.84013 2.552 2.53613 1.992 3.43213 1.608C4.32813 1.208 5.35213 1.008 6.50413 1.008C8.23213 1.008 9.63213 1.432 10.7041 2.28C11.7921 3.112 12.3921 4.28 12.5041 5.784H8.80813C8.77613 5.208 8.52813 4.736 8.06413 4.368C7.61613 3.984 7.01613 3.792 6.26413 3.792C5.60813 3.792 5.08013 3.96 4.68013 4.296C4.29613 4.632 4.10413 5.12 4.10413 5.76C4.10413 6.208 4.24813 6.584 4.53613 6.888C4.84013 7.176 5.20813 7.416 5.64013 7.608C6.08813 7.784 6.71213 7.992 7.51213 8.232C8.60013 8.552 9.48813 8.872 10.1761 9.192C10.8641 9.512 11.4561 9.992 11.9521 10.632C12.4481 11.272 12.6961 12.112 12.6961 13.152C12.6961 14.048 12.4641 14.88 12.0001 15.648C11.5361 16.416 10.8561 17.032 9.96013 17.496C9.06413 17.944 8.00013 18.168 6.76813 18.168ZM19.5211 7.464V13.896C19.5211 14.344 19.6251 14.672 19.8331 14.88C20.0571 15.072 20.4251 15.168 20.9371 15.168H22.4971V18H20.3851C17.5531 18 16.1371 16.624 16.1371 13.872V7.464H14.5531V4.704H16.1371V1.416H19.5211V4.704H22.4971V7.464H19.5211ZM24.0498 11.304C24.0498 9.96 24.3138 8.768 24.8418 7.728C25.3858 6.688 26.1138 5.888 27.0258 5.328C27.9538 4.768 28.9858 4.488 30.1218 4.488C31.1138 4.488 31.9778 4.688 32.7138 5.088C33.4658 5.488 34.0658 5.992 34.5138 6.6V4.704H37.8978V18H34.5138V16.056C34.0818 16.68 33.4818 17.2 32.7138 17.616C31.9618 18.016 31.0898 18.216 30.0978 18.216C28.9778 18.216 27.9538 17.928 27.0258 17.352C26.1138 16.776 25.3858 15.968 24.8418 14.928C24.3138 13.872 24.0498 12.664 24.0498 11.304ZM34.5138 11.352C34.5138 10.536 34.3538 9.84 34.0338 9.264C33.7138 8.672 33.2818 8.224 32.7378 7.92C32.1938 7.6 31.6098 7.44 30.9858 7.44C30.3618 7.44 29.7858 7.592 29.2578 7.896C28.7298 8.2 28.2978 8.648 27.9618 9.24C27.6418 9.816 27.4818 10.504 27.4818 11.304C27.4818 12.104 27.6418 12.808 27.9618 13.416C28.2978 14.008 28.7298 14.464 29.2578 14.784C29.8018 15.104 30.3778 15.264 30.9858 15.264C31.6098 15.264 32.1938 15.112 32.7378 14.808C33.2818 14.488 33.7138 14.04 34.0338 13.464C34.3538 12.872 34.5138 12.168 34.5138 11.352ZM53.8994 4.704L45.6674 24.288H42.0914L44.9714 17.664L39.6434 4.704H43.4114L46.8434 13.992L50.3234 4.704H53.8994Z" fill="#252525"/>
<path d="M75.3254 1.248V18H71.9654V10.872H64.7894V18H61.4294V1.248H64.7894V8.136H71.9654V1.248H75.3254ZM90.9926 11.064C90.9926 11.544 90.9606 11.976 90.8966 12.36H81.1766C81.2566 13.32 81.5926 14.072 82.1846 14.616C82.7766 15.16 83.5046 15.432 84.3686 15.432C85.6166 15.432 86.5046 14.896 87.0326 13.824H90.6566C90.2726 15.104 89.5366 16.16 88.4486 16.992C87.3606 17.808 86.0246 18.216 84.4406 18.216C83.1606 18.216 82.0086 17.936 80.9846 17.376C79.9766 16.8 79.1846 15.992 78.6086 14.952C78.0486 13.912 77.7686 12.712 77.7686 11.352C77.7686 9.976 78.0486 8.768 78.6086 7.728C79.1686 6.688 79.9526 5.888 80.9606 5.328C81.9686 4.768 83.1286 4.488 84.4406 4.488C85.7046 4.488 86.8326 4.76 87.8246 5.304C88.8326 5.848 89.6086 6.624 90.1526 7.632C90.7126 8.624 90.9926 9.768 90.9926 11.064ZM87.5126 10.104C87.4966 9.24 87.1846 8.552 86.5766 8.04C85.9686 7.512 85.2246 7.248 84.3446 7.248C83.5126 7.248 82.8086 7.504 82.2326 8.016C81.6726 8.512 81.3286 9.208 81.2006 10.104H87.5126ZM92.5811 11.304C92.5811 9.96 92.8451 8.768 93.3731 7.728C93.9171 6.688 94.6451 5.888 95.5571 5.328C96.4851 4.768 97.5171 4.488 98.6531 4.488C99.6451 4.488 100.509 4.688 101.245 5.088C101.997 5.488 102.597 5.992 103.045 6.6V4.704H106.429V18H103.045V16.056C102.613 16.68 102.013 17.2 101.245 17.616C100.493 18.016 99.6211 18.216 98.6291 18.216C97.5091 18.216 96.4851 17.928 95.5571 17.352C94.6451 16.776 93.9171 15.968 93.3731 14.928C92.8451 13.872 92.5811 12.664 92.5811 11.304ZM103.045 11.352C103.045 10.536 102.885 9.84 102.565 9.264C102.245 8.672 101.813 8.224 101.269 7.92C100.725 7.6 100.141 7.44 99.5171 7.44C98.8931 7.44 98.3171 7.592 97.7891 7.896C97.2611 8.2 96.8291 8.648 96.4931 9.24C96.1731 9.816 96.0131 10.504 96.0131 11.304C96.0131 12.104 96.1731 12.808 96.4931 13.416C96.8291 14.008 97.2611 14.464 97.7891 14.784C98.3331 15.104 98.9091 15.264 99.5171 15.264C100.141 15.264 100.725 15.112 101.269 14.808C101.813 14.488 102.245 14.04 102.565 13.464C102.885 12.872 103.045 12.168 103.045 11.352ZM113.071 0.24V18H109.711V0.24H113.071ZM120.302 7.464V13.896C120.302 14.344 120.406 14.672 120.614 14.88C120.838 15.072 121.206 15.168 121.718 15.168H123.278V18H121.166C118.334 18 116.918 16.624 116.918 13.872V7.464H115.334V4.704H116.918V1.416H120.302V4.704H123.278V7.464H120.302ZM133.183 4.512C134.191 4.512 135.087 4.736 135.871 5.184C136.655 5.616 137.263 6.264 137.695 7.128C138.143 7.976 138.367 9 138.367 10.2V18H135.007V10.656C135.007 9.6 134.743 8.792 134.215 8.232C133.687 7.656 132.967 7.368 132.055 7.368C131.127 7.368 130.391 7.656 129.847 8.232C129.319 8.792 129.055 9.6 129.055 10.656V18H125.695V0.24H129.055V6.36C129.487 5.784 130.063 5.336 130.783 5.016C131.503 4.68 132.303 4.512 133.183 4.512ZM154.282 4.704L146.05 24.288H142.474L145.354 17.664L140.026 4.704H143.794L147.226 13.992L150.706 4.704H154.282ZM157.582 18.168C156.974 18.168 156.47 17.984 156.07 17.616C155.686 17.232 155.494 16.76 155.494 16.2C155.494 15.64 155.686 15.176 156.07 14.808C156.47 14.424 156.974 14.232 157.582 14.232C158.174 14.232 158.662 14.424 159.046 14.808C159.43 15.176 159.622 15.64 159.622 16.2C159.622 16.76 159.43 17.232 159.046 17.616C158.662 17.984 158.174 18.168 157.582 18.168Z" fill="#4957CC"/>
</svg>
