<svg width="104" height="20" viewBox="0 0 104 20" fill="none" xmlns="http://www.w3.org/2000/svg">
<path d="M24.4113 2.248L19.7313 19H15.7713L12.6273 7.072L9.33928 19L5.40328 19.024L0.891281 2.248H4.49128L7.44328 15.256L10.8513 2.248H14.5953L17.8113 15.184L20.7873 2.248H24.4113ZM32.5092 19.216C31.2292 19.216 30.0772 18.936 29.0532 18.376C28.0292 17.8 27.2212 16.992 26.6292 15.952C26.0532 14.912 25.7652 13.712 25.7652 12.352C25.7652 10.992 26.0612 9.792 26.6532 8.752C27.2612 7.712 28.0852 6.912 29.1252 6.352C30.1652 5.776 31.3252 5.488 32.6052 5.488C33.8852 5.488 35.0452 5.776 36.0852 6.352C37.1252 6.912 37.9412 7.712 38.5332 8.752C39.1412 9.792 39.4452 10.992 39.4452 12.352C39.4452 13.712 39.1332 14.912 38.5092 15.952C37.9012 16.992 37.0692 17.8 36.0132 18.376C34.9732 18.936 33.8052 19.216 32.5092 19.216ZM32.5092 16.288C33.1172 16.288 33.6852 16.144 34.2132 15.856C34.7572 15.552 35.1892 15.104 35.5092 14.512C35.8292 13.92 35.9892 13.2 35.9892 12.352C35.9892 11.088 35.6532 10.12 34.9812 9.448C34.3252 8.76 33.5172 8.416 32.5572 8.416C31.5972 8.416 30.7892 8.76 30.1332 9.448C29.4932 10.12 29.1732 11.088 29.1732 12.352C29.1732 13.616 29.4852 14.592 30.1092 15.28C30.7492 15.952 31.5492 16.288 32.5092 16.288ZM45.2699 7.768C45.7019 7.064 46.2619 6.512 46.9499 6.112C47.6539 5.712 48.4539 5.512 49.3499 5.512V9.04H48.4619C47.4059 9.04 46.6059 9.288 46.0619 9.784C45.5339 10.28 45.2699 11.144 45.2699 12.376V19H41.9099V5.704H45.2699V7.768ZM59.485 19L54.973 13.336V19H51.613V1.24H54.973V11.344L59.437 5.704H63.805L57.949 12.376L63.853 19H59.485Z" fill="#252525"/>
<path d="M81.6914 2.248V4.96H74.7074V9.256H80.0594V11.92H74.7074V19H71.3474V2.248H81.6914ZM85.778 4.12C85.186 4.12 84.69 3.936 84.29 3.568C83.906 3.184 83.714 2.712 83.714 2.152C83.714 1.592 83.906 1.128 84.29 0.759999C84.69 0.375999 85.186 0.183999 85.778 0.183999C86.37 0.183999 86.858 0.375999 87.242 0.759999C87.642 1.128 87.842 1.592 87.842 2.152C87.842 2.712 87.642 3.184 87.242 3.568C86.858 3.936 86.37 4.12 85.778 4.12ZM87.434 5.704V19H84.074V5.704H87.434ZM94.6657 8.464V14.896C94.6657 15.344 94.7697 15.672 94.9777 15.88C95.2017 16.072 95.5697 16.168 96.0817 16.168H97.6417V19H95.5297C92.6977 19 91.2817 17.624 91.2817 14.872V8.464H89.6977V5.704H91.2817V2.416H94.6657V5.704H97.6417V8.464H94.6657ZM101.546 19.168C100.938 19.168 100.434 18.984 100.034 18.616C99.6503 18.232 99.4583 17.76 99.4583 17.2C99.4583 16.64 99.6503 16.176 100.034 15.808C100.434 15.424 100.938 15.232 101.546 15.232C102.138 15.232 102.626 15.424 103.01 15.808C103.394 16.176 103.586 16.64 103.586 17.2C103.586 17.76 103.394 18.232 103.01 18.616C102.626 18.984 102.138 19.168 101.546 19.168Z" fill="#4957CC"/>
</svg>
