<svg width="178" height="164" viewBox="0 0 178 164" fill="none" xmlns="http://www.w3.org/2000/svg">
<path d="M151.726 85.2542C186.597 103.052 186.783 131.905 152.131 149.7C117.479 167.494 61.1434 167.48 26.2726 149.7C-8.59831 131.92 -8.78052 103.052 25.8677 85.2579C60.5158 67.4633 116.859 67.4597 151.726 85.2542Z" fill="#F5F5F5"/>
<path d="M118.029 4.89986L119.815 3.96619L119.709 37.2029L117.928 38.1402L118.029 4.89986Z" fill="#F0F0F0"/>
<path d="M117.928 38.1402L119.709 37.2029L171.19 63.9731L169.404 64.9068L117.928 38.1402Z" fill="#F5F5F5"/>
<path d="M115.985 1.70862L171.567 30.6125L171.449 68.1017L115.867 39.1942L115.985 1.70862ZM169.404 64.9068L169.51 31.6701L118.029 4.89989L117.928 38.1366L169.404 64.9068Z" fill="#E0E0E0"/>
<path d="M115.984 1.70856L117.77 0.77124L173.352 29.6787L171.566 30.6124L115.984 1.70856Z" fill="#F5F5F5"/>
<path d="M171.567 30.6124L173.352 29.6787L173.235 67.168L171.449 68.1017L171.567 30.6124Z" fill="#F0F0F0"/>
<path d="M142.741 17.7524L142.635 50.9891L144.688 52.0577L144.793 18.8174L142.741 17.7524Z" fill="#E0E0E0"/>
<path d="M144.794 18.8175L144.688 52.0578L146.474 51.1242L146.575 19.7439L144.794 18.8175Z" fill="#F0F0F0"/>
<path opacity="0.2" d="M144.794 20.3128L144.798 18.8174L142.745 17.7524L142.737 19.2441L144.794 20.3128Z" fill="black"/>
<path opacity="0.2" d="M144.79 20.3128L146.231 19.5652L144.794 18.8175L144.79 20.3128Z" fill="black"/>
<path d="M31.6457 106.207C30.4998 106.806 30.4917 107.772 31.6457 108.367L35.7474 110.515C36.389 110.809 37.0987 110.962 37.8185 110.962C38.5384 110.962 39.248 110.809 39.8896 110.515L89.3413 84.638C90.4872 84.0435 90.4994 83.0734 89.3413 82.4752L85.2355 80.327C84.5939 80.033 83.8843 79.8798 83.1644 79.8798C82.4446 79.8798 81.7349 80.033 81.0933 80.327L31.6457 106.207Z" fill="#E6E6E6"/>
<path d="M38.586 132.832L75.1372 151.961C75.647 152.228 76.226 152.369 76.8156 152.369C77.4052 152.369 77.9842 152.228 78.4939 151.961L144.879 117.452C145.006 117.385 145.111 117.29 145.184 117.175C145.258 117.061 145.296 116.931 145.296 116.799C145.296 116.667 145.258 116.537 145.184 116.422C145.111 116.308 145.006 116.212 144.879 116.146L108.842 97.2828C108.334 97.0201 107.759 96.8818 107.174 96.8818C106.588 96.8818 106.013 97.0201 105.506 97.2828L38.5941 131.53C38.4677 131.596 38.3627 131.69 38.2894 131.804C38.2161 131.918 38.1771 132.047 38.1763 132.179C38.1755 132.31 38.2128 132.44 38.2847 132.554C38.3566 132.669 38.4604 132.765 38.586 132.832Z" fill="#E6E6E6"/>
<path d="M22.9399 18.8321L22.9683 26.8595L24.0453 27.4248L24.017 18.274L22.9399 18.8321Z" fill="#F0F0F0"/>
<path d="M11.3071 32.9247L11.3112 34.0481L24.0456 27.4248L22.9685 26.8595L11.3071 32.9247Z" fill="#F5F5F5"/>
<path d="M25.3168 16.2462L9.9707 24.2262L10.0071 36.0795L25.3573 28.0995L25.3168 16.2462ZM11.3069 34.0481V32.9247L11.2786 24.901L22.94 18.8357L24.017 18.2777L24.0454 27.4284L11.3069 34.0481Z" fill="#E0E0E0"/>
<path d="M25.3169 16.2462L24.2398 15.6809L8.88965 23.6609L9.97076 24.2262L25.3169 16.2462Z" fill="#F5F5F5"/>
<path d="M8.88965 23.661L8.92609 35.5143L10.0072 36.0796L9.97076 24.2263L8.88965 23.661Z" fill="#F0F0F0"/>
<path d="M22.9399 35.5617L22.9683 43.5891L24.0453 44.1544L24.017 35L22.9399 35.5617Z" fill="#F0F0F0"/>
<path d="M11.3071 49.6544L11.3112 50.7777L24.0456 44.1544L22.9685 43.5891L11.3071 49.6544Z" fill="#F5F5F5"/>
<path d="M25.3168 32.9722L9.9707 40.9558L10.0071 52.8091L25.3573 44.8255L25.3168 32.9722ZM11.3069 50.7704V49.6434L11.2786 41.6196L22.94 35.558L24.017 34.9963L24.0454 44.1508L11.3069 50.7704Z" fill="#E0E0E0"/>
<path d="M25.3169 32.9722L24.2398 32.4069L8.88965 40.3905L9.97076 40.9558L25.3169 32.9722Z" fill="#F5F5F5"/>
<path d="M8.88965 40.3905L8.92609 52.2402L10.0072 52.8091L9.97076 40.9558L8.88965 40.3905Z" fill="#F0F0F0"/>
<path d="M19.2351 21.8811L22.4177 24.1351L22.4218 26.3379L11.8455 31.8379L11.8374 29.635L13.8539 26.0316L15.6638 27.2972L15.024 29.0879L15.9553 27.4977L19.2351 21.8811Z" fill="#E0E0E0"/>
<path d="M15.7612 22.9899C16.2592 22.7309 16.6642 22.9388 16.6682 23.4567C16.6544 23.7405 16.5656 24.0173 16.4093 24.264C16.2529 24.5107 16.0335 24.7204 15.7693 24.8755C15.2713 25.1344 14.8664 24.9265 14.8623 24.4123C14.8755 24.1278 14.964 23.8503 15.1204 23.6029C15.2767 23.3555 15.4964 23.1453 15.7612 22.9899Z" fill="#E0E0E0"/>
<path d="M19.2351 38.6107L22.4177 40.8647L22.4218 43.0676L11.8455 48.5675L11.8374 46.3646L13.8539 42.7576L15.6638 44.0231L15.024 45.8139L15.9553 44.2237L19.2351 38.6107Z" fill="#E0E0E0"/>
<path d="M15.7612 39.7195C16.2592 39.4605 16.6642 39.6684 16.6682 40.1826C16.6518 40.4639 16.5619 40.7378 16.4057 40.9818C16.2494 41.2258 16.0314 41.4331 15.7693 41.5868C15.2713 41.8458 14.8664 41.6379 14.8623 41.12C14.8793 40.8393 14.9696 40.5662 15.1258 40.3229C15.2819 40.0795 15.4997 39.8728 15.7612 39.7195Z" fill="#E0E0E0"/>
<path d="M148.568 88.8322L148.564 90.0759L125.832 78.2517L125.836 77.0081L148.568 88.8322Z" fill="#4957CC"/>
<path d="M140.47 86.6002L140.466 87.8438L125.824 80.2286L125.828 78.9849L140.47 86.6002Z" fill="#4957CC"/>
<path d="M133.829 69.3454C134.067 69.4695 134.277 69.6328 134.448 69.8268C135.169 70.6037 135.347 71.6504 135.445 72.5585C135.582 73.8168 135.724 75.0751 135.849 76.3334C135.901 76.9944 136.037 77.6479 136.254 78.2809C136.488 78.9673 136.93 79.5812 137.53 80.0535C137.599 80.1022 137.672 80.1461 137.748 80.1848C137.958 80.3107 138.203 80.3779 138.455 80.3779C138.707 80.3779 138.952 80.3107 139.162 80.1848C139.563 79.8573 139.881 79.4554 140.093 79.0067C140.357 78.48 140.79 78.0366 141.336 77.7339C141.615 77.6249 141.92 77.5799 142.223 77.6028C142.526 77.6257 142.818 77.7158 143.073 77.8652C143.18 77.9221 143.283 77.9855 143.381 78.0548C144.559 78.8681 145.255 80.4656 145.81 81.8515C146.365 83.2375 147.074 84.8459 148.26 85.6227C148.338 85.6751 148.419 85.7238 148.503 85.7686C148.862 85.9639 149.28 86.0524 149.698 86.0217C150.116 85.9909 150.512 85.8424 150.831 85.5972C151.483 85.1486 152.009 84.503 152.823 84.3061C153.255 84.2303 153.703 84.2868 154.095 84.4666V90.5209L125.848 75.841L125.881 65.7784C126.411 66.6034 126.786 67.5018 126.99 68.4372C127.233 69.6481 127.176 70.9647 128.083 72.0333C128.304 72.2933 128.579 72.5114 128.893 72.6752C129.234 72.8693 129.642 72.9422 130.039 72.8795C130.598 72.7482 130.95 72.2777 131.181 71.7233C131.493 70.9939 131.634 70.0821 132.128 69.535C132.339 69.3244 132.627 69.1892 132.939 69.1544C133.252 69.1195 133.568 69.1874 133.829 69.3454Z" fill="#4957CC"/>
<path opacity="0.4" d="M133.829 69.3454C134.067 69.4695 134.277 69.6328 134.448 69.8268C135.169 70.6037 135.347 71.6504 135.445 72.5585C135.582 73.8168 135.724 75.0751 135.849 76.3334C135.901 76.9944 136.037 77.6479 136.254 78.2809C136.488 78.9673 136.93 79.5812 137.53 80.0535C137.599 80.1022 137.672 80.1461 137.748 80.1848C137.958 80.3107 138.203 80.3779 138.455 80.3779C138.707 80.3779 138.952 80.3107 139.162 80.1848C139.563 79.8573 139.881 79.4554 140.093 79.0067C140.357 78.48 140.79 78.0366 141.336 77.7339C141.615 77.6249 141.92 77.5799 142.223 77.6028C142.526 77.6257 142.818 77.7158 143.073 77.8652C143.18 77.9221 143.283 77.9855 143.381 78.0548C144.559 78.8681 145.255 80.4656 145.81 81.8515C146.365 83.2375 147.074 84.8459 148.26 85.6227C148.338 85.6751 148.419 85.7238 148.503 85.7686C148.862 85.9639 149.28 86.0524 149.698 86.0217C150.116 85.9909 150.512 85.8424 150.831 85.5972C151.483 85.1486 152.009 84.503 152.823 84.3061C153.255 84.2303 153.703 84.2868 154.095 84.4666V90.5209L125.848 75.841L125.881 65.7784C126.411 66.6034 126.786 67.5018 126.99 68.4372C127.233 69.6481 127.176 70.9647 128.083 72.0333C128.304 72.2933 128.579 72.5114 128.893 72.6752C129.234 72.8693 129.642 72.9422 130.039 72.8795C130.598 72.7482 130.95 72.2777 131.181 71.7233C131.493 70.9939 131.634 70.0821 132.128 69.535C132.339 69.3244 132.627 69.1892 132.939 69.1544C133.252 69.1195 133.568 69.1874 133.829 69.3454Z" fill="white"/>
<path d="M158.565 37.5566L126.719 20.9948C126.598 20.9201 126.46 20.8725 126.315 20.856C126.169 20.8395 126.022 20.8546 125.885 20.9H125.86L125.812 20.9255L124.524 21.5929H124.496H124.476C124.36 21.6763 124.268 21.7842 124.21 21.907C124.151 22.0298 124.127 22.1636 124.14 22.2968L124.115 30.0288C124.137 30.4191 124.262 30.7991 124.479 31.1377C124.696 31.4762 124.998 31.7636 125.362 31.9764L157.209 48.582C157.336 48.6658 157.487 48.7171 157.644 48.7306C157.802 48.744 157.96 48.7192 158.103 48.6586L159.415 47.9766C159.538 47.8923 159.636 47.781 159.697 47.6533C159.759 47.5256 159.783 47.3857 159.768 47.2471L159.792 39.5151C159.772 39.1249 159.651 38.7443 159.438 38.4041C159.225 38.0638 158.926 37.7735 158.565 37.5566Z" fill="#4957CC"/>
<path opacity="0.3" d="M158.565 37.5566L126.719 20.9948C126.598 20.9201 126.459 20.8725 126.314 20.856C126.169 20.8395 126.022 20.8546 125.884 20.9H125.86L125.812 20.9255L124.524 21.5929C124.665 21.5382 124.819 21.5172 124.971 21.5319C125.124 21.5466 125.27 21.5965 125.394 21.6768L157.241 38.2386C157.758 38.5415 158.148 38.9924 158.346 39.5188L159.674 38.8367C159.475 38.3095 159.084 37.8584 158.565 37.5566Z" fill="white"/>
<path opacity="0.2" d="M158.346 39.5262C158.437 39.7393 158.485 39.9653 158.488 40.1936L158.463 47.9292C158.48 48.0687 158.456 48.2097 158.393 48.3379C158.329 48.4661 158.229 48.5768 158.103 48.6587L159.415 47.9767C159.538 47.8924 159.635 47.7811 159.697 47.6534C159.759 47.5257 159.783 47.3858 159.767 47.2472L159.791 39.5152C159.787 39.2883 159.739 39.0638 159.65 38.8514L158.346 39.5262Z" fill="black"/>
<path d="M133.039 28.6721C133.732 29.7663 133.789 30.9151 133.214 31.4112L130.938 30.2295L130.78 28.9894C130.774 28.9538 130.761 28.9196 130.74 28.8889C130.719 28.8581 130.691 28.8316 130.659 28.8107C130.594 28.7779 130.541 28.8107 130.533 28.8581L130.201 30.6817L129.772 27.764C129.765 27.7287 129.75 27.695 129.729 27.6649C129.707 27.6348 129.679 27.609 129.646 27.5889C129.636 27.5805 129.623 27.575 129.609 27.573C129.596 27.571 129.582 27.5726 129.569 27.5776C129.556 27.5826 129.545 27.5908 129.537 27.6012C129.529 27.6116 129.525 27.6238 129.525 27.6363L129.213 29.6386L128.901 28.136C128.886 28.0693 128.842 28.0106 128.78 27.9719C128.719 27.9427 128.671 27.9719 128.658 28.0047L128.375 28.891L126.516 27.9245C125.945 26.8303 126.01 25.7362 126.711 25.3714C126.934 25.2808 127.18 25.2448 127.424 25.2672C127.668 25.2896 127.901 25.3696 128.1 25.4991C128.677 25.8233 129.152 26.2753 129.48 26.8121L129.885 27.4248L130.29 27.2206C130.513 27.1309 130.758 27.0955 131.001 27.1179C131.244 27.1403 131.477 27.2197 131.675 27.3482C132.248 27.6776 132.717 28.1333 133.039 28.6721ZM130.646 29.7663L130.323 31.5607C130.323 31.6154 130.262 31.6336 130.201 31.6008C130.167 31.5823 130.139 31.5574 130.117 31.5278C130.095 31.4981 130.081 31.4645 130.076 31.4294L129.671 28.5554L129.383 30.4082C129.383 30.4665 129.322 30.4848 129.258 30.4592C129.226 30.4404 129.198 30.4158 129.177 30.3869C129.156 30.358 129.142 30.3255 129.136 30.2915L128.784 28.6028L128.61 29.1608C128.61 29.2083 128.545 29.2228 128.488 29.1937L126.755 28.2928L127.112 28.8508L129.873 33.1581L132.651 31.7285L133.007 31.5461L130.849 30.4228C130.815 30.4034 130.787 30.3777 130.765 30.3475C130.743 30.3173 130.729 30.2833 130.723 30.2477L130.646 29.7663Z" fill="#4957CC"/>
<path d="M129.647 27.5925C129.679 27.6126 129.708 27.6384 129.729 27.6685C129.751 27.6986 129.765 27.7323 129.772 27.7675L130.201 30.6853L130.533 28.8617C130.533 28.8033 130.594 28.7815 130.659 28.8143C130.691 28.8351 130.719 28.8617 130.74 28.8924C130.761 28.9231 130.774 28.9574 130.78 28.993L130.938 30.233L133.214 31.4147L134.505 32.0858C134.542 32.1075 134.572 32.1366 134.594 32.1708C134.616 32.205 134.629 32.2433 134.631 32.2827C134.631 32.352 134.574 32.3812 134.501 32.3447L132.991 31.5606L130.833 30.4373C130.799 30.4179 130.771 30.3922 130.749 30.362C130.727 30.3318 130.713 30.2978 130.707 30.2622L130.647 29.7808L130.323 31.5752C130.323 31.6299 130.262 31.6481 130.201 31.6153C130.168 31.5968 130.139 31.5719 130.117 31.5423C130.095 31.5126 130.081 31.479 130.076 31.4439L129.671 28.5699L129.383 30.4227C129.383 30.4349 129.379 30.4468 129.372 30.4571C129.365 30.4673 129.354 30.4756 129.342 30.4809C129.33 30.4862 129.316 30.4883 129.303 30.4871C129.289 30.4858 129.277 30.4812 129.266 30.4737C129.232 30.4565 129.202 30.4324 129.18 30.4033C129.157 30.3742 129.142 30.341 129.136 30.306L128.784 28.6173L128.61 29.1754C128.61 29.2228 128.545 29.2374 128.488 29.2082L126.755 28.3073L125.245 27.5195C125.209 27.4992 125.179 27.4714 125.157 27.4384C125.135 27.4054 125.122 27.3682 125.12 27.3299C125.12 27.2569 125.176 27.2278 125.245 27.2606L126.533 27.9317L128.391 28.8982L128.675 28.0119C128.675 27.9645 128.735 27.9499 128.788 27.9754C128.821 27.9943 128.849 28.0189 128.871 28.0477C128.894 28.0765 128.909 28.1089 128.918 28.1432L129.229 29.6458L129.541 27.6435C129.543 27.633 129.547 27.623 129.553 27.6142C129.56 27.6055 129.569 27.5983 129.579 27.5933C129.589 27.5883 129.601 27.5856 129.613 27.5854C129.624 27.5853 129.636 27.5877 129.647 27.5925Z" fill="white"/>
<path opacity="0.4" d="M133.039 28.6721C133.732 29.7663 133.789 30.9151 133.214 31.4112L130.938 30.2295L130.78 28.9894C130.774 28.9538 130.761 28.9196 130.74 28.8889C130.719 28.8581 130.691 28.8316 130.659 28.8107C130.594 28.7779 130.541 28.8107 130.533 28.8581L130.201 30.6817L129.772 27.764C129.765 27.7287 129.75 27.695 129.729 27.6649C129.707 27.6348 129.679 27.609 129.646 27.5889C129.636 27.5805 129.623 27.575 129.609 27.573C129.596 27.571 129.582 27.5726 129.569 27.5776C129.556 27.5826 129.545 27.5908 129.537 27.6012C129.529 27.6116 129.525 27.6238 129.525 27.6363L129.213 29.6386L128.901 28.136C128.886 28.0693 128.842 28.0106 128.78 27.9719C128.719 27.9427 128.671 27.9719 128.658 28.0047L128.375 28.891L126.516 27.9245C125.945 26.8303 126.01 25.7362 126.711 25.3714C126.934 25.2808 127.18 25.2448 127.424 25.2672C127.668 25.2896 127.901 25.3696 128.1 25.4991C128.677 25.8233 129.152 26.2753 129.48 26.8121L129.885 27.4248L130.29 27.2206C130.513 27.1309 130.758 27.0955 131.001 27.1179C131.244 27.1403 131.477 27.2197 131.675 27.3482C132.248 27.6776 132.717 28.1333 133.039 28.6721ZM130.646 29.7663L130.323 31.5607C130.323 31.6154 130.262 31.6336 130.201 31.6008C130.167 31.5823 130.139 31.5574 130.117 31.5278C130.095 31.4981 130.081 31.4645 130.076 31.4294L129.671 28.5554L129.383 30.4082C129.383 30.4665 129.322 30.4848 129.258 30.4592C129.226 30.4404 129.198 30.4158 129.177 30.3869C129.156 30.358 129.142 30.3255 129.136 30.2915L128.784 28.6028L128.61 29.1608C128.61 29.2083 128.545 29.2228 128.488 29.1937L126.755 28.2928L127.112 28.8508L129.873 33.1581L132.651 31.7285L133.007 31.5461L130.849 30.4228C130.815 30.4034 130.787 30.3777 130.765 30.3475C130.743 30.3173 130.729 30.2833 130.723 30.2477L130.646 29.7663Z" fill="white"/>
<path d="M152.005 42.9545L152.001 44.231L135.493 35.6455L135.497 34.369L152.005 42.9545Z" fill="white"/>
<path d="M155.184 42.101L155.18 43.3812L135.501 33.1472L135.506 31.8671L155.184 42.101Z" fill="white"/>
<path d="M142.275 32.881L142.271 34.1575L135.509 30.6416L135.513 29.3651L142.275 32.881Z" fill="white"/>
<path d="M158.565 52.634L126.719 36.0722C126.598 35.9975 126.46 35.9499 126.315 35.9334C126.169 35.9169 126.022 35.9319 125.885 35.9773H125.86L125.812 36.0029L124.524 36.6703H124.496H124.476C124.36 36.7537 124.268 36.8616 124.21 36.9844C124.151 37.1071 124.127 37.241 124.14 37.3742L124.115 45.1062C124.137 45.4965 124.262 45.8765 124.479 46.2151C124.696 46.5536 124.998 46.841 125.362 47.0538L157.209 63.6156C157.336 63.6994 157.487 63.7507 157.644 63.7642C157.802 63.7777 157.96 63.7528 158.103 63.6922L159.415 63.0102C159.539 62.9267 159.637 62.8155 159.699 62.6875C159.761 62.5596 159.784 62.4194 159.768 62.2807L159.792 54.5451C159.764 54.163 159.64 53.7917 159.427 53.4602C159.214 53.1287 158.919 52.846 158.565 52.634Z" fill="#4957CC"/>
<path opacity="0.3" d="M158.565 52.634L126.719 36.0722C126.598 35.9975 126.459 35.9499 126.314 35.9334C126.169 35.9169 126.022 35.9319 125.884 35.9773H125.86L125.812 36.0029L124.524 36.6703C124.665 36.6156 124.819 36.5946 124.971 36.6093C125.124 36.624 125.27 36.6739 125.394 36.7542L157.241 53.3233C157.758 53.6262 158.148 54.0771 158.346 54.6034L159.674 53.9214C159.477 53.3915 159.086 52.9377 158.565 52.634Z" fill="white"/>
<path opacity="0.2" d="M158.346 54.6036C158.437 54.8166 158.485 55.0427 158.488 55.271L158.463 63.0066C158.48 63.1461 158.456 63.2871 158.393 63.4153C158.329 63.5435 158.229 63.6542 158.103 63.7361L159.415 63.0541C159.539 62.9705 159.637 62.8593 159.698 62.7314C159.76 62.6035 159.784 62.4633 159.767 62.3246L159.791 54.589C159.786 54.3632 159.739 54.14 159.65 53.9288L158.346 54.6036Z" fill="black"/>
<path d="M153.665 58.8635L153.661 60.14L144.648 55.4534L144.652 54.1732L153.665 58.8635Z" fill="white"/>
<path d="M154.803 56.9449L154.799 58.2251L144.652 52.9477L144.656 51.6711L154.803 56.9449Z" fill="white"/>
<path d="M149.175 51.5143L149.171 52.7908L144.66 50.4457L144.664 49.1692L149.175 51.5143Z" fill="white"/>
<path d="M130.756 44.1288C130.902 44.2139 131.024 44.3291 131.111 44.4647C131.198 44.6004 131.248 44.7528 131.258 44.9093V45.7737C131.258 46.0582 131.027 46.1749 130.752 46.0327L129.917 45.5987C129.773 45.5125 129.652 45.3971 129.566 45.2616C129.479 45.1261 129.429 44.9742 129.419 44.8182V43.9538C129.419 43.6657 129.646 43.5526 129.922 43.6948L130.756 44.1288Z" fill="white"/>
<path opacity="0.4" d="M130.351 40.8245L130.473 40.8938V41.9333C130.432 41.9068 130.39 41.8825 130.347 41.8603C128.748 41.0288 127.444 41.6962 127.436 43.3557C127.457 44.0949 127.659 44.8208 128.027 45.482L127.168 45.5804C126.71 44.7223 126.46 43.7861 126.436 42.8341C126.44 40.6057 128.197 39.7048 130.351 40.8245Z" fill="white"/>
<path d="M130.473 40.8938C132.57 42.0536 134.25 44.7087 134.242 46.8934C134.234 49.0781 132.477 50.0227 130.327 48.903C128.931 48.1025 127.832 46.9458 127.168 45.5804L128.027 45.4819C128.522 46.46 129.321 47.2883 130.327 47.8672C131.946 48.6987 133.234 48.0277 133.238 46.3719C133.184 45.4908 132.907 44.6327 132.428 43.8632C131.948 43.0938 131.279 42.4336 130.473 41.9332V40.8938Z" fill="white"/>
<path opacity="0.4" d="M139.032 45.3397L139.158 45.409V46.4485C139.117 46.422 139.075 46.3977 139.032 46.3755C137.433 45.544 136.129 46.2114 136.125 47.8709C136.145 48.6098 136.345 49.3358 136.712 49.9972L135.858 50.0956C135.396 49.2383 135.145 48.3017 135.121 47.3493C135.125 45.1209 136.882 44.2054 139.032 45.3397Z" fill="white"/>
<path d="M139.441 48.644C139.586 48.7299 139.707 48.8453 139.793 48.9809C139.88 49.1164 139.93 49.2684 139.939 49.4245V50.2852C139.939 50.5733 139.717 50.6901 139.437 50.5478L138.603 50.1138C138.458 50.0281 138.337 49.9127 138.25 49.7771C138.164 49.6415 138.114 49.4895 138.105 49.3333V48.4689C138.105 48.1808 138.332 48.0677 138.611 48.21L139.441 48.644Z" fill="white"/>
<path d="M139.158 45.4089C141.251 46.5687 142.931 49.2239 142.923 51.4085C142.915 53.5932 141.162 54.5378 139.008 53.4181C137.612 52.6182 136.514 51.4613 135.854 50.0955L136.708 49.9971C137.205 50.9754 138.005 51.8036 139.012 52.3823C140.611 53.2139 141.915 52.5428 141.923 50.887C141.869 50.0056 141.591 49.1471 141.111 48.3776C140.631 47.6081 139.961 46.9481 139.154 46.4484L139.158 45.4089Z" fill="white"/>
<path d="M128.051 53.0644C128.255 53.1835 128.425 53.345 128.546 53.5353C128.668 53.7257 128.736 53.9394 128.747 54.1586V55.3585C128.747 55.756 128.435 55.9165 128.047 55.7232L126.889 55.1214C126.686 55.001 126.517 54.8392 126.397 54.6491C126.277 54.4589 126.208 54.2459 126.196 54.0273V52.8273C126.196 52.4298 126.512 52.2693 126.893 52.4626L128.051 53.0644Z" fill="#4957CC"/>
<path d="M128.043 56.4417C128.247 56.561 128.416 56.7226 128.537 56.913C128.657 57.1033 128.725 57.3169 128.735 57.5359V58.7358C128.735 59.1333 128.424 59.2938 128.039 59.1005L126.881 58.4987C126.677 58.3794 126.507 58.2178 126.387 58.0275C126.267 57.8371 126.198 57.6235 126.188 57.4046V56.201C126.188 55.8035 126.5 55.643 126.885 55.8363L128.043 56.4417Z" fill="#4957CC"/>
<path d="M128.031 59.8226C128.235 59.9419 128.405 60.1034 128.526 60.2937C128.647 60.484 128.716 60.6976 128.727 60.9167V62.1166C128.727 62.5142 128.411 62.6746 128.027 62.4813L126.869 61.8796C126.665 61.7601 126.496 61.5984 126.375 61.4081C126.255 61.2178 126.187 61.0043 126.176 60.7854V59.5855C126.176 59.1916 126.488 59.0311 126.873 59.2208L128.031 59.8226Z" fill="#4957CC"/>
<path d="M147.519 70.6802L147.515 71.8728L129.917 62.7184L129.922 61.5258L147.519 70.6802Z" fill="#4957CC"/>
<path d="M154.536 70.9428L154.532 72.1391L129.926 59.3448L129.93 58.1486L154.536 70.9428Z" fill="#4957CC"/>
<path d="M151.289 65.8732L151.285 67.0659L129.938 55.9675L129.942 54.7712L151.289 65.8732Z" fill="#4957CC"/>
<path d="M86.693 13.0257C86.693 9.95115 85.4782 7.79202 83.5306 6.77446L79.1616 4.45121L79.1009 4.42204C78.9263 4.33092 78.745 4.2505 78.5583 4.18132C78.5239 4.16876 78.4887 4.1578 78.453 4.1485L78.2668 4.09014C78.1737 4.06097 78.0846 4.02449 77.9874 3.99896C77.8902 3.97343 77.7768 3.9552 77.6756 3.93332L77.4813 3.89684C77.4481 3.88742 77.4143 3.88011 77.38 3.87496C77.163 3.84066 76.944 3.81753 76.7241 3.80566H76.5257C76.3556 3.80566 76.1856 3.80566 76.0074 3.80566L75.8292 3.8239L75.5053 3.85308C75.4041 3.85308 75.3028 3.85308 75.2016 3.87861L74.9303 3.93332C74.7846 3.9552 74.6388 3.98438 74.489 4.0172C74.408 4.0172 74.3311 4.04273 74.2501 4.06461C74.0679 4.10838 73.8857 4.15944 73.6994 4.21415H73.6427C73.42 4.2798 73.2014 4.35639 72.9746 4.44027L72.7074 4.54969L72.4523 4.65546C72.1243 4.79405 71.7963 4.94358 71.4602 5.11865L39.5209 21.7315C39.1727 21.9139 38.8285 22.1108 38.4884 22.3224L38.1645 22.5339C37.9337 22.6834 37.7069 22.8366 37.4802 22.9971L37.1117 23.2743C36.9052 23.4311 36.7068 23.5916 36.5003 23.7557L36.1359 24.0621L35.9051 24.2554C35.8281 24.3247 35.7512 24.4049 35.6743 24.4778C35.4313 24.7003 35.1884 24.9301 34.9535 25.1672C34.8807 25.2437 34.7997 25.313 34.7227 25.3896L34.5405 25.5902C34.3988 25.7398 34.2611 25.8966 34.1356 26.0498C34.0101 26.2029 33.9494 26.2504 33.8603 26.3525C33.7712 26.4546 33.7186 26.5275 33.6497 26.6151C33.5809 26.7026 33.4473 26.8558 33.3501 26.9798L33.1395 27.2314C33.0262 27.3773 32.9209 27.5269 32.8116 27.6764L32.601 27.9572L32.516 28.0739C32.3216 28.3475 32.1354 28.621 31.9532 28.9019L31.9208 28.9566L31.8155 29.1243C31.69 29.3213 31.5644 29.5219 31.447 29.7225C31.3903 29.8136 31.3417 29.9085 31.2891 30.0033L31.1231 30.2951C31.0785 30.3826 31.0259 30.4665 30.9814 30.5504C30.8558 30.7801 30.7425 31.0099 30.6291 31.2433L30.5684 31.3637L30.5481 31.3965C30.4104 31.6883 30.2768 31.9801 30.1432 32.2718C30.123 32.3265 30.1027 32.3813 30.0784 32.436C30.0541 32.4907 29.9974 32.6475 29.9529 32.7533C29.9084 32.859 29.8314 33.045 29.7788 33.1946C29.7261 33.3441 29.7018 33.4207 29.6614 33.5374C29.6209 33.6541 29.5682 33.8037 29.5277 33.935C29.4872 34.0662 29.467 34.1027 29.4427 34.1866C29.3941 34.3361 29.3617 34.4857 29.3212 34.6352C29.2807 34.7847 29.2241 34.9671 29.1836 35.1312C29.1836 35.1896 29.1512 35.2479 29.135 35.3063C29.1066 35.4266 29.0945 35.5434 29.0702 35.671C29.0135 35.93 28.9609 36.1889 28.9204 36.4479C28.9204 36.5208 28.888 36.5937 28.8799 36.663C28.8556 36.8272 28.8434 36.9876 28.8272 37.1518C28.811 37.3159 28.7989 37.3815 28.7908 37.4946C28.7584 37.8593 28.7382 38.224 28.7422 38.5705L28.8799 94.0841C28.8799 97.1587 30.0946 99.3214 32.0422 100.339L36.4153 102.67C36.2924 102.601 36.1735 102.527 36.0589 102.447C38.0511 103.698 40.9179 103.654 44.1126 101.991L76.0438 85.3747C82.0203 82.2673 86.8549 74.7286 86.8347 68.5357L86.693 13.0257Z" fill="#4957CC"/>
<path opacity="0.6" d="M86.693 13.0257C86.693 9.95115 85.4782 7.79202 83.5306 6.77446L79.1616 4.45121L79.1009 4.42204C78.9263 4.33092 78.745 4.2505 78.5583 4.18132C78.5239 4.16876 78.4887 4.1578 78.453 4.1485L78.2668 4.09014C78.1737 4.06097 78.0846 4.02449 77.9874 3.99896C77.8902 3.97343 77.7768 3.9552 77.6756 3.93332L77.4813 3.89684C77.4481 3.88742 77.4143 3.88011 77.38 3.87496C77.163 3.84066 76.944 3.81753 76.7241 3.80566H76.5257C76.3556 3.80566 76.1856 3.80566 76.0074 3.80566L75.8292 3.8239L75.5053 3.85308C75.4041 3.85308 75.3028 3.85308 75.2016 3.87861L74.9303 3.93332C74.7846 3.9552 74.6388 3.98438 74.489 4.0172C74.408 4.0172 74.3311 4.04273 74.2501 4.06461C74.0679 4.10838 73.8857 4.15944 73.6994 4.21415H73.6427C73.42 4.2798 73.2014 4.35639 72.9746 4.44027L72.7074 4.54969L72.4523 4.65546C72.1243 4.79405 71.7963 4.94358 71.4602 5.11865L39.5209 21.7315C39.1727 21.9139 38.8285 22.1108 38.4884 22.3224L38.1645 22.5339C37.9337 22.6834 37.7069 22.8366 37.4802 22.9971L37.1117 23.2743C36.9052 23.4311 36.7068 23.5916 36.5003 23.7557L36.1359 24.0621L35.9051 24.2554C35.8281 24.3247 35.7512 24.4049 35.6743 24.4778C35.4313 24.7003 35.1884 24.9301 34.9535 25.1672C34.8807 25.2437 34.7997 25.313 34.7227 25.3896L34.5405 25.5902C34.3988 25.7398 34.2611 25.8966 34.1356 26.0498C34.0101 26.2029 33.9494 26.2504 33.8603 26.3525C33.7712 26.4546 33.7186 26.5275 33.6497 26.6151C33.5809 26.7026 33.4473 26.8558 33.3501 26.9798L33.1395 27.2314C33.0262 27.3773 32.9209 27.5269 32.8116 27.6764L32.601 27.9572L32.516 28.0739C32.3216 28.3475 32.1354 28.621 31.9532 28.9019L31.9208 28.9566L31.8155 29.1243C31.69 29.3213 31.5644 29.5219 31.447 29.7225C31.3903 29.8136 31.3417 29.9085 31.2891 30.0033L31.1231 30.2951C31.0785 30.3826 31.0259 30.4665 30.9814 30.5504C30.8558 30.7801 30.7425 31.0099 30.6291 31.2433L30.5684 31.3637L30.5481 31.3965C30.4104 31.6883 30.2768 31.9801 30.1432 32.2718C30.123 32.3265 30.1027 32.3813 30.0784 32.436C30.0541 32.4907 29.9974 32.6475 29.9529 32.7533C29.9084 32.859 29.8314 33.045 29.7788 33.1946C29.7261 33.3441 29.7018 33.4207 29.6614 33.5374C29.6209 33.6541 29.5682 33.8037 29.5277 33.935C29.4872 34.0662 29.467 34.1027 29.4427 34.1866C29.3941 34.3361 29.3617 34.4857 29.3212 34.6352C29.2807 34.7847 29.2241 34.9671 29.1836 35.1312C29.1836 35.1896 29.1512 35.2479 29.135 35.3063C29.1066 35.4266 29.0945 35.5434 29.0702 35.671C29.0135 35.93 28.9609 36.1889 28.9204 36.4479C28.9204 36.5208 28.888 36.5937 28.8799 36.663C28.8556 36.8272 28.8434 36.9876 28.8272 37.1518C28.811 37.3159 28.7989 37.3815 28.7908 37.4946C28.7584 37.8593 28.7382 38.224 28.7422 38.5705L28.8799 94.0841C28.8799 97.1587 30.0946 99.3214 32.0422 100.339L36.4153 102.67C36.2924 102.601 36.1735 102.527 36.0589 102.447C38.0511 103.698 40.9179 103.654 44.1126 101.991L76.0438 85.3747C82.0203 82.2673 86.8549 74.7286 86.8347 68.5357L86.693 13.0257Z" fill="white"/>
<path opacity="0.1" d="M33.245 96.4037L33.1235 40.8938L28.7505 38.5632L28.8882 94.0768C28.8882 97.1514 30.1029 99.3142 32.0505 100.332L36.4235 102.662C34.4638 101.645 33.2571 99.4819 33.245 96.4037Z" fill="black"/>
<path opacity="0.3" d="M77.0804 6.88388C77.3856 6.75761 77.6978 6.64562 78.0157 6.54834H78.0724C78.3397 6.4681 78.6029 6.4061 78.8822 6.35139L79.3236 6.26386C79.518 6.23103 79.7083 6.2055 79.8986 6.18727L80.2225 6.15444C80.4545 6.1436 80.687 6.1436 80.9189 6.15444H81.0769C81.3487 6.16907 81.6192 6.19953 81.8867 6.24562L82.081 6.28574C82.2812 6.3281 82.4785 6.38046 82.6722 6.44257L82.8585 6.49728C83.1029 6.58307 83.3398 6.68549 83.5671 6.80364L79.1616 4.45121L79.1009 4.42204C78.9262 4.33092 78.745 4.2505 78.5583 4.18132C78.5239 4.16876 78.4887 4.1578 78.453 4.1485L78.2668 4.09014C78.1737 4.06097 78.0846 4.02449 77.9874 3.99896C77.8902 3.97343 77.7768 3.9552 77.6756 3.93332L77.4813 3.89684C77.4481 3.88742 77.4143 3.88011 77.38 3.87496C77.163 3.84066 76.944 3.81753 76.7241 3.80566H76.5257C76.3556 3.80566 76.1855 3.80566 76.0074 3.80566L75.8292 3.8239L75.5053 3.85308C75.4041 3.85308 75.3028 3.85308 75.2016 3.87861L74.9303 3.93332C74.7846 3.9552 74.6388 3.98438 74.489 4.0172C74.408 4.0172 74.3311 4.04273 74.2501 4.06461C74.0679 4.10838 73.8857 4.15944 73.6994 4.21415H73.6427C73.42 4.2798 73.2014 4.35639 72.9746 4.44027L72.7074 4.54969L72.4523 4.65546C72.1243 4.79405 71.7963 4.94358 71.4602 5.11865L39.5209 21.7315C39.1727 21.9139 38.8285 22.1108 38.4884 22.3224L38.1645 22.5375C37.9337 22.6834 37.7069 22.8366 37.4802 22.9971L37.1117 23.2743C36.9052 23.4311 36.7068 23.5916 36.5003 23.7557L36.1359 24.0621L35.9051 24.2554C35.8281 24.3247 35.7512 24.4049 35.6743 24.4778C35.4313 24.7003 35.1884 24.9301 34.9535 25.1672C34.8807 25.2437 34.7997 25.313 34.7227 25.3896L34.5405 25.5902C34.3988 25.7398 34.2611 25.8966 34.1356 26.0498C34.0101 26.2029 33.9494 26.2504 33.8603 26.3525C33.7712 26.4546 33.7186 26.5275 33.6497 26.6151C33.5809 26.7026 33.4473 26.8558 33.3501 26.9798L33.1395 27.2314C33.0262 27.3773 32.9209 27.5269 32.8116 27.6764L32.601 27.9572L32.516 28.0739C32.3216 28.3475 32.1354 28.621 31.9532 28.9019L31.9208 28.9566L31.8155 29.1243C31.69 29.3249 31.5644 29.5219 31.447 29.7225C31.3903 29.8136 31.3417 29.9085 31.2891 30.0033L31.1231 30.2951C31.0785 30.3826 31.0259 30.4665 30.9814 30.5504C30.8558 30.7801 30.7425 31.0099 30.6291 31.2433L30.5684 31.3637L30.5481 31.3965C30.4104 31.6883 30.2768 31.9801 30.1432 32.2718C30.123 32.3266 30.1027 32.3813 30.0784 32.436C30.0541 32.4907 29.9974 32.6475 29.9529 32.7533C29.9084 32.859 29.8314 33.045 29.7788 33.1946C29.7261 33.3441 29.7018 33.4207 29.6614 33.5374C29.6209 33.6541 29.5682 33.8037 29.5277 33.935C29.4872 34.0663 29.467 34.1027 29.4427 34.1866C29.3941 34.3361 29.3617 34.4857 29.3212 34.6352C29.2807 34.7847 29.2241 34.9671 29.1836 35.1312C29.1836 35.1896 29.1512 35.2479 29.135 35.3063C29.1066 35.4267 29.0945 35.5434 29.0702 35.671C29.0135 35.93 28.9609 36.1889 28.9204 36.4479C28.9204 36.5208 28.888 36.5937 28.8799 36.663C28.8556 36.8272 28.8434 36.9876 28.8272 37.1518C28.811 37.3159 28.7989 37.3815 28.7908 37.4946C28.7584 37.8593 28.7382 38.224 28.7422 38.5705L33.1152 40.9011C33.1152 40.5363 33.1152 40.1716 33.1598 39.8251C33.1598 39.7084 33.1881 39.5954 33.2003 39.4787C33.2246 39.2452 33.257 39.0118 33.2934 38.7784C33.3298 38.545 33.3865 38.2605 33.4432 38.0016C33.4797 37.8228 33.5121 37.6368 33.5566 37.4691C33.6011 37.3013 33.6457 37.1372 33.6943 36.9694C33.7591 36.7396 33.8238 36.5062 33.8967 36.2728C33.9413 36.1415 33.9898 36.0065 34.0344 35.8716C34.1275 35.6127 34.2247 35.3501 34.3259 35.0911C34.3664 34.9853 34.4069 34.8759 34.4514 34.7702C34.6013 34.4054 34.7592 34.0407 34.9333 33.7015L34.994 33.5775C35.1519 33.2602 35.3139 32.9466 35.488 32.6329C35.5407 32.5344 35.5973 32.436 35.654 32.3411C35.82 32.0457 35.9982 31.7539 36.1804 31.4622L36.2857 31.2944C36.5043 30.9552 36.7311 30.6233 36.9659 30.2951L37.1765 30.0106C37.3506 29.7772 37.5288 29.5474 37.711 29.3176L38.0147 28.9529C38.1726 28.7633 38.3386 28.5882 38.5005 28.3913L38.9055 27.9281L39.3104 27.5086C39.5452 27.2716 39.7882 27.0418 40.0311 26.8193C40.185 26.6771 40.3348 26.5385 40.4927 26.4035C40.6506 26.2686 40.7357 26.1957 40.8571 26.0972C41.0596 25.9294 41.262 25.7689 41.4685 25.6158L41.837 25.3386C42.0638 25.1781 42.2905 25.0249 42.5213 24.8754C42.6306 24.8061 42.7359 24.7295 42.8452 24.6638C43.1854 24.4523 43.5295 24.2554 43.8778 24.073L75.8171 7.46378C76.1532 7.28871 76.4811 7.13918 76.8091 7.00059L77.0804 6.88388Z" fill="white"/>
<path d="M38.6908 96.3892C38.6908 97.5964 38.9864 98.2128 39.1362 98.4024C39.182 98.406 39.2281 98.406 39.2739 98.4024C39.5209 98.4024 40.2173 98.3368 41.3835 97.7314L73.3228 81.1221C77.6351 78.8791 81.421 73.0035 81.3886 68.543L81.3562 54.2826L38.6382 76.7382L38.6908 96.3892Z" fill="#4957CC"/>
<path d="M81.2513 13.0403C81.2513 11.8185 80.9435 11.2168 80.7978 11.0271H80.6156H80.49L80.3119 11.0526L80.1418 11.0855C80.0365 11.1073 79.8867 11.1438 79.7774 11.1766H79.7248C79.6154 11.2131 79.4697 11.2642 79.3199 11.3335L79.17 11.3955C78.9271 11.4976 78.7368 11.5851 78.5708 11.6727L46.6314 28.2819C46.433 28.3876 46.2265 28.5116 45.9795 28.6466L45.7366 28.8034C45.5787 28.9092 45.4208 29.0149 45.2669 29.1244L45.0482 29.2848L45.0037 29.3213C44.8498 29.4344 44.7041 29.5511 44.5583 29.6678L44.287 29.8976L43.9955 30.1638L43.9428 30.2112C43.7566 30.379 43.5744 30.5541 43.4003 30.7328L43.3395 30.7911L43.0804 31.0537L42.7524 31.4184C42.6228 31.5643 42.4933 31.7102 42.3718 31.8597L42.1329 32.1442C41.9912 32.3266 41.8495 32.5089 41.728 32.6949L41.5579 32.9211C41.3636 33.1946 41.1814 33.4609 41.0234 33.7052L40.9344 33.8475C40.7886 34.0772 40.6509 34.3106 40.5294 34.5441L40.3999 34.7738C40.2622 35.0218 40.1326 35.2698 39.995 35.5033C39.9707 35.5507 39.9504 35.5981 39.9221 35.6492C39.8087 35.8899 39.6913 36.1525 39.5658 36.4479L39.4686 36.6959C39.3876 36.8965 39.3147 37.0971 39.2459 37.2977C39.2094 37.3998 39.173 37.5019 39.1406 37.6004C39.0839 37.7755 39.0353 37.9469 38.9867 38.1292L38.9584 38.2277L38.8855 38.4903L38.8369 38.7164L38.8045 38.8769C38.764 39.0629 38.7276 39.2416 38.6993 39.4313C38.6709 39.6209 38.6507 39.7522 38.6345 39.9127L38.6061 40.1461C38.5818 40.4197 38.5737 40.6458 38.5737 40.8464L38.6588 75.0751L81.3768 52.6194L81.2513 13.0403Z" fill="#455A64"/>
<path d="M38.6343 75.1115L38.6383 76.7455L81.3564 54.2898L81.3483 52.6559L38.6343 75.1115Z" fill="white"/>
<path d="M74.4446 32.3375L70.3753 34.4565L66.0104 36.7287L70.3753 34.4565C71.8411 31.5387 71.6386 28.621 69.7679 27.6727C68.7233 27.1366 67.3385 27.308 65.9942 28.0374C64.42 28.9189 63.1234 30.1496 62.2285 31.6117L61.115 33.3477L60.9247 31.1302C60.9247 30.9442 60.7546 30.8713 60.5481 30.9661C60.4504 31.0236 60.367 31.0987 60.3029 31.1865C60.2388 31.2744 60.1955 31.3731 60.1756 31.4767L59.8274 33.5228L59.1876 33.1945C58.1429 32.6584 56.7582 32.8298 55.4098 33.541C53.8361 34.4218 52.5406 35.6527 51.6482 37.1152C49.7856 40.033 49.6034 43.1185 51.0854 44.5081L47.0079 46.6271C46.8971 46.6902 46.8049 46.7766 46.7393 46.8789C46.6737 46.9811 46.6366 47.0962 46.6313 47.2143C46.6313 47.4295 46.8014 47.517 47.0079 47.4112L51.7494 44.9348L53.2111 45.6861L60.7789 49.5667L61.6414 48.2209L61.6778 48.6403C61.6778 48.83 61.856 48.9029 62.0544 48.8044C62.1568 48.7435 62.2434 48.6635 62.3084 48.5697C62.3734 48.4759 62.4152 48.3706 62.4309 48.261L62.5808 46.7547L68.294 37.841L69.7477 35.5761L74.4689 33.1216C74.5752 33.0554 74.663 32.9679 74.7255 32.866C74.788 32.7642 74.8235 32.6507 74.8293 32.5344C74.8293 32.3156 74.6552 32.228 74.4446 32.3375Z" fill="#4957CC"/>
<path d="M60.544 30.9479C60.7505 30.8531 60.9044 30.926 60.9205 31.112L61.1109 33.3295L62.0786 44.4023L63.2488 32.8663C63.261 32.7594 63.2992 32.6562 63.3608 32.5642C63.4224 32.4721 63.5058 32.3935 63.6051 32.3338C63.7995 32.2317 63.9574 32.2791 63.9898 32.4505L65.3746 39.1905L65.6337 37.2539C65.6505 37.1474 65.6924 37.0454 65.7567 36.9548C65.8209 36.8642 65.906 36.7871 66.0062 36.7287L70.3752 34.4565L74.4486 32.3375C74.6592 32.2281 74.8292 32.3156 74.8292 32.5344C74.8216 32.652 74.7836 32.7663 74.7182 32.8682C74.6529 32.9702 74.5619 33.057 74.4527 33.1216L69.7314 35.5762L66.3261 37.3414L65.7876 41.3533C65.7715 41.4585 65.7306 41.5595 65.6678 41.6494C65.605 41.7394 65.5216 41.8162 65.4232 41.8748C65.2328 41.9733 65.079 41.9222 65.0425 41.7545L63.7185 35.2807L62.5604 46.7584L62.4106 48.2647C62.3949 48.3743 62.3531 48.4796 62.2881 48.5734C62.2231 48.6671 62.1365 48.7472 62.0341 48.8081C61.8356 48.9066 61.6737 48.8336 61.6575 48.644L61.621 48.2246L60.4063 34.2486L58.3818 46.0983C58.3614 46.2007 58.3183 46.2985 58.255 46.3856C58.1916 46.4727 58.1094 46.5474 58.0133 46.6052C57.8027 46.7037 57.6529 46.6307 57.6367 46.4447L56.8269 38.0562L55.9078 42.4803C55.8851 42.5796 55.8409 42.6739 55.7777 42.7577C55.7144 42.8416 55.6334 42.9134 55.5393 42.969L51.7493 44.9348L47.024 47.393C46.8175 47.4988 46.6475 47.393 46.6475 47.196C46.6528 47.078 46.6898 46.9629 46.7554 46.8606C46.821 46.7584 46.9132 46.672 47.024 46.6089L51.1015 44.4898L55.2559 42.3271L56.6325 35.7148C56.6541 35.6146 56.6978 35.5193 56.7611 35.4347C56.8244 35.3501 56.906 35.2779 57.001 35.2224C57.2116 35.1276 57.3573 35.2041 57.3776 35.3829L58.1631 43.4066L59.8435 33.4973L60.1917 31.4512C60.2102 31.3504 60.2509 31.2539 60.3114 31.1675C60.3719 31.081 60.451 31.0064 60.544 30.9479Z" fill="white"/>
<path d="M55.4581 56.675L55.4702 61.4346L53.9194 62.2406L53.9072 58.6919L53.1177 59.1004V57.8932L55.4581 56.675Z" fill="white"/>
<path d="M57.7381 55.3804C58.8273 54.8151 59.5966 55.0157 59.6007 55.9056C59.6007 56.3724 59.4873 56.8538 58.8152 57.8313L58.1633 58.7941L59.71 57.9918V59.2354L56.0253 61.1539V60.1691L57.6855 57.7109C57.8926 57.4669 58.0177 57.1745 58.0458 56.8684C58.0458 56.6423 57.892 56.5766 57.5964 56.7298C57.276 56.9152 57.037 57.1949 56.9202 57.5213H55.75C56.1119 56.6189 56.816 55.8606 57.7381 55.3804Z" fill="white"/>
<path d="M62.099 53.1118C63.3138 52.4845 64.1843 52.9404 64.1884 54.516C64.2146 55.2217 64.0374 55.9215 63.674 56.5473C63.3107 57.173 62.7737 57.7033 62.1152 58.0865C60.9005 58.7211 60.0259 58.2616 60.0218 56.6824C59.9969 55.9764 60.175 55.2766 60.539 54.651C60.903 54.0253 61.4404 53.4951 62.099 53.1118ZM62.099 56.8027C62.3987 56.6459 62.6214 56.2447 62.6173 55.3439C62.6133 54.443 62.3906 54.2497 62.0909 54.4175C61.7913 54.5853 61.5645 54.9755 61.5686 55.8764C61.5726 56.7772 61.7994 56.9705 62.099 56.8064" fill="white"/>
<path d="M66.1923 54.3337C66.5689 54.1367 66.8928 54.2644 66.8928 54.7421C66.8898 54.9693 66.8247 55.1923 66.7033 55.3915C66.5818 55.5906 66.4077 55.7596 66.1964 55.8837C66.0182 55.9749 65.8887 55.9968 65.7915 55.9421V56.0624L65.2246 56.3578V54.3264L65.8198 54.0164V54.6546C65.9082 54.5183 66.0372 54.4071 66.1923 54.3337ZM66.0506 55.4789C66.1266 55.4331 66.1881 55.3704 66.2292 55.297C66.2704 55.2235 66.2897 55.1417 66.2855 55.0594C66.2855 54.8661 66.1802 54.8224 66.0506 54.8917C65.9752 54.9359 65.9141 54.9974 65.8736 55.0697C65.8331 55.1421 65.8145 55.2229 65.8198 55.3038C65.8198 55.4971 65.9211 55.5445 66.0506 55.4789Z" fill="white"/>
<path d="M68.0426 53.3672C68.4192 53.1739 68.7391 53.3052 68.7391 53.7866C68.7377 54.0126 68.6737 54.2348 68.5528 54.4329C68.4318 54.631 68.2579 54.7987 68.0467 54.9209C67.8888 55.0011 67.7673 55.0266 67.6782 54.9829V55.6175L67.083 55.9275V53.9033L67.6499 53.6079V53.7282C67.7408 53.5772 67.8768 53.4521 68.0426 53.3672ZM67.905 54.516C67.9809 54.4711 68.0425 54.4091 68.0836 54.3362C68.1248 54.2633 68.1442 54.182 68.1398 54.1002C68.1398 53.9069 68.0345 53.8595 67.9009 53.9288C67.8247 53.9743 67.763 54.037 67.7218 54.1105C67.6806 54.1841 67.6614 54.266 67.6661 54.3483C67.6661 54.5416 67.7714 54.5853 67.905 54.516Z" fill="white"/>
<path d="M70.8409 51.9119C71.1688 51.7441 71.4158 51.8207 71.4158 52.2766V53.1301L70.8206 53.4401V52.7106C70.8206 52.521 70.7558 52.4845 70.6627 52.5319C70.5982 52.5721 70.5469 52.6271 70.5141 52.6913C70.4814 52.7555 70.4683 52.8264 70.4764 52.8966V53.6261L69.8812 53.9361V53.2066C69.8812 53.017 69.8164 52.9805 69.7152 53.0316C69.6507 53.0718 69.5994 53.1268 69.5666 53.191C69.5339 53.2551 69.5209 53.3261 69.529 53.3963V54.1257L68.9297 54.4357V52.9404L69.4966 52.6486V52.7836C69.5948 52.6329 69.7342 52.5074 69.9015 52.4189C70.0918 52.3204 70.2537 52.3094 70.355 52.4189C70.4595 52.2113 70.6282 52.0353 70.8409 51.9119Z" fill="white"/>
<path d="M46.1173 77.03C47.5507 76.2823 48.7168 76.8841 48.7249 78.3649C48.6783 79.175 48.4192 79.9636 47.9687 80.6661C47.5183 81.3685 46.8893 81.9648 46.1335 82.4059C44.6961 83.1536 43.5299 82.5555 43.5259 81.0674C43.5734 80.258 43.833 79.4702 44.2834 78.7684C44.7338 78.0667 45.3622 77.471 46.1173 77.03Z" fill="white"/>
<path d="M77.3961 62.9337L77.4002 63.944L51.5426 77.3911L51.5386 76.3845L77.3961 62.9337Z" fill="white"/>
<path d="M77.4246 70.7787V71.789L51.567 85.2361L51.563 84.2258L77.4246 70.7787Z" fill="white"/>
<path d="M65.4354 78.9047L65.4395 79.9113L51.5713 87.1217V86.1151L65.4354 78.9047Z" fill="white"/>
<path d="M61.7385 77.0446V78.0548L51.5591 83.3505V82.3403L61.7385 77.0446Z" fill="white"/>
<path d="M74.5822 66.2891L74.5863 67.2957L51.5469 79.2766V78.27L74.5822 66.2891Z" fill="white"/>
<path d="M67.4152 66.238L67.4193 67.2447L51.5347 75.5055V74.4952L67.4152 66.238Z" fill="white"/>
<path d="M46.1412 84.8605C47.5746 84.1128 48.7448 84.711 48.7489 86.1954C48.7013 87.0053 48.4417 87.7936 47.9914 88.4959C47.541 89.1982 46.9126 89.7946 46.1574 90.2364C44.724 90.9841 43.5539 90.3823 43.5498 88.8979C43.5973 88.0885 43.8569 87.3007 44.3073 86.5989C44.7577 85.8972 45.3862 85.3015 46.1412 84.8605Z" fill="white"/>
<path d="M110.842 95.4883L106.417 93.1724L47.4414 119.625L51.8792 121.934L110.842 95.4883Z" fill="#455A64"/>
<path d="M139.449 110.464L80.5874 136.862L85.3491 139.338L144.191 112.944L139.449 110.464Z" fill="#455A64"/>
<path opacity="0.3" d="M110.842 95.4883L106.417 93.1724L47.4414 119.625L51.8792 121.934L110.842 95.4883Z" fill="white"/>
<path d="M80.5875 136.862L51.8793 121.934L47.4415 119.625L39.1895 118.648L76.9676 138.423L85.3492 139.338L80.5875 136.862Z" fill="#455A64"/>
<path opacity="0.5" d="M80.5875 136.862L51.8793 121.934L47.4415 119.625L39.1895 118.648L76.9676 138.423L85.3492 139.338L80.5875 136.862Z" fill="white"/>
<path opacity="0.3" d="M139.449 110.464L80.5874 136.862L85.3491 139.338L144.191 112.944L139.449 110.464Z" fill="white"/>
<path d="M76.9676 138.423L39.1895 118.648L39.1975 127.62L39.2056 131.573L76.9797 151.348L76.9676 138.423Z" fill="#455A64"/>
<path d="M42.8418 128.626V125.643C42.8412 125.515 42.8782 125.389 42.9491 125.277C43.0199 125.166 43.1221 125.074 43.2453 125.009C43.3685 124.945 43.5084 124.911 43.6508 124.911C43.7932 124.911 43.9332 124.944 44.0565 125.008L72.2869 139.787C72.5946 139.947 72.8502 140.177 73.0279 140.454C73.2056 140.732 73.2991 141.046 73.2992 141.366V144.349C73.2997 144.478 73.2627 144.604 73.1919 144.715C73.121 144.826 73.0188 144.919 72.8956 144.983C72.7724 145.048 72.6326 145.082 72.4901 145.082C72.3477 145.082 72.2078 145.048 72.0844 144.984L43.8662 130.206C43.5562 130.047 43.2982 129.817 43.1183 129.54C42.9384 129.263 42.843 128.948 42.8418 128.626Z" fill="#37474F"/>
<path d="M76.9673 138.423L76.9794 151.348L144.207 116.387L144.19 112.944L85.3489 139.338L76.9673 138.423Z" fill="#455A64"/>
<path opacity="0.1" d="M76.9673 138.423L76.9794 151.348L144.207 116.387L144.19 112.944L85.3489 139.338L76.9673 138.423Z" fill="white"/>
<path d="M110.842 95.4883L110.838 97.1186H107.206L110.842 95.4883Z" fill="#455A64"/>
<path d="M107.793 96.856L51.8794 121.934L80.5875 136.862L137.769 111.215L110.486 96.9326C110.08 96.7196 109.621 96.6011 109.151 96.5877C108.68 96.5743 108.214 96.6665 107.793 96.856Z" fill="#37474F"/>
<path d="M77.7084 98.9823C77.3862 98.9823 77.0772 99.0976 76.8494 99.3028C76.6216 99.508 76.4937 99.7863 76.4937 100.076V136.435C77.2281 136.848 78.0607 137.098 78.9231 137.165V100.08C78.9236 99.9361 78.8926 99.7934 78.8318 99.6603C78.771 99.5271 78.6816 99.406 78.5688 99.3041C78.4559 99.2021 78.3218 99.1211 78.1742 99.0659C78.0265 99.0107 77.8682 98.9823 77.7084 98.9823Z" fill="#E0E0E0"/>
<path opacity="0.2" d="M77.7084 98.9823C77.3862 98.9823 77.0772 99.0976 76.8494 99.3028C76.6216 99.508 76.4937 99.7863 76.4937 100.076V136.435C77.2281 136.848 78.0607 137.098 78.9231 137.165V100.08C78.9236 99.9361 78.8926 99.7934 78.8318 99.6603C78.771 99.5271 78.6816 99.406 78.5688 99.3041C78.4559 99.2021 78.3218 99.1211 78.1742 99.0659C78.0265 99.0107 77.8682 98.9823 77.7084 98.9823Z" fill="black"/>
<path opacity="0.3" d="M77.7084 98.9823C77.3862 98.9823 77.0772 99.0976 76.8494 99.3028C76.6216 99.508 76.4937 99.7863 76.4937 100.076V103.224C77.2114 103.339 77.939 103.398 78.668 103.399H78.9272V100.08C78.9277 99.9358 78.8965 99.7928 78.8355 99.6594C78.7744 99.526 78.6847 99.4048 78.5714 99.3028C78.4581 99.2007 78.3235 99.1199 78.1754 99.0649C78.0273 99.0099 77.8686 98.9818 77.7084 98.9823Z" fill="black"/>
<path d="M45.7328 83.4308C45.4106 83.4308 45.1017 83.5461 44.8739 83.7513C44.646 83.9565 44.5181 84.2348 44.5181 84.5249V120.165C45.262 120.545 46.0936 120.765 46.9475 120.807V84.5286C46.9481 84.3846 46.917 84.2419 46.8562 84.1088C46.7954 83.9756 46.706 83.8545 46.5932 83.7526C46.4803 83.6506 46.3462 83.5696 46.1986 83.5144C46.0509 83.4592 45.8927 83.4308 45.7328 83.4308Z" fill="#E0E0E0"/>
<path opacity="0.2" d="M45.7328 83.4308C45.4106 83.4308 45.1017 83.5461 44.8739 83.7513C44.646 83.9565 44.5181 84.2348 44.5181 84.5249V120.165C45.262 120.545 46.0936 120.765 46.9475 120.807V84.5286C46.9481 84.3846 46.917 84.2419 46.8562 84.1088C46.7954 83.9756 46.706 83.8545 46.5932 83.7526C46.4803 83.6506 46.3462 83.5696 46.1986 83.5144C46.0509 83.4592 45.8927 83.4308 45.7328 83.4308Z" fill="black"/>
<path opacity="0.3" d="M45.7328 83.4308C45.4106 83.4308 45.1017 83.5461 44.8739 83.7513C44.646 83.9565 44.5181 84.2348 44.5181 84.5249V87.3807L46.9475 88.6499V84.5286C46.9481 84.3846 46.917 84.2419 46.8562 84.1088C46.7954 83.9756 46.706 83.8545 46.5932 83.7526C46.4803 83.6506 46.3462 83.5696 46.1986 83.5144C46.0509 83.4592 45.8927 83.4308 45.7328 83.4308Z" fill="black"/>
<path d="M54.9645 76.0234C54.8829 75.9211 54.7743 75.8388 54.6484 75.784C54.5225 75.7293 54.3834 75.7037 54.2438 75.7097L46.4209 77.3145C46.5655 77.3014 46.7114 77.3236 46.8432 77.3788C46.975 77.434 47.0879 77.5201 47.17 77.6281C47.4142 77.9194 47.5782 78.2588 47.6486 78.6182C47.719 78.9777 47.6937 79.3471 47.5749 79.6961C47.5428 79.8235 47.4732 79.9409 47.3735 80.0359C47.2738 80.1308 47.1475 80.1999 47.008 80.2359L54.7944 78.6311C54.9355 78.5963 55.0634 78.5277 55.1646 78.4327C55.2658 78.3376 55.3366 78.2197 55.3694 78.0913C55.4859 77.7421 55.51 77.3731 55.4397 77.014C55.3694 76.6549 55.2066 76.3156 54.9645 76.0234Z" fill="#455A64"/>
<path d="M46.3682 77.3254L46.4168 77.3071L46.3682 77.3254Z" fill="#455A64"/>
<path d="M47.5912 79.696C47.71 79.3471 47.7353 78.9777 47.6649 78.6182C47.5945 78.2587 47.4305 77.9194 47.1863 77.6281C47.1042 77.5201 46.9913 77.434 46.8595 77.3788C46.7277 77.3236 46.5819 77.3014 46.4372 77.3144L46.3886 77.3327C46.2608 77.375 46.1462 77.4446 46.0545 77.5354C45.9629 77.6262 45.8969 77.7355 45.8623 77.8542C45.7441 78.2033 45.7192 78.5725 45.7896 78.9319C45.8599 79.2913 46.0236 79.6306 46.2672 79.9222C46.3481 80.0297 46.4595 80.1158 46.5898 80.1716C46.72 80.2274 46.8645 80.2508 47.0082 80.2395H47.0284C47.1677 80.2026 47.2934 80.1328 47.3924 80.0372C47.4914 79.9416 47.5601 79.8237 47.5912 79.696Z" fill="#263238"/>
<path d="M92.9575 96.1594C92.8773 96.0565 92.7696 95.9734 92.6443 95.918C92.5191 95.8625 92.3803 95.8364 92.2408 95.8421L84.418 97.4541C84.563 97.4414 84.7091 97.4642 84.8409 97.52C84.9728 97.5759 85.0854 97.6627 85.1671 97.7714C85.4103 98.0625 85.5738 98.4011 85.6441 98.7599C85.7145 99.1186 85.6898 99.4872 85.572 99.8357C85.5372 99.9627 85.4662 100.079 85.3661 100.174C85.266 100.269 85.1401 100.338 85.001 100.376L92.7875 98.7744C92.9271 98.7372 93.0536 98.6678 93.1544 98.5732C93.2552 98.4785 93.3269 98.3618 93.3624 98.2346C93.4819 97.8845 93.5076 97.5139 93.4372 97.1531C93.3668 96.7924 93.2024 96.4518 92.9575 96.1594Z" fill="#455A64"/>
<path d="M84.3608 97.4542C84.377 97.4526 84.3933 97.4526 84.4094 97.4542H84.3608Z" fill="#455A64"/>
<path d="M85.588 99.8285C85.7058 99.48 85.7305 99.1114 85.6602 98.7527C85.5898 98.3939 85.4264 98.0552 85.1831 97.7642C85.1015 97.6555 84.9888 97.5687 84.857 97.5128C84.7251 97.457 84.579 97.4342 84.434 97.4469C84.4179 97.4453 84.4016 97.4453 84.3854 97.4469C84.2577 97.4898 84.1434 97.56 84.0524 97.6515C83.9614 97.743 83.8965 97.853 83.8631 97.9721C83.7443 98.3205 83.7191 98.6893 83.7895 99.0482C83.8599 99.4071 84.0239 99.7458 84.268 100.036C84.3489 100.144 84.4603 100.23 84.5906 100.286C84.7209 100.342 84.8653 100.365 85.009 100.354C85.1476 100.319 85.2738 100.252 85.3753 100.16C85.4768 100.068 85.55 99.9536 85.588 99.8285Z" fill="#263238"/>
<g opacity="0.4">
<path d="M54.9645 76.0234C54.8829 75.9211 54.7743 75.8388 54.6484 75.784C54.5225 75.7293 54.3834 75.7037 54.2438 75.7097L46.4209 77.3145C46.5655 77.3014 46.7114 77.3236 46.8432 77.3788C46.975 77.434 47.0879 77.5201 47.17 77.6281C47.4142 77.9194 47.5782 78.2588 47.6486 78.6182C47.719 78.9777 47.6937 79.3471 47.5749 79.6961C47.5428 79.8235 47.4732 79.9409 47.3735 80.0359C47.2738 80.1308 47.1475 80.1999 47.008 80.2359L54.7944 78.6311C54.9355 78.5963 55.0634 78.5277 55.1646 78.4327C55.2658 78.3376 55.3366 78.2197 55.3694 78.0913C55.4859 77.7421 55.51 77.3731 55.4397 77.014C55.3694 76.6549 55.2066 76.3156 54.9645 76.0234Z" fill="white"/>
<path d="M46.3682 77.3254L46.4168 77.3071L46.3682 77.3254Z" fill="white"/>
</g>
<g opacity="0.4">
<path d="M92.957 96.1594C92.8768 96.0565 92.7691 95.9734 92.6438 95.918C92.5186 95.8625 92.3798 95.8364 92.2403 95.8421L84.4175 97.4541C84.5625 97.4414 84.7086 97.4642 84.8404 97.52C84.9723 97.5759 85.0849 97.6627 85.1666 97.7714C85.4098 98.0625 85.5733 98.4011 85.6436 98.7599C85.714 99.1186 85.6893 99.4872 85.5715 99.8357C85.5367 99.9627 85.4657 100.079 85.3656 100.174C85.2655 100.269 85.1396 100.338 85.0006 100.376L92.787 98.7744C92.9266 98.7372 93.0531 98.6678 93.1539 98.5732C93.2547 98.4785 93.3264 98.3618 93.3619 98.2346C93.4815 97.8845 93.5071 97.5139 93.4367 97.1531C93.3663 96.7924 93.2019 96.4518 92.957 96.1594Z" fill="white"/>
<path d="M84.3608 97.4542C84.377 97.4526 84.3933 97.4526 84.4094 97.4542H84.3608Z" fill="white"/>
</g>
<path d="M84.2559 98.0085L81.1462 98.7087C78.594 99.2879 75.8915 98.9464 73.6149 97.7568L45.1254 82.942C44.8438 82.7982 44.6165 82.5818 44.4727 82.3205C44.329 82.0593 44.2755 81.7653 44.3191 81.4764C44.3627 81.1875 44.5013 80.917 44.7172 80.6997C44.9331 80.4825 45.2163 80.3285 45.5303 80.2577L46.7774 79.9805C47.2066 79.6668 47.158 77.9636 46.247 77.8396L44.9391 78.1277C44.1509 78.3003 43.4385 78.6822 42.8941 79.2239C42.3497 79.7655 41.9984 80.4419 41.8859 81.1655C41.7733 81.889 41.9046 82.6264 42.2627 83.2819C42.6208 83.9375 43.1893 84.481 43.8945 84.8422L72.4001 99.6424C74.3067 100.639 76.4717 101.165 78.6762 101.167C79.7147 101.159 80.7482 101.037 81.7536 100.802L84.7985 100.12C85.2155 99.8393 85.167 98.1361 84.2559 98.0085Z" fill="#E0E0E0"/>
<path d="M48.4741 87.3806V79.7762L66.7437 89.2808V96.8815L48.4741 87.3806Z" fill="#455A64"/>
<path d="M66.7432 89.2809L77.7081 94.0988V96.8816H66.7432V89.2809Z" fill="#455A64"/>
<path d="M48.4741 79.7762L66.7437 89.2808L77.7086 94.0987L59.435 84.5978L48.4741 79.7762Z" fill="#455A64"/>
<path opacity="0.1" d="M66.7432 89.2809L77.7081 94.0988V96.8816H66.7432V89.2809Z" fill="white"/>
<path opacity="0.3" d="M48.4741 79.7762L66.7437 89.2808L77.7086 94.0987L59.435 84.5978L48.4741 79.7762Z" fill="white"/>
<path opacity="0.2" d="M109.469 109.927C116.462 113.575 116.499 119.457 109.554 123.094C102.61 126.73 91.3091 126.741 84.3163 123.094C77.3235 119.446 77.2911 113.564 84.2353 109.927C91.1795 106.291 102.481 106.291 109.469 109.927Z" fill="black"/>
<path d="M96.2369 68.8347L97.7715 62.8059C95.6791 63.0697 93.7004 63.8243 92.0339 64.9942L84.0005 70.6838L89.5275 72.2193L96.2369 68.8347Z" fill="#FFA8A7"/>
<path d="M99.9907 95.9442L101.112 98.2237C101.427 98.8659 101.961 99.4005 102.637 99.749C103.313 100.098 104.096 100.242 104.87 100.16L114.345 99.1865C115.141 99.1054 115.947 99.1585 116.722 99.3433L118.795 99.8394V95.4628L118.228 95.6123C117.137 95.9042 115.98 95.9293 114.875 95.6852L111.421 94.9193C109.787 94.5576 108.074 94.5954 106.461 95.0287L106.109 92.4465L99.9907 95.9442Z" fill="#F28F8F"/>
<path d="M125.739 101.707C125.703 100.65 125.211 99.6474 124.366 98.9129C123.743 98.3804 122.957 98.023 122.366 97.454C121.682 96.7939 121.398 96.0681 120.815 95.3204C120.713 95.1942 120.572 95.0969 120.41 95.0396C120.351 95.0342 120.292 95.0342 120.232 95.0396C120.026 95.0543 119.825 95.1064 119.641 95.1928C119.877 95.2292 120.087 95.347 120.228 95.521C120.815 96.2505 121.228 97.1258 121.917 97.7713C122.504 98.3221 123.289 98.6722 123.913 99.1937C124.754 99.9034 125.247 100.885 125.286 101.922C125.318 102.947 124.901 104.716 124.071 104.716C124.333 104.773 124.609 104.735 124.84 104.61C125.561 103.964 125.759 102.469 125.739 101.707Z" fill="#EBEBEB"/>
<path d="M120.815 95.3204C121.398 96.068 121.682 96.7793 122.366 97.454C122.957 98.0229 123.743 98.3804 124.366 98.9128C125.211 99.6473 125.703 100.65 125.739 101.707C125.739 102.469 125.561 103.964 124.868 104.599C125.751 104.121 125.994 102.432 125.966 101.608C125.927 100.572 125.435 99.5912 124.597 98.88C123.973 98.3585 123.184 98.0083 122.597 97.454C121.908 96.8084 121.629 96.0972 121.042 95.3714C120.969 95.2814 120.876 95.2056 120.77 95.1485C120.663 95.0915 120.545 95.0544 120.422 95.0396C120.58 95.0986 120.716 95.1958 120.815 95.3204Z" fill="#455A64"/>
<path d="M118.017 95.4992C117.816 95.5787 117.595 95.6077 117.377 95.5831C117.377 95.5831 116.738 95.5247 116.527 95.4882C116.122 95.4189 116.082 95.8311 116.082 95.8311C116.322 95.8541 116.565 95.8541 116.806 95.8311C116.861 95.9069 116.933 95.9715 117.018 96.0205C117.102 96.0695 117.197 96.1019 117.296 96.1155C117.499 96.1514 117.697 96.2064 117.887 96.2797C117.982 96.3184 118.061 96.3812 118.116 96.4604C118.171 96.5395 118.198 96.6314 118.195 96.7246C118.159 96.9289 117.936 97.0492 117.79 97.2206C117.722 97.3203 117.684 97.4338 117.678 97.5506C117.673 97.6673 117.7 97.7835 117.758 97.8881C117.628 97.8378 117.483 97.8295 117.347 97.8648C117.211 97.9 117.093 97.9766 117.013 98.0814C116.861 98.3019 116.769 98.552 116.746 98.8108C116.704 98.9832 116.69 99.1601 116.705 99.336C116.712 99.4247 116.739 99.5112 116.784 99.5902C116.829 99.6693 116.892 99.7391 116.968 99.7956C117.046 99.85 117.141 99.8795 117.24 99.8795C117.338 99.8795 117.433 99.85 117.511 99.7956C118.029 100.554 120.398 100.842 121.584 102.276C122.771 103.709 123.03 104.727 124.083 104.727C124.892 104.727 125.297 102.958 125.297 101.933C125.259 100.896 124.765 99.9144 123.925 99.2047C123.301 98.6832 122.516 98.333 121.928 97.7823C121.24 97.1368 120.827 96.2614 120.24 95.532C120.099 95.358 119.889 95.2402 119.653 95.2038C119.582 95.1964 119.51 95.1964 119.438 95.2038C118.948 95.2212 118.466 95.3214 118.017 95.4992Z" fill="#4957CC"/>
<path d="M123.775 104.46L124.042 103.8C124.06 103.757 124.091 103.72 124.131 103.692C124.171 103.663 124.218 103.645 124.269 103.64C125.079 103.552 125.334 103.443 125.686 103.107C125.635 103.517 125.489 103.912 125.257 104.267C125.121 104.48 124.898 104.637 124.636 104.705C124.374 104.773 124.093 104.747 123.852 104.632C123.817 104.617 123.79 104.592 123.776 104.56C123.761 104.528 123.761 104.492 123.775 104.46Z" fill="#455A64"/>
<path d="M118.649 98.3184C118.649 98.3446 118.642 98.3704 118.63 98.3942C118.619 98.4181 118.601 98.4394 118.58 98.457C118.311 98.6654 118.127 98.9486 118.058 99.2618C117.988 99.575 118.036 99.9002 118.195 100.186C118.215 100.228 118.216 100.276 118.198 100.319C118.181 100.362 118.145 100.398 118.1 100.419C118.054 100.439 118.002 100.444 117.952 100.431C117.903 100.418 117.861 100.389 117.835 100.35C117.637 99.991 117.576 99.5834 117.661 99.1901C117.747 98.7972 117.976 98.4415 118.313 98.1798C118.354 98.1485 118.407 98.1329 118.461 98.1363C118.514 98.1397 118.564 98.1619 118.6 98.1981C118.632 98.2316 118.649 98.2743 118.649 98.3184Z" fill="#37474F"/>
<path d="M119.892 98.8327C119.892 98.882 119.87 98.9292 119.831 98.964C119.575 99.1926 119.389 99.4769 119.29 99.7893C119.191 100.102 119.184 100.432 119.268 100.747C119.275 100.771 119.276 100.796 119.271 100.821C119.267 100.845 119.258 100.868 119.243 100.889C119.229 100.91 119.21 100.928 119.188 100.943C119.166 100.957 119.141 100.968 119.114 100.974C119.088 100.979 119.06 100.98 119.033 100.976C119.006 100.973 118.98 100.964 118.957 100.951C118.934 100.938 118.913 100.921 118.897 100.901C118.881 100.882 118.87 100.859 118.863 100.835C118.764 100.457 118.773 100.063 118.891 99.6893C119.008 99.3158 119.23 98.9757 119.535 98.7014C119.554 98.6843 119.577 98.6707 119.601 98.6615C119.626 98.6522 119.652 98.6475 119.679 98.6475C119.706 98.6475 119.732 98.6522 119.757 98.6615C119.782 98.6707 119.804 98.6843 119.823 98.7014C119.844 98.7177 119.861 98.7379 119.873 98.7605C119.885 98.7831 119.891 98.8077 119.892 98.8327Z" fill="#37474F"/>
<path d="M120.989 99.6424C120.989 99.6698 120.983 99.6969 120.969 99.7216C120.956 99.7462 120.936 99.7678 120.912 99.7846C120.684 99.9536 120.508 100.173 120.402 100.422C120.296 100.671 120.264 100.94 120.309 101.203C120.317 101.251 120.305 101.3 120.274 101.339C120.243 101.379 120.196 101.406 120.143 101.415C120.09 101.422 120.036 101.411 119.992 101.383C119.948 101.355 119.918 101.313 119.908 101.265C119.851 100.937 119.89 100.601 120.022 100.29C120.154 99.9797 120.375 99.706 120.661 99.4965C120.703 99.4667 120.757 99.453 120.81 99.4585C120.863 99.4639 120.911 99.4881 120.945 99.5256C120.974 99.5587 120.99 99.6 120.989 99.6424Z" fill="#37474F"/>
<path d="M121.892 100.427C121.891 100.452 121.885 100.477 121.873 100.5C121.861 100.524 121.844 100.544 121.823 100.561C121.628 100.723 121.479 100.924 121.386 101.148C121.294 101.372 121.262 101.612 121.293 101.849C121.299 101.897 121.285 101.945 121.252 101.983C121.22 102.022 121.172 102.047 121.118 102.053C121.092 102.057 121.065 102.056 121.039 102.05C121.013 102.044 120.989 102.033 120.968 102.018C120.947 102.004 120.929 101.985 120.916 101.964C120.903 101.943 120.895 101.92 120.892 101.896C120.852 101.601 120.892 101.301 121.007 101.022C121.121 100.743 121.308 100.493 121.552 100.292C121.571 100.275 121.593 100.261 121.618 100.252C121.642 100.242 121.669 100.238 121.695 100.238C121.722 100.238 121.749 100.242 121.773 100.252C121.798 100.261 121.82 100.275 121.839 100.292C121.875 100.329 121.893 100.377 121.892 100.427Z" fill="#37474F"/>
<path d="M95.885 80.3342C95.5813 84.2075 96.7312 88.7227 97.0997 90.0576L96.464 91.4289C96.3061 94.9485 102.064 96.8705 104.704 95.4992C108.842 89.5397 110.94 86.3083 110.126 82.559L95.885 80.3342Z" fill="#263238"/>
<path opacity="0.3" d="M97.4439 89.4595L99.9908 84.8932C97.861 84.3206 96.2373 82.0338 96.2373 82.0338C96.5653 83.9778 98.6222 85.2105 98.6222 85.2105C97.7182 86.4703 97.3038 87.9647 97.4439 89.4595Z" fill="black"/>
<path d="M104.793 94.2008C104.25 92.0125 100.561 89.6309 97.4151 90.3931L94.4754 96.2469C93.9808 97.233 93.682 98.2897 93.5927 99.3688L92.4225 113.502C92.3425 114.491 92.1443 115.469 91.8314 116.419L91.7949 116.529L95.8845 117.514C95.9005 115.881 96.2406 114.264 96.8887 112.739L100.015 105.394C100.62 103.964 100.896 102.437 100.824 100.908L100.776 99.7518L104.793 94.2008Z" fill="#FFA8A7"/>
<path d="M89.4954 123.714C90.6673 123.681 91.7785 123.237 92.593 122.477C93.1882 121.916 93.585 121.208 94.2126 120.679C94.9455 120.059 95.7553 119.804 96.5813 119.279C96.7214 119.186 96.8295 119.06 96.8931 118.914C96.8993 118.861 96.8993 118.807 96.8931 118.754C96.8774 118.568 96.821 118.387 96.7271 118.221C96.6883 118.434 96.5572 118.624 96.3627 118.75C95.5529 119.279 94.5851 119.651 93.8684 120.271C93.253 120.8 92.8643 121.511 92.2852 122.069C91.4974 122.826 90.4081 123.271 89.2565 123.305C88.1228 123.334 86.1549 122.962 86.1549 122.211C86.0913 122.447 86.1335 122.696 86.2723 122.904C86.9769 123.539 88.6451 123.714 89.4954 123.714Z" fill="#EBEBEB"/>
<path d="M96.5812 119.264C95.7714 119.789 94.9615 120.045 94.2125 120.665C93.5849 121.194 93.188 121.901 92.5928 122.463C91.7784 123.222 90.6671 123.666 89.4953 123.699C88.645 123.721 86.9889 123.539 86.2803 122.915C86.8107 123.71 88.6895 123.929 89.6005 123.903C90.7516 123.87 91.841 123.427 92.6293 122.671C93.2083 122.109 93.597 121.401 94.2125 120.869C94.9292 120.253 95.7187 119.997 96.5286 119.468C96.629 119.403 96.7133 119.32 96.776 119.224C96.8388 119.128 96.8786 119.021 96.893 118.91C96.8275 119.052 96.7195 119.175 96.5812 119.264Z" fill="#455A64"/>
<path d="M96.3869 116.744C96.2978 116.564 96.2656 116.366 96.2938 116.171C96.2938 116.171 96.3546 115.591 96.3951 115.405C96.472 115.041 96.1602 115.022 96.1602 115.022C96.1602 115.022 96.0995 115.311 96.0468 115.65C95.9598 115.7 95.8846 115.765 95.8255 115.841C95.7665 115.918 95.7247 116.004 95.7027 116.095C95.6628 116.277 95.6018 116.456 95.5204 116.627C95.4779 116.712 95.4082 116.784 95.3203 116.834C95.2323 116.883 95.13 116.908 95.0265 116.904C94.8038 116.875 94.6661 116.671 94.4798 116.54C94.3684 116.479 94.2417 116.444 94.1115 116.439C93.9812 116.434 93.8516 116.458 93.7348 116.511C93.792 116.394 93.8018 116.264 93.7626 116.142C93.7233 116.019 93.6375 115.914 93.5202 115.843C93.2759 115.704 92.9982 115.621 92.7104 115.599C92.5173 115.563 92.3199 115.551 92.1232 115.562C92.0252 115.568 91.9297 115.592 91.8425 115.633C91.7554 115.674 91.6786 115.73 91.6171 115.799C91.556 115.869 91.5228 115.955 91.5228 116.044C91.5228 116.132 91.556 116.218 91.6171 116.288C90.7708 116.755 90.451 118.888 88.8597 119.957C87.2684 121.026 86.1387 121.263 86.1387 122.207C86.1387 122.937 88.1065 123.302 89.2403 123.302C90.3918 123.267 91.4811 122.822 92.269 122.065C92.848 121.507 93.2368 120.796 93.8522 120.267C94.5689 119.647 95.5366 119.275 96.3465 118.746C96.4709 118.662 96.5706 118.551 96.6369 118.424C96.7032 118.297 96.7342 118.157 96.7271 118.017C96.6991 117.578 96.5839 117.146 96.3869 116.744Z" fill="#4957CC"/>
<path d="M86.434 121.93L87.1669 122.171C87.216 122.187 87.2591 122.214 87.2914 122.251C87.3236 122.288 87.3436 122.332 87.3491 122.379C87.4422 123.108 87.5637 123.338 87.9362 123.652C87.4829 123.608 87.0453 123.477 86.6526 123.269C86.416 123.145 86.2416 122.944 86.1661 122.708C86.0906 122.471 86.1199 122.217 86.2477 122C86.2643 121.97 86.2923 121.946 86.3265 121.934C86.3607 121.921 86.3989 121.92 86.434 121.93Z" fill="#455A64"/>
<path d="M93.2568 117.317C93.2273 117.317 93.1982 117.311 93.1716 117.299C93.145 117.288 93.1215 117.271 93.1029 117.251C92.8699 117.01 92.5555 116.845 92.2081 116.78C91.859 116.718 91.4968 116.763 91.1796 116.908C91.1313 116.93 91.0753 116.933 91.0241 116.918C90.9728 116.903 90.9304 116.87 90.9063 116.826C90.8821 116.782 90.8781 116.732 90.8952 116.686C90.9123 116.64 90.949 116.602 90.9974 116.58C91.3976 116.396 91.8549 116.339 92.2957 116.417C92.7364 116.496 93.1348 116.706 93.4268 117.014C93.4614 117.05 93.4786 117.097 93.4748 117.145C93.471 117.193 93.4465 117.237 93.4066 117.269C93.3865 117.286 93.3628 117.298 93.3371 117.307C93.3113 117.315 93.284 117.318 93.2568 117.317Z" fill="#37474F"/>
<path d="M92.6818 118.433C92.6271 118.432 92.5746 118.413 92.536 118.378C92.2828 118.148 91.9679 117.98 91.6218 117.891C91.2757 117.802 90.91 117.795 90.56 117.871C90.534 117.877 90.5069 117.878 90.4803 117.875C90.4537 117.871 90.4281 117.863 90.4051 117.85C90.3821 117.838 90.3621 117.821 90.3463 117.801C90.3305 117.782 90.3192 117.76 90.313 117.736C90.3064 117.713 90.3049 117.689 90.3087 117.666C90.3124 117.642 90.3213 117.619 90.3349 117.599C90.3485 117.579 90.3664 117.561 90.3877 117.547C90.409 117.533 90.4332 117.523 90.4588 117.517C90.8781 117.427 91.3163 117.435 91.7311 117.541C92.1459 117.647 92.5235 117.847 92.8275 118.123C92.8555 118.148 92.8744 118.181 92.8819 118.216C92.8893 118.252 92.885 118.288 92.8694 118.321C92.8538 118.355 92.8277 118.383 92.7943 118.403C92.7609 118.422 92.7217 118.433 92.6818 118.433Z" fill="#37474F"/>
<path d="M91.7992 119.406C91.7683 119.406 91.7378 119.4 91.7098 119.388C91.6818 119.376 91.6571 119.359 91.6372 119.337C91.4503 119.13 91.2066 118.971 90.9304 118.875C90.6541 118.779 90.3548 118.75 90.0621 118.79C90.0084 118.798 89.9535 118.786 89.9095 118.757C89.8654 118.729 89.8359 118.685 89.8273 118.637C89.8187 118.589 89.8318 118.539 89.8637 118.499C89.8956 118.46 89.9437 118.433 89.9974 118.425C90.3614 118.374 90.734 118.409 91.078 118.528C91.422 118.647 91.7252 118.846 91.9571 119.104C91.9819 119.131 91.9976 119.163 92.0024 119.198C92.0073 119.232 92.001 119.267 91.9844 119.299C91.9678 119.33 91.9415 119.357 91.9087 119.375C91.8759 119.394 91.8379 119.403 91.7992 119.403V119.406Z" fill="#37474F"/>
<path d="M90.9166 120.234C90.8881 120.234 90.8599 120.229 90.834 120.218C90.8081 120.208 90.7851 120.192 90.7667 120.172C90.586 119.997 90.362 119.863 90.1129 119.781C89.8639 119.699 89.5968 119.67 89.3334 119.698C89.28 119.702 89.2268 119.688 89.1847 119.658C89.1426 119.629 89.1146 119.585 89.1066 119.538C89.1032 119.514 89.1051 119.489 89.1123 119.466C89.1194 119.443 89.1317 119.421 89.1482 119.402C89.1648 119.383 89.1854 119.367 89.2089 119.355C89.2323 119.344 89.2581 119.336 89.2848 119.333C89.6128 119.298 89.9454 119.334 90.2551 119.437C90.5648 119.541 90.8429 119.709 91.0664 119.928C91.0915 119.955 91.1078 119.987 91.1134 120.022C91.119 120.056 91.1137 120.091 91.098 120.123C91.0824 120.155 91.0571 120.183 91.025 120.202C90.9929 120.222 90.9553 120.233 90.9166 120.234Z" fill="#37474F"/>
<path d="M106.615 62.4886C104.399 62.3318 102.173 62.3171 99.9542 62.4448C98.9582 62.4581 97.9778 62.6699 97.0834 63.0648C96.5135 63.3922 96.0222 63.8191 95.6384 64.3202C95.2545 64.8213 94.9859 65.3865 94.8483 65.9826C94.5843 67.1741 94.4999 68.3923 94.5972 69.6042C94.7147 73.565 95.0426 76.946 95.5164 80.8849C99.8854 83.1571 105.639 84.233 110.498 82.9857C110.567 77.8796 110.288 72.4782 109.146 67.4743C108.741 65.6653 108.154 63.7104 106.615 62.4886Z" fill="#455A64"/>
<path opacity="0.3" d="M106.615 62.4886C104.399 62.3318 102.173 62.3171 99.9542 62.4448C98.9582 62.4581 97.9778 62.6699 97.0834 63.0648C96.5135 63.3922 96.0222 63.8191 95.6384 64.3202C95.2545 64.8213 94.9859 65.3865 94.8483 65.9826C94.5843 67.1741 94.4999 68.3923 94.5972 69.6042C94.7147 73.565 95.0426 76.946 95.5164 80.8849C99.8854 83.1571 105.639 84.233 110.498 82.9857C110.567 77.8796 110.288 72.4782 109.146 67.4743C108.741 65.6653 108.154 63.7104 106.615 62.4886Z" fill="white"/>
<path d="M119.819 72.6533C119.874 72.1137 119.781 71.5703 119.546 71.0713C119.311 70.5724 118.943 70.1335 118.475 69.7939L110.417 63.9329C109.326 63.1364 108.009 62.6311 106.615 62.474L105.825 62.4193C105.105 63.0211 104.789 67.3065 108.036 69.0462L115.041 72.7299L114.972 80.8375L112.575 83.303C112.532 83.3459 112.501 83.3974 112.484 83.4534C112.467 83.5094 112.465 83.5681 112.479 83.6248C112.492 83.6815 112.52 83.7345 112.561 83.7794C112.602 83.8243 112.654 83.8598 112.713 83.8829C112.851 83.9411 113.004 83.963 113.155 83.9462C113.306 83.9294 113.449 83.8746 113.567 83.7881L114.345 83.2155C113.863 84.0324 113.442 84.9625 112.96 85.7685C112.84 85.9271 112.78 86.1165 112.79 86.3083C112.806 86.3893 112.842 86.466 112.895 86.5328C112.949 86.5997 113.018 86.6551 113.098 86.6949C113.255 86.776 113.431 86.8257 113.612 86.8408C114.245 86.9077 114.886 86.8049 115.454 86.5454C116.021 86.2864 116.522 85.9236 116.924 85.4804C117.694 84.6457 118.155 83.6155 118.244 82.5335C118.968 79.2683 119.494 75.97 119.819 72.6533Z" fill="#FFA8A7"/>
<path d="M98.5046 60.9385V61.595C98.4861 62.076 98.3878 62.5517 98.213 63.0065C98.1399 63.1979 98.1399 63.4059 98.213 63.5973C98.288 63.7582 98.4023 63.9018 98.5474 64.0173C98.6926 64.1329 98.8648 64.2175 99.0512 64.2648C99.4213 64.3541 99.8093 64.3654 100.185 64.2976C101.309 64.125 102.329 63.6022 103.068 62.8205L102.902 58.3308L98.5046 60.9385Z" fill="#FFA8A7"/>
<path opacity="0.2" d="M102.019 60.2821C102.376 59.7206 102.604 59.1006 102.691 58.4585L98.5046 60.9349V61.5914C98.5006 61.7834 98.4803 61.9748 98.4438 62.164C99.0342 62.0718 99.6096 61.9137 100.157 61.6935C100.917 61.3968 101.565 60.9062 102.019 60.2821Z" fill="black"/>
<path d="M93.8604 53.6552C93.3821 53.6692 92.9087 53.5647 92.4918 53.3531C92.0749 53.1415 91.7303 52.831 91.4958 52.4553C91.4626 52.4001 91.448 52.3375 91.4539 52.275C91.4598 52.2125 91.4859 52.1529 91.529 52.1037C91.5721 52.0544 91.6302 52.0176 91.6963 51.9977C91.7623 51.9779 91.8334 51.9759 91.9007 51.9921C92.2315 52.0449 92.57 52.0449 92.9008 51.9921C92.5192 51.5448 92.2404 51.0335 92.0805 50.4881C91.9206 49.9427 91.8828 49.3741 91.9695 48.8154C91.9802 48.7533 92.0069 48.6943 92.0476 48.6432C92.0882 48.5921 92.1416 48.5503 92.2035 48.5212C92.2653 48.4921 92.3339 48.4765 92.4037 48.4756C92.4735 48.4748 92.5425 48.4887 92.6052 48.5163C93.978 49.1296 95.5055 49.4075 97.0349 49.3223C97.8448 49.2713 98.6546 49.1145 99.4644 49.0598C100.279 48.9688 101.106 49.0824 101.853 49.388C102.229 49.5434 102.551 49.7883 102.783 50.0961C103.016 50.404 103.151 50.7632 103.173 51.135C103.266 51.0159 103.387 50.9164 103.527 50.8434C103.667 50.7704 103.822 50.7255 103.983 50.7119C104.151 50.6936 104.322 50.7065 104.484 50.7498C104.646 50.7931 104.797 50.8658 104.927 50.9636L103.526 51.6638C103.788 51.6166 104.061 51.649 104.301 51.7558C104.541 51.8627 104.736 52.0381 104.854 52.2547C105.06 52.6791 105.148 53.1421 105.113 53.6041C105.139 54.2132 105.11 54.8231 105.024 55.4277C104.932 56.039 104.665 56.6184 104.25 57.1091C103.886 57.5102 103.399 57.8068 102.849 57.9625C102.101 58.1507 101.307 58.1278 100.574 57.8968C99.846 57.6681 99.1534 57.3568 98.5129 56.9705C96.8525 55.9961 95.2952 54.8864 93.8604 53.6552Z" fill="#263238"/>
<path d="M93.7712 52.4334C93.302 54.9719 93.6128 57.5776 94.6701 59.9684C94.8627 60.5416 95.2634 61.0399 95.8079 61.3835C96.4071 61.6935 97.1522 61.6279 97.8324 61.5367C98.942 61.4239 100.024 61.1492 101.035 60.7234C102.055 60.2906 102.85 59.5197 103.254 58.5716C103.616 58.6381 103.992 58.6087 104.337 58.4871C104.681 58.3654 104.978 58.1566 105.194 57.8859C105.621 57.324 105.842 56.6556 105.825 55.9748C105.825 55.5444 105.736 55.0338 105.307 54.8441C105.096 54.7861 104.872 54.7809 104.658 54.8291C104.444 54.8773 104.248 54.977 104.092 55.1177C103.516 55.5353 103.093 56.0996 102.878 56.737C102.562 55.683 102.068 54.6654 101.752 53.615C101.681 53.1879 101.439 52.7988 101.072 52.5209C100.582 52.2364 99.942 52.4005 99.3751 52.5209C97.5294 52.9226 95.6003 52.8924 93.7712 52.4334Z" fill="#FFA8A7"/>
<path d="M97.1766 55.6283L95.812 57.7035L97.4397 57.9771L97.1766 55.6283Z" fill="#F28F8F"/>
<path d="M99.011 58.6919L97.772 59.2353C97.8781 59.3621 98.0273 59.4541 98.1969 59.4976C98.3664 59.541 98.547 59.5335 98.7114 59.476C98.8544 59.3968 98.9625 59.2753 99.0172 59.1323C99.0718 58.9893 99.0696 58.8336 99.011 58.6919Z" fill="#F28F8F"/>
<path opacity="0.3" d="M99.011 58.6919L97.772 59.2353C97.8781 59.3621 98.0273 59.4541 98.1969 59.4976C98.3664 59.541 98.547 59.5335 98.7114 59.476C98.8544 59.3968 98.9625 59.2753 99.0172 59.1323C99.0718 58.9893 99.0696 58.8336 99.011 58.6919Z" fill="black"/>
<path d="M98.2817 59.5235C98.4257 59.5488 98.5748 59.5362 98.7109 59.487C98.8244 59.4295 98.9165 59.3431 98.9755 59.2386C99.0346 59.1342 99.0581 59.0163 99.043 58.8998C98.8661 58.8982 98.6942 58.9524 98.5571 59.053C98.4789 59.1111 98.4143 59.1826 98.367 59.2634C98.3197 59.3441 98.2908 59.4325 98.2817 59.5235Z" fill="#F28F8F"/>
<path d="M99.5289 55.7122C99.5414 55.7958 99.5259 55.8809 99.4843 55.9565C99.4427 56.0321 99.377 56.0947 99.2955 56.1364C99.2141 56.1781 99.1207 56.1969 99.0273 56.1904C98.9339 56.1839 98.8448 56.1525 98.7715 56.1C98.6981 56.0476 98.6438 55.9766 98.6156 55.8961C98.5874 55.8157 98.5865 55.7294 98.6131 55.6485C98.6396 55.5676 98.6925 55.4957 98.7648 55.4421C98.8371 55.3885 98.9255 55.3555 99.0188 55.3475C99.14 55.3351 99.2618 55.3666 99.3574 55.435C99.4531 55.5033 99.5147 55.603 99.5289 55.7122Z" fill="#263238"/>
<path d="M95.6135 55.931C95.6255 55.9886 95.624 56.0478 95.6093 56.1049C95.5945 56.162 95.5668 56.2157 95.5278 56.2626C95.4888 56.3095 95.4394 56.3486 95.3827 56.3775C95.326 56.4063 95.2633 56.4242 95.1986 56.43C95.1338 56.4358 95.0684 56.4295 95.0065 56.4113C94.9447 56.3932 94.8876 56.3637 94.8391 56.3247C94.7905 56.2856 94.7515 56.2379 94.7245 56.1846C94.6975 56.1313 94.6831 56.0735 94.6822 56.0149C94.6805 55.909 94.7231 55.8063 94.8014 55.7273C94.8797 55.6483 94.9881 55.5986 95.1051 55.588C95.2221 55.5775 95.3393 55.6069 95.4334 55.6704C95.5275 55.7339 95.5918 55.8269 95.6135 55.931Z" fill="#263238"/>
<path d="M94.9738 54.3043L94.0101 55.0338C93.9527 54.9222 93.9343 54.7976 93.9575 54.6764C93.9806 54.5552 94.0442 54.4432 94.1397 54.3554C94.2593 54.277 94.401 54.2306 94.5486 54.2216C94.6962 54.2126 94.8436 54.2412 94.9738 54.3043Z" fill="#263238"/>
<path d="M98.9541 53.8886L100.06 54.4393C100.092 54.3203 100.083 54.1953 100.033 54.0812C99.984 53.967 99.8971 53.8692 99.7842 53.801C99.6501 53.7463 99.5019 53.7255 99.3556 53.7409C99.2094 53.7563 99.0705 53.8074 98.9541 53.8886Z" fill="#263238"/>
<path d="M99.262 78.5179C99.262 78.4158 99.262 78.3173 99.2337 78.2188C99.0976 77.3776 98.6947 76.5897 98.0733 75.9498C97.452 75.3099 96.6387 74.8453 95.7312 74.6118L89.7061 71.3293L85.657 69.5057L83.9888 70.6911C83.6133 70.9539 83.3317 71.3103 83.179 71.7159C82.9828 72.2574 83.0287 72.8464 83.3069 73.3578C83.5852 73.8693 84.0738 74.2628 84.6691 74.455L94.3869 77.5405C95.0224 78.139 95.4258 78.9067 95.5369 79.7288C95.5625 79.97 95.6154 80.2084 95.6948 80.44C95.8309 80.715 96.0623 80.9428 96.3543 81.0895C96.6463 81.2361 96.9831 81.2936 97.3144 81.2533C97.6424 81.2082 97.9541 81.0946 98.2248 80.9218C98.4954 80.7489 98.7175 80.5215 98.8733 80.2576C99.1859 79.7234 99.3208 79.1194 99.262 78.5179Z" fill="#FFA8A7"/>
<path d="M96.0142 74.6118V74.0829H95.585V74.2762L94.6699 73.7948C94.5746 73.7448 94.4663 73.7185 94.3561 73.7185C94.2458 73.7185 94.1375 73.7448 94.0423 73.7948L92.5158 74.5899V74.3601L92.1108 74.393V74.9145C92.1112 74.9472 92.1211 74.9793 92.1396 75.0075C92.158 75.0356 92.1845 75.0589 92.2161 75.075L93.4713 75.7315C93.5671 75.78 93.6752 75.8055 93.7851 75.8055C93.8951 75.8055 94.0032 75.78 94.099 75.7315L95.9413 74.7723C95.9716 74.7569 95.9969 74.7347 96.0146 74.7078C96.0324 74.681 96.042 74.6504 96.0425 74.6191L96.0142 74.6118Z" fill="#4957CC"/>
<path d="M94.026 73.3608L92.4671 74.1741C92.4392 74.1875 92.4158 74.2074 92.3995 74.2318C92.3831 74.2563 92.3745 74.2842 92.3745 74.3127C92.3745 74.3412 92.3831 74.3692 92.3995 74.3936C92.4158 74.418 92.4392 74.438 92.4671 74.4513L93.5361 75.0057C93.6171 75.0487 93.7093 75.0713 93.8033 75.0713C93.8973 75.0713 93.9896 75.0487 94.0706 75.0057L95.6335 74.1924C95.6604 74.1782 95.6827 74.158 95.6982 74.1337C95.7137 74.1094 95.7219 74.0818 95.7219 74.0538C95.7219 74.0257 95.7137 73.9982 95.6982 73.9739C95.6827 73.9496 95.6604 73.9293 95.6335 73.9152L94.5605 73.3608C94.4796 73.3178 94.3873 73.2952 94.2933 73.2952C94.1993 73.2952 94.107 73.3178 94.026 73.3608Z" fill="#4957CC"/>
<path opacity="0.3" d="M96.0142 74.6118V74.0829H95.585V74.2762L94.6699 73.7948C94.5746 73.7448 94.4663 73.7185 94.3561 73.7185C94.2458 73.7185 94.1375 73.7448 94.0423 73.7948L92.5158 74.5899V74.3601L92.1108 74.393V74.9145C92.1112 74.9472 92.1211 74.9793 92.1396 75.0075C92.158 75.0356 92.1845 75.0589 92.2161 75.075L93.4713 75.7315C93.5671 75.78 93.6752 75.8055 93.7851 75.8055C93.8951 75.8055 94.0032 75.78 94.099 75.7315L95.9413 74.7723C95.9716 74.7569 95.9969 74.7347 96.0146 74.7078C96.0324 74.681 96.042 74.6504 96.0425 74.6191L96.0142 74.6118Z" fill="black"/>
<path d="M94.0224 73.2734L92.1881 74.2289C92.1561 74.2451 92.1294 74.2686 92.1109 74.2972C92.0923 74.3257 92.0825 74.3582 92.0825 74.3912C92.0825 74.4243 92.0923 74.4568 92.1109 74.4853C92.1294 74.5138 92.1561 74.5374 92.1881 74.5535L93.4555 75.2064C93.5513 75.255 93.6594 75.2805 93.7693 75.2805C93.8792 75.2805 93.9873 75.255 94.0831 75.2064L95.9255 74.2472C95.9565 74.2303 95.9821 74.2065 95.9999 74.178C96.0177 74.1496 96.0271 74.1175 96.0271 74.0849C96.0271 74.0522 96.0177 74.0201 95.9999 73.9917C95.9821 73.9633 95.9565 73.9395 95.9255 73.9226L94.6702 73.2734C94.5726 73.2199 94.4606 73.1917 94.3463 73.1917C94.2321 73.1917 94.12 73.2199 94.0224 73.2734Z" fill="#4957CC"/>
<path opacity="0.5" d="M94.026 73.3608L92.4671 74.1741C92.4392 74.1875 92.4158 74.2074 92.3995 74.2318C92.3831 74.2563 92.3745 74.2842 92.3745 74.3127C92.3745 74.3412 92.3831 74.3692 92.3995 74.3936C92.4158 74.418 92.4392 74.438 92.4671 74.4513L93.5361 75.0057C93.6171 75.0487 93.7093 75.0713 93.8033 75.0713C93.8973 75.0713 93.9896 75.0487 94.0706 75.0057L95.6335 74.1924C95.6604 74.1782 95.6827 74.158 95.6982 74.1337C95.7137 74.1094 95.7219 74.0818 95.7219 74.0538C95.7219 74.0257 95.7137 73.9982 95.6982 73.9739C95.6827 73.9496 95.6604 73.9293 95.6335 73.9152L94.5605 73.3608C94.4796 73.3178 94.3873 73.2952 94.2933 73.2952C94.1993 73.2952 94.107 73.3178 94.026 73.3608Z" fill="white"/>
<path d="M93.3339 77.1976C93.0869 76.9897 92.9533 75.8554 93.4432 75.4871L92.188 74.8342C91.7831 75.2974 91.8843 76.2931 92.1111 76.7964C92.1377 76.854 92.178 76.9057 92.229 76.9479C92.2801 76.9901 92.3407 77.0218 92.4067 77.0408C92.6496 77.1137 93.0586 77.2414 93.2165 77.2888C93.2648 77.3044 93.3164 77.3102 93.3675 77.3058C93.4186 77.3014 93.468 77.2869 93.5121 77.2632L93.3339 77.1976Z" fill="#455A64"/>
</svg>
